<svg width="141" height="52" viewBox="0 0 141 52" fill="none" xmlns="http://www.w3.org/2000/svg">
<path d="M115.939 24.2569H112.309L109.589 16.5769H104.599V24.2569H101.199V5.27686H110.609C111.669 5.27686 113.249 5.87686 114.099 6.53686C117.429 9.10686 116.559 14.3569 112.789 16.0269L115.929 24.2569H115.939ZM104.609 13.8669H109.029C109.129 13.8669 110.549 13.5869 110.739 13.5369C112.929 12.8869 113.259 9.60686 111.269 8.47686C111.109 8.38686 110.019 7.99686 109.939 7.99686H104.609V13.8769V13.8669Z" fill="#003C6C"/>
<path d="M139.729 9.10689L136.909 9.80689C136.369 9.72689 135.919 8.54689 135.139 8.16689C132.979 7.11689 128.579 8.26689 130.019 11.0069C131.319 13.4669 138.379 12.1169 140.139 16.2869C143.999 25.4469 127.199 27.8069 125.229 19.7469L128.479 19.0469C129.099 22.6069 136.849 22.8369 136.999 19.3869C137.149 15.9369 129.659 16.5969 127.499 14.2069C125.339 11.8169 126.089 7.71689 128.829 6.03689C132.009 4.08689 138.879 4.76689 139.729 9.10689Z" fill="#003C6C"/>
<path d="M76.9594 11.8269L73.7694 11.9569C72.3894 5.84688 66.3394 6.55688 65.8394 12.8369C65.7494 13.9569 65.7594 15.7669 65.8794 16.8869C66.4894 22.7469 72.5194 23.5769 73.7994 17.7169L76.5894 17.9669L76.9194 18.4469C76.3294 21.3669 74.6194 23.7569 71.5794 24.4369C59.6694 27.0669 59.1294 6.17688 68.4894 5.08688C73.3094 4.52688 76.2494 7.22688 76.9594 11.8369V11.8269Z" fill="#003C6C"/>
<path d="M99.1694 8.21686H93.9594V24.2669H90.3294V8.21686H85.1194V5.27686H98.8294C99.5094 5.99686 99.0394 7.27686 99.1694 8.21686Z" fill="#003C6C"/>
<path d="M83.0794 5.27686H79.6794V24.2569H83.0794V5.27686Z" fill="#003C6C"/>
<path d="M122.959 5.27686H119.559V24.2569H122.959V5.27686Z" fill="#003C6C"/>
<path d="M75.4794 27.6469C77.6394 28.0069 78.3494 30.4569 76.9594 32.0769C76.6694 32.4169 76.0994 32.2369 76.2694 32.8469C79.4594 33.5769 78.1194 38.0469 75.2494 38.0469H69.8094L69.4694 37.7069V27.6469C71.2894 27.8569 73.7394 27.3569 75.4794 27.6469ZM71.5194 31.9469C72.5294 31.8569 75.1794 32.3569 75.5594 31.1069C76.2794 28.7669 73.0694 28.8069 71.5494 29.2569L71.5194 31.9469ZM75.0294 33.5269C74.2094 33.2969 72.4594 33.6969 71.5194 33.5269V36.4669C72.7694 36.3769 75.4694 36.9169 75.9594 35.3469C76.1694 34.6769 75.5694 33.6869 75.0394 33.5269H75.0294Z" fill="#003C6C"/>
<path d="M91.2394 27.6469C91.9694 27.7269 93.0394 27.4269 93.6394 27.8569C94.4094 28.4169 96.9694 32.9669 97.7594 34.1269C97.8994 34.3269 97.7194 34.5369 98.2694 34.4169V27.6369H99.8594V38.0369L97.9194 37.8269C96.3194 35.7369 94.9694 33.1369 93.3594 31.0869C93.2094 30.9069 93.3594 30.6769 92.8394 30.7969V38.0269C92.2894 38.0069 91.6194 38.1969 91.2494 37.6869V27.6269L91.2394 27.6469Z" fill="#003C6C"/>
<path d="M132.099 36.6169C130.129 34.2169 130.559 29.3769 133.609 27.9769C141.139 24.5469 143.509 37.4469 136.459 38.0469C134.919 38.1769 133.119 37.8569 132.099 36.6169ZM135.139 29.0569C132.639 29.6269 132.399 35.2769 134.749 36.3569C139.339 38.4569 139.899 27.9869 135.139 29.0569Z" fill="#003C6C"/>
<path d="M80.8094 47.7669V41.4369H82.3994V50.8169C81.9594 51.3569 81.0494 51.2969 80.5694 50.8369L76.0594 44.3769V50.8169C75.6894 51.3269 75.0194 51.1369 74.4694 51.1569V41.4369C75.0094 41.4869 75.6394 41.3469 76.1594 41.4369C77.3794 41.6669 79.5794 46.8369 80.8094 47.7569V47.7669Z" fill="#003C6C"/>
<path d="M85.5294 27.6869L89.1894 38.0469L87.1394 37.9469L86.2694 35.7069L82.0894 35.6069C80.9794 36.8169 81.6494 38.5269 79.2194 38.0569L82.8694 28.0269C83.3894 27.3669 84.7294 27.7169 85.5294 27.7069V27.6869ZM82.3994 33.9769H85.5694L84.0894 29.9069C83.6294 29.8069 83.7694 30.0869 83.6494 30.3569C83.1294 31.5069 82.8894 32.8169 82.3894 33.9769H82.3994Z" fill="#003C6C"/>
<path d="M111.859 38.0469L109.629 38.0169C109.489 37.9269 109.189 36.4369 108.969 36.0769C108.409 35.1469 105.429 35.5969 104.359 35.7069L103.649 37.7769L101.889 38.0569L105.509 27.7669L108.129 27.8869L111.869 38.0569L111.859 38.0469ZM108.009 33.9769C107.959 33.3769 106.809 29.6869 106.539 29.6869L104.839 33.9769H108.009Z" fill="#003C6C"/>
<path d="M125.879 27.6769L129.539 38.0369L127.489 37.9369L126.619 35.6869L122.089 35.5769C121.639 37.1069 121.569 38.4569 119.569 38.0369L123.229 27.6769H125.889H125.879ZM122.739 33.9769H125.909L124.429 29.6769C123.979 29.5869 124.099 29.8469 123.989 30.1369C123.499 31.3769 123.139 32.7069 122.729 33.9769H122.739Z" fill="#003C6C"/>
<path d="M92.1394 43.4669C90.3794 44.2469 89.8794 42.6569 88.1794 42.7769C87.5494 42.8169 86.8394 43.1469 86.6894 43.8169C86.5594 45.1569 89.8594 45.2669 90.8994 45.7269C92.2294 46.3069 92.8194 47.2969 92.5794 48.7669C92.0894 51.8869 84.7594 52.0869 84.2094 48.6669C85.9394 47.8069 86.0694 49.0169 86.9394 49.4469C88.2894 50.1069 91.4494 49.5269 90.3394 47.8569C89.3994 46.4369 84.0194 47.5869 84.7094 43.6369C85.2294 40.6569 91.4094 40.5869 92.1394 43.4669Z" fill="#003C6C"/>
<path d="M140.189 41.4369V43.0169H135.429L135.449 45.2569L139.149 45.4769L139.279 46.8569H135.429V49.5769H140.189V51.1569H133.729L133.389 50.8169V41.4369H140.189Z" fill="#003C6C"/>
<path d="M117.299 41.4369V47.8769C117.299 49.5669 119.879 50.1869 120.809 49.1169C121.649 48.1469 120.869 43.3069 121.189 41.8069C121.379 41.2469 122.259 41.4669 122.739 41.4369V48.7769C122.739 48.9669 122.109 50.0469 121.889 50.2469C120.459 51.5469 117.369 51.4569 116.069 49.9969C115.969 49.8869 115.489 49.0569 115.489 48.9969V41.4269H117.299V41.4369Z" fill="#003C6C"/>
<path d="M119.789 27.6469V29.2269H116.839V38.0369H114.569V29.2269H111.399C111.419 28.6769 111.229 28.0069 111.739 27.6469H119.789Z" fill="#003C6C"/>
<path d="M101.209 41.4369V43.0169L98.6294 43.0069C98.5294 43.0369 98.2594 43.7469 98.2594 43.8069V51.1469C97.5794 51.0869 96.6994 51.3969 96.2194 50.8069V43.0069H93.4994V41.4269H101.209V41.4369Z" fill="#003C6C"/>
<path d="M113.899 41.4369V43.0169H111.179V50.8169C110.729 51.3469 109.589 51.3469 109.139 50.8169V43.0169H106.189V41.4369H113.899Z" fill="#003C6C"/>
<path d="M71.7494 41.4369V50.8169C71.2994 51.3469 70.1594 51.3469 69.7094 50.8169V41.4369H71.7494Z" fill="#003C6C"/>
<path d="M104.599 41.4369H102.789V50.9269H104.599V41.4369Z" fill="#003C6C"/>
<path d="M131.919 41.5469V43.1269H129.199V50.9269C128.749 51.4569 127.609 51.4569 127.159 50.9269V43.1269H124.209V41.5469H131.919Z" fill="#003C6C"/>
<path d="M62.2141 48.661L66.1236 47.2641L66.1271 47.8173L65.0578 48.1758L65.0672 49.677L66.141 50.0221L66.1444 50.5753L62.2177 49.2276L62.2141 48.661ZM64.6421 49.5535L64.6343 48.3074L62.7906 48.9421L64.6421 49.5535ZM66.1029 44.403L62.8455 46.1369L63.3019 46.1206L66.1136 46.1029L66.1164 46.5514L62.2144 46.5759L62.2105 45.9609L65.4438 44.2191L65.0437 44.2324L62.1998 44.2503L62.197 43.8018L66.099 43.7772L66.1029 44.403ZM65.6627 41.8721C65.6599 41.4246 65.5226 41.0906 65.2509 40.8703C64.9773 40.6482 64.6006 40.5387 64.1208 40.5417C63.7574 40.544 63.4552 40.6104 63.2144 40.7408C62.9717 40.8712 62.7974 41.063 62.6916 41.3161C62.621 41.4849 62.5865 41.6811 62.5879 41.9049L62.5916 42.5038L65.6665 42.4844L65.6627 41.8721ZM66.0965 42.9598L62.1703 42.9845L62.1636 41.913C62.1608 41.4636 62.2614 41.0923 62.4654 40.7992C62.6695 40.5043 62.9519 40.2939 63.3128 40.1681C63.554 40.0825 63.8223 40.0387 64.1177 40.0369C64.5724 40.034 64.9552 40.1256 65.2661 40.3116C65.577 40.4959 65.8025 40.7558 65.9424 41.0916C66.0388 41.3201 66.0879 41.5794 66.0897 41.8695L66.0965 42.9598ZM62.561 36.3437L62.5674 37.3696L62.1431 37.3723L62.1272 34.8452L62.5515 34.8425L62.558 35.8684L66.0652 35.8463L66.0682 36.3217L62.561 36.3437ZM64.2085 33.5608L66.0373 33.5493L66.0404 34.0273L62.1168 34.052L62.1138 33.5739L63.7842 33.5634L63.7731 31.8017L62.1028 31.8123L62.0998 31.3396L66.0233 31.3149L66.0263 31.7876L64.1974 31.7991L64.2085 33.5608ZM66.0182 30.5082L62.092 30.5329L62.0773 28.1858L62.5016 28.1831L62.5133 30.0522L63.7621 30.0444L63.7513 28.3283L64.1756 28.3257L64.1864 30.0417L65.5936 30.0328L65.5813 28.0751L66.0029 28.0725L66.0182 30.5082Z" fill="#003C6C"/>
<path d="M10.7735 26.5L26.9427 13.4748C28.1256 12.5219 28.9367 11.1842 29.2345 9.69479L29.4135 8.80009C29.6523 7.60595 29.7222 6.38418 29.6211 5.1706L29.3484 1.89828C29.3011 1.33077 28.9973 0.815886 28.5235 0.5C28.0753 0.201217 27.4865 0.221805 27.0602 0.551157L5.7735 17C0.773514 20.5 -4.2265 28.5 5.7735 34.5L27.2735 50.5C27.2735 50.5 29.6054 49.3534 29.7735 47C30.2735 40 27.7735 39 27.7735 39L10.7735 26.5Z" fill="#003C6C"/>
<path d="M48.2233 17.1683L39.5509 10.2024C38.9182 9.69423 38.4842 8.97998 38.3246 8.18437L38.2287 7.7059C38.1005 7.06687 38.063 6.41297 38.1173 5.76347L38.2633 4.01587C38.2887 3.7119 38.4517 3.43619 38.7057 3.26733C38.9461 3.1075 39.2617 3.11852 39.4904 3.29473L50.9043 12.0891C53.5852 13.9604 56.2662 18.2376 50.9043 21.4455L39.376 30C39.376 30 38.1256 29.3869 38.0355 28.1287C37.7674 24.3861 39.1079 23.8515 39.1079 23.8515L48.2233 17.1683Z" fill="#003C6C"/>
<path d="M48.2233 26.1683L39.5509 19.2024C38.9182 18.6942 38.4842 17.98 38.3246 17.1844L38.2287 16.7059C38.1005 16.0669 38.063 15.413 38.1173 14.7635L38.2633 13.0159C38.2887 12.7119 38.4517 12.4362 38.7057 12.2673C38.9461 12.1075 39.2617 12.1185 39.4904 12.2947L50.9043 21.0891C53.5852 22.9604 56.2662 27.2376 50.9043 30.4455L39.376 39C39.376 39 38.1256 38.3869 38.0355 37.1287C37.7674 33.3861 39.1079 32.8515 39.1079 32.8515L48.2233 26.1683Z" fill="#003C6C"/>
</svg>
