<svg width="1214" height="106" viewBox="0 0 1214 106" fill="none" xmlns="http://www.w3.org/2000/svg">
<path d="M18.0801 83.8805C13.9201 83.8805 10.5334 83.1072 7.92008 81.5605C5.30678 79.9605 3.54675 77.8005 2.64008 75.0805L3.20008 75.2405V83.0005H0.240078V67.7205H3.12008C3.17341 71.7205 4.26678 74.9205 6.40008 77.3205C8.58678 79.7205 12.3468 80.9205 17.6801 80.9205C21.8934 80.9205 24.9601 80.0405 26.8801 78.2805C28.8534 76.4672 29.8401 74.1205 29.8401 71.2405C29.8401 68.3072 29.1468 66.1472 27.7601 64.7605C26.3734 63.3738 23.9734 62.4138 20.5601 61.8805L12.8001 60.6005C8.48008 59.9072 5.28008 58.5472 3.20008 56.5205C1.12008 54.4405 0.0800781 51.6405 0.0800781 48.1205C0.0800781 45.8805 0.586748 43.8005 1.60008 41.8805C2.66675 39.9605 4.32008 38.4138 6.56008 37.2405C8.80008 36.0672 11.6268 35.4805 15.0401 35.4805C18.9334 35.4805 22.0801 36.2538 24.4801 37.8005C26.9334 39.3472 28.5601 41.4005 29.3601 43.9605H28.7201V36.2805H31.6801V49.3205H28.8001C28.7468 46.1205 27.6001 43.5072 25.3601 41.4805C23.1201 39.4538 19.8134 38.4405 15.4401 38.4405C12.6668 38.4405 10.4268 38.8938 8.72008 39.8005C7.01338 40.6538 5.78678 41.8005 5.04008 43.2405C4.29338 44.6805 3.92008 46.2538 3.92008 47.9605C3.92008 50.4672 4.66678 52.4672 6.16008 53.9605C7.65338 55.4005 9.97338 56.3605 13.1201 56.8405L20.8801 58.2005C25.4134 58.8938 28.6668 60.2272 30.6401 62.2005C32.6668 64.1738 33.6801 67.0272 33.6801 70.7605C33.6801 73.3205 33.0934 75.5872 31.9201 77.5605C30.7468 79.5338 29.0134 81.0805 26.7201 82.2005C24.4268 83.3205 21.5468 83.8805 18.0801 83.8805ZM38.7695 83.0005V80.2805H44.6095L59.8095 39.0805H53.6495V36.3605H73.0095V39.0805H66.8495L82.0495 80.2805H87.8895V83.0005H72.0495V80.2805H78.2895L72.0495 63.1605L73.5695 64.0405H53.6495L54.5295 63.1605L48.2895 80.2805H54.5295V83.0005H38.7695ZM54.6895 62.4405L54.1295 61.4805H72.2095L71.8095 62.4405L63.4095 39.3205H63.1695L54.6895 62.4405ZM91.1826 83.0005V80.2805H97.6631V39.0805H91.1826V36.3605H101.263L131.423 77.1605V39.0805H124.943V36.3605H141.343V39.0805H134.783V83.0005H131.183L101.023 42.1205V80.2805H107.583V83.0005H91.1826ZM157.758 83.0005V80.2805H165.198V39.0805H148.958V51.3205H145.998V36.3605H188.078V51.3205H185.118V39.0805H168.958V80.2805H176.318V83.0005H157.758ZM186.894 83.0005V80.2805H192.734L207.934 39.0805H201.774V36.3605H221.134V39.0805H214.974L230.174 80.2805H236.014V83.0005H220.174V80.2805H226.414L220.174 63.1605L221.694 64.0405H201.774L202.654 63.1605L196.414 80.2805H202.654V83.0005H186.894ZM202.814 62.4405L202.254 61.4805H220.334L219.934 62.4405L211.534 39.3205H211.294L202.814 62.4405ZM286.941 83.8005C281.874 83.8005 277.474 82.7872 273.741 80.7605C270.007 78.7338 267.101 75.9072 265.021 72.2805C262.994 68.6538 261.981 64.4672 261.981 59.7205C261.981 54.9738 262.994 50.7872 265.021 47.1605C267.101 43.5338 269.954 40.6805 273.581 38.6005C277.207 36.5205 281.421 35.4805 286.221 35.4805C290.967 35.4805 294.967 36.5205 298.221 38.6005C301.474 40.6805 303.821 43.6138 305.261 47.4005L304.061 47.0805V36.3605H306.941V49.7205H304.301C302.647 45.8272 300.274 43.0005 297.181 41.2405C294.087 39.4805 290.541 38.6005 286.541 38.6005C282.434 38.6005 278.834 39.5072 275.741 41.3205C272.647 43.1338 270.221 45.6405 268.461 48.8405C266.754 51.9872 265.901 55.6405 265.901 59.8005C265.901 63.9605 266.754 67.6138 268.461 70.7605C270.221 73.9072 272.674 76.3605 275.821 78.1205C278.967 79.8272 282.674 80.6805 286.941 80.6805C291.047 80.6805 294.461 79.8805 297.181 78.2805C299.954 76.6805 302.274 74.1205 304.141 70.6005L307.101 72.2005C305.021 76.1472 302.327 79.0805 299.021 81.0005C295.714 82.8672 291.687 83.8005 286.941 83.8005ZM314.854 83.0005V80.2805H321.334V39.0805H314.854V36.3605H338.854C343.601 36.3605 347.148 37.4805 349.494 39.7205C351.894 41.9605 353.094 45.1605 353.094 49.3205C353.094 53.4805 351.894 56.6805 349.494 58.9205C347.148 61.1605 343.654 62.2805 339.014 62.2805H337.814L339.574 61.0805L351.414 80.2805H358.054V83.0005H348.774L335.974 62.2805H329.014V59.5605H338.054C342.161 59.5605 345.041 58.6272 346.694 56.7605C348.348 54.8938 349.174 52.4138 349.174 49.3205C349.174 46.2272 348.348 43.7472 346.694 41.8805C345.094 40.0138 342.214 39.0805 338.054 39.0805H325.094V80.2805H331.654V83.0005H314.854ZM387.309 83.8805C383.575 83.8805 380.295 83.2405 377.469 81.9605C374.642 80.6272 372.455 78.6005 370.909 75.8805C369.415 73.1072 368.669 69.5605 368.669 65.2405V39.0805H362.189V36.3605H378.989V39.0805H372.429V65.1605C372.429 68.8938 373.042 71.9338 374.269 74.2805C375.549 76.5738 377.309 78.2272 379.549 79.2405C381.789 80.2538 384.402 80.7605 387.389 80.7605C390.429 80.7605 393.069 80.2538 395.309 79.2405C397.602 78.2272 399.362 76.5738 400.589 74.2805C401.869 71.9338 402.509 68.8938 402.509 65.1605V39.0805H396.029V36.3605H412.429V39.0805H405.869V65.2405C405.869 69.6138 405.095 73.1872 403.549 75.9605C402.055 78.6805 399.922 80.6805 397.149 81.9605C394.375 83.2405 391.095 83.8805 387.309 83.8805ZM420.774 83.0005V80.6805L452.534 39.0805H424.854V51.3205H421.894V36.3605H457.254V38.6805L425.494 80.2805H455.414V66.3605H458.374V83.0005H420.774ZM487.433 83.0005V80.2805H493.913V39.0805H487.433V36.3605H525.432V49.6405H522.553V39.0805H497.673V57.4005H513.513V51.0005H516.313V67.0005H513.513V60.2005H497.673V80.2805H505.913V83.0005H487.433ZM556.226 83.8005C551.373 83.8005 547.106 82.7872 543.426 80.7605C539.746 78.7338 536.866 75.9072 534.786 72.2805C532.76 68.6005 531.746 64.4138 531.746 59.7205C531.746 54.9738 532.76 50.7872 534.786 47.1605C536.866 43.5338 539.746 40.6805 543.426 38.6005C547.106 36.5205 551.373 35.4805 556.226 35.4805C561.133 35.4805 565.426 36.5205 569.106 38.6005C572.786 40.6805 575.64 43.5338 577.666 47.1605C579.746 50.7872 580.786 54.9738 580.786 59.7205C580.786 64.4138 579.746 68.6005 577.666 72.2805C575.64 75.9072 572.786 78.7338 569.106 80.7605C565.426 82.7872 561.133 83.8005 556.226 83.8005ZM556.226 80.6805C560.386 80.6805 563.986 79.8272 567.026 78.1205C570.12 76.3605 572.52 73.9338 574.226 70.8405C575.933 67.6938 576.786 64.0138 576.786 59.8005C576.786 55.6405 575.933 51.9605 574.226 48.7605C572.52 45.5605 570.12 43.0805 567.026 41.3205C563.986 39.5072 560.386 38.6005 556.226 38.6005C552.12 38.6005 548.52 39.5072 545.426 41.3205C542.386 43.0805 539.986 45.5605 538.226 48.7605C536.52 51.9605 535.666 55.6405 535.666 59.8005C535.666 64.0138 536.52 67.6938 538.226 70.8405C539.986 73.9338 542.386 76.3605 545.426 78.1205C548.52 79.8272 552.12 80.6805 556.226 80.6805ZM612.945 83.8005C608.092 83.8005 603.825 82.7872 600.145 80.7605C596.465 78.7338 593.585 75.9072 591.505 72.2805C589.478 68.6005 588.465 64.4138 588.465 59.7205C588.465 54.9738 589.478 50.7872 591.505 47.1605C593.585 43.5338 596.465 40.6805 600.145 38.6005C603.825 36.5205 608.092 35.4805 612.945 35.4805C617.852 35.4805 622.145 36.5205 625.825 38.6005C629.505 40.6805 632.358 43.5338 634.385 47.1605C636.465 50.7872 637.505 54.9738 637.505 59.7205C637.505 64.4138 636.465 68.6005 634.385 72.2805C632.358 75.9072 629.505 78.7338 625.825 80.7605C622.145 82.7872 617.852 83.8005 612.945 83.8005ZM612.945 80.6805C617.105 80.6805 620.705 79.8272 623.745 78.1205C626.838 76.3605 629.238 73.9338 630.945 70.8405C632.652 67.6938 633.505 64.0138 633.505 59.8005C633.505 55.6405 632.652 51.9605 630.945 48.7605C629.238 45.5605 626.838 43.0805 623.745 41.3205C620.705 39.5072 617.105 38.6005 612.945 38.6005C608.838 38.6005 605.238 39.5072 602.145 41.3205C599.105 43.0805 596.705 45.5605 594.945 48.7605C593.238 51.9605 592.385 55.6405 592.385 59.8005C592.385 64.0138 593.238 67.6938 594.945 70.8405C596.705 73.9338 599.105 76.3605 602.145 78.1205C605.238 79.8272 608.838 80.6805 612.945 80.6805ZM644.464 83.0005V80.2805H650.944V39.0805H644.464V36.3605H667.744C673.877 36.3605 678.784 37.3738 682.464 39.4005C686.144 41.4272 688.784 44.2272 690.384 47.8005C692.037 51.3205 692.864 55.3205 692.864 59.8005C692.864 64.2272 692.037 68.2005 690.384 71.7205C688.784 75.1872 686.17 77.9338 682.544 79.9605C678.917 81.9872 674.037 83.0005 667.904 83.0005H644.464ZM654.704 80.2805H667.424C672.97 80.2805 677.29 79.4005 680.384 77.6405C683.477 75.8805 685.664 73.4538 686.944 70.3605C688.224 67.2672 688.864 63.7472 688.864 59.8005C688.864 55.8538 688.197 52.3338 686.864 49.2405C685.584 46.0938 683.37 43.6138 680.224 41.8005C677.13 39.9872 672.864 39.0805 667.424 39.0805H654.704V80.2805ZM721.808 83.0005V80.2805H728.288V39.0805H721.808V36.3605H731.888L762.048 77.1605V39.0805H755.568V36.3605H771.968V39.0805H765.408V83.0005H761.808L731.648 42.1205V80.2805H738.208V83.0005H721.808ZM898.149 83.0005V80.2805H905.589V39.0805H889.349V51.3205H886.389V36.3605H928.469V51.3205H925.509V39.0805H909.349V80.2805H916.709V83.0005H898.149ZM955.479 83.0005V80.2805H961.959V39.0805H955.479V36.3605H982.279C986.599 36.3605 989.959 37.2672 992.359 39.0805C994.76 40.8405 995.96 43.7205 995.96 47.7205C995.96 49.9072 995.51 51.8005 994.6 53.4005C993.746 54.9472 992.599 56.1738 991.159 57.0805C989.773 57.9338 988.306 58.4138 986.759 58.5205L986.279 58.0405C989.106 58.0938 991.399 58.7072 993.159 59.8805C994.97 61.0538 996.33 62.5738 997.24 64.4405C998.15 66.2538 998.6 68.2005 998.6 70.2805C998.6 74.3338 997.4 77.4805 995 79.7205C992.653 81.9072 989.213 83.0005 984.679 83.0005H955.479ZM965.719 80.2805H983.639C987.533 80.2805 990.333 79.3472 992.039 77.4805C993.746 75.6138 994.6 73.1338 994.6 70.0405C994.6 67.1605 993.746 64.7605 992.039 62.8405C990.333 60.8672 987.533 59.8805 983.639 59.8805H965.719V80.2805ZM965.719 57.0805H982.839C985.826 57.0805 988.093 56.2538 989.639 54.6005C991.239 52.8938 992.039 50.7072 992.039 48.0405C992.039 44.9472 991.186 42.6805 989.479 41.2405C987.826 39.8005 985.106 39.0805 981.319 39.0805H965.719V57.0805ZM1031.38 83.8005C1026.53 83.8005 1022.26 82.7872 1018.58 80.7605C1014.9 78.7338 1012.02 75.9072 1009.94 72.2805C1007.92 68.6005 1006.9 64.4138 1006.9 59.7205C1006.9 54.9738 1007.92 50.7872 1009.94 47.1605C1012.02 43.5338 1014.9 40.6805 1018.58 38.6005C1022.26 36.5205 1026.53 35.4805 1031.38 35.4805C1036.29 35.4805 1040.58 36.5205 1044.26 38.6005C1047.94 40.6805 1050.8 43.5338 1052.82 47.1605C1054.9 50.7872 1055.94 54.9738 1055.94 59.7205C1055.94 64.4138 1054.9 68.6005 1052.82 72.2805C1050.8 75.9072 1047.94 78.7338 1044.26 80.7605C1040.58 82.7872 1036.29 83.8005 1031.38 83.8005ZM1031.38 80.6805C1035.54 80.6805 1039.14 79.8272 1042.18 78.1205C1045.28 76.3605 1047.68 73.9338 1049.38 70.8405C1051.09 67.6938 1051.94 64.0138 1051.94 59.8005C1051.94 55.6405 1051.09 51.9605 1049.38 48.7605C1047.68 45.5605 1045.28 43.0805 1042.18 41.3205C1039.14 39.5072 1035.54 38.6005 1031.38 38.6005C1027.28 38.6005 1023.68 39.5072 1020.58 41.3205C1017.54 43.0805 1015.14 45.5605 1013.38 48.7605C1011.68 51.9605 1010.82 55.6405 1010.82 59.8005C1010.82 64.0138 1011.68 67.6938 1013.38 70.8405C1015.14 73.9338 1017.54 76.3605 1020.58 78.1205C1023.68 79.8272 1027.28 80.6805 1031.38 80.6805ZM1062.9 83.0005V80.2805H1069.38V39.0805H1062.9V36.3605H1073.7L1091.86 72.4405H1090.9L1108.82 36.3605H1119.7V39.0805H1113.22V80.2805H1119.7V83.0005H1104.02V80.2805H1109.78V41.7205L1092.1 77.3205H1090.58L1072.74 41.7205V80.2805H1078.5V83.0005H1062.9ZM1125.95 83.0005V80.2805H1132.43V39.0805H1125.95V36.3605H1152.75C1157.07 36.3605 1160.43 37.2672 1162.83 39.0805C1165.23 40.8405 1166.43 43.7205 1166.43 47.7205C1166.43 49.9072 1165.97 51.8005 1165.07 53.4005C1164.21 54.9472 1163.07 56.1738 1161.63 57.0805C1160.24 57.9338 1158.77 58.4138 1157.23 58.5205L1156.75 58.0405C1159.57 58.0938 1161.87 58.7072 1163.63 59.8805C1165.44 61.0538 1166.8 62.5738 1167.71 64.4405C1168.61 66.2538 1169.07 68.2005 1169.07 70.2805C1169.07 74.3338 1167.87 77.4805 1165.47 79.7205C1163.12 81.9072 1159.68 83.0005 1155.15 83.0005H1125.95ZM1136.19 80.2805H1154.11C1158 80.2805 1160.8 79.3472 1162.51 77.4805C1164.21 75.6138 1165.07 73.1338 1165.07 70.0405C1165.07 67.1605 1164.21 64.7605 1162.51 62.8405C1160.8 60.8672 1158 59.8805 1154.11 59.8805H1136.19V80.2805ZM1136.19 57.0805H1153.31C1156.29 57.0805 1158.56 56.2538 1160.11 54.6005C1161.71 52.8938 1162.51 50.7072 1162.51 48.0405C1162.51 44.9472 1161.65 42.6805 1159.95 41.2405C1158.29 39.8005 1155.57 39.0805 1151.79 39.0805H1136.19V57.0805ZM1197.61 83.8805C1193.45 83.8805 1190.06 83.1072 1187.45 81.5605C1184.84 79.9605 1183.08 77.8005 1182.17 75.0805L1182.73 75.2405V83.0005H1179.77V67.7205H1182.65C1182.7 71.7205 1183.8 74.9205 1185.93 77.3205C1188.12 79.7205 1191.88 80.9205 1197.21 80.9205C1201.42 80.9205 1204.49 80.0405 1206.41 78.2805C1208.38 76.4672 1209.37 74.1205 1209.37 71.2405C1209.37 68.3072 1208.68 66.1472 1207.29 64.7605C1205.9 63.3738 1203.5 62.4138 1200.09 61.8805L1192.33 60.6005C1188.01 59.9072 1184.81 58.5472 1182.73 56.5205C1180.65 54.4405 1179.61 51.6405 1179.61 48.1205C1179.61 45.8805 1180.12 43.8005 1181.13 41.8805C1182.2 39.9605 1183.85 38.4138 1186.09 37.2405C1188.33 36.0672 1191.16 35.4805 1194.57 35.4805C1198.46 35.4805 1201.61 36.2538 1204.01 37.8005C1206.46 39.3472 1208.09 41.4005 1208.89 43.9605H1208.25V36.2805H1211.21V49.3205H1208.33C1208.28 46.1205 1207.13 43.5072 1204.89 41.4805C1202.65 39.4538 1199.34 38.4405 1194.97 38.4405C1192.2 38.4405 1189.96 38.8938 1188.25 39.8005C1186.54 40.6538 1185.32 41.8005 1184.57 43.2405C1183.82 44.6805 1183.45 46.2538 1183.45 47.9605C1183.45 50.4672 1184.2 52.4672 1185.69 53.9605C1187.18 55.4005 1189.5 56.3605 1192.65 56.8405L1200.41 58.2005C1204.94 58.8938 1208.2 60.2272 1210.17 62.2005C1212.2 64.1738 1213.21 67.0272 1213.21 70.7605C1213.21 73.3205 1212.62 75.5872 1211.45 77.5605C1210.28 79.5338 1208.54 81.0805 1206.25 82.2005C1203.96 83.3205 1201.08 83.8805 1197.61 83.8805Z" fill="#003C6C"/>
<path d="M829 6C856.614 6 879 28.3858 879 56C879 83.6142 856.614 106 829 106C801.386 106 779 83.6142 779 56C779 28.3858 801.386 6 829 6ZM829 10C803.595 10 783 30.5949 783 56C783 81.4051 803.595 102 829 102C854.405 102 875 81.4051 875 56C875 30.5949 854.405 10 829 10Z" fill="#003C6C"/>
<path d="M847.636 99.8358C847.319 99.9269 847.061 100.105 846.307 100.6C840.483 101.319 835.168 101.535 829.959 102.393C826.674 102.935 825.315 101.675 824.564 98.8756C823.669 95.5434 822.746 92.2188 821.776 88.5536C818.787 85.1493 815.858 82.0827 812.816 78.657C812.709 77.5463 812.714 76.7945 812.798 75.7277C813.504 74.5773 814.133 73.742 815.086 72.9257C816.19 72.2742 808.324 75.1691 809.5 74.5C812.276 73.7377 806.843 71.3002 808 65.5C808.715 64.772 816.114 48.5275 817 48C817.79 47.3252 825.168 41.623 826 41C832.386 41.409 830.173 39.8873 831.5 41.5C834.13 39.9866 837.402 68.3188 839.987 66.8195C840.034 66.4639 839.938 66.2017 839.829 65.6826C839.806 65.2544 836.008 65.0722 836 64.5C834.903 61.8006 843.244 58.7821 838.711 56.6389C837.97 55.55 836.429 55.5641 835.836 54.5C835.839 54.2543 825.571 49.5583 825.899 49.5C827.001 48.1555 841.389 41.1769 842.5 40C845.383 41.3098 845.533 51.5748 848.297 52.8209C848.514 52.8665 848.926 53.0305 848.751 53.3747C848.483 54.7688 848.154 55.8614 848.336 56.8614C849.574 63.6733 851.553 70.516 846.357 76.8806C842.572 79.0903 842.292 81.9953 844.002 85.3677C845.179 87.6882 846.365 90.0039 847.53 92.6783C847.59 93.9828 847.667 94.9307 847.615 96.0025C847.572 96.4354 847.657 96.7445 847.707 97.4002C847.66 98.4432 847.648 99.1395 847.636 99.8358Z" fill="#003C6C"/>
<path d="M821.833 88.8926C822.743 92.2204 823.666 95.5449 824.561 98.8771C825.312 101.677 832.774 101.636 830.484 102.364C824.263 103.138 821.259 103.138 821.259 103.138L821.141 102.364C820.619 97.0538 820.269 93.502 820.16 89.8203C820.878 89.4245 821.356 89.1585 821.833 88.8926Z" fill="#003C6C"/>
<path d="M848.493 89.9941C849.356 92.2542 850.218 94.5143 851.651 98.2695C851.651 98.3058 851.651 98.3058 851.651 98.2876C851.651 98.2693 851.651 98.2695 851.651 98.3058C851.981 99.0601 852.3 99.6341 852.3 99.6341C851.068 100.612 850.108 99.8473 847.971 99.952C847.648 99.1025 847.66 98.4061 847.728 97.0692C847.77 96.2329 847.757 96.0373 847.744 95.8416C847.667 94.8937 847.59 93.9458 847.609 92.3308C847.968 91.1072 848.231 90.5507 848.493 89.9941Z" fill="#003C6C"/>
<path d="M878.847 30.2634C878.393 31.155 877.94 31.6297 877.072 32.5515C875.801 34.7083 874.945 36.4181 874.09 38.1278C873.688 38.2005 873.287 38.2731 872.885 38.3458C872.643 36.532 872.4 34.7183 872.259 33.6626C870.679 33.4232 869.28 33.2111 867.844 32.6106C867.749 31.7064 867.691 31.1906 867.541 30.4424C867.28 29.7382 867.11 29.2664 867.171 28.568C867.068 26.7848 870.374 23.942 865.821 23.6243C865.818 23.2066 865.817 23.0394 865.816 22.8723C867.27 22.0885 868.723 21.3047 870.798 20.1855C871.478 21.5151 872.156 22.8426 872.559 24.564C871.967 25.2523 871.651 25.5469 871.335 25.8415C871.538 26.0133 871.742 26.1852 871.945 26.357C872.237 25.8598 872.53 25.3626 872.823 24.8653C876.435 24.5849 879.761 24.6519 878.847 30.2634Z" fill="#003C6C"/>
<path d="M849.791 15.8704C849.476 15.4165 849.162 14.9626 849.042 14.0328C848.758 12.9868 848.281 12.4167 847.782 11.5606C847.457 10.8186 847.155 10.3626 846.853 9.9065C847.076 8.71402 847.3 7.52153 847.9 5.9722C848.519 5.41343 848.693 5.16381 849.059 4.74809C849.816 4.3469 850.313 4.06412 851.074 3.76916C851.513 3.72276 851.686 3.68853 851.859 3.6543C851.859 3.6543 851.893 3.74543 851.84 4.1164C852.127 5.27447 852.466 6.06157 853.102 6.86514C853.862 7.20663 854.326 7.53165 854.789 7.85667C849.404 8.68959 855.632 11.6159 853.89 13.8388C853.849 15.3542 853.763 16.1277 853.513 16.9062C853.349 16.911 853.019 16.8959 852.698 16.7792C851.514 16.3985 850.653 16.1344 849.791 15.8704Z" fill="#003C6C"/>
<path d="M854.857 8.20154C854.326 7.53113 853.863 7.20611 853.212 6.65891C853.201 6.17127 853.432 5.96726 853.885 5.75747C854.128 5.59898 854.285 5.47526 854.264 5.42221C854.181 5.21524 854.043 5.03065 853.901 4.51484C853.86 3.97685 853.842 3.76175 853.824 3.54665C853.824 3.54665 853.784 3.21745 854.036 3.03742C854.457 2.85154 854.626 2.84569 854.795 2.83984C856.605 3.71018 858.775 4.20277 860.157 5.52181C864.269 9.44821 863.861 10.6049 857.901 12.757C856.947 11.4075 855.936 9.97722 854.857 8.20154Z" fill="#003C6C"/>
<path d="M848.799 4.86632C848.693 5.16363 848.519 5.41325 848.081 5.73454C847.584 5.36694 847.282 4.87997 846.794 3.96016C846.327 3.62534 846.047 3.72338 845.767 3.82142C845.767 3.82142 845.286 3.84335 845.037 3.84409C844.789 3.84483 844.77 3.82945 844.77 3.82945C844.77 2.52696 844.77 1.22448 844.77 0C847.17 0.471567 849.196 0.86985 851.238 1.55547C851.253 1.84281 850.798 1.8727 850.458 1.92983C849.679 2.94675 849.239 3.90653 848.799 4.86632Z" fill="#003C6C"/>
<path d="M853.677 16.9002C853.763 16.1267 853.849 15.3531 853.935 14.1875C854.811 14.3008 855.688 14.806 856.712 15.9765C857.846 17.4604 858.833 18.2791 859.677 19.2769C859.303 19.6728 859.04 19.8368 858.378 19.9274C857.276 19.8951 856.541 19.8834 855.794 19.5575C855.446 18.7464 855.109 18.2495 854.655 17.5564C854.335 17.1193 854.081 16.9556 853.755 16.8844C853.732 16.8996 853.677 16.9002 853.677 16.9002Z" fill="#003C6C"/>
<path d="M859.821 19.0974C858.833 18.2788 857.846 17.4601 856.833 16.2721C857.302 15.9201 857.798 15.9374 858.988 15.9437C860.34 15.9409 860.996 15.9492 861.652 15.9574C861.652 15.9574 861.743 16.4128 861.76 16.9538C861.774 17.9187 861.771 18.3426 861.442 18.8153C860.685 18.9419 860.253 19.0197 859.821 19.0974Z" fill="#003C6C"/>
<path d="M865.44 22.8731C865.817 23.0415 865.818 23.2087 865.813 23.8858C865.801 24.5687 865.795 24.7416 865.518 25.0145C864.771 25.7009 864.294 26.2873 863.544 26.9642C863.085 27.1088 862.901 27.1629 862.553 26.982C862.624 25.9077 862.858 25.0685 863.166 23.9602C862.343 23.9602 861.607 23.9602 860.859 23.6166C861.167 22.4726 861.488 21.6722 861.814 20.8696C861.82 20.8675 861.839 20.8633 861.839 20.8633C861.838 21.0318 861.837 21.2003 861.952 21.8298C862.255 22.5494 862.502 22.72 862.81 22.8025C863.562 22.8255 864.313 22.8486 865.44 22.8731Z" fill="#003C6C"/>
<path d="M861.767 18.7658C861.771 18.342 861.774 17.9182 861.815 17.1787C862.692 17.1585 863.531 17.4539 864.37 17.7493C863.747 18.7489 863.125 19.7485 862.171 20.8052C861.839 20.8623 861.82 20.8665 861.814 20.518C861.795 19.7016 861.781 19.2337 861.767 18.7658Z" fill="#003C6C"/>
<path d="M847.804 11.8457C848.281 12.4158 848.758 12.986 849.013 13.7454C848.288 13.9006 847.786 13.8666 846.904 13.8C846.568 13.6011 846.612 13.4347 846.905 12.9461C847.405 12.4653 847.572 12.2436 847.693 11.9308C847.73 11.9027 847.804 11.8457 847.804 11.8457Z" fill="#003C6C"/>
<path d="M853.491 3.60938C853.842 3.76289 853.86 3.97798 853.833 4.7594C853.765 5.49242 853.741 5.65914 853.717 5.82585C853.432 5.96839 853.201 6.17241 852.915 6.64357C852.466 6.06218 852.127 5.2751 851.801 4.14482C852.262 3.75808 852.71 3.71451 853.491 3.60938Z" fill="#003C6C"/>
<path d="M861.684 15.6771C860.996 15.9491 860.34 15.9409 859.36 15.9401C859.93 15.7641 860.823 15.5804 861.684 15.6771Z" fill="#003C6C"/>
<path d="M846.825 10.2324C847.155 10.3613 847.458 10.8174 847.782 11.5594C847.804 11.8453 847.73 11.9023 847.477 11.9039C847.224 11.9056 846.787 11.8742 846.787 11.8742C846.79 11.436 846.793 10.9978 846.825 10.2324Z" fill="#003C6C"/>
<path d="M850.798 1.87136C850.798 1.87136 851.253 1.84147 851.48 1.82617C851.746 2.22117 851.786 2.63147 851.843 3.34728C851.686 3.68701 851.513 3.72125 851.071 3.45017C850.801 2.72036 850.8 2.29586 850.798 1.87136Z" fill="#003C6C"/>
<path d="M846.017 3.83076C846.047 3.72157 846.327 3.62354 846.687 3.69339C846.766 3.86127 846.266 3.84192 846.017 3.83076Z" fill="#003C6C"/>
<path d="M854.696 2.68614C854.626 2.84396 854.457 2.84981 854.035 2.86989C854.053 2.76746 854.326 2.65081 854.696 2.68614Z" fill="#003C6C"/>
<path d="M844.796 3.8534C844.7 3.88452 844.595 3.90648 844.63 3.87864C844.77 3.82885 844.789 3.84423 844.796 3.8534Z" fill="#003C6C"/>
<path d="M846.776 12.0962C846.787 11.8748 847.224 11.9061 847.44 11.9326C847.572 12.2438 847.405 12.4655 846.951 12.6922C846.749 12.7604 846.765 12.3175 846.776 12.0962Z" fill="#003C6C"/>
<path d="M862.699 22.6083C862.502 22.7201 862.255 22.5496 861.977 22.0815C862.168 21.9906 862.402 22.1712 862.699 22.6083Z" fill="#003C6C"/>
<path d="M838.856 56.9112C843.244 58.7839 838.691 61.8134 839.427 64.431C838.346 62.9683 837.627 61.1865 837.302 60.3829C834.531 61.3069 832.133 62.1064 829.751 62.4985C828.862 59.9329 827.955 57.7748 826.978 55.2684C825.76 52.5587 824.612 50.1973 823.569 47.4926C824.712 45.0648 825.751 42.9802 826.789 40.8957C828.138 40.8338 829.486 40.7719 831.277 41.0901C831.739 42.2829 831.76 43.0956 831.735 44.2653C831.385 47.05 831.08 49.4777 830.821 52.259C832.166 53.3825 833.464 54.1525 834.82 55.2444C836.203 56.0146 837.53 56.4629 838.856 56.9112Z" fill="#003C6C"/>
<path d="M838.759 16.1426C841.527 16.4843 844.257 17.1316 847.414 18.1087C848.456 19.3099 849.071 20.1813 849.723 21.0219C849.76 20.9911 849.704 20.9121 849.721 21.198C850.087 21.631 850.437 21.778 850.801 22.1311C850.816 22.3372 850.825 22.7503 850.805 23.0624C850.766 23.582 850.746 23.7896 850.446 23.8793C849.401 23.5676 848.637 23.3738 847.556 23.0577C846.79 22.9214 846.339 22.9075 845.644 22.8902C845.07 22.9169 844.748 22.8835 844.289 22.9517C844.145 23.1169 843.756 22.9141 843.987 22.5925C843.966 21.2542 843.714 20.2376 843.369 18.8462C842.275 19.6547 841.426 20.2819 840.578 20.9091C839.033 23.3746 834.594 23.9329 835.428 28.6507C835.128 29.6672 835.176 30.2283 835.224 30.7894C835.692 30.5144 836.16 30.2394 836.629 29.9644C836.977 30.5172 837.325 31.0699 837.673 31.6227C835.612 31.3983 833.551 31.174 831.131 30.9153C830.771 30.881 830.771 30.8807 830.771 30.8807C832.068 28.4076 833.366 25.9344 834.663 23.4613C834.18 23.1487 833.696 22.836 833.213 22.5234C832.462 23.1723 831.711 23.8212 830.81 24.6006C827.417 21.5925 829.982 19.6186 832.139 17.0764C832.99 18.2502 833.671 19.188 834.654 20.5431C836.033 19.1542 837.377 17.8011 838.759 16.1426Z" fill="#003C6C"/>
<path d="M853.933 46.1623C852.475 48.3685 851.017 50.5746 849.242 52.9067C848.926 53.0326 848.514 52.8687 848.269 52.4557C847.092 50.7487 846.163 49.4515 845.224 48.1614C843.452 45.7247 841.097 43.4537 842.937 40.0049C845.558 39.6988 848.178 39.3927 851.38 39.3438C852.535 39.7558 853.109 39.9106 853.707 40.3409C853.728 40.985 853.724 41.3536 853.461 41.8921C853.37 42.7052 853.54 43.3482 853.695 44.007C853.681 44.0227 853.662 44.0613 853.696 44.4127C853.798 45.2302 853.866 45.6963 853.933 46.1623Z" fill="#003C6C"/>
<path d="M825.748 68.8733C824.742 74.43 820.923 70.1751 818.123 70.5821C816.032 67.8809 814.362 65.5363 812.318 63.0927C811.186 62.8762 810.427 62.7586 809.668 62.6411C810.516 60.5806 811.364 58.5201 812.827 56.1971C814.165 55.9493 814.887 55.964 815.705 56.3214C817.813 60.3593 819.672 64.1547 821.951 67.6774C822.506 68.5357 824.445 68.4987 825.748 68.8733Z" fill="#003C6C"/>
<path d="M801.732 70.5821C803.636 68.8576 805.54 67.1332 807.899 65.1813C808.51 65.0148 808.666 65.0757 808.972 65.3259C809.686 65.4352 810.249 65.3552 811.133 65.2534C811.882 65.2737 812.309 65.3158 812.88 65.6069C813.656 66.8221 814.287 67.7883 814.883 69.147C814.04 75.0451 811.718 72.6727 809.511 70.1221C808.785 71.2922 808.28 72.1064 807.447 72.966C805.675 73.0058 804.232 73.0003 802.654 72.6946C802.257 71.7903 801.994 71.1862 801.732 70.5821Z" fill="#003C6C"/>
<path d="M831.78 43.908C831.76 43.0953 831.739 42.2826 831.683 41.0652C832.929 35.8031 835.468 35.8862 838.786 39.5919C839.41 42.1988 839.99 44.0668 840.399 46.0726C840.022 46.4373 839.907 46.7033 839.91 47.0028C839.939 46.9973 839.945 47.0557 839.576 47.0401C835.228 49.5676 834.272 44.9079 831.78 43.908Z" fill="#003C6C"/>
<path d="M815.609 55.9759C814.887 55.9612 814.165 55.9466 813.082 55.9553C813.866 52.9853 814.718 49.8246 816.288 47.0739C817.002 45.8235 819.137 45.3847 820.375 44.2166C822.297 43.0053 824.219 41.794 826.465 40.7383C825.751 42.9784 824.712 45.063 823.272 47.5139C822.469 47.9116 822.068 47.943 821.284 47.9262C815.179 48.6003 817.472 52.7313 817.177 55.9006C816.446 55.9293 816.027 55.9526 815.609 55.9759Z" fill="#003C6C"/>
<path d="M853.309 37.8697C851.379 35.9496 849.617 33.8034 847.454 32.1949C846.172 31.2408 844.259 31.1348 842.762 29.5613C844.395 29.2162 846.028 28.8711 847.733 28.2084C847.804 27.8908 847.77 27.904 848.089 27.9073C848.833 27.9499 849.257 27.9893 849.759 28.3504C850.1 29.4063 850.147 30.4098 850.664 30.8251C852.334 32.1643 854.178 33.2868 855.897 34.8232C855.239 36.2255 854.639 37.2975 853.973 38.2191C853.745 37.8905 853.546 37.8241 853.309 37.8697Z" fill="#003C6C"/>
<path d="M840.57 45.9345C839.99 44.0665 839.41 42.1985 838.841 39.9408C839.941 39.6462 841.031 39.7415 842.529 39.9204C841.097 43.4527 843.452 45.7237 845.224 48.1605C846.163 49.4505 847.092 50.7477 848.052 52.4091C845.533 51.5761 842.985 50.3756 840.118 48.7466C839.847 47.8972 839.896 47.4763 839.946 47.0554C839.946 47.0554 839.939 46.997 840.135 46.9158C840.565 46.5755 840.645 46.2755 840.57 45.9345Z" fill="#003C6C"/>
<path d="M840.653 21.2667C841.426 20.2814 842.275 19.6542 843.369 18.8457C843.714 20.2371 843.966 21.2537 843.738 22.698C842.774 23.6508 842.291 24.1759 841.808 24.701C841.448 23.6756 841.088 22.6501 840.653 21.2667Z" fill="#003C6C"/>
<path d="M845.888 22.8945C846.339 22.9084 846.79 22.9223 847.537 23.3679C847.834 24.4183 847.835 25.037 847.587 25.7991C847.143 26.2606 846.947 26.5787 846.608 27.0186C846.466 27.1405 846.194 27.3995 846.194 27.3995C845.383 26.7824 844.572 26.1653 843.78 25.2419C843.798 24.9357 843.734 24.9174 844.088 24.8345C844.925 24.1326 845.406 23.5136 845.888 22.8945Z" fill="#003C6C"/>
<path d="M794.36 74.0996C795.093 74.5598 795.825 75.02 796.883 75.4642C796.578 76.7056 795.949 77.9631 794.966 79.3035C794.462 78.7875 794.312 78.1885 793.918 77.0812C793.671 75.8538 793.67 75.1347 793.842 74.3388C794.016 74.262 794.36 74.0996 794.36 74.0996Z" fill="#003C6C"/>
<path d="M812.656 64.3201C812.229 64.2781 811.802 64.236 810.732 64.1137C809.64 64.0552 809.191 64.077 808.742 64.0989C808.586 64.038 808.431 63.9771 808.026 63.8889C808.189 63.49 808.601 63.1185 809.341 62.6934C810.427 62.7573 811.185 62.8749 812.303 63.3734C812.66 63.943 812.658 64.1315 812.656 64.3201Z" fill="#003C6C"/>
<path d="M793.739 75.9727C793.741 76.6918 793.742 77.4109 793.708 78.4877C793.358 77.7969 793.045 76.7484 793 75.4631C793.458 75.4547 793.614 75.7036 793.739 75.9727Z" fill="#003C6C"/>
<path d="M794.546 75.8426C794.247 75.6503 794.091 75.4015 793.721 75.0451C793.937 74.226 794.333 73.5347 795.094 73.0977C795.488 73.5831 795.517 73.8142 795.545 74.0454C795.437 74.3911 795.329 74.7369 795.142 75.343C795.065 75.6034 794.72 75.7658 794.546 75.8426Z" fill="#003C6C"/>
<path d="M795.127 74.2054C794.843 74.1553 794.814 73.9241 794.723 73.349C795.235 72.678 795.809 72.3509 796.733 72.0977C796.516 72.7891 795.949 73.4068 795.127 74.2054Z" fill="#003C6C"/>
<path d="M853.035 38.1222C853.546 37.8216 853.745 37.8879 853.875 38.6412C853.789 39.4992 853.736 39.7821 853.683 40.065C853.109 39.9102 852.535 39.7553 851.735 39.3994C851.927 38.9246 852.344 38.6509 853.035 38.1222Z" fill="#003C6C"/>
<path d="M836.405 29.8786C836.161 30.2381 835.692 30.5131 835.224 30.7881C835.176 30.227 835.128 29.6658 835.396 29.0488C835.732 29.3395 835.889 29.6065 836.405 29.8786Z" fill="#003C6C"/>
<path d="M842.136 24.8062C842.291 24.1762 842.774 23.6511 843.507 23.02C843.756 22.9139 844.145 23.1168 844.008 23.2298C843.825 23.8674 843.78 24.3919 843.734 24.9163C843.734 24.9163 843.798 24.9346 843.819 24.9088C843.38 24.8923 842.922 24.9017 842.136 24.8062Z" fill="#003C6C"/>
<path d="M847.819 27.8772C847.449 27.8165 847.064 27.766 846.436 27.5567C846.194 27.3979 846.465 27.1389 846.832 27.1211C847.438 27.3336 847.629 27.5994 847.77 27.9007C847.77 27.9007 847.804 27.8875 847.819 27.8772Z" fill="#003C6C"/>
<path d="M830.771 30.8828C830.686 30.9203 830.601 30.9576 830.643 30.9385C830.771 30.8821 830.771 30.8828 830.771 30.8828Z" fill="#003C6C"/>
<path d="M867.882 33.0023C869.28 33.2144 870.679 33.4265 872.259 33.666C872.4 34.7217 872.643 36.5354 872.885 38.3491C873.287 38.2765 873.688 38.2038 874.09 38.1312C874.945 36.4214 875.801 34.7117 876.967 32.9004C877.376 35.8928 877.475 38.9868 877.452 42.5297C875.726 42.6112 874.122 42.2436 872.174 41.8879C871.83 41.8997 871.828 41.9393 871.814 41.632C871.387 40.981 870.974 40.6373 870.561 40.2936C870.322 40.802 870.083 41.3104 869.56 41.8371C869.087 41.8732 868.899 41.8909 868.5 41.8353C868.026 41.5924 867.853 41.3569 867.766 40.705C867.744 40.1216 867.724 39.8887 867.746 39.474C867.789 39.2921 867.897 38.935 868.173 38.8187C868.228 37.8046 868.008 36.9067 867.879 35.7543C867.941 34.6673 867.911 33.8348 867.882 33.0023Z" fill="#003C6C"/>
<path d="M869.103 44.8262C869.325 44.9648 869.515 45.1382 869.379 45.6382C868.982 46.6694 868.879 47.4087 868.839 48.3679C868.943 48.8921 868.943 49.1964 868.738 49.785C868.479 50.2663 868.383 50.4632 867.974 50.6671C866.869 50.7374 866.077 50.8008 865.064 50.7011C864.477 50.5098 864.114 50.4816 863.761 50.4387C863.771 50.424 863.793 50.3917 864.076 50.2425C864.1 49.7032 863.842 49.313 863.397 48.9061C863.21 48.8895 862.838 48.8492 862.807 48.6506C862.776 48.4521 862.733 48.0524 862.964 47.897C863.414 47.4466 863.633 47.1518 864.09 47.0043C864.826 46.7242 865.325 46.2966 865.825 45.8926C865.827 45.9162 865.782 45.9301 865.955 45.7802C866.364 45.4334 866.623 45.274 867.285 45.1974C867.897 45.136 868.128 45.0291 868.548 44.9165C868.736 44.9108 869.103 44.8262 869.103 44.8262Z" fill="#003C6C"/>
<path d="M869.192 44.5506C869.103 44.8266 868.736 44.9112 868.298 44.6214C867.162 44.2057 866.465 44.0799 865.794 43.9331C865.82 43.912 865.825 43.979 865.884 43.7156C865.889 43.2808 865.834 43.1093 865.798 42.9247C865.817 42.9116 865.78 42.9215 866.127 42.8932C867.22 42.5459 867.965 42.227 868.71 41.908C868.898 41.8903 869.087 41.8727 869.89 41.8691C870.945 41.9018 871.386 41.9203 871.828 41.9388C871.828 41.9388 871.83 41.8992 871.81 41.9018C870.953 42.6944 870.118 43.4845 869.192 44.5506Z" fill="#003C6C"/>
<path d="M829.734 62.9079C832.133 62.1083 834.531 61.3088 837.303 60.3848C837.627 61.1884 838.346 62.9702 839.426 64.8338C839.796 65.0869 839.806 65.2582 839.821 65.9296C839.827 66.4297 839.845 66.9167 839.845 66.9167C837.402 68.3226 834.96 69.7285 832.33 71.242C831.003 69.6293 836.542 65.3702 830.147 64.9518C829.775 64.9338 829.759 64.9204 829.762 64.5804C829.762 63.7863 829.759 63.3322 829.764 62.8933C829.772 62.9086 829.734 62.9079 829.734 62.9079Z" fill="#003C6C"/>
<path d="M815.705 56.3194C816.028 55.9533 816.446 55.93 817.373 56.1965C819.696 58.9342 821.43 61.4493 823.361 63.8012C824.309 64.9551 825.626 65.8062 827.016 66.8366C827.257 66.8788 827.743 66.9308 827.743 66.9308C827.178 67.4152 826.614 67.8997 825.899 68.6277C824.445 68.4967 822.506 68.5337 821.951 67.6754C819.672 64.1526 817.813 60.3573 815.705 56.3194Z" fill="#003C6C"/>
<path d="M839.576 47.0389C839.896 47.4753 839.847 47.8962 839.782 48.6362C838.991 50.2417 838.217 51.5279 836.963 52.5734C835.274 50.9262 834.065 49.5196 832.714 47.9471C831.876 49.6562 831.325 50.78 830.774 51.9038C831.08 49.4761 831.385 47.0484 831.735 44.2637C834.272 44.9067 835.228 49.5663 839.576 47.0389Z" fill="#003C6C"/>
<path d="M848.415 89.6783C848.231 90.5919 847.968 91.1484 847.626 92.0154C846.364 90.008 845.179 87.6923 844.002 85.3719C842.292 81.9994 842.572 79.0945 846.357 76.8848C847.252 80.9933 847.794 85.1573 848.415 89.6783Z" fill="#003C6C"/>
<path d="M800.672 73.3291C801.234 72.6999 801.727 72.4546 802.464 72.083C804.152 71.9622 805.595 71.9677 807.658 72.0974C810.406 72.4266 812.534 72.6317 814.689 72.8512C814.717 72.8656 814.761 72.9077 814.761 72.9077C814.133 73.7431 813.504 74.5784 812.798 75.7287C808.861 76.062 805.001 76.0801 800.683 76.0553C800.35 75.2458 800.477 74.4795 800.672 73.3291Z" fill="#003C6C"/>
<path d="M820.163 89.8194C817.437 86.6973 812.735 84.9141 813.04 79.377C815.858 82.0833 818.787 85.15 821.776 88.5542C821.358 89.1576 820.881 89.4235 820.163 89.8194Z" fill="#003C6C"/>
<path d="M830.821 52.2595C831.325 50.7821 831.876 49.6583 832.714 47.9492C834.065 49.5218 835.274 50.9283 836.635 52.6338C836.787 52.9328 836.784 53.4241 836.485 53.6967C835.711 54.2872 835.237 54.6051 834.763 54.923C833.464 54.1531 832.166 53.3831 830.821 52.2595Z" fill="#003C6C"/>
<path d="M812.801 64.5675C812.658 64.1298 812.66 63.9413 812.676 63.4707C814.362 65.5333 816.032 67.8779 817.728 70.5778C816.971 71.6036 816.19 72.274 815.086 72.9255C814.762 72.9065 814.717 72.8644 814.807 72.515C814.877 70.6821 814.858 69.1986 814.838 67.7151C814.207 66.7489 813.577 65.7827 812.801 64.5675Z" fill="#003C6C"/>
<path d="M834.82 55.244C835.237 54.6042 835.711 54.2862 836.481 53.9414C837.373 54.733 837.97 55.5515 838.711 56.6404C837.53 56.4625 836.203 56.0142 834.82 55.244Z" fill="#003C6C"/>
<path d="M828.064 66.8901C827.742 66.9332 827.257 66.8812 827.207 66.6174C828.024 65.8757 828.891 65.3978 829.759 64.9199C829.759 64.9199 829.775 64.9333 829.784 64.9427C829.323 65.5837 828.854 66.2154 828.064 66.8901Z" fill="#003C6C"/>
<path d="M847.615 96.0039C847.757 96.0757 847.771 96.2713 847.763 96.7609C847.657 96.7458 847.572 96.4368 847.615 96.0039Z" fill="#003C6C"/>
<path d="M839.987 66.8224C839.845 66.9158 839.827 66.4288 839.835 66.1855C839.938 66.2045 840.034 66.4668 839.987 66.8224Z" fill="#003C6C"/>
<path d="M867.066 60.7773C866.418 61.5044 865.41 62.1435 865.206 62.9789C864.89 64.275 865.122 65.7048 864.617 67.1481C862.766 64.0887 856.352 64.4007 859.142 58.3804C860.018 58.3443 860.521 58.6559 861.025 58.9675C861.288 56.9494 861.552 54.9312 862.161 52.7758C863.228 52.7237 863.951 52.8089 864.526 53.1596C864.419 53.6235 864.459 53.8219 864.346 54.2661C864.446 55.6387 864.698 56.7654 864.995 58.1975C865.715 59.261 866.391 60.0192 867.066 60.7773Z" fill="#003C6C"/>
<path d="M864.673 52.8955C863.951 52.8103 863.228 52.725 861.883 52.832C860.784 53.326 860.307 53.6278 859.829 53.9296C859.792 52.7692 859.592 51.5869 859.746 50.4525C860.299 46.3811 858.302 45.4066 854.348 46.1591C853.866 45.6968 853.798 45.2309 854.018 44.3236C855.835 43.2108 857.363 42.5391 859.169 41.9062C860.249 42.3742 861.052 42.8032 861.847 43.6559C862.138 45.4039 862.435 46.7284 862.733 48.0529C862.733 48.0529 862.776 48.4525 862.794 48.932C863.124 49.7589 863.437 50.1064 863.75 50.4539C864.114 50.482 864.477 50.5102 865.155 51.0584C865.528 52.0404 865.587 52.5026 865.397 53.0302C864.99 53.0291 864.832 52.9623 864.673 52.8955Z" fill="#003C6C"/>
<path d="M864.526 53.161C864.832 52.9623 864.99 53.0291 865.799 53.0198C867.25 52.9527 868.049 52.9618 868.775 53.0602C868.701 53.1495 868.837 53.3376 868.841 53.3615C868.846 53.3854 868.817 53.3748 868.817 53.3748C869.741 55.3352 870.666 57.2956 871.665 59.4154C870.535 59.8743 869.563 60.2692 868.256 60.3758C868.156 59.3404 868.39 58.5934 868.607 57.4864C867.227 56.0916 865.863 55.0566 864.499 54.0217C864.459 53.8233 864.419 53.6249 864.526 53.161Z" fill="#003C6C"/>
<path d="M859.737 54.2458C860.307 53.6272 860.784 53.3253 861.538 52.9688C861.552 54.9319 861.289 56.9501 861.025 58.9682C860.522 58.6567 860.018 58.3451 859.154 58.0317C859.078 56.8741 859.361 55.7183 859.737 54.2458Z" fill="#003C6C"/>
<path d="M869.201 53.7656C868.817 53.3726 868.846 53.3832 869.19 53.1988C870.93 52.6008 872.326 52.1871 873.722 51.7734C873.738 52.3119 873.753 52.8503 873.738 53.7915C872.334 54.1824 870.959 54.1705 869.201 53.7656Z" fill="#003C6C"/>
<path d="M868.623 57.8457C868.39 58.5927 868.156 59.3398 867.89 60.3808C867.859 60.6748 867.469 60.7792 867.268 60.7786C866.391 60.0199 865.716 59.2617 865.365 58.1969C866.668 57.8754 867.646 57.8605 868.623 57.8457Z" fill="#003C6C"/>
<path d="M868.839 48.3675C869.58 47.8209 870.384 47.4942 871.513 47.0371C872.16 47.7451 872.483 48.5836 872.417 49.7017C870.986 49.821 869.944 49.6606 868.902 49.5003C868.943 49.196 868.943 48.8917 868.839 48.3675Z" fill="#003C6C"/>
<path d="M868.738 49.7853C869.944 49.6612 870.986 49.8216 872.421 50.056C873.058 50.5327 873.302 50.9352 873.634 51.5565C872.326 52.189 870.93 52.6026 869.185 53.1767C868.837 53.3372 868.701 53.1491 868.753 52.7612C868.633 51.8024 868.46 51.2314 868.288 50.6604C868.384 50.4635 868.479 50.2665 868.738 49.7853Z" fill="#003C6C"/>
<path d="M849.686 21.0519C849.071 20.1805 848.456 19.3091 847.753 18.1636C848.329 17.4295 848.993 16.9696 849.724 16.1891C850.653 16.1324 851.515 16.3965 852.626 17.1103C852.845 18.0129 852.815 18.4658 852.5 18.8331C851.372 19.5156 850.529 20.2837 849.686 21.0519Z" fill="#003C6C"/>
<path d="M867.844 32.6135C867.911 33.8344 867.941 34.6668 867.549 35.7006C866.683 35.9203 866.238 35.9387 865.78 35.6166C865.112 34.7792 864.458 34.2824 863.829 33.4792C863.849 32.7635 863.843 32.3542 863.857 31.6822C863.938 31.2543 863.998 31.0892 864.419 30.9239C865.731 30.8418 866.682 30.7598 867.633 30.6777C867.691 31.1935 867.749 31.7093 867.844 32.6135Z" fill="#003C6C"/>
<path d="M867.541 30.4444C866.682 30.7589 865.731 30.8409 864.308 30.6538C863.385 29.7548 862.934 29.1248 862.55 28.1769C862.65 27.6449 862.683 27.4309 862.716 27.2168C862.901 27.1628 863.085 27.1088 863.836 26.9395C864.871 26.5156 865.339 26.2068 866.05 26.1094C866.509 27.146 866.724 27.9713 866.939 28.7966C867.109 29.2684 867.28 29.7402 867.541 30.4444Z" fill="#003C6C"/>
<path d="M867.171 28.5718C866.724 27.9731 866.509 27.1478 866.059 25.8649C865.825 25.4074 865.789 24.9162 865.789 24.9162C865.795 24.7433 865.801 24.5704 865.815 24.1382C870.374 23.9459 867.068 26.7886 867.171 28.5718Z" fill="#003C6C"/>
<path d="M872.825 24.873C872.53 25.3674 872.237 25.8647 871.945 26.3619C871.742 26.1901 871.538 26.0182 871.335 25.8464C871.651 25.5518 871.967 25.2572 872.558 24.9219C872.834 24.8812 872.828 24.8759 872.825 24.873Z" fill="#003C6C"/>
<path d="M852.784 18.92C852.815 18.4672 852.845 18.0143 852.948 17.2283C853.019 16.8953 853.349 16.9103 853.513 16.9055C853.677 16.9007 853.732 16.9001 853.847 17.1051C854.159 17.5902 854.429 17.7378 854.772 17.7531C855.109 18.25 855.446 18.7469 855.796 19.5536C855.809 19.8634 855.824 19.8625 855.495 19.8562C854.36 19.5207 853.553 19.1914 852.773 18.8653C852.8 18.8685 852.784 18.92 852.784 18.92Z" fill="#003C6C"/>
<path d="M850.458 1.92773C850.8 2.2951 850.801 2.7196 850.806 3.46158C850.313 4.06184 849.816 4.34462 849.059 4.74581C849.239 3.90444 849.679 2.94465 850.458 1.92773Z" fill="#003C6C"/>
<path d="M853.885 5.757C853.741 5.65753 853.765 5.49082 853.857 5.08069C854.043 5.03018 854.181 5.21477 854.264 5.42174C854.285 5.47479 854.128 5.59851 853.885 5.757Z" fill="#003C6C"/>
<path d="M855.808 19.8666C856.541 19.8827 857.276 19.8944 858.535 20.2804C859.32 22.7406 859.581 24.8267 859.493 26.7288C857.605 26.3639 856.065 26.183 854.332 25.7306C854.028 24.5847 853.919 23.7102 853.865 22.5305C854.555 21.4373 855.189 20.6493 855.824 19.8613C855.824 19.8613 855.809 19.8622 855.808 19.8666Z" fill="#003C6C"/>
<path d="M859.842 26.9123C859.581 24.8263 859.32 22.7402 858.902 20.3005C859.04 19.8356 859.303 19.6717 859.677 19.2758C860.253 19.0188 860.685 18.9411 861.442 18.8145C861.781 19.2334 861.794 19.7013 861.808 20.5199C861.487 21.671 861.167 22.4714 860.837 23.9912C860.813 25.7195 860.798 26.7284 860.549 27.8284C860.316 27.9196 859.819 27.9819 859.848 27.715C859.866 27.2695 859.854 27.0909 859.842 26.9123Z" fill="#003C6C"/>
<path d="M854.655 17.5573C854.429 17.7383 854.159 17.5907 853.87 17.0903C854.081 16.9566 854.335 17.1202 854.655 17.5573Z" fill="#003C6C"/>
<path d="M860.782 27.7392C860.798 26.7303 860.813 25.7214 860.85 24.3367C861.607 23.9609 862.343 23.9609 863.166 23.9609C862.858 25.0692 862.624 25.9085 862.553 26.9827C862.683 27.4317 862.65 27.6458 862.268 28.0481C861.54 28.0707 861.161 27.905 860.782 27.7392Z" fill="#003C6C"/>
<path d="M865.518 25.0152C865.789 24.9152 865.825 25.4063 865.816 25.6526C865.339 26.2076 864.871 26.5164 864.11 26.8497C864.294 26.288 864.771 25.7016 865.518 25.0152Z" fill="#003C6C"/>
<path d="M821.667 47.9768C822.068 47.9453 822.469 47.9139 823.167 47.8594C824.612 50.1978 825.76 52.5592 826.856 55.3902C826.803 55.8598 826.547 56.0921 826.264 55.9016C824.543 53.133 823.105 50.5549 821.667 47.9768Z" fill="#003C6C"/>
<path d="M826.926 55.7383C827.955 57.7751 828.862 59.9333 829.751 62.4989C829.734 62.9063 829.772 62.907 829.486 62.6966C828.316 60.3548 827.432 58.2234 826.547 56.0919C826.547 56.0919 826.803 55.8597 826.926 55.7383Z" fill="#003C6C"/>
<path d="M853.81 22.8355C853.919 23.71 854.029 24.5845 854.337 25.982C854.635 26.641 854.734 26.7768 854.82 27.1479C854.808 27.3832 854.995 27.8156 855.045 28.1621C855.381 30.5022 855.668 32.4958 855.955 34.4895C854.178 33.2834 852.335 32.1609 850.665 30.8217C850.147 30.4063 850.1 29.4029 849.782 27.963C849.704 26.746 849.682 26.2347 849.758 25.4784C850.147 24.821 850.437 24.4086 850.726 23.9963C850.746 23.7887 850.766 23.5812 851.068 23.1069C851.525 22.813 851.701 22.7858 852.194 22.8243C852.945 22.8719 853.377 22.8537 853.81 22.8355Z" fill="#003C6C"/>
<path d="M851.876 22.7595C851.701 22.7867 851.525 22.8139 851.087 22.7958C850.825 22.7505 850.816 22.3373 850.729 21.8615C850.33 21.2279 850.017 21.0701 849.704 20.9123C849.704 20.9123 849.76 20.9912 849.723 21.022C850.529 20.2847 851.372 19.5165 852.5 18.834C852.784 18.9196 852.8 18.8681 852.782 19.2086C852.468 20.6192 852.172 21.6893 851.876 22.7595Z" fill="#003C6C"/>
<path d="M850.446 23.8787C850.437 24.4089 850.147 24.8212 849.454 25.5178C848.645 25.7528 848.24 25.7035 847.835 25.6543C847.835 25.0355 847.835 24.4168 847.853 23.4888C848.637 23.3733 849.401 23.5671 850.446 23.8787Z" fill="#003C6C"/>
<path d="M844.089 24.8321C843.78 24.3905 843.825 23.866 844.152 23.0632C844.748 22.882 845.07 22.9154 845.644 22.8887C845.407 23.5112 844.925 24.1302 844.089 24.8321Z" fill="#003C6C"/>
<path d="M849.721 21.1975C850.017 21.0694 850.33 21.2272 850.715 21.6547C850.437 21.7774 850.087 21.6304 849.721 21.1975Z" fill="#003C6C"/>
<path d="M855.897 34.8216C855.668 32.4977 855.381 30.5041 855.169 28.0599C855.362 27.2644 855.224 27.0328 854.832 26.9145C854.734 26.7787 854.635 26.6428 854.531 26.2553C856.066 26.1846 857.605 26.3656 859.493 26.7305C859.854 27.093 859.866 27.2716 859.861 28.1209C860.188 31.4777 860.532 34.1637 860.636 37.0596C860.214 38.0864 860.032 38.9033 859.604 39.9163C859.203 40.6973 859.047 41.2824 858.892 41.8674C857.364 42.5391 855.835 43.2107 853.985 43.9721C853.663 44.0619 853.681 44.0233 853.723 43.6296C853.75 42.7314 853.735 42.2271 853.72 41.7227C853.724 41.3541 853.728 40.9855 853.707 40.3414C853.736 39.7831 853.789 39.5002 853.941 38.7926C854.639 37.2959 855.239 36.2239 855.897 34.8216Z" fill="#003C6C"/>
<path d="M853.461 41.8926C853.735 42.227 853.75 42.7314 853.737 43.6138C853.54 43.3488 853.37 42.7057 853.461 41.8926Z" fill="#003C6C"/>
<path d="M814.804 68.1094C814.858 69.2003 812.845 72.7821 812.747 74.6005C810.502 74.7304 808.157 74.9752 805.738 74.6005C805.951 73.6168 808.706 70.2545 809.432 69.0844C811.638 71.635 813.96 74.0075 814.804 68.1094Z" fill="#003C6C"/>
<path d="M808.892 64.2876C809.191 64.0764 809.64 64.0546 810.411 64.1348C810.169 64.3169 809.606 64.3969 808.892 64.2876Z" fill="#003C6C"/>
<path d="M840.399 46.0742C840.645 46.2774 840.565 46.5774 840.106 46.9233C839.907 46.7049 840.022 46.4389 840.399 46.0742Z" fill="#003C6C"/>
<path d="M826.264 55.8989C827.432 58.2209 828.316 60.3523 829.478 62.6789C829.759 63.3281 829.762 63.7822 829.761 64.5763C828.891 65.3942 828.024 65.8721 826.966 66.5716C825.626 65.805 824.309 64.954 823.361 63.8C821.429 61.4482 819.696 58.9331 817.686 56.19C817.472 52.7309 815.179 48.5999 821.284 47.9258C823.105 50.5522 824.543 53.1303 826.264 55.8989Z" fill="#003C6C"/>
<path d="M847.587 25.7989C848.24 25.7047 848.645 25.754 849.354 25.764C849.682 26.2362 849.704 26.7474 849.704 27.6427C849.257 27.9873 848.833 27.9479 848.089 27.9053C847.629 27.6008 847.438 27.335 846.975 27.0006C846.947 26.5784 847.143 26.2603 847.587 25.7989Z" fill="#003C6C"/>
<path d="M865.793 35.9572C866.238 35.9388 866.683 35.9204 867.458 35.9552C868.008 36.9064 868.228 37.8042 867.819 38.8005C866.719 38.8926 866.247 38.8864 865.843 38.5743C865.563 38.0673 865.215 37.866 864.874 37.5015C864.881 37.3382 864.868 37.0115 865.115 36.8105C865.474 36.4285 865.586 36.2474 865.736 36.0523C865.775 36.0382 865.793 35.9572 865.793 35.9572Z" fill="#003C6C"/>
<path d="M867.704 39.6562C867.724 39.8891 867.743 40.122 867.452 40.6898C866.687 41.6573 866.233 42.29 865.78 42.9225C865.78 42.9225 865.817 42.9125 865.438 42.8647C864.85 41.8171 864.64 40.8175 864.401 39.8397C864.373 39.8615 864.305 39.8808 864.734 39.8695C866.009 39.7908 866.857 39.7235 867.704 39.6562Z" fill="#003C6C"/>
<path d="M866.128 42.8928C866.234 42.2886 866.687 41.656 867.455 41.0391C867.853 41.356 868.026 41.5915 868.5 41.8344C867.965 42.2266 867.22 42.5455 866.128 42.8928Z" fill="#003C6C"/>
<path d="M871.814 41.6294C871.386 41.9182 870.945 41.8997 870.174 41.8487C870.083 41.3078 870.322 40.7994 870.561 40.291C870.974 40.6347 871.387 40.9784 871.814 41.6294Z" fill="#003C6C"/>
<path d="M867.746 39.4724C866.857 39.7215 866.009 39.7888 864.84 39.5527C864.937 39.1258 865.356 39.0023 865.775 38.8789C866.247 38.8852 866.718 38.8915 867.544 38.9156C867.897 38.9335 867.788 39.2906 867.746 39.4724Z" fill="#003C6C"/>
<path d="M862.964 47.8985C862.435 46.7295 862.138 45.405 862.214 43.8574C863.667 43.7496 864.746 43.8649 865.825 43.9802C865.825 43.9802 865.82 43.9131 865.644 44.1813C865.57 44.6124 865.673 44.7754 865.843 45.1863C865.867 45.6 865.825 45.7658 865.782 45.9316C865.782 45.9316 865.828 45.9177 865.52 45.8822C864.759 46.1839 864.305 46.5212 863.852 46.8584C863.633 47.1533 863.414 47.4482 862.964 47.8985Z" fill="#003C6C"/>
<path d="M867.974 50.668C868.46 51.232 868.633 51.803 868.827 52.6726C868.049 52.9621 867.25 52.953 866.049 52.9544C865.587 52.5029 865.528 52.0409 865.377 51.222C866.077 50.8017 866.869 50.7383 867.974 50.668Z" fill="#003C6C"/>
<path d="M864.09 47.0027C864.305 46.518 864.759 46.1808 865.518 45.8555C865.325 46.295 864.826 46.7226 864.09 47.0027Z" fill="#003C6C"/>
<path d="M865.777 44.9381C865.673 44.7752 865.57 44.6122 865.618 44.2022C866.465 44.0809 867.163 44.2067 868.11 44.628C868.129 45.0304 867.897 45.1373 867.011 45.0993C866.164 44.949 865.97 44.9435 865.777 44.9381Z" fill="#003C6C"/>
<path d="M863.76 50.4381C863.437 50.1054 863.124 49.7579 862.824 49.1295C862.838 48.8486 863.21 48.889 863.437 49.2745C863.707 49.9037 863.75 50.1474 863.793 50.3911C863.793 50.3911 863.771 50.4234 863.76 50.4381Z" fill="#003C6C"/>
<path d="M865.843 45.1832C865.97 44.9407 866.164 44.9462 866.631 45.051C866.623 45.2725 866.364 45.4319 865.955 45.7787C865.825 45.7628 865.867 45.597 865.843 45.1832Z" fill="#003C6C"/>
<path d="M864.076 50.2419C863.75 50.1473 863.707 49.9036 863.624 49.291C863.842 49.3123 864.1 49.7025 864.076 50.2419Z" fill="#003C6C"/>
<path d="M865.885 43.7138C864.746 43.8619 863.667 43.7466 862.221 43.4309C861.052 42.8013 860.249 42.3722 859.169 41.9043C859.047 41.2804 859.203 40.6953 860.059 39.9487C861.984 39.7964 863.207 39.8057 864.43 39.815C864.64 40.8147 864.85 41.8143 865.419 42.875C865.834 43.1074 865.889 43.2789 865.885 43.7138Z" fill="#003C6C"/>
<path d="M868.607 57.4845C867.646 57.8593 866.668 57.8742 865.32 57.8903C864.698 56.7649 864.446 55.6382 864.346 54.2656C865.863 55.0548 867.227 56.0897 868.607 57.4845Z" fill="#003C6C"/>
<path d="M860.876 36.8493C860.532 34.1633 860.188 31.4773 859.831 28.3874C859.819 27.9835 860.316 27.9213 860.549 27.8301C861.161 27.9046 861.54 28.0704 862.201 28.3657C862.934 29.1253 863.385 29.7552 863.946 30.6544C863.998 31.0887 863.938 31.2539 863.555 31.8582C862.849 33.8486 862.465 35.3998 861.78 36.9224C861.278 36.8789 861.077 36.8641 860.876 36.8493Z" fill="#003C6C"/>
<path d="M862.081 36.9513C862.465 35.4001 862.849 33.8488 863.534 32.1211C863.843 32.354 863.849 32.7633 863.895 33.8848C864.522 35.0866 865.11 35.5764 865.697 36.0661C865.586 36.2472 865.474 36.4282 864.747 36.7365C863.631 36.8566 863.13 36.8494 862.492 36.8658C862.354 36.8894 862.081 36.9513 862.081 36.9513Z" fill="#003C6C"/>
<path d="M865.736 36.0504C865.11 35.5747 864.522 35.085 863.869 34.1895C864.457 34.2805 865.112 34.7774 865.78 35.6147C865.793 35.9553 865.775 36.0363 865.736 36.0504Z" fill="#003C6C"/>
<path d="M852.194 22.8254C852.172 21.6895 852.468 20.6194 852.755 19.2055C853.553 19.1911 854.36 19.5204 855.495 19.856C855.189 20.6502 854.555 21.4382 853.865 22.5314C853.377 22.8548 852.945 22.873 852.194 22.8254Z" fill="#003C6C"/>
<path d="M854.82 27.1492C855.224 27.0322 855.361 27.2639 855.119 27.7129C854.995 27.817 854.808 27.3845 854.82 27.1492Z" fill="#003C6C"/>
<path d="M861.781 36.9219C862.081 36.9506 862.354 36.8887 862.559 37.2262C863.465 37.5971 864.166 37.6305 864.867 37.6638C865.215 37.8651 865.563 38.0663 865.843 38.5734C865.356 39.0026 864.937 39.126 864.411 39.5643C864.305 39.8791 864.373 39.8598 864.402 39.8379C863.207 39.8068 861.984 39.7974 860.306 39.7538C860.032 38.9024 860.214 38.0855 860.636 37.0587C861.078 36.8636 861.279 36.8784 861.781 36.9219Z" fill="#003C6C"/>
<path d="M864.874 37.502C864.166 37.6319 863.465 37.5985 862.697 37.2041C863.13 36.8502 863.631 36.8573 864.5 36.9383C864.868 37.012 864.881 37.3387 864.874 37.502Z" fill="#003C6C"/>
<path d="M801.947 73.401C801.904 72.8923 801.861 72.3837 801.732 71.5033C801.864 70.817 802.08 70.5022 802.578 70.0938C803.121 70.604 803.383 71.208 803.536 72.2387C802.933 72.9105 802.44 73.1557 801.947 73.401Z" fill="#003C6C"/>
<path d="M804.236 74.6008C803.432 74.9656 798.121 76.4621 796.726 76.7916C795.401 76.2961 794.663 76.3051 794.009 75.5846C794.195 74.9785 794.303 74.6326 794.667 74.1059C795.49 73.3073 796.159 72.7145 796.726 72.097C797.829 72.308 802.233 70.0948 802.233 70.5954C802.605 71.4108 808.267 71.2052 808.241 72.0978C810.244 76.6039 804.362 73.8345 804.236 74.6008Z" fill="#003C6C"/>
<path d="M854.474 2.52596L854.5 2.5L854.664 2.58214L855.5 3V6L855 7.5H853L849.5 6.5L848.5 5V3L849.5 1.5H851L854.474 2.52596Z" fill="#003C6C"/>
<path d="M854 3L854.5 2.5L854.664 2.58214M854.664 2.58214L855.5 3V6L855 7.5H853L849.5 6.5L848.5 5V3L849.5 1.5H851L854.664 2.58214Z" stroke="#003C6C"/>
<path d="M844.5 21L850 15.5L871.5 24L873 39L866 47.5L859 45L850 30.5L845 26.5L842 24L844.5 21Z" fill="#003C6C" stroke="#003C6C"/>
<path d="M859.5 60.5L863 42.5L868 48.5H871.5L873 53L869.5 52.5V60L859.5 60.5Z" fill="#003C6C"/>
<path d="M849.5 40L857 39.5L861.5 44.5L850 46.5L849.5 40Z" fill="#003C6C"/>
</svg>
