<svg width="253" height="63" viewBox="0 0 253 63" fill="none" xmlns="http://www.w3.org/2000/svg">
<path d="M63.9345 25.6321V0H73.1096C76.8961 0.0291273 80.2458 2.33019 80.2458 6.40801C80.2458 10.4858 78.1777 11.5636 75.498 12.2044V12.2626C78.9642 12.8452 81.3235 15.088 81.3235 18.758C81.3235 22.428 79.2554 25.6029 73.6921 25.6029H63.9345V25.6321ZM71.828 11.3014C74.799 11.3014 77.7991 10.1363 77.7991 6.64103C77.7991 3.14575 74.7407 2.18455 71.7406 2.1263H66.2647V11.2723H71.828V11.3014ZM66.2355 23.5058H71.8862C76.2845 23.564 78.8477 22.3989 78.8477 18.4667C78.8477 14.5345 75.3233 13.4277 70.5172 13.4277H66.2647V23.5058H66.2355ZM94.8386 13.0782C94.6347 10.1654 93.1492 9.23337 90.6151 9.23337C88.081 9.23337 86.5373 9.90329 86.246 12.3209H83.9741C84.4984 8.67994 87.2363 7.28183 90.6442 7.28183C94.0521 7.28183 97.0231 9.08773 96.9649 13.1656V21.6125C96.9357 22.9815 97.0814 24.4087 97.1396 25.6321H94.9259L94.8677 23.0106H94.8094L94.6929 23.2727C93.9065 24.7582 91.5472 26.1855 89.1296 26.1855C86.712 26.1855 83.2168 24.1757 83.2168 20.6804C83.2168 17.1851 84.6731 16.4278 86.7994 15.5249C89.1879 14.5054 92.2754 14.8549 94.8677 14.7093V13.0782H94.8386ZM89.5374 24.2339C94.1978 24.2339 95.0716 20.3891 94.8677 16.69C91.8385 16.8065 85.5469 16.2239 85.5469 20.7095C85.5469 25.1951 87.382 24.2631 89.5665 24.2631L89.5374 24.2339ZM107.014 7.28183C110.393 7.28183 113.218 8.44693 113.509 12.2044H111.208C111.004 9.96155 108.994 9.23337 106.81 9.23337C104.625 9.23337 102.79 10.0198 102.79 12.117C102.79 14.2141 106.227 14.5054 111.062 16.1948C112.898 16.8356 114.092 18.4376 114.092 20.36C114.092 24.3796 110.363 26.1855 106.606 26.1855C102.849 26.1855 99.965 24.7291 99.9067 20.7969H102.208C102.383 23.4475 104.713 24.2339 107.13 24.2339C109.548 24.2339 111.791 23.1562 111.791 20.6804C111.791 18.2046 108.994 17.7094 106.14 17.0686C103.344 16.3987 100.489 15.5831 100.489 12.2917C100.489 9.00035 103.897 7.31096 107.014 7.31096V7.28183ZM119.742 15.088L128.364 7.80612H131.102L122.102 15.4957L131.83 25.6029H129.121L119.742 15.9618V25.6029H117.616V0H119.742V15.088ZM136.083 2.67971H133.607V0H136.083V2.65059V2.67971ZM135.908 7.83525V25.6321H133.782V7.83525H135.908ZM141.268 25.6321H139.141V11.8257C139.141 10.4567 139.025 9.02947 138.966 7.80612H141.18L141.297 10.4276L141.355 10.4858C142.607 8.27216 144.617 7.25271 146.918 7.25271C152.744 7.25271 153.21 12.4082 153.21 14.4472V25.5738H151.083V14.0685C151.083 10.981 149.307 9.17511 146.394 9.17511C143.481 9.17511 141.297 12.117 141.297 15.321V25.5738L141.268 25.6321ZM63.7597 30.2633H80.9448V34.5159H69.2648V40.5161H80.1875V44.7687H69.2648V51.6136H81.3235V55.8662H63.7597V30.2633ZM89.5956 40.1375L89.6539 40.254C90.7607 38.6228 92.421 37.5451 95.1298 37.5451C97.8387 37.5451 100.344 38.8559 100.984 41.4482C101.276 42.555 101.334 43.691 101.334 44.2735V55.8662H96.0037V45.1474C95.9745 43.225 95.4502 41.0695 92.7997 41.0695C90.1491 41.0695 89.683 42.555 89.5956 45.1474V55.8662H84.2653V38.0694H89.5374V40.1375H89.5956ZM121.694 54.2933C121.694 58.4586 120.762 62.9733 112.956 62.915C109.024 62.915 104.8 61.9538 104.684 57.177H109.723C109.781 58.779 111.208 59.3906 112.664 59.3906C116.713 59.3906 116.568 55.6915 116.364 53.0991H116.305C115.199 54.8468 113.334 55.5458 111.296 55.5458C106.46 55.5458 103.985 51.002 103.985 46.662C103.985 42.322 106.577 37.5451 111.529 37.5451C116.48 37.5451 115.432 38.3316 116.276 40.1375H116.335V38.0694H121.665V54.2933H121.694ZM112.956 51.9923C115.869 51.9923 116.393 49.0213 116.393 46.7202C116.393 44.4192 115.869 41.1278 112.956 41.1278C110.043 41.1278 109.519 44.0988 109.519 46.7202C109.519 49.3417 110.043 51.9923 112.956 51.9923ZM130.956 30.2633V34.8363H125.277V30.2633H130.956ZM130.782 38.0694V55.8662H125.451V38.0694H130.782ZM139.986 40.1375L140.044 40.254C141.151 38.6228 142.811 37.5451 145.52 37.5451C148.229 37.5451 150.734 38.8559 151.375 41.4482C151.666 42.555 151.724 43.691 151.724 44.2735V55.8662H146.394V45.1474C146.365 43.225 145.841 41.0695 143.19 41.0695C140.539 41.0695 140.073 42.555 139.986 45.1474V55.8662H134.656V38.0694H139.928V40.1375H139.986ZM159.967 48.4096C159.967 50.7107 160.288 52.8661 163.026 52.8661C165.764 52.8661 165.793 52.1962 166.288 50.5651H171.065C170.599 54.9633 167.162 56.4196 162.997 56.4196C156.909 56.4196 154.433 52.9826 154.433 47.0115C154.433 41.0404 157.55 37.5451 162.997 37.5451C168.443 37.5451 169.113 38.6811 170.599 41.7977C171.094 42.7881 171.356 43.8658 171.473 45.0017C171.618 46.1086 171.618 47.2445 171.618 48.4096H159.938H159.967ZM166.142 44.8561C166.142 42.9046 165.618 41.0987 163.026 41.0987C160.433 41.0987 160.055 42.9046 159.967 44.8561H166.142ZM178.987 48.4096C178.987 50.7107 179.308 52.8661 182.046 52.8661C184.784 52.8661 184.813 52.1962 185.308 50.5651H190.085C189.619 54.9633 186.182 56.4196 182.046 56.4196C175.929 56.4196 173.482 52.9826 173.482 47.0115C173.482 41.0404 176.599 37.5451 182.046 37.5451C187.493 37.5451 188.163 38.6811 189.648 41.7977C190.143 42.7881 190.405 43.8658 190.522 45.0017C190.667 46.1086 190.667 47.2445 190.667 48.4096H178.987ZM185.162 44.8561C185.162 42.9046 184.638 41.0987 182.046 41.0987C179.453 41.0987 179.075 42.9046 178.987 44.8561H185.162ZM197.745 38.0694L197.862 41.3026H197.92C199.056 38.5063 201.328 37.7781 203.979 37.8655V42.5842H201.678C200.804 42.6424 199.61 43.1376 199.085 43.8949C198.532 44.8852 198.415 45.8755 198.386 47.0406V55.8662H193.114V41.5938C193.085 40.8365 192.969 39.351 192.91 38.0403H197.775L197.745 38.0694ZM211.872 30.2633V34.8363H206.192V30.2633H211.872ZM211.697 38.0694V55.8662H206.367V38.0694H211.697ZM220.902 40.1375L220.96 40.254C222.067 38.6228 223.727 37.5451 226.436 37.5451C229.145 37.5451 231.65 38.8559 232.29 41.4482C232.582 42.555 232.64 43.691 232.64 44.2735V55.8662H227.31V45.1474C227.281 43.225 226.756 41.0695 224.106 41.0695C221.455 41.0695 220.989 42.555 220.902 45.1474V55.8662H215.571V38.0694H220.843V40.1375H220.902ZM253 54.2933C253 58.4586 252.068 62.9733 244.262 62.915C240.33 62.915 236.106 61.9538 235.99 57.177H241.029C241.087 58.779 242.514 59.3906 243.971 59.3906C248.019 59.3906 247.874 55.6915 247.67 53.0991H247.611C246.505 54.8468 244.64 55.5458 242.602 55.5458C237.766 55.5458 235.291 51.002 235.291 46.662C235.291 42.322 237.883 37.5451 242.835 37.5451C247.786 37.5451 246.738 38.3316 247.582 40.1375H247.641V38.0694H252.971V54.2933H253ZM244.233 51.9923C247.145 51.9923 247.67 49.0213 247.67 46.7202C247.67 44.4192 247.145 41.1278 244.233 41.1278C241.32 41.1278 240.796 44.0988 240.796 46.7202C240.796 49.3417 241.32 51.9923 244.233 51.9923Z" fill="#003C6C"/>
<path d="M11.447 24.8165H4.63125V13.6025H11.3888C13.7772 13.6025 15.5249 14.0394 16.6317 14.9132C17.7677 15.787 18.3211 17.2143 18.3211 19.1949C18.3211 21.1756 17.7094 22.3698 16.4861 23.3601C15.2627 24.3504 13.5733 24.8165 11.4179 24.8165H11.447ZM17.4473 40.7783C18.6706 39.7006 19.2823 38.1859 19.2823 36.2927C19.2823 32.1566 17.156 30.0303 12.9325 29.9429H4.63125V42.4094H12.35C14.5345 42.4094 16.2239 41.856 17.4473 40.7783ZM55.8953 0V55.8953H0V47.9436H12.2626C16.7482 47.9436 20.1852 46.9241 22.6028 44.9143C25.0204 42.9046 26.2146 40.021 26.2146 36.2635C26.2146 32.5061 25.6321 32.0401 24.4378 30.4381C23.2727 28.8069 21.5834 27.7292 19.4279 27.1467C21.3212 26.3311 22.7776 25.1951 23.7679 23.7388C24.7582 22.2824 25.2534 20.6222 25.2534 18.8163C25.2534 15.2336 24.0883 12.5248 21.729 10.7189C19.3697 8.91296 15.9327 8.01002 11.4179 8.01002H0V0H55.8953ZM47.9145 42.4385H28.9526C28.2826 44.2735 27.2341 45.8173 25.7486 47.0698C25.3699 47.3902 24.9913 47.6523 24.5835 47.9145H47.9436V42.4385H47.9145ZM39.9336 29.9138V24.8165H28.5448V29.9138H39.9336ZM47.9145 7.98089H23.8844C24.1757 8.15565 24.467 8.35954 24.7291 8.56344C26.3894 9.81591 27.5253 11.4762 28.137 13.5151H47.9145V7.98089Z" fill="#003C6C"/>
</svg>
