<svg width="330" height="330" viewBox="0 0 330 330" fill="none" xmlns="http://www.w3.org/2000/svg">
<circle cx="165" cy="165" r="165" fill="white"/>
<path d="M52.0617 158.16C52.0617 161.636 51.2056 164.281 49.4933 166.095C47.7811 167.909 45.4556 168.817 42.5167 168.817V183H37.3417V147.733H42.5167C45.5322 147.733 47.8706 148.641 49.5317 150.455C51.2183 152.244 52.0617 154.812 52.0617 158.16ZM46.8483 158.16C46.8483 154.276 45.4044 152.333 42.5167 152.333V164.217C45.4044 164.217 46.8483 162.198 46.8483 158.16ZM69.0661 183H58.5628V147.733H63.7378V178.4H69.0661V183ZM85.8375 183H75.4109V168.817H73.6475V164.217H75.4109V147.733H84.3042L85.8375 152.333H80.5859V164.217H85.8375V168.817H80.5859V178.4H85.8375V183ZM109.951 183H104.508L103.933 179.857H98.9493L98.3743 183H92.931L93.621 179.857H91.5893L92.586 175.257H94.5793L100.674 146.967H102.208L109.951 183ZM103.051 175.257L101.441 166.517L99.7927 175.257H103.051ZM126.693 173.263C126.693 178.298 123.588 181.671 117.378 183.383L115.308 178.86C117.225 178.298 118.618 177.71 119.486 177.097C120.841 176.126 121.518 174.848 121.518 173.263C121.518 172.062 120.943 170.593 119.793 168.855C118.745 167.271 117.698 165.673 116.65 164.063C115.5 161.993 114.925 159.974 114.925 158.007C114.925 155.477 115.947 153.189 117.991 151.145C119.857 149.228 122.131 147.963 124.815 147.35L126.348 152.218C122.183 153.368 120.1 155.298 120.1 158.007C120.1 159.463 120.675 161.086 121.825 162.875C122.873 164.434 123.92 165.993 124.968 167.552C126.118 169.519 126.693 171.423 126.693 173.263ZM147.158 174.797C147.158 177.582 146.545 179.716 145.318 181.198C144.092 182.655 142.379 183.383 140.182 183.383C138.009 183.383 136.297 182.655 135.045 181.198C133.818 179.742 133.205 177.608 133.205 174.797V147.733H138.38V175.563C138.38 177.71 138.981 178.783 140.182 178.783C141.383 178.783 141.983 177.71 141.983 175.563V147.733H147.158V174.797ZM169.529 181.927L164.431 183.498L159.601 169.123V183H154.426V147.733H159.601C162.642 147.733 164.955 148.883 166.539 151.183C167.97 153.253 168.686 156.039 168.686 159.54C168.686 163.297 167.549 166.389 165.274 168.817L169.529 181.927ZM163.319 159.54C163.319 157.24 162.987 155.464 162.323 154.212C161.658 152.959 160.751 152.333 159.601 152.333V167.437C160.7 167.437 161.594 166.708 162.284 165.252C162.974 163.769 163.319 161.866 163.319 159.54ZM186.328 183H175.901V168.817H174.138V164.217H175.901V147.733H184.794L186.328 152.333H181.076V164.217H186.328V168.817H181.076V178.4H186.328V183ZM220.231 158.16C220.231 161.636 219.375 164.281 217.663 166.095C215.951 167.909 213.625 168.817 210.686 168.817V183H205.511V147.733H210.686C213.702 147.733 216.04 148.641 217.701 150.455C219.388 152.244 220.231 154.812 220.231 158.16ZM215.018 158.16C215.018 154.276 213.574 152.333 210.686 152.333V164.217C213.574 164.217 215.018 162.198 215.018 158.16ZM231.907 183H226.732V147.733H231.907V183ZM252.649 183H238.427L245.94 152.333H239.194V147.733H252.265L244.714 178.4H252.649V183ZM273.016 183H258.795L266.308 152.333H259.561V147.733H272.633L265.081 178.4H273.016V183ZM297.14 183H291.697L291.122 179.857H286.139L285.564 183H280.12L280.81 179.857H278.779L279.775 175.257H281.769L287.864 146.967H289.397L297.14 183ZM290.24 175.257L288.63 166.517L286.982 175.257H290.24Z" fill="#003C6C"/>
<path d="M308.459 218.554C308.302 218.955 308.145 219.355 307.785 220.302C307.457 221.409 307.33 221.969 307.204 222.528C298.508 242.407 286.85 260.196 271.237 275.451C189.509 355.303 49.1579 316.66 19.345 206.322C-4.81475 116.906 55.5144 26.2234 148.158 15.2216C148.985 15.1234 149.807 14.9875 151.458 14.7696C154.646 14.4466 157.008 14.2233 159.371 14C163.422 14.0781 167.474 14.1562 172.405 14.2445C175.656 14.3488 178.028 14.443 180.4 14.5372C190.951 16.8033 201.804 18.149 212.001 21.4943C256.809 36.1938 288.199 65.7509 306.966 109.595C307.448 110.661 307.703 111.176 307.958 111.692C308.031 112.113 308.104 112.534 308.281 113.622C313.718 127.157 316.164 140.681 317.259 154.466C319.005 176.453 315.902 197.811 308.459 218.554ZM267.186 273.701C268.443 272.373 269.699 271.045 271.52 269.427C290.456 250.009 303.189 227.198 309.755 200.222C296.37 200.222 283.603 200.16 270.839 200.34C269.835 200.354 268.366 201.863 267.937 202.99C263.084 215.721 256.177 227.208 246.849 237.916C245.857 239.067 244.866 240.218 243.38 241.6C242.66 242.407 241.94 243.214 240.636 244.326C239.574 245.404 238.511 246.483 236.828 247.805C234.301 249.907 231.774 252.01 228.632 254.316C227.806 254.988 226.98 255.66 226.274 256.424C226.274 256.424 226.206 256.288 225.531 256.458C222.289 258.433 219.047 260.409 215.191 262.47C213.928 263.18 212.664 263.889 210.678 264.673C205.587 266.638 200.496 268.602 194.862 270.527C194.71 270.626 194.557 270.724 193.807 270.763C193.067 271.036 192.327 271.309 191.43 271.577C191.43 271.577 191.281 271.63 190.512 271.594C189.794 271.848 189.075 272.103 187.78 272.257C187.226 272.415 186.671 272.573 185.395 272.67C184.714 272.894 184.033 273.118 182.604 273.247C181.868 273.394 181.133 273.541 179.709 273.578C178.585 273.812 177.461 274.045 175.686 274.13C175.258 274.236 174.831 274.342 173.622 274.313C172.189 274.664 170.755 275.015 168.44 275.452C165.783 275.418 163.127 275.385 160.119 274.685C158.879 274.616 157.639 274.546 155.562 274.26C152.849 273.973 150.137 273.686 146.704 273.057C145.919 272.957 145.134 272.857 144.126 272.808C144.126 272.808 144.13 273.037 143.569 272.475C142.248 272.237 140.926 271.998 139.13 271.436C138.567 271.389 138.004 271.341 136.907 270.922C136.481 270.873 136.055 270.824 135.184 270.432C134.638 270.35 134.093 270.268 132.998 269.782C131.465 269.352 129.932 268.923 127.902 268.029C126.401 267.552 124.899 267.075 122.865 266.141C121.779 265.721 120.692 265.3 119.117 264.452C113.877 261.586 108.636 258.721 102.79 255.59C102.366 255.467 101.942 255.343 101.236 254.641C99.2733 252.994 97.3109 251.347 95.0339 249.173C94.5351 248.828 94.0363 248.482 93.2217 247.576C89.4181 243.854 85.6145 240.131 81.574 235.839C80.8491 235.216 80.1241 234.594 78.9458 233.511C78.4002 232.853 77.8545 232.194 77.3349 230.977C77.0502 230.754 76.7655 230.531 76.4259 229.622C73.7099 225.262 70.994 220.902 68.1601 215.87C66.8928 213.429 65.6255 210.988 64.3686 207.966C64.0856 207.479 63.8026 206.991 63.4815 205.826C63.1794 205.228 62.8773 204.631 62.6689 203.709C62.6381 203.456 62.5024 203.29 62.2048 202.43C61.1187 201.701 60.0412 200.355 58.9453 200.339C47.5639 200.183 36.1793 200.27 24.796 200.221C21.6907 200.207 21.98 201.631 23.0694 204.169C23.2697 204.706 23.47 205.243 23.662 206.43C23.8556 206.813 24.0492 207.196 24.1722 208.152C24.3822 208.676 24.5923 209.2 24.8222 210.224C24.9372 210.345 25.0523 210.466 25.1604 211.291C25.5833 212.376 26.0062 213.461 26.3754 215.29C27.4029 217.707 28.4305 220.124 29.4116 223.26C30.1967 224.95 30.9819 226.639 31.9968 228.968C34.8317 234.16 37.6667 239.351 40.5278 245.153C41.1037 245.713 41.6797 246.274 42.3212 247.505C43.2981 248.718 44.2749 249.931 45.3992 251.744C46.3052 252.875 47.2112 254.005 48.3107 255.697C48.9667 256.424 49.6227 257.15 50.3266 258.262C50.4456 258.523 50.6476 258.668 51.196 259.312C51.8958 260.149 52.5956 260.985 53.497 262.359C54.3254 263.136 55.1537 263.913 56.2122 265.354C58.9413 267.98 61.6703 270.606 64.7296 273.823C66.5298 275.432 68.33 277.041 70.4428 279.24C71.3783 279.834 72.3139 280.429 73.5476 281.529C74.5034 282.188 75.4593 282.846 76.7329 284.014C77.2482 284.306 77.7634 284.598 78.6029 285.405C79.7964 286.144 80.9898 286.883 82.49 288.12C83.4754 288.784 84.4608 289.448 85.7013 290.487C85.9429 290.674 86.2075 290.817 86.8026 291.421C92.9595 294.579 99.1163 297.738 105.628 301.351C106.19 301.495 106.751 301.64 107.738 302.355C110.229 303.171 112.719 303.986 115.242 304.709C115.242 304.709 115.146 304.731 115.381 305.218C115.715 305.286 116.049 305.354 117.006 305.633C117.44 305.68 117.874 305.726 118.845 306.261C119.79 306.572 120.728 306.911 121.682 307.191C151.33 315.883 180.941 316.729 211.181 306.779C212.651 306.24 214.121 305.702 216.304 305.038C218.034 304.302 219.765 303.566 222.207 302.745C224.297 301.751 226.387 300.757 229.182 299.658C231.605 298.339 234.029 297.02 237.149 295.605C239.971 293.834 242.794 292.062 246.309 290.076C251.73 285.921 257.15 281.766 263.169 277.407C264.046 276.507 264.922 275.607 266.172 274.628C266.413 274.491 266.547 274.285 267.186 273.701ZM305.199 189.863C306.687 189.891 308.243 190.188 309.636 189.839C310.374 189.654 310.831 188.345 311.479 186.744C311.974 184.005 312.47 181.265 313.217 177.621C313.133 169.603 313.049 161.585 313.136 152.809C312.158 148.323 311.18 143.837 310.238 139.517C214.957 139.517 120.467 139.513 25.977 139.55C24.4193 139.551 22.8618 140.05 20.6982 140.485C20.6157 140.837 20.5332 141.189 20.4096 141.997C20.4096 141.997 20.3668 142.453 19.647 142.869C19.5282 145.099 19.4095 147.328 18.9334 150.192C18.9399 150.908 18.9464 151.624 18.6714 153.137C18.7662 162.014 18.8609 170.89 18.7648 180.509C18.9962 181.189 19.2276 181.87 19.446 183.41C19.4208 190.082 19.4211 190.091 26.0028 189.91C26.7964 189.888 27.5853 189.697 29.2661 189.892C120.003 189.914 210.739 189.938 301.476 189.944C302.457 189.944 303.438 189.709 305.199 189.863ZM223.49 78.7455C219.85 76.4645 216.394 73.7971 212.541 71.963C178.59 55.8022 145.111 56.2309 111.587 75.4025C109.745 76.7567 107.995 78.2626 106.047 79.44C94.4209 86.4649 85.5144 96.1638 77.6866 107.873C77.0522 109.035 76.4177 110.197 75.4225 111.623C75.2115 111.865 75.1358 112.144 74.6683 112.897C72.0466 118.203 69.425 123.509 66.571 129.285C132.651 129.285 197.745 129.285 264 129.285C260.573 122.816 257.569 117.144 254.426 110.775C247.852 102.99 241.277 95.2046 234.377 86.8238C232.431 85.2886 230.484 83.7534 228.147 81.6877C226.663 80.9308 225.178 80.174 223.49 78.7455ZM109.627 29.5662C107.937 30.4106 106.247 31.2549 103.954 32.4468C101.367 33.7828 98.7794 35.1187 95.7886 36.4619C95.7886 36.4619 95.4011 36.5744 94.6678 36.6069C91.2417 38.616 87.8156 40.6252 83.819 42.646C83.6312 42.9566 83.4435 43.2673 82.647 43.8287C60.4392 59.3466 42.9431 78.8548 31.3761 104.328C30.2604 107.076 29.1448 109.824 27.4943 113.049C25.8799 118.401 24.2655 123.753 22.4648 129.722C35.3054 129.722 47.4281 129.802 59.5454 129.583C60.615 129.564 61.9857 127.765 62.6433 126.496C65.9779 120.06 68.5992 113.199 72.4187 107.079C99.9419 62.9775 154.681 44.2528 203.004 62.4023C233.86 73.9915 255.014 95.6074 267.49 125.972C268.084 127.417 269.595 129.531 270.714 129.553C283.337 129.808 295.968 129.715 309.283 129.715C305.218 114.978 299.253 101.679 291.65 89.252C283.209 75.4547 273.391 62.7189 260.305 52.6959C247.135 42.6084 233.727 33.1582 217.355 27.9521C217.042 27.8444 216.729 27.7368 215.676 27.5106C213.291 26.4743 210.985 25.1709 208.509 24.4435C186.686 18.0316 164.517 15.9456 142.14 20.7025C131.415 22.9822 120.956 26.5117 109.627 29.5662ZM118.686 258.628C182.403 289.946 248.447 249.386 262.801 200.451C197.669 200.451 132.598 200.451 66.7644 200.451C76.6858 226.178 93.1191 245.38 117.679 258.147C117.845 258.17 118.01 258.194 118.686 258.628ZM202.9 136.147C238.739 136.147 274.578 136.147 310.416 136.147C310.492 135.407 310.569 134.668 310.645 133.928C308.856 133.665 307.068 133.173 305.279 133.172C237.323 133.133 169.366 133.14 101.41 133.14C76.259 133.14 51.1084 133.122 25.958 133.18C24.3493 133.183 22.7419 133.765 21.134 134.077C21.2259 134.767 21.3177 135.457 21.4096 136.147C81.5732 136.147 141.737 136.147 202.9 136.147ZM223.901 193.494C156.284 193.494 88.6683 193.494 21.0521 193.494C20.9078 194.102 20.7634 194.711 20.6191 195.319C22.3815 195.768 24.1436 196.608 25.9062 196.609C119.221 196.673 212.536 196.666 305.851 196.664C307.015 196.664 308.286 196.924 309.31 196.537C310.112 196.235 310.606 195.119 311.966 193.494C282.145 193.494 253.523 193.494 223.901 193.494Z" fill="#003C6C"/>
<path d="M72.0307 72.7782L68.8504 65.3747L75.206 59.0364L82.4139 62.4235C80.988 62.6591 79.0198 62.4188 78.1713 62.4176C77.2888 62.4164 76.9143 63.2644 76.9143 63.2644C76.2662 65.6055 81.133 68.3444 86.8483 71.1185L80.6965 77.2534C78.5827 71.7351 75.8385 68.1335 74.7702 67.5041C74.7702 67.5041 73.719 66.7899 73.0907 67.0776C72.5473 67.3144 72.2404 68.3322 72.2404 68.3322C72.0347 69.8254 72.2369 70.8778 72.0307 72.7782Z" fill="#003C6C"/>
<path d="M96.2004 42.7519C96.2004 42.7519 96.2725 47.8106 99.006 51.3701C101.725 54.9105 106.681 56.3998 106.681 56.3998L100.381 61.2383C100.381 61.2383 100.241 57.3516 97.4547 53.4087L91.3065 58.1303C95.463 62.7152 98.23 62.8901 98.23 62.8901L91.5869 67.9917C91.5869 67.9917 91.2674 63.123 88.5046 59.5255C85.7272 55.9089 81.5627 53.993 81.5627 53.993L87.2922 49.593C87.2922 49.593 86.5863 52.1021 89.9777 56.5181L96.1449 51.7819C93.1843 48.5178 89.8999 47.5904 89.8999 47.5904L96.2004 42.7519Z" fill="#003C6C"/>
<path d="M118.778 44.8478L120.498 50.6955L110.175 56.125C109.974 55.7426 109.914 51.8147 108.127 48.4161C106.217 44.7838 102.578 41.6809 102.377 41.2986L112.7 35.8691L116.276 40.0898C115.276 40.5612 109.141 40.29 108.665 41.7062C107.806 44.3003 109.144 46.173 112.717 42.9648L114.248 45.8749C113.971 46.0201 110.876 46.3736 110.927 47.2958C110.99 48.2392 112.326 51.6041 113.933 50.4331C115.647 49.2063 117.516 45.593 118.778 44.8478Z" fill="#003C6C"/>
<path d="M135.364 28.8346C139.177 27.7635 143.312 30.5905 144.584 35.1192C145.856 39.6478 143.792 44.1915 139.98 45.2625C136.167 46.3336 132.039 43.5297 130.767 39.0011C129.495 34.4724 131.552 29.9057 135.364 28.8346ZM137.81 40.9112C139.728 40.3724 140.841 38.3895 140.302 36.4717C139.763 34.554 137.78 33.4408 135.863 33.9796C133.968 34.5119 132.855 36.4949 133.394 38.4127C133.932 40.3304 135.915 41.4435 137.81 40.9112Z" fill="#003C6C"/>
<path d="M163.809 42.0091L157.88 42.7529C157.817 42.2528 158.501 40.5706 156.937 37.7433C156.305 36.5647 155.201 35.8567 155.201 35.8567C154.495 35.0503 153.665 35.7592 153.665 35.7592C152.572 36.5009 154.087 41.4388 155.784 43.0158L148.974 43.8701C150.265 42.2085 150.402 36.1684 150.402 36.1684C150.101 28.9497 146.993 28.0818 146.889 27.2484L158.152 25.8354C159.382 25.9956 160.451 27.7723 160.422 29.4691C160.414 31.5261 158.239 33.6615 158.239 33.6615C158.364 34.0812 159.431 36.608 160.623 38.2001C162.073 40.1225 163.66 41.2054 163.809 42.0091ZM156.428 31.1796C156.34 28.1671 152.807 28.9247 152.807 28.9247C152.807 28.9247 153.32 30.5052 153.451 31.553C153.598 32.7198 153.441 33.9732 153.441 33.9732C154.036 33.8985 156.464 32.4328 156.428 31.1796Z" fill="#003C6C"/>
<path d="M173.621 34.7787C173.427 40.0792 175.851 43.3863 175.851 43.3863L167.433 43.0773C167.433 43.0773 170.538 40.2613 170.738 34.817C170.938 29.3726 168.058 26.0488 168.058 26.0488L176.476 26.3578C176.476 26.3578 173.859 28.3031 173.621 34.7787Z" fill="#003C6C"/>
<path d="M188.943 28.2365C192.677 28.7457 194.698 29.0213 194.698 29.0213L191.972 33.2033C191.972 33.2033 190.399 31.4144 188.584 31.5786C186.742 31.7634 184.824 33.2215 184.46 35.8849C184.097 38.5482 184.694 40.5674 186.977 40.8787C189.26 41.1901 189.65 40.1048 189.848 38.6543C190.045 37.2037 189.826 36.326 189.826 36.326L194.558 36.9714L194.317 40.6929L192.367 40.427C192.367 40.427 192.73 45.7569 186.809 44.9494C180.864 44.1386 180.01 39.0324 180.591 34.7758C181.171 30.5192 185.21 27.7273 188.943 28.2365Z" fill="#003C6C"/>
<path d="M203.531 40.9774C202.077 46.0781 203.642 49.8684 203.642 49.8684L195.54 47.5584C195.54 47.5584 199.228 45.5653 200.722 40.3261C202.216 35.0869 200.213 31.1716 200.213 31.1716L208.314 33.4816C208.314 33.4816 205.308 34.7458 203.531 40.9774Z" fill="#003C6C"/>
<path d="M206.411 51.231C206.411 51.231 210.003 48.225 211.901 43.3494C213.799 38.4738 212.593 35.3518 212.593 35.3518L220.488 38.4251C220.488 38.4251 220.5 39.7175 220.635 41.2895C220.792 42.8703 221.684 47.7245 223.512 46.8652C225.363 46.0146 225.498 40.3754 225.498 40.3754L231.156 42.5781C231.156 42.5781 229.313 44.2041 226.879 48.5365C224.432 52.8378 224.326 58.2048 224.326 58.2048L218.265 55.8454C218.265 55.8454 219.483 54.1048 219.507 51.3324C219.539 48.5377 218.53 44.5136 215.829 45.0333C212.644 45.6734 213.121 53.8429 213.121 53.8429L206.411 51.231Z" fill="#003C6C"/>
<path d="M243.247 58.0802C242.123 63.156 241.442 70.2723 241.442 70.2723L236.584 67.3134C236.721 67.0879 237.821 63.8518 237.693 62.0317C237.614 60.9157 236.456 60.4634 235.943 60.2913C233.614 59.5472 232.418 63.68 231.972 64.5044L227.135 61.558C227.409 61.107 233.416 56.5041 236.36 53.8853C239.42 51.1685 239.482 49.9135 239.682 49.5856L245.544 53.1562C245.472 53.5056 243.879 55.2896 243.247 58.0802ZM239.604 60.0481C240.116 60.3602 238.995 59.3402 240.305 54.883C240.305 54.883 239.306 56.0165 238.557 56.6001C237.737 57.2532 236.283 58.0256 236.283 58.0256L239.604 60.0481Z" fill="#003C6C"/>
<path d="M249.561 66.3651C252.919 62.2286 253.529 59.2306 253.529 59.2306L259.025 63.6928C259.025 63.6928 248.37 68.212 249.096 72.5727C249.826 76.9671 256.587 76.5207 256.587 76.5207C256.587 76.5207 255.288 77.321 254.381 78.439C253.47 79.5233 252.987 80.9554 252.987 80.9554L242.683 72.5905C242.683 72.5905 246.187 70.5203 249.561 66.3651Z" fill="#003C6C"/>
<path d="M86.4345 255.371C86.4345 255.371 81.4275 256.096 78.251 259.266C75.0914 262.42 74.2549 267.527 74.2549 267.527L68.6431 261.905C68.6431 261.905 72.479 261.263 76.029 257.991L70.5528 252.505C66.5432 257.219 66.7272 259.985 66.7272 259.985L60.8102 254.057C60.8102 254.057 65.5969 253.111 68.8074 249.907C72.0349 246.685 73.3968 242.308 73.3968 242.308L78.5 247.421C78.5 247.421 75.9208 247.045 71.9798 250.979L77.473 256.482C80.3273 253.125 80.8227 249.748 80.8227 249.748L86.4345 255.371Z" fill="#003C6C"/>
<path d="M93.8686 261.587C97.0298 263.972 97.2843 268.974 94.4511 272.73C91.618 276.485 86.7524 277.594 83.5912 275.209C80.43 272.824 80.1611 267.841 82.9942 264.086C85.8273 260.331 90.7074 259.202 93.8686 261.587ZM85.7397 270.847C87.3299 272.047 89.582 271.732 90.7817 270.142C91.9815 268.551 91.6663 266.299 90.0761 265.099C88.5051 263.914 86.253 264.229 85.0532 265.82C83.8535 267.41 84.1687 269.662 85.7397 270.847Z" fill="#003C6C"/>
<path d="M97.6574 274.008L103.979 269.012L111.752 273.501L110.356 281.341C109.758 280.026 109.478 278.063 109.258 277.243C109.03 276.391 108.114 276.25 108.114 276.25C105.685 276.233 104.306 281.644 103.113 287.884L95.5897 283.539C100.369 280.063 103.132 276.477 103.462 275.282C103.462 275.282 103.879 274.081 103.438 273.549C103.068 273.086 102.005 273.054 102.005 273.054C100.51 273.244 99.546 273.713 97.6574 274.008Z" fill="#003C6C"/>
<path d="M132.97 288.257C133.028 293.456 133.981 300.541 133.981 300.541L128.578 298.763C128.661 298.512 128.997 295.111 128.459 293.367C128.128 292.298 126.898 292.121 126.359 292.07C123.922 291.874 123.696 296.171 123.449 297.075L118.069 295.304C118.234 294.802 123.038 288.955 125.311 285.736C127.673 282.396 127.449 281.159 127.569 280.795L134.089 282.941C134.098 283.297 132.952 285.396 132.97 288.257ZM129.869 291.001C130.439 291.189 129.116 290.45 129.379 285.812C129.379 285.812 128.663 287.143 128.066 287.881C127.417 288.704 126.176 289.786 126.176 289.786L129.869 291.001Z" fill="#003C6C"/>
<path d="M138.228 301.897C138.228 301.897 141.044 298.155 141.786 292.976C142.529 287.797 140.647 285.03 140.647 285.03L149.033 286.233C149.033 286.233 149.338 287.489 149.826 288.989C150.337 290.493 152.307 295.018 153.893 293.767C155.502 292.519 154.355 286.996 154.355 286.996L160.365 287.858C160.365 287.858 158.939 289.86 157.551 294.631C156.143 299.375 157.257 304.626 157.257 304.626L150.819 303.703C150.819 303.703 151.611 301.732 151.005 299.026C150.402 296.297 148.507 292.606 145.995 293.725C143.038 295.071 145.355 302.919 145.355 302.919L138.228 301.897Z" fill="#003C6C"/>
<path d="M171.469 287.952C174.185 288.75 177.251 292.154 177.421 295.822C177.617 300.282 174.989 304.308 171.713 304.705C169.68 304.964 165.86 304.899 163.941 304.963C163.941 304.963 165.165 302.041 165.502 297.731C165.922 292.314 163.207 290.099 163.097 288.23L171.469 287.952ZM169.758 300.063C170.66 299.745 173.44 298.86 173.207 295.458C172.982 292.296 168.572 291.122 168.572 291.122C168.572 291.122 168.123 294.955 168.781 297.406C169.797 301.262 169.758 300.063 169.758 300.063Z" fill="#003C6C"/>
<path d="M196.774 299.451C198.234 300.585 200.324 300.612 200.324 300.612L191.984 302.777C191.875 302.358 192.714 298.521 191.75 294.804C190.719 290.831 187.885 286.98 187.776 286.562L199.066 283.632L201.584 288.557C200.504 288.788 194.592 287.124 193.806 288.394C192.377 290.723 193.252 292.852 197.463 290.544L198.289 293.727C197.987 293.805 194.893 293.443 194.732 294.352C194.577 295.285 195.215 298.219 196.774 299.451Z" fill="#003C6C"/>
<path d="M223.148 292.258L217.656 294.614C217.457 294.151 217.648 292.345 215.363 290.062C214.429 289.104 213.172 288.73 213.172 288.73C212.27 288.15 211.669 289.061 211.669 289.061C210.825 290.076 213.647 294.402 215.715 295.447L209.407 298.154C210.188 296.2 208.647 290.358 208.647 290.358C206.359 283.505 203.132 283.532 202.801 282.76L213.233 278.283C214.459 278.096 215.978 279.507 216.42 281.146C216.982 283.125 215.484 285.779 215.484 285.779C215.72 286.148 217.445 288.28 219.031 289.48C220.957 290.926 222.782 291.527 223.148 292.258ZM213.056 283.896C212.138 281.025 208.952 282.732 208.952 282.732C208.952 282.732 209.883 284.108 210.299 285.079C210.763 286.159 210.959 287.407 210.959 287.407C211.51 287.171 213.438 285.09 213.056 283.896Z" fill="#003C6C"/>
<path d="M235.521 278.35L237.585 284.086L227.602 290.119C227.379 289.749 227.086 285.831 225.1 282.545C222.978 279.032 219.161 276.151 218.938 275.781L228.92 269.748L232.74 273.749C231.771 274.279 225.63 274.373 225.24 275.815C224.536 278.455 225.982 280.245 229.359 276.831L231.059 279.645C230.792 279.806 227.723 280.343 227.829 281.26C227.948 282.198 229.481 285.478 231.016 284.214C232.654 282.887 234.305 279.169 235.521 278.35Z" fill="#003C6C"/>
<path d="M242.246 260.033C243.09 260.124 244.029 257.922 244.628 257.748L246.006 264.709C245.344 263.732 244.035 263.214 243.615 263.151C243.36 263.141 242.591 262.835 241.431 263.768C240.533 264.49 239.976 265.214 240.117 265.964C240.401 267.275 241.922 268.208 243.82 267.236C245.16 266.528 248.158 266.427 250.038 268.765C252.519 271.851 251.403 273.796 248.841 275.856C246.036 278.112 246.323 277.512 244.5 278.577C244.228 279.196 243.699 280.453 242.781 280.729L240.317 273.872C240.646 273.669 243.134 276.226 244.667 274.993C245.378 274.422 245.827 272.49 244.342 272.175C242.035 271.72 242.382 272.611 239.852 272.336C239.109 272.256 237.984 271.929 236.635 270.365C235.541 269.12 235.374 267.036 235.914 265.524C237.061 262.354 241.947 260.273 242.246 260.033Z" fill="#003C6C"/>
<path d="M259.286 241.964C259.286 241.964 260.269 246.927 263.6 249.936C266.912 252.928 272.056 253.499 272.056 253.499L266.731 259.394C266.731 259.394 265.892 255.596 262.441 252.22L257.245 257.973C262.16 261.733 264.913 261.407 264.913 261.407L259.298 267.622C259.298 267.622 258.106 262.891 254.74 259.85C251.357 256.794 246.915 255.66 246.915 255.66L251.757 250.299C251.757 250.299 251.515 252.894 255.647 256.627L260.86 250.856C257.359 248.179 253.961 247.859 253.961 247.859L259.286 241.964Z" fill="#003C6C"/>
<path d="M277.5 91L274.5 99.5H266L273 105.5L270.5 114L278 109L285.5 114L282.5 105.5L289.5 99.5H281L277.5 91Z" fill="#003C6C"/>
<path d="M51.5 91L48.5 99.5H40L47 105.5L44.5 114L52 109L59.5 114L56.5 105.5L63.5 99.5H55L51.5 91Z" fill="#003C6C"/>
<path d="M51.5 212L48.5 220.5H40L47 226.5L44.5 235L52 230L59.5 235L56.5 226.5L63.5 220.5H55L51.5 212Z" fill="#003C6C"/>
<path d="M280.5 212L277.5 220.5H269L276 226.5L273.5 235L281 230L288.5 235L285.5 226.5L292.5 220.5H284L280.5 212Z" fill="#003C6C"/>
<path d="M103.199 216.301L102.092 216.957C101.885 216.598 101.688 216.363 101.5 216.254C101.305 216.129 101.053 216.066 100.744 216.066C100.365 216.066 100.051 216.174 99.8008 216.389C99.5508 216.6 99.4258 216.865 99.4258 217.186C99.4258 217.627 99.7539 217.982 100.41 218.252L101.312 218.621C102.047 218.918 102.584 219.281 102.924 219.711C103.264 220.137 103.434 220.66 103.434 221.281C103.434 222.113 103.156 222.801 102.602 223.344C102.043 223.891 101.35 224.164 100.521 224.164C99.7363 224.164 99.0879 223.932 98.5762 223.467C98.0723 223.002 97.7578 222.348 97.6328 221.504L99.0156 221.199C99.0781 221.73 99.1875 222.098 99.3438 222.301C99.625 222.691 100.035 222.887 100.574 222.887C101 222.887 101.354 222.744 101.635 222.459C101.916 222.174 102.057 221.812 102.057 221.375C102.057 221.199 102.031 221.039 101.98 220.895C101.934 220.746 101.857 220.611 101.752 220.49C101.65 220.365 101.518 220.25 101.354 220.145C101.189 220.035 100.994 219.932 100.768 219.834L99.8945 219.471C98.6562 218.947 98.0371 218.182 98.0371 217.174C98.0371 216.494 98.2969 215.926 98.8164 215.469C99.3359 215.008 99.9824 214.777 100.756 214.777C101.799 214.777 102.613 215.285 103.199 216.301ZM116.301 221.803H112.428L111.42 224H109.949L114.426 214.385L118.744 224H117.25L116.301 221.803ZM115.744 220.52L114.402 217.443L112.996 220.52H115.744ZM125.881 224V214.338L132.479 221.24V214.953H133.844V224.551L127.246 217.666V224H125.881ZM144.514 216.236V224H143.148V216.236H141.068V214.953H146.588V216.236H144.514ZM158.629 221.803H154.756L153.748 224H152.277L156.754 214.385L161.072 224H159.578L158.629 221.803ZM158.072 220.52L156.73 217.443L155.324 220.52H158.072ZM184.598 215.439V217.057C183.809 216.396 182.992 216.066 182.148 216.066C181.219 216.066 180.436 216.4 179.799 217.068C179.158 217.732 178.838 218.545 178.838 219.506C178.838 220.455 179.158 221.256 179.799 221.908C180.439 222.561 181.225 222.887 182.154 222.887C182.635 222.887 183.043 222.809 183.379 222.652C183.566 222.574 183.76 222.469 183.959 222.336C184.162 222.203 184.375 222.043 184.598 221.855V223.502C183.816 223.943 182.996 224.164 182.137 224.164C180.844 224.164 179.74 223.713 178.826 222.811C177.916 221.9 177.461 220.803 177.461 219.518C177.461 218.365 177.842 217.338 178.604 216.436C179.541 215.33 180.754 214.777 182.242 214.777C183.055 214.777 183.84 214.998 184.598 215.439ZM195.391 220.145L198.191 224H196.521L193.938 220.297H193.691V224H192.326V214.953H193.926C195.121 214.953 195.984 215.178 196.516 215.627C197.102 216.127 197.395 216.787 197.395 217.607C197.395 218.248 197.211 218.799 196.844 219.26C196.477 219.721 195.992 220.016 195.391 220.145ZM193.691 219.107H194.125C195.418 219.107 196.064 218.613 196.064 217.625C196.064 216.699 195.436 216.236 194.178 216.236H193.691V219.107ZM206.781 214.953V220.402C206.781 221.18 206.908 221.748 207.162 222.107C207.541 222.627 208.074 222.887 208.762 222.887C209.453 222.887 209.988 222.627 210.367 222.107C210.621 221.76 210.748 221.191 210.748 220.402V214.953H212.113V220.777C212.113 221.73 211.816 222.516 211.223 223.133C210.555 223.82 209.734 224.164 208.762 224.164C207.789 224.164 206.971 223.82 206.307 223.133C205.713 222.516 205.416 221.73 205.416 220.777V214.953H206.781ZM221.852 222.717H226.193V224H219.607L224.049 216.236H220.334V214.953H226.293L221.852 222.717Z" fill="#003C6C"/>
<path d="M138.695 256.311L137.693 255.566L139.855 252.619C139.738 252.635 139.639 252.646 139.557 252.654C139.475 252.662 139.408 252.666 139.357 252.666C138.627 252.666 137.994 252.387 137.459 251.828C136.928 251.273 136.662 250.605 136.662 249.824C136.662 248.992 136.957 248.281 137.547 247.691C138.141 247.098 138.852 246.801 139.68 246.801C140.504 246.801 141.221 247.094 141.83 247.68C142.439 248.262 142.744 248.949 142.744 249.742C142.744 250.445 142.447 251.205 141.854 252.021L138.695 256.311ZM137.992 249.725C137.992 250.213 138.158 250.623 138.49 250.955C138.826 251.291 139.23 251.459 139.703 251.459C140.176 251.459 140.578 251.293 140.91 250.961C141.246 250.625 141.414 250.221 141.414 249.748C141.414 249.275 141.246 248.871 140.91 248.535C140.578 248.203 140.174 248.037 139.697 248.037C139.229 248.037 138.828 248.203 138.496 248.535C138.16 248.871 137.992 249.268 137.992 249.725ZM155.717 248.23H152.928L152.482 249.73C152.549 249.723 152.611 249.717 152.67 249.713C152.732 249.709 152.789 249.707 152.84 249.707C153.719 249.707 154.439 250.004 155.002 250.598C155.568 251.188 155.852 251.943 155.852 252.865C155.852 253.818 155.531 254.604 154.891 255.221C154.25 255.838 153.443 256.146 152.471 256.146C151.271 256.146 150.326 255.584 149.635 254.459L150.666 253.586C150.951 254.07 151.238 254.412 151.527 254.611C151.816 254.807 152.17 254.904 152.588 254.904C153.135 254.904 153.594 254.713 153.965 254.33C154.336 253.936 154.521 253.457 154.521 252.895C154.521 252.316 154.338 251.844 153.971 251.477C153.604 251.098 153.145 250.908 152.594 250.908C151.98 250.908 151.451 251.176 151.006 251.711H150.555L151.979 246.953H155.717V248.23ZM163.322 251.418C163.322 249.977 163.658 248.826 164.33 247.967C164.932 247.189 165.66 246.801 166.516 246.801C167.371 246.801 168.1 247.189 168.701 247.967C169.373 248.826 169.709 249.996 169.709 251.477C169.709 252.953 169.373 254.121 168.701 254.98C168.1 255.758 167.373 256.146 166.521 256.146C165.67 256.146 164.939 255.758 164.33 254.98C163.658 254.121 163.322 252.934 163.322 251.418ZM164.664 251.424C164.664 252.428 164.838 253.262 165.186 253.926C165.533 254.578 165.977 254.904 166.516 254.904C167.051 254.904 167.494 254.578 167.846 253.926C168.197 253.277 168.373 252.459 168.373 251.471C168.373 250.482 168.197 249.662 167.846 249.01C167.494 248.361 167.051 248.037 166.516 248.037C165.984 248.037 165.543 248.361 165.191 249.01C164.84 249.654 164.664 250.459 164.664 251.424ZM180.93 246.637L181.932 247.387L179.77 250.328C179.887 250.312 179.986 250.301 180.068 250.293C180.15 250.285 180.215 250.281 180.262 250.281C180.996 250.281 181.631 250.562 182.166 251.125C182.697 251.68 182.963 252.348 182.963 253.129C182.963 253.957 182.666 254.668 182.072 255.262C181.482 255.852 180.773 256.146 179.945 256.146C179.125 256.146 178.406 255.855 177.789 255.273C177.184 254.691 176.881 254.002 176.881 253.205C176.881 252.49 177.176 251.732 177.766 250.932L180.93 246.637ZM181.633 253.217C181.633 252.736 181.467 252.33 181.135 251.998C180.799 251.662 180.395 251.494 179.922 251.494C179.445 251.494 179.041 251.66 178.709 251.992C178.377 252.324 178.211 252.727 178.211 253.199C178.211 253.672 178.377 254.074 178.709 254.406C179.041 254.738 179.447 254.904 179.928 254.904C180.396 254.904 180.797 254.738 181.129 254.406C181.465 254.07 181.633 253.674 181.633 253.217ZM192.631 254.717H196V256H189.924L193.064 252.197C193.373 251.818 193.631 251.49 193.838 251.213C194.049 250.936 194.209 250.703 194.318 250.516C194.541 250.148 194.652 249.818 194.652 249.525C194.652 249.104 194.504 248.75 194.207 248.465C193.91 248.18 193.543 248.037 193.105 248.037C192.191 248.037 191.668 248.578 191.535 249.66H190.176C190.395 247.754 191.357 246.801 193.064 246.801C193.889 246.801 194.58 247.062 195.139 247.586C195.701 248.109 195.982 248.758 195.982 249.531C195.982 250.023 195.852 250.506 195.59 250.979C195.457 251.225 195.262 251.518 195.004 251.857C194.75 252.193 194.428 252.592 194.037 253.053L192.631 254.717Z" fill="#003C6C"/>
<path d="M97.6484 113.719H102.633V114.117C102.633 115.023 102.526 115.826 102.312 116.523C102.104 117.169 101.753 117.773 101.258 118.336C100.138 119.596 98.7135 120.227 96.9844 120.227C95.2969 120.227 93.8516 119.617 92.6484 118.398C91.4453 117.174 90.8438 115.706 90.8438 113.992C90.8438 112.242 91.4557 110.758 92.6797 109.539C93.9036 108.315 95.3932 107.703 97.1484 107.703C98.0911 107.703 98.9714 107.896 99.7891 108.281C100.57 108.667 101.339 109.292 102.094 110.156L100.797 111.398C99.8073 110.081 98.6016 109.422 97.1797 109.422C95.9036 109.422 94.8333 109.862 93.9688 110.742C93.1042 111.607 92.6719 112.69 92.6719 113.992C92.6719 115.336 93.1536 116.443 94.1172 117.312C95.0182 118.12 95.9948 118.523 97.0469 118.523C97.9427 118.523 98.7474 118.221 99.4609 117.617C100.174 117.008 100.573 116.279 100.656 115.43H97.6484V113.719ZM115.586 109.648H110.75V112.547H115.445V114.258H110.75V118.289H115.586V120H108.93V107.938H115.586V109.648ZM125.305 109.648V120H123.484V109.648H120.711V107.938H128.07V109.648H125.305ZM144.453 107.938V120H142.633V107.938H144.453ZM154.68 109.648V120H152.859V109.648H150.086V107.938H157.445V109.648H154.68ZM184.281 120.219H181.992L181.047 119.25C180.042 119.896 178.922 120.219 177.688 120.219C176.089 120.219 174.669 119.677 173.43 118.594C172.081 117.401 171.406 115.878 171.406 114.023C171.406 112.206 172.044 110.69 173.32 109.477C174.56 108.299 176.023 107.711 177.711 107.711C179.242 107.711 180.615 108.227 181.828 109.258C183.286 110.497 184.016 112.115 184.016 114.109C184.016 115.672 183.44 117.06 182.289 118.273L184.281 120.219ZM179.273 115.227L181.023 116.969C181.794 116.167 182.18 115.174 182.18 113.992C182.18 112.695 181.75 111.609 180.891 110.734C180.031 109.859 178.964 109.422 177.688 109.422C176.396 109.422 175.333 109.859 174.5 110.734C173.661 111.604 173.242 112.706 173.242 114.039C173.242 115.341 173.674 116.406 174.539 117.234C175.44 118.089 176.469 118.516 177.625 118.516C178.411 118.516 179.122 118.336 179.758 117.977L176.922 115.227H179.273ZM192.125 107.938V115.203C192.125 116.24 192.294 116.997 192.633 117.477C193.138 118.169 193.849 118.516 194.766 118.516C195.688 118.516 196.401 118.169 196.906 117.477C197.245 117.013 197.414 116.255 197.414 115.203V107.938H199.234V115.703C199.234 116.974 198.839 118.021 198.047 118.844C197.156 119.76 196.062 120.219 194.766 120.219C193.469 120.219 192.378 119.76 191.492 118.844C190.701 118.021 190.305 116.974 190.305 115.703V107.938H192.125ZM207.953 107.938V120H206.133V107.938H207.953ZM223.766 108.586V110.742C222.714 109.862 221.625 109.422 220.5 109.422C219.26 109.422 218.216 109.867 217.367 110.758C216.513 111.643 216.086 112.727 216.086 114.008C216.086 115.273 216.513 116.341 217.367 117.211C218.221 118.081 219.268 118.516 220.508 118.516C221.148 118.516 221.693 118.411 222.141 118.203C222.391 118.099 222.648 117.958 222.914 117.781C223.185 117.604 223.469 117.391 223.766 117.141V119.336C222.724 119.924 221.63 120.219 220.484 120.219C218.76 120.219 217.289 119.617 216.07 118.414C214.857 117.201 214.25 115.737 214.25 114.023C214.25 112.487 214.758 111.117 215.773 109.914C217.023 108.44 218.641 107.703 220.625 107.703C221.708 107.703 222.755 107.997 223.766 108.586ZM232.234 112.75L236.93 107.938H239.359L233.906 113.398L239.391 120H236.953L232.609 114.633L232.234 115.008V120H230.414V107.938H232.234V112.75Z" fill="#003C6C"/>
<line x1="113" y1="234.5" x2="218" y2="234.5" stroke="#003C6C"/>
<path d="M156 231.52C156 231.52 159.159 235.305 162 236.02C166.576 237.17 168.3 230.597 173 231.02C176.479 231.332 181 235.02 181 235.02" stroke="#003C6C" stroke-linecap="round"/>
<path d="M156.5 234.539C156.5 234.539 159.659 238.325 162.5 239.039C167.076 240.189 168.8 233.617 173.5 234.039C176.979 234.352 180 235.52 180 235.52" stroke="#003C6C" stroke-linecap="round"/>
<path d="M152.503 92.0101C156.912 90.1972 159.503 82.0101 159.503 82.0101C159.503 82.0101 157.117 83.6219 155.503 84.5101C154.356 85.1416 154.065 86.0101 152.503 86.0101H148.503C146.941 86.0101 145.723 85.8116 145.003 84.5101C144.437 83.4846 144.599 82.6098 145.003 81.5101C145.34 80.5936 145.544 79.69 146.503 79.5101C147.362 79.3491 147.826 79.9594 148.503 80.5101C149.261 81.1257 149.172 81.9981 150.003 82.5101C150.689 82.9323 151.35 83.4802 152.003 83.0101C152.505 82.6495 152.456 82.1257 152.503 81.5101C152.604 80.2041 151.929 79.4363 151.003 78.5101C149.693 77.2002 148.354 76.9415 146.503 77.0101C144.836 77.0718 143.753 77.405 142.503 78.5101C141.195 79.6669 140.503 80.7636 140.503 82.5101C140.503 84.2565 142.503 86.5101 142.503 86.5101C142.503 86.5101 140.435 85.165 139.003 84.5101C135.207 82.7735 132.677 82.4718 128.503 82.5101C124.521 82.5466 121.868 82.38 118.503 84.5101C115.694 86.2885 113.091 87.686 113.003 91.0101C112.948 93.1124 113.601 94.4431 115.003 96.0101C116.344 97.508 117.493 98.5546 119.503 98.5101C120.99 98.4771 122.284 98.3116 123.003 97.0101C123.57 95.9846 124.023 94.5877 123.003 94.0101C122.088 93.4916 121.549 94.9028 120.503 95.0101C119.089 95.1551 118.225 94.7372 117.003 94.0101C112.574 91.373 122.402 86.7497 127.503 86.0101C131.487 85.4325 137.503 88.5101 137.503 88.5101L135.003 89.5101L132.503 93.0101C132.503 93.0101 133.606 97.4716 135.503 97.0101C136.577 96.749 137.503 96.1146 137.503 95.0101C137.503 93.9055 135.523 94.1145 135.503 93.0101C135.486 92.0339 136.214 91.5843 137.003 91.0101C138.582 89.8616 140.052 90.9505 142.003 91.0101C146.12 91.1358 148.694 93.5765 152.503 92.0101Z" fill="#003C6C" stroke="#003C6C"/>
<path d="M172 92.0101C167.591 90.1972 165 82.0101 165 82.0101C165 82.0101 167.386 83.6219 169 84.5101C170.148 85.1416 170.438 86.0101 172 86.0101H176C177.562 86.0101 178.781 85.8116 179.5 84.5101C180.067 83.4846 179.904 82.6098 179.5 81.5101C179.163 80.5936 178.96 79.69 178 79.5101C177.142 79.3491 176.678 79.9594 176 80.5101C175.242 81.1257 175.331 81.9981 174.5 82.5101C173.814 82.9323 173.154 83.4802 172.5 83.0101C171.999 82.6495 172.047 82.1257 172 81.5101C171.9 80.2041 172.574 79.4363 173.5 78.5101C174.81 77.2002 176.149 76.9415 178 77.0101C179.667 77.0718 180.75 77.405 182 78.5101C183.308 79.6669 184 80.7636 184 82.5101C184 84.2565 182 86.5101 182 86.5101C182 86.5101 184.068 85.165 185.5 84.5101C189.296 82.7735 191.826 82.4718 196 82.5101C199.982 82.5466 202.635 82.38 206 84.5101C208.81 86.2885 211.413 87.686 211.5 91.0101C211.555 93.1124 210.903 94.4431 209.5 96.0101C208.159 97.508 207.01 98.5546 205 98.5101C203.513 98.4771 202.219 98.3116 201.5 97.0101C200.933 95.9846 200.481 94.5877 201.5 94.0101C202.415 93.4916 202.954 94.9028 204 95.0101C205.414 95.1551 206.279 94.7372 207.5 94.0101C211.93 91.373 202.102 86.7497 197 86.0101C193.016 85.4325 187 88.5101 187 88.5101L189.5 89.5101L192 93.0101C192 93.0101 190.897 97.4716 189 97.0101C187.927 96.749 187 96.1146 187 95.0101C187 93.9055 188.981 94.1145 189 93.0101C189.017 92.0339 188.29 91.5843 187.5 91.0101C185.921 89.8616 184.452 90.9505 182.5 91.0101C178.383 91.1358 175.81 93.5765 172 92.0101Z" fill="#003C6C" stroke="#003C6C"/>
</svg>
