<svg width="135" height="159" viewBox="0 0 135 159" fill="none" xmlns="http://www.w3.org/2000/svg">
<g clip-path="url(#clip0_1_254)">
<path d="M102.03 24.97C100.11 25.56 97.45 25.96 95.79 24.57C95.27 24.13 94.95 23.59 94.64 23C92.47 23.81 89.62 23.65 89.11 20.94C85.9 21.66 82.15 20.85 83.29 16.7C84.32 12.94 88.08 10.3 91.99 11.35C92.64 11.52 93.84 11.89 92.86 12.62C91.23 12.71 88.39 12.84 87.16 14.04C86.28 14.9 85.27 17.51 85.43 18.71C85.5 19.23 86.49 19.57 86.95 19.62C89.6 19.88 90.77 16.52 91.49 14.56L93.21 14.35C93.47 14.53 93.04 16.64 92.92 17.02C92.51 18.25 91.16 19.76 91.67 21.14C91.83 21.59 92.11 21.8 92.59 21.76C93.03 21.72 94.21 20.84 94.57 20.51C95.55 19.63 95.81 17.6 96.2 16.35C97.48 12.3 100.17 7.35001 103.64 4.78001C104.61 4.06001 106.25 3.07001 106.92 4.65001C108 7.19001 104.89 11.5 103.34 13.44C101.44 15.82 99.28 18.01 97.34 20.36C97.28 21.21 97.34 22.42 98.06 22.99C99.73 24.31 102.22 23.13 103.26 21.58C106.67 16.47 107.11 8.91001 112.7 5.19001C114.21 4.19001 116.06 3.91001 115.9 6.33001C115.72 9.03001 112.54 14.51 110.89 16.74C109.46 18.67 107.39 20.07 105.96 22.01C103.9 24.79 103.21 29.12 108.07 28.67C108.34 28.64 109.64 28.34 109.81 28.2C109.96 28.08 109.86 27.08 109.88 26.81C110.04 24.76 111.1 22.7 112.74 21.45C113.65 20.75 114.86 20.73 115.22 21.99C115.71 23.69 114.02 26.75 113.07 28.17C112.56 28.93 111.44 29.69 113.1 30.06C114.98 30.49 116.46 30 117.58 28.42C118.94 26.5 120.13 24.46 121.6 22.6C122.03 22.06 123.09 20.8 123.84 21.45C124.47 22 124.04 22.85 123.68 23.42C122.98 24.51 121.77 25.34 121.31 26.55C121.14 27.01 120.96 27.72 121.05 28.2C121.08 28.34 121.63 29.01 121.82 28.75C123.27 26.82 124.89 25.02 126.49 23.21C126.88 22.97 127.52 23.18 127.98 23.02C128.6 23.17 128.4 23.63 128.23 24.07C127.11 26.98 123.05 31.38 120.83 33.7C118.61 36.02 116.05 38.21 113.67 40.49C113.58 40.58 113.13 40.98 113.2 41.08C113.99 41.48 114.78 41.88 115.67 42.02C121.5 42.99 128.25 38.24 132.66 34.88C132.81 34.81 134.34 34.52 134.34 34.65C132.8 37.34 129.98 39.17 127.29 40.6C123.25 42.74 116.94 45.56 112.49 43.36C112.24 43.24 111.53 42.65 111.34 42.68C110 44.67 107.43 46.23 105.07 46.63C100.07 47.48 98.22 42.72 101.82 39.57C104.67 37.07 107.76 37.52 110.77 39.43C110.95 39.54 111.45 40.01 111.61 39.97C114.66 37.37 117.22 34.26 119.89 31.28L119.96 31.02C119.48 30.95 118.82 30.79 118.64 30.29H118.53C117 31.69 114.86 33.44 112.63 32.88C111.32 32.55 110.33 31.16 109.98 29.92C107.63 30.3 104.38 30.48 102.8 28.33C102.56 28.01 102.05 26.95 102.05 26.58V25L102.03 24.97ZM104.52 7.14001C104.45 7.07001 103.77 7.49001 103.66 7.56001C102.16 8.58001 100.79 10.62 99.93 12.2C99.35 13.26 98.86 14.38 98.43 15.5C98.58 15.64 99.96 14.24 100.12 14.07C101.41 12.7 102.55 11.17 103.24 9.41001L104.53 7.14001H104.52ZM112.67 8.75001C112.53 8.72001 112.5 8.83001 112.41 8.90001C112.08 9.17001 111.59 9.73001 111.31 10.07C109.76 11.93 108.57 14.26 107.97 16.6C108.02 16.66 108.42 16.33 108.48 16.27C109.61 15.31 110.67 13.62 111.33 12.3C111.53 11.89 112.81 8.92001 112.66 8.75001H112.67ZM113.26 23.22C112.67 24.28 110.98 25.47 111.68 26.8C111.91 26.87 112.71 26.08 112.89 25.89C113.22 25.53 113.74 24.84 113.77 24.35C113.78 24.11 113.62 23.02 113.26 23.22ZM105.46 39.3C104.25 39.48 102.75 41.04 102.62 42.26C102.47 43.72 104.41 44.29 105.58 44.19C106.97 44.07 107.55 43.37 108.57 42.63C108.94 42.36 109.97 41.96 109.87 41.47C109.8 41.07 108.48 40.14 108.1 39.94C107.3 39.52 106.39 39.18 105.46 39.31V39.3Z" fill="#003C6C"/>
<path d="M90.72 97.26C90.8 97.31 90.86 97.5 91.04 97.46C91.16 97.39 91.28 97.31 91.38 97.22C93.27 95.68 95.66 93.11 97.32 91.28C102.54 85.52 105.64 80.39 105.69 72.35C105.73 66.12 104.52 55.95 99.67 51.5C98.57 50.49 97.13 50.42 96.96 48.56C96.82 47.03 96.79 45.73 96.49 44.19C95.85 40.89 93.46 32 88.59 33.75C84.24 35.31 84.48 43.54 85.16 47.16C85.56 49.3 86.96 54.75 90.12 52.61C90.83 52.13 92.94 49.66 93.4 49.57C94.06 49.44 94.14 50.14 94.02 50.63C93.79 51.56 91.48 53.91 90.64 54.44C87.87 56.21 85.33 53.62 84.3 51.18C82.64 47.25 82.17 40.69 83.77 36.7C85.37 32.71 90.19 29.35 93.81 33.23C96.83 36.47 98.4 40.63 98.58 45.05C98.63 46.13 98.36 47.55 98.88 48.49C99.45 49.51 100.83 50.06 101.73 50.85C104.6 53.38 106.33 56.65 107.2 60.35C108.9 67.61 108.78 76.65 105.71 83.52C103.6 88.25 97.67 94.89 93.62 98.15C93.21 98.48 91.66 99.69 91.25 99.75C90.65 99.85 89.94 98.68 89.32 99.54L89.76 99.47C89.67 100.5 89.76 101.29 88.68 101.73C87.6 102.17 86.15 102.17 85.11 101.52C83.82 100.7 83.95 99.31 84.4 98.02C82.6 97.29 81.13 95.79 80.52 93.94C79.97 93.96 79.45 94.11 78.87 94.05C78.29 93.99 77.17 93.36 76.82 92.87C76.11 91.88 76.53 90.95 76.93 89.94H74.84C74.51 89.94 73.85 89.09 73.99 88.7L73.7 88.66C73.55 88.56 73.64 87.94 73.68 87.75C74.14 85.78 77.07 82.14 78.62 80.8C78.8 80.65 79.78 79.78 79.79 80.43C79.79 80.48 79.53 81.27 79.5 81.35C78.82 82.91 77.05 84.73 76.03 86.21C75.88 86.44 74.8 88.03 74.94 88.17C76.32 88.27 77.74 88.47 79.11 88.16C79.11 86.93 79.15 85.7 79.28 84.47C79.34 83.91 79.41 83.2 79.52 82.66C79.56 82.47 79.6 82 79.85 82C80.08 82.48 80.58 83.35 80.58 83.87V88.16C84.28 87.31 88.45 88.31 90.67 91.54C90.77 91.57 91.19 90.95 91.28 90.83C95.92 84.54 96.55 76.47 97.09 68.9C97.24 67.45 96.87 65.52 97.09 64.13C97.17 63.63 97.91 63.25 98.33 63.62C98.9 64.12 99.01 65.81 99.07 66.55C99.34 69.94 99.14 73.94 98.77 77.33C98.1 83.38 96.06 89.82 91.25 93.82C91.28 94.12 91.46 94.35 91.5 94.67C91.56 95.19 91.58 96.07 90.85 96.02C90.09 95.31 89.86 94.33 89.42 93.45C88.46 91.55 86.61 89.79 84.52 89.25C83.95 89.1 82.05 89 81.58 89.28C81.39 89.39 81.44 90.23 81.46 90.48C81.72 94.44 84.79 97.19 88.58 97.78C88.61 97.65 88.53 97.63 88.47 97.56C87.98 96.93 87.37 96.41 86.9 95.75C86.71 95.48 86.35 95.1 86.41 94.77C87.86 95.56 89.35 96.32 90.7 97.26H90.72ZM79.79 90.07C77.66 90.51 77.86 93.44 80.23 92.82C79.95 91.94 79.89 90.99 79.79 90.07ZM88.37 100.05C88.51 99.86 87.54 99.65 87.4 99.59C87.22 99.52 86.08 98.97 86.02 99.02C86.28 100.35 87.23 100.56 88.37 100.05Z" fill="#003C6C"/>
<path d="M52.24 57.01C49.12 59.83 45.24 58.63 43.3 55.18C43.17 54.95 42.72 53.97 42.72 53.77C42.73 53.34 43.44 52.78 43.88 53.06C44.7 54.12 46.52 56.33 47.9 56.52C49.98 56.81 52 54.27 52.63 52.53C54.55 47.19 54.01 41.09 51.25 36.15C49.11 32.33 44.34 31.17 41.45 34.88C37.11 40.44 38.1 52.9 36.09 59.9C34.84 64.25 31.74 67.87 30.75 72.24C29.11 79.47 31.84 87.16 37.23 92.08C42.72 97.09 48.31 98.53 55.69 98.36C56.94 98.33 59.98 97.9 60.96 98.59C61.43 98.92 61.44 99.44 60.88 99.66C58.69 99.96 56.5 100.08 54.29 100.11C45.51 100.25 39.69 98.82 33.63 92.23C26.85 84.86 25.36 76.29 29.84 67.15C30.96 64.86 32.51 63.34 33.32 60.87C35.19 55.16 34.37 48.97 35.73 43.17C36.43 40.17 38.01 33.96 40.28 31.94C42.55 29.92 47.01 29.9 49.52 31.51C52.36 33.35 55 39.58 55.57 42.86C56.41 47.78 56.19 53.46 52.26 57.01H52.24Z" fill="#003C6C"/>
<path d="M62.45 8.25C62.68 8.6 61.66 9.99 61.4 10.3C60.2 11.71 58.53 12.84 56.85 13.6C56.79 15.09 56.91 16.68 56.12 18.01C55.33 19.34 53.14 20.73 51.64 20.87C49.89 21.03 48.43 20.11 47.15 19.05C46.25 19.36 44.17 20 43.42 19.26C42.5 18.36 42.62 15.14 42.58 13.9C42.42 13.87 42.32 13.92 42.19 13.99C41.95 14.1 41.11 14.73 40.93 14.93C40.78 15.09 40.52 15.48 40.53 15.69C40.55 16.13 41.21 17.36 41.37 17.94C41.7 19.13 41.63 20.01 41.13 21.15C40.3 23.05 38.3 23.73 36.46 22.79C35.31 24.73 34.56 26.58 31.91 26.3C31.24 26.23 30.77 25.87 30.18 25.65C29.74 28.8 29.17 31.98 28.31 35.04C28.05 35.97 27.63 36.77 27.62 37.72C27.6 40.05 27.56 43.49 26 45.36C24.83 46.77 21.9 48.77 21.06 45.97C20.3 43.46 22.01 40.61 23.61 38.79C23.84 38.53 24.78 37.73 24.82 37.51L24.14 31.14C24.1 31.03 24.14 30.94 23.98 30.93C23.75 30.93 23.09 31.24 22.71 31.28C22.21 31.33 21.81 31.24 21.39 30.95C21.21 30.92 21.11 30.44 20.97 30.49C20.89 30.52 20.19 31.57 19.98 31.78C18.43 33.27 16.07 33.4 15.07 31.25C13.79 28.53 14.18 23.28 17.19 21.79C18.46 21.16 19.08 21.4 20.33 21.67C20.88 21.79 21.88 21.57 21.4 22.57C20.76 22.66 20.24 22.65 19.64 22.92C17.44 23.9 15.84 26.82 16.65 29.17C17.04 30.31 18 30.78 18.96 29.87C20.16 28.75 19.95 25.82 19.76 24.33L21.32 24.25L21.94 25.18L22.4 29.75C23.14 29.76 23.19 28.8 23.27 28.23C23.69 25.13 22.28 22.14 22.63 19.22C22.79 17.92 24.02 18.08 24.64 18.96C25.13 19.66 25.7 22.07 25.89 22.99C26.43 25.58 26.33 28.26 26.92 30.84C27.13 30.27 27.27 29.66 27.42 29.07C27.7 27.96 28.16 26.32 28.27 25.22C28.41 23.73 28.11 22.17 28.57 20.68C28.97 19.38 31.48 16.04 32.78 15.64C33.73 15.35 34.57 15.61 33.78 16.64C32.8 17.93 31.65 18.74 31.25 20.49C30.97 21.72 31.42 24.78 33.22 24.37C33.83 24.23 34.77 22.27 34.85 21.67C34.93 21.07 34.59 20.67 34.42 20.11C34.24 19.5 34.16 18.82 34.22 18.18C34.35 16.89 35.79 15.95 36.46 17.41C36.81 18.18 36.72 19.18 36.72 20.02C36.72 20.19 36.63 20.35 36.65 20.51C36.74 21.05 37.66 21.72 38.22 21.74C40.15 21.81 39.71 18.89 39.4 17.7C39.09 16.51 38.27 15.55 39.04 14.4C39.92 13.07 43.05 11.17 44.24 13.01C44.45 13.34 44.23 13.3 44.15 13.57C43.9 14.5 43.97 15.88 44.06 16.85C44.15 17.89 44.51 18.1 45.53 18.21C45.63 15.09 46.61 11.89 49.75 10.65C51.49 9.96 53.67 10.16 55.18 11.31C55.52 11.57 55.88 12.29 56.27 12.26C57 12.2 59.37 10.58 60.02 10.06C60.44 9.72 61.83 8.22 62.17 8.17C62.24 8.16 62.45 8.2 62.47 8.24L62.45 8.25ZM50.92 11.78C50.09 11.89 49.68 12.25 49.33 12.98C48.54 14.63 48.21 17.59 49.84 18.83C52.03 20.51 54.4 18.14 54.6 15.9C54.78 13.93 53.07 11.48 50.91 11.77L50.92 11.78ZM25.18 41.48C23.74 42.1 22.85 44.28 22.83 45.77C22.83 46.04 23.33 45.72 23.44 45.65C24.27 45.15 25.18 43.58 25.18 42.62V41.48Z" fill="#003C6C"/>
<path d="M40.35 100.66C41.25 101.5 40.81 103.28 40.36 104.26C39.38 106.4 37.18 107.49 34.87 107.1C35.49 111.53 34.38 115.99 31.56 119.46C31.3 119.78 30.62 120.36 30.46 120.63C30.21 121.05 30.4 122.22 30.5 122.73C30.75 124.07 31.43 125.44 32.45 126.36C32.58 126.48 33.35 127.11 33.48 126.98C33.43 124.8 34.22 122.46 35.4 120.64C37.78 116.96 43.32 115.4 45.82 119.81C45.92 119.99 45.91 120.22 46.06 120.38C46.18 120.51 46.59 120.64 46.78 120.69C49.09 121.32 51.09 119.65 53.21 119.08C54.43 118.75 55.61 118.63 55.97 120.1C56.35 121.65 56.36 123.56 56.63 125.17C57.15 128.32 57.92 130.41 59.91 132.9C60.24 133.31 60.92 133.92 61.16 134.29C61.22 134.38 61.25 134.44 61.23 134.55C60.16 134.78 58.98 134.68 57.96 134.26C56.48 133.65 55.84 131.88 55.43 130.44C55.3 130.31 55.11 130.89 55.05 130.98C53.92 132.6 51.81 133.5 49.86 132.96C46.89 132.14 46.71 126.12 47.9 123.84L48.96 122.15L46.17 122C46.17 125.96 44.78 129.48 40.91 131.01C38.82 131.83 37.15 131.83 35.39 130.33C35.07 130.06 34.16 128.97 33.92 128.86C33.73 128.77 33.36 128.79 33.12 128.71C30.51 127.86 28.96 125.5 28.49 122.88L25.34 124.97C22.48 126.9 17.47 126.22 17.05 122.24C16.54 117.42 22.94 113.75 26.73 117.33C27.41 117.97 27.7 118.6 28.11 119.4C28.14 119.47 28.09 119.52 28.24 119.5C28.45 119.46 29.47 118.44 29.67 118.22C32.26 115.33 33.4 110.97 32.64 107.17C30.62 106.81 28.76 106.09 27.17 104.79C26.85 104.53 26.45 104.18 26.18 103.87C26.12 103.8 25.72 103.33 25.78 103.28C27.56 103.7 29.35 104.21 31.06 104.86C31.33 104.96 33.03 105.78 33.12 105.7C33.74 103.16 35.64 100.82 38.32 100.36C38.99 100.25 39.82 100.15 40.36 100.66H40.35ZM35.02 105.48C36.26 105.29 38.24 104.57 38.82 103.38C39.1 102.81 39.03 101.85 38.23 101.98C37.48 102.1 36.4 103.35 35.94 103.95C35.81 104.12 34.91 105.38 35.02 105.48ZM21.94 118.06C18.38 118.43 17.4 124.08 21.62 123.61C22.97 123.46 24.88 122.4 25.95 121.56C26.08 121.46 26.84 120.84 26.86 120.78C26.99 120.4 25.94 119.21 25.62 118.96C24.6 118.14 23.22 117.93 21.93 118.06H21.94ZM40.87 119.08C39.28 119.1 37.08 122.03 36.4 123.34C35.38 125.28 35.18 126.94 37.04 128.45C41.55 132.11 45.69 122.51 42.61 119.87C42.24 119.55 41.37 119.07 40.87 119.08ZM54.39 120.46C51.77 121.39 49.9 122.85 49.29 125.67C48.9 127.48 48.95 132.41 51.97 131.43C53.42 130.96 53.74 129.92 53.94 128.56C54.24 126.59 54.34 124.19 54.39 122.19C54.4 121.62 54.37 121.04 54.39 120.46Z" fill="#003C6C"/>
<path d="M133.35 90.16L134.38 92.51C134.18 93.18 133.82 93.78 133.59 94.44C133.16 95.63 132.84 97.88 132.05 98.77C131.82 99.03 131.65 99.15 131.29 99.1C130.4 98.97 130.72 97.24 130.87 96.63C131.1 95.74 131.91 94.75 130.96 93.92C129.74 92.85 126.66 92.88 125.16 93.3C125.12 93.48 125.19 93.42 125.26 93.46C125.95 93.94 126.66 94.26 127.33 94.84C129.42 96.64 130.78 99.63 129.22 102.23C128.22 103.9 126.35 103.8 124.67 103.44C124.34 104.19 122.84 106.52 121.98 106.5C121.38 106.49 119.44 104.09 118.83 103.57C118.39 103.2 117.58 102.7 116.99 102.69C116.74 102.69 115.96 102.87 115.93 103.17C115.88 103.7 116.51 104.97 116.77 105.48C117.5 106.87 118.47 108.13 119.36 109.42C119.38 109.52 119.16 109.84 119.08 109.92C118.88 110.14 117.87 110.82 117.61 110.66C116.91 109.17 115.73 108 114.53 106.91L113.65 106.29C113.9 107.78 113.99 109.29 113.95 110.81C113.92 111.96 113.84 114.11 113.2 115.05C112.8 115.63 111.15 117.11 110.57 116.09C110.1 115.26 111.52 114.39 111.66 113.8C111.93 112.63 110.54 110.15 109.62 109.41C109.14 109.02 108.48 108.73 107.86 108.79C107.99 109.97 108.88 110.84 109.29 111.95C109.76 113.23 109.82 114.99 109.27 116.26C108.6 117.81 106.73 118.28 105.48 117.09C104.85 116.49 104.67 115.47 103.83 115.11C103.97 116.28 103.89 117.56 103.75 118.73C103.69 119.22 103.48 120.81 103.07 121.06C102.66 121.31 102.34 121.02 102.29 120.58C102.06 118.33 102.5 115.94 101.64 113.74C101.34 112.96 100.17 111.86 101.16 111.23C101.52 111.01 101.92 111.17 102.31 111.31C103.48 111.74 104.43 112.94 105.11 113.94C105.79 114.94 106.06 116.03 107.6 115.85C108.06 114.35 107.56 112.61 107.08 111.17C106.82 110.4 106.02 108.83 106.1 108.11C106.15 107.64 106.55 107.57 106.95 107.5C108.15 107.28 108.87 107.58 109.89 108.14L111.97 109.47C111.91 105.77 110.13 102.58 107.93 99.75C107.46 99.15 106.14 97.86 106.03 97.17C105.85 96.05 106.97 96.01 107.6 96.63L113.99 103.09C114.56 99.51 117.99 100.16 120.12 102.03C120.72 102.56 121.33 103.4 122.04 103.78C123.35 104.49 123.25 102.8 122.43 102.07C121.11 100.89 118.77 98.97 118.52 97.1C118.29 95.34 120.23 94.31 121.79 94.79C124.08 95.5 125.01 98.25 124.97 100.43C124.96 101.06 124.73 101.16 125.46 101.55C127.25 102.52 128.19 100.51 127.82 98.97C127.19 96.27 124.03 94.26 121.78 92.97C121.64 92.87 121.54 92.71 121.62 92.54C121.7 92.37 122.66 91.51 122.87 91.43C125.23 90.57 129.19 90.97 131.45 92.03L132.52 92.68L132.98 90.31C133.06 90.09 133.2 90.07 133.38 90.2L133.35 90.16ZM120.94 96.83C120.41 96.93 120.6 97.8 120.77 98.14C121.02 98.62 122.22 99.64 122.76 99.61C123.36 99.58 122.94 98.65 122.76 98.36C122.63 98.15 121.72 97.18 121.51 97.04C121.35 96.92 121.15 96.79 120.94 96.83Z" fill="#003C6C"/>
<path d="M0.670006 12.68C0.930006 10.22 3.60001 7.58001 6.07001 7.36001C9.03001 7.09001 10.64 8.84001 11.7 11.35C13.74 16.2 14.57 22.48 10.84 26.74L10.82 26.9C11.88 28.87 13.12 30.76 14 32.83C14.63 34.31 15.86 37.62 15.63 39.16C15.49 40.09 14.78 39.91 14.19 39.47C11.88 37.75 10.01 31.47 8.86001 28.73C7.71001 25.99 5.90001 22.62 4.16001 20.37C3.95001 20.1 2.91001 18.84 2.70001 18.75C2.55001 18.69 2.59001 18.84 2.60001 18.92C2.65001 19.66 3.21001 21.21 1.81001 20.45C0.820006 19.91 0.540006 18.06 0.460006 17.03C0.430006 16.6 0.530006 16.05 0.450006 15.65C0.400006 15.41 0.150006 15.2 0.0800056 14.99C-0.0299944 14.64 0.0500056 14.27 0.0200056 13.91L0.680006 13.98C0.710006 13.57 0.640006 13.1 0.680006 12.7L0.670006 12.68ZM9.62001 23.5C9.74001 23.53 9.77001 23.47 9.83001 23.38C9.94001 23.22 10.24 22.47 10.32 22.25C11.39 19.22 11.22 15.32 9.80001 12.43C8.28001 9.34001 5.54001 8.89001 3.62001 11.96C3.09001 12.8 2.79001 13.82 2.67001 14.8C4.71001 17.11 6.92001 19.38 8.69001 21.91C9.03001 22.4 9.43001 22.94 9.63001 23.5H9.62001Z" fill="#003C6C"/>
<path d="M61.44 87.06C61.33 86.91 60.95 86.84 60.78 86.73C59.8 86.08 58.68 83.95 58.28 82.84C57.56 80.84 57.14 78.26 59.41 77.14C61.95 75.88 63.55 77.11 65.11 79.03C69.36 84.26 72.64 90.62 75.72 96.6C77.14 99.36 80.5 105.27 80.23 108.23C79.96 111.19 76.27 111.86 73.89 111.13C70.3 110.03 66.57 103.75 65.33 100.38C64.68 98.61 64.16 96.68 64.01 94.81C64.01 94.77 64.39 94.7 64.45 94.69C64.63 94.69 64.86 94.64 64.96 94.81C66.1 97.94 67.64 100.91 69.41 103.71C70.87 106.02 73.74 110.61 77.05 109.31C79.06 108.52 78.55 106.58 77.99 104.97C75.64 98.26 70.8 90.68 67.01 84.61C66 83 64.89 81.04 63.78 79.55C63 78.5 61.69 77.83 60.42 78.51C58.53 79.52 60.06 83.11 60.82 84.49C61.09 84.98 62.11 86.35 62.04 86.8C62 87.06 61.66 87.07 61.45 87.06H61.44Z" fill="#003C6C"/>
<path d="M79.05 14.4C79.77 13.5 80.36 12.47 81.07 11.54C84.12 7.53999 88.69 3.54999 94.09 4.04999C94.26 4.18999 93.59 4.36999 93.53 4.39999C91.35 5.55999 88.98 7.29999 87.09 8.88999C83.35 12.05 80.54 16.34 78.32 20.67C78.07 20.94 76.99 20.88 76.6 20.84C76.11 20.79 75.78 20.68 75.7 20.14C76.17 15.53 77.04 10.3 76.09 5.70999C75.76 4.13999 75.4 3.16999 73.94 2.42999C73.61 2.26999 72.28 1.78999 72.15 1.62999C71.49 0.759993 72.98 0.0599927 73.66 -7.30716e-06C76.06 -0.240007 77.49 2.27999 78.1 4.21999C79.13 7.47999 79.07 10.99 79.05 14.39V14.4Z" fill="#003C6C"/>
<path d="M78.58 122.29C78.75 122.33 80.15 123.57 80.38 123.79C81.82 125.22 83.34 127.37 83.73 129.39C83.8 129.73 83.85 130.08 83.83 130.43C83.91 130.43 83.99 130.43 84.07 130.41C84.61 130.25 85.8 129.52 86.42 129.24C88.34 128.39 90.39 127.63 92.49 127.42C92.4 127.6 92.19 127.7 92.03 127.8C89.24 129.52 85.73 131.4 82.78 132.86C82 133.25 80.12 134.17 79.32 134.15C78.57 134.13 78.47 133.59 78.55 132.95C78.63 132.31 79.45 131.84 79.99 131.6C80.28 131.48 81.59 131.15 81.67 131.08C81.76 131 81.83 130.59 81.84 130.45C82.06 128.47 80.52 126.69 79.17 125.43C79 125.4 79.07 125.5 79.06 125.61C79 126.47 79.09 127.27 78.97 128.16C78.68 130.16 77.75 132.16 76 133.27C73.49 134.86 71.72 133.42 70.84 130.97C70.6 130.81 69.33 131.37 69.22 130.53C69.13 129.77 69.89 129.7 70.25 129.22C70.73 128.57 70.49 127.77 70.54 127.02C70.66 125.38 70.82 123.19 72.42 122.3C74.02 121.41 75.67 122.42 75.87 124.11C76.14 126.34 74.64 128.6 72.75 129.65C72.5 131.03 73.69 132.28 75.06 131.63C75.97 131.2 76.76 129.85 77.05 128.92C77.71 126.82 77.49 124.38 76.92 122.29H78.57H78.58ZM72.67 127.5C72.82 127.64 73.28 127.03 73.36 126.91C73.73 126.36 73.97 125.64 73.91 124.97C73.86 124.44 73.72 123.93 73.11 124.31C72.23 124.86 72.54 126.63 72.67 127.5Z" fill="#003C6C"/>
<path d="M98.87 98.58C98.89 98.98 98.84 99.4 98.87 99.79C98.89 100.09 99.02 100.47 99.02 100.74C99.02 101.4 97.94 103.15 97.51 103.7C96.22 105.36 94.11 106.72 92.14 107.43C91.96 107.49 90.58 107.84 90.58 107.92L92.49 109.31L94.8 111.55C95.78 110.92 96.48 109.8 97.05 108.81C97.17 108.6 97.7 107.44 97.77 107.4C97.95 107.29 98.12 107.5 98.2 107.64C98.49 108.12 98.36 109.76 98.2 110.32C98.07 110.77 97.5 111.47 97.25 111.94C96.98 112.45 96.37 113.75 96.4 114.28C96.44 114.96 98.08 117.74 98.53 118.47C99.63 120.27 100.94 121.93 102.17 123.64C102.3 124.17 101.19 124.71 100.75 124.68C100.57 124.67 100.03 123.92 99.88 123.73C97.54 120.73 95.81 117.52 93.75 114.38C92.21 112.03 90.41 108.92 87.19 109.29C86.44 109.38 85.54 110.07 86.15 110.83C86.56 111.35 87.29 110.83 87.6 110.91C87.66 110.93 88.12 111.24 88.17 111.3C88.66 111.88 88.06 112.27 87.55 112.44C85.87 113.01 83.56 112.04 83.87 110.01C84.26 107.48 87.66 107.1 89.6 106.42C91.75 105.66 95.06 103.41 96.53 101.68C97.33 100.74 97.96 99.52 98.71 98.66C98.75 98.61 98.71 98.52 98.88 98.57L98.87 98.58Z" fill="#003C6C"/>
<path d="M80.35 77.93C80.15 78.11 79.8 78.36 79.53 78.4C78.77 78.32 79.41 76.54 79.53 76.12C79.77 75.29 80.13 74.48 80.35 73.64C81.38 69.72 81.23 65.23 81.4 61.18C81.47 59.63 81.48 58.07 81.62 56.52C79.98 56.73 78.32 56.85 76.7 57.22C72.52 58.17 68.14 60.14 64.25 61.94C63.6 62.24 62.81 62.56 62.19 62.89C61.57 63.22 60.77 63.98 60 63.94C59.75 63.93 59.23 63.27 59.22 63.01C59.22 62.91 59.22 62.84 59.26 62.76C59.34 62.59 60.9 61.28 61.17 61.07C65.99 57.39 74.28 55.62 80.25 55.42C80.96 55.4 81.55 55.31 82.3 55.42C82.74 55.49 82.8 55.67 82.91 56.06C83.53 58.28 83.11 61.88 83.22 64.26C83.32 66.36 83.7 68.19 83.52 70.35C83.31 72.83 82.24 76.21 80.34 77.92L80.35 77.93Z" fill="#003C6C"/>
<path d="M62.08 120.85C62.34 121.14 62.47 122.91 62.57 123.41C63.02 125.82 63.53 128.47 64.93 130.51C65.03 130.51 65.07 130.11 65.09 130.01C65.27 129.07 65.41 127.97 65.54 127.01C65.72 125.63 65.74 123.7 66.17 122.43C66.95 120.17 69.12 122.33 69.29 123.75C68.03 124.24 67.73 125.49 67.61 126.73C67.35 129.37 67.73 132.64 65.69 134.72C65.05 135.37 64.6 135.14 63.98 134.62C61.07 132.22 60.22 126.46 60.13 122.91C60.12 122.47 60.04 121.12 60.3 120.84C60.61 120.5 61.81 120.53 62.09 120.84L62.08 120.85Z" fill="#003C6C"/>
<path d="M38.52 70.49C39.01 70.34 39.25 70.89 39.4 71.26C39.88 72.45 40.11 74.06 40.47 75.33C41.35 78.45 42.23 81.78 44.16 84.41C45.45 86.17 47.28 88.14 49.04 89.44C49.61 89.86 51.16 90.64 51.49 91.02C52.14 91.77 51.44 92.24 50.62 92.11C48.14 91.71 43.8 87.82 42.32 85.81C40.05 82.74 37.56 75.86 37.87 72.06C37.9 71.68 38.1 70.62 38.51 70.5L38.52 70.49Z" fill="#003C6C"/>
<path d="M85.44 118.11C85.43 117.86 85.47 117.59 85.44 117.35C85.38 116.87 84.55 115.66 85.56 115.69C86.32 115.71 86.61 116.53 86.74 117.16C86.84 117.63 86.77 118.61 86.9 118.91C87.09 119.36 90.01 119.97 88.94 120.98C88.3 121.59 86.83 120.88 86.09 120.75C85.54 121.96 83.63 122.74 82.44 122.04C80.61 120.96 80.78 118.6 81.03 116.77C80.45 116.04 79.88 115.27 79.63 114.35C79.17 112.65 79.79 110.59 81.88 111.66C83.4 112.44 82.81 115 82.84 116.35C83.26 116.61 83.68 116.88 84.08 117.17C84.43 117.43 84.85 117.82 85.19 118.04C85.28 118.1 85.34 118.13 85.45 118.11H85.44ZM80.81 113.12C80.74 113.5 80.43 114.5 80.94 114.65C81.17 114.72 81.58 114.64 81.54 114.35C81.52 114.22 81.12 113.36 81.03 113.24C80.97 113.16 80.95 113.09 80.82 113.12H80.81ZM82.7 118.49C82.33 118.56 82.37 120.11 82.5 120.35C83.07 121.35 85.03 120.33 84.56 119.53C84.37 119.21 83.01 118.42 82.69 118.48L82.7 118.49Z" fill="#003C6C"/>
<path d="M83.17 82.72C82.73 80.73 83.93 78.96 84.51 77.13C85.46 74.13 86 70.57 86.18 67.42C86.31 65.14 86.18 62.79 86.71 60.54C86.85 59.93 87.23 58.88 87.78 59.94C88.91 62.11 88.19 68.25 87.86 70.79C87.41 74.28 86.29 78.4 84.5 81.45C84.34 81.71 83.56 82.98 83.17 82.72Z" fill="#003C6C"/>
<path d="M70.96 49.95C72.88 49.86 76.15 49.79 77.98 50.23C78.43 50.34 78.55 50.71 78.12 50.94C75.26 51.03 72.39 51.28 69.57 51.78C65.28 52.54 61.36 54.37 57.21 55.5C56.28 55.75 54.58 56.04 55.41 54.5C55.8 53.77 56.7 53.47 57.43 53.14C61.52 51.27 66.47 50.16 70.97 49.95H70.96Z" fill="#003C6C"/>
<path d="M63.31 150.84C63.31 150.84 63.44 150.95 63.41 151.01C62.95 151.68 63.15 155.02 63.67 155.4C64 155.64 64.15 155.22 64.26 154.95C64.83 153.64 64.78 152.23 64.59 150.84H65.98C65.83 152.15 65.71 154.17 66.33 155.37C66.54 155.78 66.9 155.06 66.97 154.87C67.51 153.52 67.38 152.21 67.08 150.84H68.33C68.65 152.11 68.47 153.57 68.09 154.82C67.85 155.62 67.37 156.68 66.88 157.35C66.64 157.67 66.54 157.99 66.17 157.51C65.99 157.28 65.25 155.7 65.14 155.68C65.03 155.66 65 155.69 64.92 155.76C64.58 156.06 64.1 157.51 63.78 157.7C63.48 157.88 63.15 157.31 63 157.08C61.84 155.29 61.6 152.9 61.95 150.83H63.31V150.84Z" fill="#003C6C"/>
<path d="M64.01 92.35C63.56 92.42 63.31 92.18 63.35 91.73C63.37 91.41 64.08 90.6 64.27 90.23C65.13 88.59 64.48 88.29 62.99 89.1C61.26 90.04 60.76 91.64 59.6 92.98C59.16 93.48 58.85 93.9 58.32 93.24C57.86 92.68 58.14 92.19 58.36 91.59C58.95 89.97 60.2 88.66 61.81 88.03C64.15 87.12 67.59 87.01 65.66 90.53C65.44 90.93 64.41 92.3 64.01 92.36V92.35Z" fill="#003C6C"/>
<path d="M34.39 141.15C34.59 141.21 34.34 141.76 34.3 141.94C34.26 142.15 33.87 144.09 34.17 144.08C34.84 143.6 35.34 142.74 35.69 142C35.83 141.71 35.83 141.35 36.08 141.14H37.18C37.36 141.33 37.18 141.83 37.08 142.07C36.82 142.76 36.28 143.27 35.9 143.88C36.66 144.88 37.34 145.97 37.43 147.27C37.44 147.47 37.49 147.76 37.32 147.89H35.89C35.76 146.85 35.81 145.71 35.04 144.89C34.74 144.83 34.2 145.54 34.15 145.81C34.06 146.28 34.41 147.19 34.43 147.7L34.32 147.88H33.07C32.96 147.79 32.94 147.65 32.92 147.52C32.69 146.37 32.7 142.76 32.98 141.63C33.02 141.45 33.08 141.26 33.22 141.13H34.39V141.15Z" fill="#003C6C"/>
<path d="M49.69 154.73C49.8 155.76 50.49 156.45 51.56 156.34C52.13 156.28 52.73 155.8 52.33 155.2C51.75 154.34 49.48 154.63 49.32 152.78C49.18 151.09 50.64 150.44 52.11 150.72C53.28 150.95 53.97 151.55 52.86 152.51C52.61 152.57 52.29 152.08 52.1 151.97C51.47 151.59 50.26 151.83 50.62 152.72C50.81 153.18 52.22 153.51 52.7 153.79C53.24 154.1 53.73 154.63 53.79 155.27C54.13 158.67 48.69 158.4 49.1 155.5C49.13 155.31 49.45 154.53 49.68 154.72L49.69 154.73Z" fill="#003C6C"/>
<path d="M79.71 147.91H78.21C78.1 147.82 78.08 147.68 78.06 147.55C77.84 146.41 77.84 142.71 78.13 141.6C78.19 141.36 78.23 141.19 78.5 141.16C79.04 141.1 81.05 141.09 81.55 141.2C82.52 141.4 82.82 142.49 82.5 143.34C82 144.68 79.84 145.17 79.53 145.87C79.3 146.37 79.71 147.38 79.71 147.92V147.91ZM79.99 142.12C79.53 142.21 79.35 142.77 79.3 143.19C79.27 143.43 79.18 144.39 79.47 144.44C79.88 144.52 81.24 143.36 81.32 142.93C81.44 142.25 80.51 142.02 79.99 142.12Z" fill="#003C6C"/>
<path d="M27.88 150.93C31.2 150.33 31.11 157.39 28.59 157.73C25.54 158.15 25.66 151.33 27.88 150.93ZM28.17 152.03C27.27 152.23 27.38 154.73 27.56 155.4C27.71 155.94 28.2 156.63 28.74 156.06C29.36 155.4 29.35 153 28.84 152.29C28.67 152.05 28.46 151.97 28.17 152.04V152.03Z" fill="#003C6C"/>
<path d="M112.31 152.59C112.23 152.23 112.23 151.96 111.81 151.88C109.74 151.5 109.16 155.25 110.98 156.08C111.88 156.49 112.86 156.08 113.04 155.09H113.26C113.56 156.26 113.05 157.47 111.8 157.7C108.3 158.34 107.6 153.15 109.78 151.28C110.55 150.62 111.8 150.46 112.7 150.92C113.69 151.43 113.52 152.79 112.31 152.59Z" fill="#003C6C"/>
<path d="M46.01 157.58C45.2 157.51 43.95 157.8 43.25 157.39C41.69 156.47 42.1 152.98 43.72 152.33C44.17 152.15 44.41 152.24 44.84 152.38C45.15 151.27 43.88 150.22 45.91 150.61C46.04 150.71 46.12 151.35 46.15 151.54C46.32 152.85 46.31 154.89 46.24 156.23C46.23 156.44 46.12 157.5 46.01 157.57V157.58ZM44.39 153.06C43.17 153.32 43.11 156.38 44.31 156.4C45.26 156.41 45.12 154.54 45.07 153.89C45.03 153.37 45.01 152.93 44.39 153.07V153.06Z" fill="#003C6C"/>
<path d="M73.4 140.93H74.54C74.64 141.01 74.67 141.1 74.7 141.21C75 142.13 74.94 145.74 74.87 146.84C74.86 147.05 74.79 147.78 74.65 147.87C74.55 147.93 72.73 147.93 72.48 147.91C70.76 147.72 70.72 145.05 71.28 143.85C71.55 143.27 72.24 142.52 72.92 142.55C73.14 142.56 73.4 142.8 73.51 142.63C73.72 142.31 73.32 141.34 73.4 140.94V140.93ZM73.45 146.56C73.85 146.16 73.88 143.93 73.58 143.5C73.24 143.01 72.54 143.63 72.33 144.01C71.99 144.65 71.9 146.18 72.59 146.62C72.84 146.78 73.24 146.77 73.45 146.57V146.56Z" fill="#003C6C"/>
<path d="M25.22 150.99L25.32 151.11C25.38 151.49 25.3 151.87 25.18 152.23C23.99 152.09 22.79 151.68 22.98 153.41C24.99 152.73 26.13 154.58 25.48 156.39C25.02 157.67 23.32 158.12 22.17 157.49C21.46 157.1 21.65 156.68 22 156.06C22.46 155.25 22.58 156.08 23.2 156.24C24.77 156.64 24.79 154 23.2 154.33C22.89 154.39 22.16 155.03 21.93 154.5C21.78 154.16 21.9 152.72 21.96 152.29C22.02 151.86 22.11 151.3 22.43 151H25.22V150.99Z" fill="#003C6C"/>
<path d="M33.4 156.46C33.6 155.04 35.03 154.47 35.79 153.49C36.59 152.44 35.46 151.32 34.55 152.61C34.41 152.81 34.26 153.48 33.96 153.19C33.93 153.16 33.53 152.44 33.51 152.38C33.33 151.72 34.49 150.96 35.05 150.91C37.69 150.67 37.91 153.17 36.19 154.69C35.71 155.12 34.82 155.48 34.8 156.19C35.01 156.23 35.21 156.11 35.42 156.11C36.19 156.13 36.75 156.9 36.86 155.49C36.86 155.38 36.8 155.28 36.97 155.31C37.82 156.27 37.24 157.84 35.87 157.73C35.52 157.7 35.12 157.5 34.77 157.51C34.34 157.51 33.94 157.83 33.5 157.72C33.49 157.67 33.41 157.58 33.41 157.55C33.41 157.22 33.37 156.75 33.41 156.45L33.4 156.46Z" fill="#003C6C"/>
<path d="M47.13 147.91C47.12 147.75 47.07 147.6 47.05 147.44C46.94 145.98 46.97 143.68 47.13 142.23C47.16 141.99 47.25 141.08 47.42 140.98C47.62 140.89 48.52 140.95 48.59 141.14C48.69 141.43 48.1 142.48 48.3 142.93C48.64 142.99 48.71 142.67 49.03 142.59C50.44 142.25 50.7 143.48 50.79 144.59C50.88 145.7 50.66 146.87 50.51 147.92H49.3C49.23 147.87 49.21 147.84 49.2 147.75C49.2 147.43 49.49 146.54 49.54 146.11C49.59 145.68 49.74 143.82 49.33 143.62C48.61 143.26 48.29 144.11 48.24 144.66C48.13 145.74 48.3 146.84 48.38 147.92H47.13V147.91Z" fill="#003C6C"/>
<path d="M38.28 157.59C38.11 157.54 38.03 156.86 38.02 156.68C37.96 155.84 37.95 153.33 38.21 152.6C38.36 152.18 38.58 152.08 39.02 152.08C39.38 152.08 39.73 152.1 39.51 152.51L39.61 152.68C42.01 151.3 41.93 154.41 41.85 155.95C41.84 156.22 41.73 157.37 41.61 157.51C41.59 157.53 41.46 157.6 41.45 157.6H40.31C40.45 156.44 40.8 155.3 40.68 154.11C40.56 152.98 39.63 153.16 39.34 154.16C39 155.31 39.4 156.44 39.43 157.59H38.29H38.28Z" fill="#003C6C"/>
<path d="M87.09 157.59C87.02 157.54 86.99 157.51 86.99 157.42C86.99 157.2 87.29 156.37 87.34 156C87.41 155.45 87.53 154.05 87.27 153.6C86.97 153.07 86.36 153.44 86.16 153.87C85.68 154.93 86.14 156.41 86.14 157.52C85.76 157.6 85 157.77 84.87 157.31C84.65 156.58 84.74 153.98 84.86 153.15C85.01 152.14 85.24 151.91 86.31 152.16V152.67C87.11 152.28 87.84 152 88.31 152.99C88.68 153.77 88.71 156.44 88.42 157.24C88.39 157.33 88.26 157.59 88.18 157.59H87.08H87.09Z" fill="#003C6C"/>
<path d="M88.67 142.47V142.98C89.26 142.7 90 142.43 90.51 143.02C91.22 143.85 90.99 146.86 90.66 147.9H89.45C89.45 147.9 89.35 147.79 89.35 147.73C89.36 147.55 89.56 147.12 89.6 146.87C89.71 146.21 89.95 144.39 89.6 143.86C89.43 143.6 89.1 143.63 88.87 143.78C87.9 144.42 88.46 146.89 88.54 147.89H87.4C87.21 147.7 87.17 147.31 87.14 147.04C87.06 146.09 87.07 143.72 87.35 142.84C87.38 142.74 87.53 142.45 87.62 142.45H88.68L88.67 142.47Z" fill="#003C6C"/>
<path d="M68.19 142.47V142.98C68.87 142.76 69.54 142.35 70.1 143.09C70.58 143.74 70.52 145.71 70.47 146.54C70.46 146.75 70.36 147.89 70.14 147.89H68.93C68.98 147.27 69.21 146.7 69.29 146.08C69.34 145.63 69.4 144.4 69.24 144.02C69.01 143.48 68.4 143.61 68.13 144.05C67.5 145.1 68.07 146.74 68.05 147.89H66.91C66.81 147.8 66.77 147.67 66.74 147.54C66.58 146.67 66.58 143.45 66.95 142.72C67 142.62 67.04 142.53 67.13 142.45H68.19V142.47Z" fill="#003C6C"/>
<path d="M58.03 147.91C57.97 147.89 57.92 147.8 57.92 147.73C57.92 147.42 58.31 146.59 58.28 146.17C58.28 145.6 58.63 143.73 57.79 143.66C57.19 143.61 56.95 144.4 56.9 144.87C56.8 145.86 56.99 146.86 57.08 147.84C56.49 147.93 55.85 148.17 55.74 147.41C55.63 146.65 55.67 144.94 55.72 144.12C55.74 143.85 55.87 142.66 56.07 142.54C56.57 142.47 57.49 142.21 57.2 142.99C57.46 143.02 57.68 142.76 57.91 142.71C58.49 142.59 58.99 142.77 59.25 143.31C59.56 143.97 59.55 146.8 59.36 147.54C59.34 147.63 59.21 147.9 59.13 147.9H58.03V147.91Z" fill="#003C6C"/>
<path d="M54.84 145.93C55.08 145.78 55.13 146.27 55.13 146.47C55.12 148.45 51.85 148.77 51.33 146.45C50.91 144.62 51.71 142.09 54.03 142.58C54.39 142.66 54.89 143.08 55.02 143.43C55.32 144.25 54.97 144.96 54.22 145.35C53.85 145.55 52.43 145.82 52.48 146.32C52.81 147.04 53.98 147.08 54.5 146.58C54.65 146.43 54.81 145.94 54.84 145.92V145.93ZM53.2 143.52C52.75 143.61 52.07 144.62 52.41 144.87C52.54 144.97 54.18 144.53 54.07 144.02C53.99 143.65 53.55 143.45 53.2 143.52Z" fill="#003C6C"/>
<path d="M103.35 155.61C103.55 157 102.72 157.86 101.33 157.74C98.69 157.5 99.14 152.48 101.33 152.23C102.58 152.09 103.57 152.64 103.34 154.02C103.26 154.53 102.83 154.85 102.39 155.05C101.95 155.25 100.09 155.62 101.03 156.33C101.54 156.72 102.47 156.63 102.87 156.11C103.05 155.88 103.03 155.54 103.34 155.59L103.35 155.61ZM101.42 153.21C101.03 153.3 100.48 154.09 100.7 154.48C100.91 154.63 101.77 154.3 102 154.16C102.7 153.74 102.15 153.04 101.41 153.21H101.42Z" fill="#003C6C"/>
<path d="M83.67 144.23C83.49 144.35 83.14 144.02 83.07 143.85C82.53 142.53 85.13 141.98 85.98 143.21C86.51 143.97 86.35 146.09 86.39 147.06C86.39 147.27 86.57 147.64 86.39 147.79C86.21 147.94 84.63 147.93 84.31 147.89C82.28 147.65 82.53 145.38 84.19 144.63C84.46 144.51 85.11 144.44 85.15 144.19C85.27 143.37 83.68 143.3 83.67 144.22V144.23ZM85.22 146.69C85.28 146.33 85.17 145.82 85.22 145.44C84.54 145.02 83.79 145.84 84.1 146.56C84.26 146.93 85.14 147.13 85.22 146.69Z" fill="#003C6C"/>
<path d="M81.75 152.25C85.38 151.64 84.98 158.47 81.78 157.69C79.6 157.16 79.78 152.58 81.75 152.25ZM82.04 153.21C80.75 153.47 81.05 157.09 82.67 156.27C83.56 155.82 83.53 152.91 82.04 153.21Z" fill="#003C6C"/>
<path d="M71.18 153.43C70.94 153.14 70.33 153.12 70.06 153.4C69.86 153.61 69.84 154.26 69.37 153.74C68.83 153.14 69.4 152.37 70.09 152.25C70.82 152.13 71.59 152.2 72.08 152.79C72.68 153.51 72.5 155.64 72.53 156.6C72.53 156.86 72.67 157.12 72.6 157.4C72.51 157.65 71.1 157.62 70.81 157.6C70.09 157.55 69.37 157.34 69.11 156.59C68.76 155.57 69.59 154.62 70.49 154.26C70.69 154.18 71.12 154.14 71.23 154.04C71.36 153.91 71.32 153.57 71.21 153.43H71.18ZM70.81 155.04C70.22 155.16 69.91 156.06 70.47 156.45C71.4 157.1 71.55 155.98 71.42 155.28C71.36 154.98 71.06 154.99 70.82 155.04H70.81Z" fill="#003C6C"/>
<path d="M114.57 153.92C113.69 153.78 113.75 152.72 114.53 152.37C115.2 152.07 116.31 152.16 116.81 152.76C117.45 153.52 117.26 155.62 117.29 156.61C117.31 157.28 117.68 157.52 116.75 157.6C115.82 157.68 114.06 157.68 113.87 156.52C113.69 155.43 114.27 154.66 115.25 154.26C115.64 154.1 116.21 154.22 116.02 153.63C115.8 152.93 114.63 153.15 114.58 153.92H114.57ZM115.58 155.04C114.58 155.25 114.8 156.89 115.99 156.55C116.27 156.07 116.48 154.85 115.58 155.04Z" fill="#003C6C"/>
<path d="M64.65 144.37C65.02 144.02 64.29 143.31 63.58 143.63C63.28 143.77 63.28 144.62 62.75 144.05C62.18 143.45 62.87 142.64 63.53 142.55C64.32 142.44 65.06 142.58 65.54 143.24C66.02 143.9 65.88 146.02 65.9 146.91C65.92 147.5 66.28 147.83 65.43 147.9C64.58 147.97 62.76 147.99 62.49 146.95C62.22 145.91 62.86 145 63.82 144.61C64.01 144.53 64.57 144.42 64.64 144.36L64.65 144.37ZM64.73 145.35C63.83 145.07 63.07 146.42 63.99 146.86C65.02 147.35 64.9 145.96 64.73 145.35Z" fill="#003C6C"/>
<path d="M76.51 157.2C76.04 156.66 76.18 156.02 76.34 155.39H76.56C76.49 156.21 78.03 157.06 78.47 156.31C78.91 155.56 77.6 155.33 77.15 155.05C76.13 154.42 76.03 153.15 77.03 152.45C77.63 152.03 78.99 152.16 79.49 152.7C79.77 153 79.51 153.46 79.23 153.69C78.8 154.04 78.79 153.56 78.53 153.36C77.95 152.93 76.98 153.38 77.65 153.94C78.38 154.55 79.7 154.6 79.78 155.92C79.88 157.71 77.5 158.32 76.5 157.18L76.51 157.2Z" fill="#003C6C"/>
<path d="M101.73 142.69C102.06 144.98 100.59 148.09 97.99 148.05V146.84C97.99 146.55 99.29 146.74 99.37 146.32C99.4 146.15 98.63 145.42 98.49 145.17C98.36 144.94 97.99 144.06 97.99 143.83V142.69H99.2C99.37 142.69 99.22 143.48 99.24 143.68C99.27 144.04 99.76 145.26 100.16 145.26C100.53 145.26 100.68 143.96 100.68 143.69C100.68 143.4 100.5 142.91 100.68 142.69H101.74H101.73Z" fill="#003C6C"/>
<path d="M92.92 152.38V153.88C92.92 154.52 92.38 155.97 92.05 156.53C91.86 156.85 91.17 157.83 90.77 157.72C89.6 156.69 89.12 154.88 89.03 153.36C88.96 152.21 89.08 152.16 90.24 152.37C90.33 152.5 90.24 153.73 90.27 154.02C90.3 154.31 90.63 156.03 91.03 155.96C91.88 155.08 91.83 153.59 91.77 152.44C91.9 152.18 92.66 152.29 92.91 152.37L92.92 152.38Z" fill="#003C6C"/>
<path d="M46.18 146H46.39C46.66 147.3 45.87 148.2 44.52 148.05C41.93 147.75 42.44 141.81 45.74 142.58C46.36 142.72 46.69 143.41 46.28 143.94C45.83 144.54 45.78 143.68 45.39 143.59C44.12 143.3 43.8 145.32 44.21 146.17C44.62 147.02 45.93 146.9 46.19 146.01L46.18 146Z" fill="#003C6C"/>
<path d="M24.8 11.11C25.19 11.05 25.42 11.29 25.63 11.57C25.41 12.04 25.02 12.43 24.86 12.93C24.64 13.61 24.83 14.19 24.4 14.89C23.84 15.79 22.07 16.12 21.96 14.81C21.83 13.32 23.35 11.36 24.81 11.12L24.8 11.11Z" fill="#003C6C"/>
<path d="M103.11 103.52C103.64 103.38 103.73 103.73 103.51 104.14C103.43 104.29 103.29 104.37 103.21 104.5C102.78 105.29 102.66 106 102.76 106.91C102.86 107.82 103.81 108 104.01 108.67C104.36 109.8 102.23 109.35 101.74 108.88C100.87 108.05 100.96 106.37 101.43 105.35C101.66 104.85 102.58 103.65 103.11 103.51V103.52Z" fill="#003C6C"/>
<path d="M18.36 157.73C18.2 157.6 18.27 154.16 18.28 153.66C18.28 153.2 18.5 152.7 18.24 152.24C18.06 151.92 17.41 151.85 17.85 151.4C18.24 151 19.11 150.73 19.61 151.02C19.67 151.08 19.67 151.16 19.68 151.24C19.76 151.83 19.47 152.98 19.47 153.67C19.47 154.62 19.71 155.66 19.75 156.61C19.8 157.91 19.6 157.73 18.36 157.74V157.73Z" fill="#003C6C"/>
<path d="M56.45 151.21L56.16 152.26L56.33 152.38C56.91 152.16 57.06 152.55 56.96 153.08C56.86 153.61 56.14 152.9 56.01 153.67C55.91 154.26 56.01 155.92 56.17 156.51C56.24 156.75 56.42 156.93 56.45 157.18C56.12 157.34 55.3 158.04 55.07 157.54C54.93 157.23 54.84 156.05 54.83 155.65C54.82 155.32 55.02 153.31 54.79 153.26L54.25 153.31C54.01 152.68 54.38 152.2 55.05 152.31C55.05 151.41 55.65 151.2 56.45 151.22V151.21Z" fill="#003C6C"/>
<path d="M75.24 151.21L75.03 152.26L75.2 152.38L75.61 152.34C75.89 152.57 75.89 152.94 75.75 153.25L74.99 153.33C74.69 153.64 74.83 155.31 74.89 155.78C74.92 156.02 74.97 156.29 75.03 156.52C75.08 156.71 75.27 156.94 75.25 157.11C75.23 157.33 74.27 157.79 74.04 157.74C73.58 156.59 73.7 155.25 73.7 154.02C73.7 153.88 73.77 153.74 73.76 153.6C73.71 152.98 73.18 153.42 73.08 153.26C72.92 152.55 73.13 152.25 73.86 152.27C73.98 152.19 73.96 151.76 74.02 151.62C74.13 151.34 74.96 151.14 75.25 151.2L75.24 151.21Z" fill="#003C6C"/>
<path d="M93.36 142.69H94.01C94.11 142.92 94.19 143.5 93.95 143.61C93.8 143.68 93.51 143.43 93.29 143.68C92.86 144.16 93.23 146.84 93.58 147.49C93.56 147.59 93.03 147.86 92.9 147.91C92.36 148.12 92.29 148.13 92.14 147.55C92.05 147.19 91.99 146.49 91.97 146.1C91.94 145.34 92.07 144.59 92.04 143.83L91.84 143.58L91.38 143.64C91.39 143.44 91.35 143.22 91.38 143.02C91.47 142.45 91.94 142.82 92.15 142.61C92.3 141.9 92.47 141.56 93.26 141.51C93.92 141.46 93.22 142.28 93.36 142.68V142.69Z" fill="#003C6C"/>
<path d="M42.14 141.52L41.92 142.69L42.59 142.72C42.7 142.8 42.72 143.58 42.54 143.64C42.39 143.68 42.11 143.45 41.88 143.64C41.49 144.83 41.72 146.32 42.14 147.49C41.95 147.72 41.1 148.22 40.86 147.98C40.43 147.54 40.69 144.43 40.59 143.7L40.42 143.58L39.94 143.66C39.95 143.44 39.87 142.87 40.09 142.74C40.27 142.63 40.61 142.8 40.76 142.6C40.87 142.46 40.8 142.22 40.86 142.04C40.98 141.67 41.8 141.5 42.15 141.53L42.14 141.52Z" fill="#003C6C"/>
<path d="M95.97 157.59C95.82 157.54 95.72 156.71 95.71 156.53C95.62 155.3 95.64 153.51 95.71 152.27C95.72 152.03 95.86 150.83 95.95 150.71C96.11 150.57 97.15 150.57 97.19 150.74C96.8 152.95 96.76 155.22 97.17 157.43L97.07 157.6H95.97V157.59Z" fill="#003C6C"/>
<path d="M95.93 147.91H94.79C94.59 147.69 94.55 147.23 94.53 146.92C94.45 145.85 94.45 144.17 94.53 143.1C94.53 142.98 94.55 142.86 94.6 142.74C94.65 142.68 95.48 142.67 95.59 142.71C95.75 142.77 95.67 143.06 95.89 143.07C96.15 143.08 96.28 142.57 96.85 142.55C98.22 142.51 97.5 144.65 96.88 144.21C96.73 144.1 96.67 143.41 96.08 143.84C95.37 144.36 95.82 147.08 95.93 147.91Z" fill="#003C6C"/>
<path d="M98.03 157.59C97.88 157.54 97.78 156.71 97.77 156.53C97.69 155.31 97.71 153.57 97.77 152.34C97.78 152.06 97.89 150.76 98.07 150.65C98.25 150.59 99.21 150.56 99.25 150.74C98.85 152.92 98.78 155.24 99.25 157.41C99.27 157.47 99.17 157.59 99.14 157.59H98.04H98.03Z" fill="#003C6C"/>
<path d="M93.58 157.59C93.52 157.37 93.45 157.2 93.43 156.97C93.34 155.95 93.35 154.1 93.43 153.08C93.45 152.89 93.5 152.42 93.65 152.34C93.8 152.26 94.61 152.24 94.67 152.42C94.55 154.09 94.61 155.76 94.9 157.4C94.9 157.46 94.82 157.58 94.79 157.58H93.58V157.59Z" fill="#003C6C"/>
<path d="M38.17 147.91C38.12 147.64 38.04 147.35 38.02 147.07C37.95 146.12 37.96 144.71 38.02 143.76C38.03 143.58 38.11 142.86 38.17 142.75C38.28 142.54 39.03 142.77 39.27 142.69C39.25 143.53 39.15 144.38 39.19 145.23C39.23 145.99 39.46 146.86 39.49 147.58C39.49 147.67 39.48 147.91 39.38 147.91H38.17Z" fill="#003C6C"/>
<path d="M104.23 158.11C104.49 157.55 104.62 156.94 103.87 156.79C103.85 156.71 103.87 156.64 103.9 156.57C103.93 156.52 104.76 155.89 104.82 155.87C105.19 155.75 105.54 155.98 105.71 156.31C106.18 157.25 105.17 158.18 104.24 158.11H104.23Z" fill="#003C6C"/>
<path d="M57.62 158.11C57.56 158.06 58.09 157.39 57.69 156.98C57.59 156.87 57.19 156.83 57.25 156.69C57.29 156.59 58.1 155.92 58.21 155.88C58.79 155.67 59.28 156.38 59.23 156.9C59.16 157.63 58.32 158.18 57.62 158.12V158.11Z" fill="#003C6C"/>
<path d="M39.32 141.94C38.91 142.43 37.83 142.07 38.15 141.32C38.47 140.57 39.92 141.21 39.32 141.94Z" fill="#003C6C"/>
<path d="M93.86 150.71C94.89 150.41 95.18 151.66 94.35 151.79C93.34 151.95 93.3 150.87 93.86 150.71Z" fill="#003C6C"/>
<path d="M72.45 101.01C72.4 101.06 71.74 100.67 71.65 100.6C70.03 99.44 68.67 96.49 67.99 94.64C67.86 94.28 67.21 92.42 67.27 92.2C67.39 91.75 68.35 91.44 68.71 91.65C68.89 91.76 69.95 93.92 70.12 94.28C71.12 96.43 71.95 98.69 72.46 101.01H72.45Z" fill="#003C6C"/>
</g>
<defs>
<clipPath id="clip0_1_254">
<rect width="134.38" height="158.11" fill="white"/>
</clipPath>
</defs>
</svg>
