<svg width="146" height="32" viewBox="0 0 146 32" fill="none" xmlns="http://www.w3.org/2000/svg">
<path d="M4.03491 31.1989C2.12604 27.8926 1.17161 26.2395 1.60045 24.639C2.02929 23.0386 3.66235 22.0957 6.92847 20.21L20.9661 12.1054L22.0009 13.8978C23.4151 16.3474 24.1223 17.5722 23.8006 18.7725C23.479 19.9728 22.2542 20.68 19.8046 22.0942L4.03491 31.1989Z" fill="#003C6C"/>
<path d="M3.00012 17.3023C1.58585 14.8527 0.878715 13.6279 1.20035 12.4276C1.52198 11.2272 2.74677 10.5201 5.19636 9.10581L20.9661 0.00115967L22.0009 1.79349C23.4151 4.24308 24.1223 5.46787 23.8006 6.66822C23.479 7.86857 22.2542 8.5757 19.8046 9.98997L4.03492 19.0946L3.00012 17.3023Z" fill="#003C6C"/>
<path d="M46.9517 8.94938L42.6915 10.1494C42.5915 9.4894 42.2615 8.87937 41.7015 8.31935C41.1415 7.75933 40.2914 7.47932 39.1514 7.47932C38.2914 7.47932 37.5913 7.70933 37.0513 8.16935C36.5113 8.60936 36.2413 9.13938 36.2413 9.75941C36.2413 10.8594 36.9413 11.5395 38.3414 11.7995L41.1915 12.3395C43.1516 12.6995 44.6616 13.4695 45.7217 14.6496C46.8017 15.8096 47.3417 17.1697 47.3417 18.7297C47.3417 20.5098 46.6317 22.0799 45.2116 23.4399C43.7916 24.78 41.8815 25.45 39.4814 25.45C36.8013 25.45 34.7212 24.76 33.2412 23.3799C31.7811 21.9799 30.9611 20.3998 30.7811 18.6397L35.1312 17.5897C35.2312 18.6497 35.6413 19.5298 36.3613 20.2298C37.1013 20.9098 38.1614 21.2499 39.5414 21.2499C40.4615 21.2499 41.1915 21.0498 41.7315 20.6498C42.2715 20.2298 42.5415 19.6898 42.5415 19.0298C42.5415 18.4897 42.3415 18.0397 41.9415 17.6797C41.5415 17.2997 40.9815 17.0397 40.2614 16.8997L37.3513 16.3597C35.5513 16.0196 34.1312 15.2896 33.0912 14.1696C32.0711 13.0495 31.5611 11.6995 31.5611 10.1194C31.5611 8.15935 32.3111 6.52928 33.8112 5.22923C35.3113 3.92918 37.1013 3.27915 39.1814 3.27915C40.4415 3.27915 41.5615 3.45916 42.5415 3.81917C43.5416 4.15919 44.3316 4.6192 44.9116 5.19923C45.4917 5.77925 45.9417 6.37927 46.2617 6.9993C46.6017 7.61932 46.8317 8.26935 46.9517 8.94938ZM54.224 25H49.6638V10.0894H54.224V25ZM50.0538 7.41932C49.5338 6.89929 49.2738 6.26927 49.2738 5.52924C49.2738 4.78921 49.5338 4.15919 50.0538 3.63917C50.5738 3.11914 51.1938 2.85913 51.9139 2.85913C52.6539 2.85913 53.2839 3.11914 53.8039 3.63917C54.344 4.15919 54.614 4.78921 54.614 5.52924C54.614 6.26927 54.344 6.89929 53.8039 7.41932C53.2839 7.93934 52.6539 8.19935 51.9139 8.19935C51.1938 8.19935 50.5738 7.93934 50.0538 7.41932ZM62.179 25H57.6188V10.0894H61.969V11.7995C62.329 11.1594 62.919 10.6394 63.739 10.2394C64.5791 9.83941 65.4191 9.63941 66.2591 9.63941C68.3992 9.63941 69.8693 10.4194 70.6693 11.9795C71.7494 10.4194 73.2894 9.63941 75.2895 9.63941C76.8496 9.63941 78.1596 10.1194 79.2196 11.0794C80.2797 12.0195 80.8097 13.4395 80.8097 15.3396V25H76.3995V16.3597C76.3995 15.6196 76.1995 15.0196 75.7995 14.5596C75.3995 14.0796 74.8095 13.8396 74.0294 13.8396C73.2494 13.8396 72.6394 14.0896 72.1994 14.5896C71.7594 15.0896 71.5393 15.6896 71.5393 16.3897V25H67.0392V16.3597C67.0392 15.6196 66.8292 15.0196 66.4091 14.5596C66.0091 14.0796 65.4191 13.8396 64.6391 13.8396C63.879 13.8396 63.279 14.0896 62.839 14.5896C62.399 15.0896 62.179 15.6996 62.179 16.4197V25ZM88.621 30.7002H84.0609V10.0894H88.471V11.6195C88.811 11.0994 89.3711 10.6594 90.1511 10.2994C90.9511 9.91942 91.8512 9.72941 92.8512 9.72941C94.9713 9.72941 96.6514 10.4594 97.8914 11.9195C99.1515 13.3595 99.7815 15.2196 99.7815 17.4997C99.7815 19.7798 99.1115 21.6599 97.7714 23.1399C96.4514 24.6 94.7513 25.33 92.6712 25.33C90.7911 25.33 89.4411 24.83 88.621 23.83V30.7002ZM94.3213 20.2898C94.9813 19.6298 95.3113 18.7097 95.3113 17.5297C95.3113 16.3497 94.9813 15.4396 94.3213 14.7996C93.6812 14.1596 92.8812 13.8396 91.9212 13.8396C90.9811 13.8396 90.1811 14.1596 89.5211 14.7996C88.8811 15.4396 88.561 16.3497 88.561 17.5297C88.561 18.7097 88.8811 19.6298 89.5211 20.2898C90.1811 20.9298 90.9811 21.2499 91.9212 21.2499C92.8812 21.2499 93.6812 20.9298 94.3213 20.2898ZM106.684 25H102.124V3.27915H106.684V25ZM114.668 25H110.108V10.0894H114.668V25ZM110.498 7.41932C109.978 6.89929 109.718 6.26927 109.718 5.52924C109.718 4.78921 109.978 4.15919 110.498 3.63917C111.018 3.11914 111.638 2.85913 112.358 2.85913C113.098 2.85913 113.728 3.11914 114.248 3.63917C114.788 4.15919 115.058 4.78921 115.058 5.52924C115.058 6.26927 114.788 6.89929 114.248 7.41932C113.728 7.93934 113.098 8.19935 112.358 8.19935C111.638 8.19935 111.018 7.93934 110.498 7.41932ZM126.553 13.9296H123.313V25H118.753V13.9296H116.383V10.0894H118.753V8.79937C118.753 7.0593 119.253 5.66925 120.253 4.6292C121.273 3.56916 122.673 3.03914 124.453 3.03914C125.453 3.03914 126.173 3.14914 126.613 3.36915V7.0893C126.213 6.9893 125.763 6.9393 125.263 6.9393C124.743 6.9393 124.283 7.0893 123.883 7.38932C123.503 7.68933 123.313 8.20935 123.313 8.94938V10.0894H126.553V13.9296ZM135.091 30.7302H130.291L133.681 22.9899L127.411 10.0894H132.511L136.141 18.0697L139.441 10.0894H144.271L135.091 30.7302Z" fill="#003C6C"/>
</svg>
