<svg width="566" height="183" viewBox="0 0 566 183" fill="none" xmlns="http://www.w3.org/2000/svg">
<g clip-path="url(#clip0_1_317)">
<path d="M215.73 55.45H218.82L236.75 97.9H237.07L255 55.45H258.09V102H255.36V62.2H255.09L238.25 102H235.57L218.73 62.2H218.46V102H215.73V55.45ZM274.38 55.45V102H271.54V55.45H274.38ZM323.42 55.45V102H320.65L290.97 60.61H290.7V102H287.86V55.45H290.66L320.34 96.88H320.61V55.45H323.43H323.42ZM349.76 102H336.85V55.45H350.76C355.12 55.45 358.86 56.37 361.97 58.22C365.08 60.07 367.45 62.72 369.11 66.17C370.78 69.61 371.6 73.74 371.59 78.56C371.57 83.48 370.71 87.7 369 91.2C367.29 94.68 364.81 97.36 361.57 99.22C358.33 101.07 354.4 101.99 349.77 101.99L349.76 102ZM339.69 99.36H349.65C353.8 99.36 357.3 98.53 360.15 96.88C363 95.21 365.15 92.83 366.6 89.72C368.07 86.61 368.8 82.89 368.78 78.56C368.78 74.29 368.08 70.63 366.67 67.58C365.26 64.52 363.21 62.17 360.51 60.53C357.83 58.89 354.54 58.08 350.65 58.08H339.69V99.35V99.36ZM400.67 102V55.45H415.78C418.6 55.45 420.98 55.95 422.92 56.95C424.86 57.95 426.33 59.35 427.33 61.15C428.34 62.95 428.85 65.05 428.85 67.45C428.85 69.33 428.55 71 427.94 72.45C427.33 73.9 426.49 75.11 425.39 76.06C424.31 77 423.05 77.65 421.59 78.01V78.28C423.2 78.4 424.69 78.96 426.07 79.96C427.45 80.94 428.55 82.29 429.39 83.98C430.24 85.68 430.66 87.65 430.66 89.91C430.66 92.29 430.14 94.39 429.11 96.21C428.1 98.01 426.57 99.43 424.54 100.46C422.51 101.47 420 101.98 417 101.98H400.66L400.67 102ZM403.51 99.36H417.01C420.51 99.36 423.2 98.48 425.08 96.72C426.97 94.96 427.92 92.7 427.92 89.92C427.92 87.97 427.46 86.22 426.53 84.67C425.62 83.12 424.36 81.9 422.73 81.01C421.11 80.1 419.23 79.65 417.09 79.65H403.5V99.35L403.51 99.36ZM403.51 77.07H416.76C418.74 77.07 420.43 76.64 421.8 75.77C423.19 74.91 424.26 73.75 424.98 72.29C425.72 70.84 426.09 69.22 426.09 67.45C426.09 64.57 425.2 62.29 423.41 60.61C421.62 58.93 419.08 58.09 415.77 58.09H403.5V77.07H403.51ZM478.88 78.73C478.88 83.53 478.05 87.73 476.38 91.32C474.71 94.9 472.4 97.68 469.43 99.66C466.48 101.64 463.07 102.64 459.2 102.64C455.33 102.64 451.9 101.65 448.93 99.66C445.98 97.66 443.66 94.87 442 91.3C440.33 87.71 439.5 83.52 439.5 78.73C439.5 73.94 440.33 69.74 442 66.16C443.68 62.58 446 59.8 448.95 57.82C451.91 55.82 455.32 54.82 459.2 54.82C463.08 54.82 466.47 55.81 469.43 57.8C472.4 59.78 474.72 62.57 476.38 66.16C478.05 69.74 478.88 73.93 478.88 78.73ZM476.1 78.73C476.1 74.41 475.37 70.67 473.92 67.5C472.48 64.33 470.49 61.89 467.94 60.16C465.4 58.42 462.48 57.55 459.19 57.55C455.9 57.55 452.99 58.41 450.44 60.14C447.9 61.85 445.9 64.3 444.44 67.48C443 70.65 442.28 74.4 442.28 78.73C442.28 83.06 442.99 86.75 444.42 89.93C445.86 93.1 447.85 95.55 450.4 97.29C452.94 99.03 455.88 99.9 459.19 99.9C462.5 99.9 465.4 99.04 467.94 97.31C470.49 95.57 472.48 93.11 473.92 89.95C475.37 86.78 476.1 83.04 476.1 78.72V78.73ZM502.89 102H489.98V55.45H503.89C508.25 55.45 511.99 56.37 515.1 58.22C518.21 60.07 520.58 62.72 522.24 66.17C523.91 69.61 524.73 73.74 524.72 78.56C524.7 83.48 523.84 87.7 522.13 91.2C520.42 94.68 517.94 97.36 514.7 99.22C511.46 101.07 507.53 101.99 502.9 101.99L502.89 102ZM492.82 99.36H502.78C506.93 99.36 510.43 98.53 513.28 96.88C516.13 95.21 518.28 92.83 519.73 89.72C521.2 86.61 521.93 82.89 521.91 78.56C521.91 74.29 521.21 70.63 519.8 67.58C518.39 64.52 516.34 62.17 513.64 60.53C510.96 58.89 507.67 58.08 503.78 58.08H492.82V99.35V99.36ZM528.88 55.45H532.24L546.9 77.9H547.22L561.88 55.45H565.24L548.49 80.88V101.99H545.63V80.88L528.88 55.45Z" fill="#003C6C"/>
<path d="M214.28 135.07H209.67L216.7 114.71H222.25L229.27 135.07H224.66L219.56 119.36H219.4L214.29 135.07H214.28ZM213.99 127.06H224.89V130.42H213.99V127.06ZM234.25 135.07L228.42 114.71H233.12L236.49 128.86H236.66L240.38 114.71H244.41L248.12 128.89H248.3L251.67 114.71H256.37L250.54 135.07H246.34L242.46 121.76H242.3L238.43 135.07H234.23H234.25ZM260.14 135.07H255.53L262.56 114.71H268.11L275.13 135.07H270.52L265.42 119.36H265.26L260.15 135.07H260.14ZM259.85 127.06H270.75V130.42H259.85V127.06ZM277.57 135.07V114.71H285.6C287.14 114.71 288.45 114.98 289.54 115.53C290.63 116.07 291.47 116.85 292.04 117.85C292.62 118.84 292.91 120.01 292.91 121.36C292.91 122.71 292.62 123.88 292.03 124.85C291.45 125.82 290.6 126.56 289.49 127.08C288.39 127.6 287.06 127.86 285.49 127.86H280.11V124.4H284.79C285.61 124.4 286.29 124.29 286.84 124.06C287.38 123.84 287.79 123.5 288.05 123.05C288.32 122.6 288.46 122.04 288.46 121.37C288.46 120.7 288.33 120.12 288.05 119.66C287.78 119.2 287.38 118.84 286.83 118.61C286.29 118.36 285.6 118.24 284.77 118.24H281.87V135.08H277.57V135.07ZM288.57 125.8L293.63 135.07H288.88L283.93 125.8H288.57ZM295.95 135.07V114.71H309.67V118.26H300.25V123.11H308.96V126.66H300.25V131.52H309.71V135.07H295.95ZM330.12 114.7V135.06H326.4L317.54 122.24H317.39V135.06H313.08V114.7H316.86L325.65 127.51H325.83V114.7H330.12ZM333.68 135.07V114.71H347.4V118.26H337.98V123.11H346.69V126.66H337.98V131.52H347.44V135.07H333.68ZM361.87 120.56C361.79 119.76 361.45 119.14 360.85 118.69C360.25 118.25 359.43 118.02 358.39 118.02C357.69 118.02 357.09 118.12 356.61 118.32C356.13 118.51 355.75 118.78 355.5 119.13C355.25 119.47 355.12 119.87 355.12 120.3C355.11 120.66 355.18 120.98 355.35 121.25C355.52 121.52 355.76 121.76 356.06 121.96C356.36 122.15 356.7 122.32 357.09 122.47C357.48 122.61 357.9 122.73 358.34 122.83L360.17 123.27C361.06 123.47 361.87 123.73 362.62 124.06C363.36 124.39 364.01 124.8 364.55 125.28C365.09 125.76 365.51 126.33 365.81 126.99C366.12 127.65 366.27 128.4 366.28 129.25C366.28 130.5 365.95 131.58 365.33 132.49C364.71 133.4 363.81 134.1 362.63 134.61C361.46 135.11 360.04 135.36 358.38 135.36C356.72 135.36 355.3 135.11 354.08 134.6C352.87 134.1 351.92 133.35 351.24 132.36C350.56 131.37 350.21 130.14 350.18 128.67H354.35C354.4 129.35 354.59 129.92 354.94 130.38C355.29 130.83 355.76 131.17 356.34 131.4C356.93 131.63 357.6 131.74 358.34 131.74C359.08 131.74 359.7 131.63 360.24 131.42C360.78 131.21 361.2 130.91 361.5 130.54C361.8 130.16 361.95 129.73 361.95 129.24C361.95 128.78 361.81 128.4 361.54 128.09C361.27 127.78 360.88 127.51 360.37 127.29C359.86 127.07 359.23 126.87 358.49 126.69L356.27 126.13C354.55 125.71 353.2 125.06 352.2 124.17C351.2 123.28 350.71 122.09 350.72 120.58C350.72 119.35 351.04 118.27 351.71 117.35C352.38 116.43 353.3 115.71 354.46 115.19C355.63 114.67 356.95 114.41 358.44 114.41C359.93 114.41 361.27 114.67 362.4 115.19C363.53 115.71 364.42 116.43 365.04 117.35C365.67 118.27 365.99 119.34 366.01 120.55H361.88L361.87 120.56ZM380.22 120.56C380.14 119.76 379.8 119.14 379.2 118.69C378.6 118.24 377.78 118.02 376.74 118.02C376.04 118.02 375.44 118.12 374.96 118.32C374.48 118.51 374.1 118.78 373.85 119.13C373.6 119.47 373.47 119.87 373.47 120.3C373.46 120.66 373.53 120.98 373.7 121.25C373.87 121.52 374.11 121.76 374.41 121.96C374.71 122.15 375.05 122.32 375.44 122.47C375.83 122.61 376.25 122.73 376.69 122.83L378.52 123.27C379.41 123.47 380.22 123.73 380.97 124.06C381.71 124.39 382.36 124.8 382.9 125.28C383.44 125.76 383.86 126.33 384.16 126.99C384.46 127.65 384.62 128.4 384.63 129.25C384.63 130.5 384.31 131.58 383.68 132.49C383.06 133.4 382.16 134.1 380.98 134.61C379.81 135.11 378.39 135.36 376.73 135.36C375.07 135.36 373.65 135.11 372.44 134.6C371.23 134.1 370.28 133.35 369.6 132.36C368.92 131.37 368.57 130.14 368.54 128.67H372.71C372.76 129.35 372.95 129.92 373.3 130.38C373.65 130.83 374.12 131.17 374.7 131.4C375.29 131.63 375.96 131.74 376.7 131.74C377.44 131.74 378.06 131.63 378.6 131.42C379.14 131.21 379.56 130.91 379.86 130.54C380.16 130.16 380.31 129.73 380.31 129.24C380.31 128.78 380.17 128.4 379.9 128.09C379.63 127.78 379.24 127.51 378.73 127.29C378.22 127.07 377.59 126.87 376.85 126.69L374.63 126.13C372.91 125.71 371.56 125.06 370.56 124.17C369.57 123.28 369.07 122.09 369.08 120.58C369.08 119.35 369.4 118.27 370.06 117.35C370.73 116.43 371.65 115.71 372.82 115.19C373.99 114.67 375.31 114.41 376.8 114.41C378.29 114.41 379.63 114.67 380.76 115.19C381.89 115.71 382.77 116.43 383.4 117.35C384.03 118.27 384.35 119.34 384.38 120.55H380.25L380.22 120.56ZM394 135.07V114.71H402.03C403.58 114.71 404.89 115 405.98 115.59C407.07 116.17 407.9 116.99 408.47 118.03C409.05 119.06 409.34 120.26 409.34 121.61C409.34 122.96 409.05 124.16 408.46 125.19C407.88 126.22 407.03 127.03 405.92 127.61C404.82 128.19 403.49 128.47 401.92 128.47H396.8V125.02H401.23C402.06 125.02 402.74 124.88 403.28 124.59C403.82 124.3 404.23 123.9 404.49 123.39C404.76 122.87 404.9 122.28 404.9 121.61C404.9 120.94 404.76 120.34 404.49 119.84C404.23 119.33 403.82 118.94 403.28 118.66C402.74 118.37 402.05 118.23 401.21 118.23H398.31V135.07H394ZM412.13 135.07V114.71H420.16C421.7 114.71 423.01 114.98 424.1 115.53C425.19 116.07 426.03 116.85 426.6 117.85C427.18 118.84 427.47 120.01 427.47 121.36C427.47 122.71 427.18 123.88 426.59 124.85C426.01 125.82 425.16 126.56 424.05 127.08C422.95 127.6 421.62 127.86 420.05 127.86H414.67V124.4H419.35C420.17 124.4 420.86 124.29 421.4 124.06C421.94 123.84 422.35 123.5 422.61 123.05C422.88 122.6 423.02 122.04 423.02 121.37C423.02 120.7 422.88 120.12 422.61 119.66C422.35 119.2 421.94 118.84 421.39 118.61C420.85 118.36 420.16 118.24 419.33 118.24H416.43V135.08H412.12L412.13 135.07ZM423.13 125.8L428.19 135.07H423.44L418.49 125.8H423.13ZM449.22 124.88C449.22 127.1 448.8 128.99 447.96 130.55C447.12 132.11 445.98 133.3 444.54 134.12C443.1 134.94 441.48 135.34 439.69 135.34C437.9 135.34 436.26 134.93 434.82 134.11C433.38 133.29 432.24 132.1 431.41 130.54C430.58 128.98 430.16 127.1 430.16 124.88C430.16 122.66 430.58 120.77 431.41 119.21C432.25 117.65 433.38 116.47 434.82 115.65C436.26 114.83 437.88 114.42 439.69 114.42C441.5 114.42 443.1 114.83 444.54 115.65C445.99 116.47 447.12 117.65 447.96 119.21C448.8 120.77 449.22 122.66 449.22 124.88ZM444.85 124.88C444.85 123.44 444.64 122.23 444.2 121.24C443.78 120.25 443.18 119.5 442.4 118.99C441.63 118.48 440.72 118.23 439.68 118.23C438.64 118.23 437.73 118.48 436.95 118.99C436.18 119.5 435.57 120.25 435.14 121.24C434.71 122.23 434.5 123.44 434.5 124.88C434.5 126.32 434.71 127.53 435.14 128.52C435.57 129.51 436.17 130.26 436.95 130.77C437.73 131.28 438.63 131.54 439.68 131.54C440.73 131.54 441.63 131.28 442.4 130.77C443.18 130.26 443.78 129.51 444.2 128.52C444.63 127.53 444.85 126.32 444.85 124.88ZM460.56 114.7H464.82V128.9C464.82 130.21 464.52 131.35 463.93 132.32C463.35 133.29 462.53 134.03 461.49 134.56C460.45 135.08 459.24 135.35 457.86 135.35C456.63 135.35 455.52 135.13 454.52 134.7C453.53 134.26 452.74 133.6 452.15 132.71C451.57 131.81 451.28 130.69 451.29 129.34H455.58C455.59 129.88 455.7 130.34 455.91 130.72C456.12 131.1 456.41 131.39 456.77 131.6C457.14 131.8 457.58 131.9 458.08 131.9C458.61 131.9 459.06 131.79 459.42 131.56C459.79 131.33 460.07 130.99 460.27 130.55C460.46 130.11 460.56 129.56 460.56 128.91V114.71V114.7ZM468.38 135.07V114.71H482.1V118.26H472.68V123.11H481.39V126.66H472.68V131.52H482.14V135.07H468.38ZM503.49 121.83H499.13C499.05 121.27 498.89 120.77 498.64 120.33C498.4 119.89 498.08 119.51 497.7 119.2C497.32 118.89 496.87 118.65 496.37 118.48C495.87 118.31 495.33 118.23 494.75 118.23C493.7 118.23 492.78 118.49 492 119.01C491.22 119.53 490.61 120.28 490.18 121.28C489.75 122.27 489.53 123.47 489.53 124.88C489.53 126.29 489.74 127.55 490.18 128.54C490.62 129.53 491.23 130.27 492.01 130.78C492.79 131.28 493.7 131.54 494.72 131.54C495.3 131.54 495.83 131.46 496.32 131.31C496.82 131.16 497.26 130.93 497.64 130.64C498.02 130.34 498.34 129.98 498.59 129.56C498.85 129.14 499.03 128.65 499.13 128.11L503.49 128.13C503.38 129.06 503.1 129.97 502.64 130.84C502.2 131.7 501.6 132.47 500.84 133.16C500.09 133.84 499.2 134.37 498.16 134.77C497.13 135.16 495.96 135.36 494.65 135.36C492.83 135.36 491.21 134.95 489.78 134.13C488.35 133.31 487.23 132.12 486.4 130.56C485.58 129 485.17 127.12 485.17 124.9C485.17 122.68 485.59 120.79 486.42 119.23C487.25 117.67 488.39 116.49 489.82 115.67C491.25 114.85 492.86 114.44 494.65 114.44C495.83 114.44 496.92 114.61 497.93 114.94C498.94 115.27 499.84 115.76 500.63 116.39C501.41 117.02 502.05 117.79 502.54 118.71C503.04 119.62 503.36 120.67 503.49 121.85V121.83ZM505.8 118.25V114.7H522.52V118.25H516.29V135.06H512.03V118.25H505.8Z" fill="#003C6C"/>
<path d="M91.5 0C142.03 0 183 40.97 183 91.5C183 142.03 142.03 183 91.5 183C40.97 183 0 142.03 0 91.5C0 40.97 40.97 0 91.5 0ZM91.5 5C43.73 5 5 43.73 5 91.5C5 139.27 43.73 178 91.5 178C139.27 178 178 139.27 178 91.5C178 43.73 139.27 5 91.5 5Z" fill="#003C6C"/>
<path d="M95.61 12H87.39L89.67 79.69H93.32L95.6 12H95.61Z" fill="#003C6C"/>
<path d="M109.35 13.92L101.26 12.49L91.75 79.54L95.35 80.17L109.35 13.91V13.92Z" fill="#003C6C"/>
<path d="M122.55 18.2L114.83 15.39L93.83 79.77L97.26 81.02L122.56 18.2H122.55Z" fill="#003C6C"/>
<path d="M134.81 24.71L127.69 20.6L95.82 80.36L98.98 82.19L134.8 24.71H134.81Z" fill="#003C6C"/>
<path d="M145.75 33.24L139.45 27.96L97.69 81.28L100.49 83.63L145.75 33.25V33.24Z" fill="#003C6C"/>
<path d="M155.04 43.55L149.76 37.25L99.38 82.51L101.73 85.31L155.05 43.55H155.04Z" fill="#003C6C"/>
<path d="M162.4 55.31L158.29 48.19L100.81 84.01L102.64 87.17L162.4 55.3V55.31Z" fill="#003C6C"/>
<path d="M167.61 68.17L164.8 60.45L101.98 85.75L103.23 89.18L167.62 68.18L167.61 68.17Z" fill="#003C6C"/>
<path d="M170.51 81.74L169.08 73.65L102.82 87.65L103.45 91.25L170.5 81.75L170.51 81.74Z" fill="#003C6C"/>
<path d="M171 95.61V87.39L103.31 89.67V93.32L171 95.6V95.61Z" fill="#003C6C"/>
<path d="M169.08 109.35L170.51 101.26L103.46 91.75L102.82 95.35L169.08 109.35Z" fill="#003C6C"/>
<path d="M164.8 122.55L167.61 114.83L103.23 93.82L101.98 97.25L164.8 122.55Z" fill="#003C6C"/>
<path d="M158.29 134.81L162.4 127.69L102.64 95.82L100.81 98.98L158.29 134.8V134.81Z" fill="#003C6C"/>
<path d="M149.76 145.75L155.04 139.45L101.72 97.69L99.37 100.49L149.75 145.75H149.76Z" fill="#003C6C"/>
<path d="M139.45 155.04L145.75 149.76L100.49 99.38L97.69 101.73L139.45 155.05V155.04Z" fill="#003C6C"/>
<path d="M127.69 162.4L134.81 158.29L98.99 100.81L95.83 102.64L127.7 162.4H127.69Z" fill="#003C6C"/>
<path d="M114.83 167.61L122.55 164.8L97.26 101.98L93.83 103.23L114.83 167.62V167.61Z" fill="#003C6C"/>
<path d="M101.26 170.51L109.35 169.08L95.35 102.82L91.75 103.45L101.26 170.5V170.51Z" fill="#003C6C"/>
<path d="M87.39 171H95.61L93.33 103.31H89.68L87.4 171H87.39Z" fill="#003C6C"/>
<path d="M73.65 169.08L81.74 170.51L91.25 103.46L87.65 102.82L73.65 169.08Z" fill="#003C6C"/>
<path d="M60.45 164.8L68.17 167.61L89.17 103.22L85.74 101.97L60.44 164.79L60.45 164.8Z" fill="#003C6C"/>
<path d="M48.19 158.29L55.31 162.4L87.18 102.64L84.02 100.81L48.2 158.29H48.19Z" fill="#003C6C"/>
<path d="M37.25 149.76L43.55 155.04L85.31 101.72L82.51 99.37L37.25 149.75V149.76Z" fill="#003C6C"/>
<path d="M27.96 139.45L33.24 145.75L83.62 100.49L81.27 97.69L27.95 139.45H27.96Z" fill="#003C6C"/>
<path d="M20.6 127.69L24.71 134.81L82.19 98.99L80.36 95.83L20.6 127.7V127.69Z" fill="#003C6C"/>
<path d="M15.39 114.83L18.2 122.55L81.02 97.25L79.77 93.82L15.39 114.83Z" fill="#003C6C"/>
<path d="M12.49 101.26L13.92 109.35L80.18 95.35L79.55 91.75L12.5 101.26H12.49Z" fill="#003C6C"/>
<path d="M12 87.39V95.61L79.69 93.33V89.68L12 87.4V87.39Z" fill="#003C6C"/>
<path d="M13.92 73.65L12.49 81.74L79.54 91.24L80.17 87.64L13.91 73.64L13.92 73.65Z" fill="#003C6C"/>
<path d="M18.2 60.45L15.39 68.17L79.77 89.17L81.02 85.74L18.2 60.44V60.45Z" fill="#003C6C"/>
<path d="M24.71 48.19L20.6 55.31L80.36 87.18L82.19 84.02L24.71 48.19Z" fill="#003C6C"/>
<path d="M33.24 37.25L27.96 43.55L81.28 85.31L83.63 82.51L33.25 37.25H33.24Z" fill="#003C6C"/>
<path d="M43.55 27.96L37.25 33.24L82.51 83.62L85.31 81.27L43.55 27.96Z" fill="#003C6C"/>
<path d="M55.31 20.6L48.19 24.71L84.01 82.19L87.17 80.36L55.3 20.6H55.31Z" fill="#003C6C"/>
<path d="M68.17 15.39L60.45 18.2L85.75 81.02L89.18 79.77L68.17 15.39Z" fill="#003C6C"/>
<path d="M81.74 12.49L73.65 13.92L87.65 80.18L91.25 79.55L81.74 12.5V12.49Z" fill="#003C6C"/>
<path d="M40.59 136.31C40.67 136.35 39.34 134.61 39.22 134.32C36.22 127.2 38.98 122.35 45.07 118.38C46.8 117.26 48.15 115.07 48.91 113.09L57.01 99.19C57.91 97.37 60.79 86.7 61.32 85.08C63.47 78.4 65.64 71.73 68.03 65.13C68.25 65.21 68.61 64.91 68.61 64.91C68.61 64.91 68.52 64.45 68.82 64.49C69.26 64.38 69.4 64.24 70 64.05C70.94 63.67 71.42 63.32 71.95 62.98C72.01 62.98 72.12 63 72.56 62.95C75.96 60.94 78.92 58.98 82.1 57.05C82.66 57.01 82.87 56.82 83.38 56.43C88.04 53.1 85.61 49.55 84.14 46.15C80.4 37.48 83.92 28.42 92.45 26.02C92.45 26.05 98.11 26.02 99.95 28.15C105.84 34.97 104.35 42.44 102.11 46.17C98.37 54.39 98.45 55.3 108.45 60.27C110.06 61.07 111.58 62.2 113.29 62.66C119.28 64.3 121.41 68.39 122.01 74.19C122.53 79.24 124 84.2 125.08 89.63C127.18 93.93 129.24 97.79 131.48 102.05C135.02 106.87 138.38 111.28 141.9 116.15C142.96 122.02 149.2 120.6 146.21 132.81C145.47 135.82 143.04 138.2 139.67 139.02C136.51 139.79 133.44 140.92 129.82 141.82C124.08 142.56 118.82 144.15 113.61 144.01C100.36 143.64 86.95 140.84 73.93 142.14C61.95 143.34 51.32 142.19 40.6 136.32L40.59 136.31ZM134.98 119.83C130.15 115.81 125.32 111.79 120.65 107.29L120.28 106.94C120.28 106.94 119.8 107.11 119.73 106.16C117.5 101.12 115.27 96.07 112.96 90.86C107.4 96.45 106.38 115.51 111.07 121.05C111.49 121.55 112.51 121.57 113.94 122.59C120.08 122.47 126.22 122.4 132.35 122.16C133.08 122.13 133.77 121.11 134.98 119.84V119.83ZM57.01 117.28C56.1767 118.16 55.0133 119.263 53.52 120.59C54.23 121.96 54.32 121.99 55.75 121.96C61.44 121.85 67.53 122.49 72.6 120.59C74.66 119.82 74.53 113.25 75.31 109.3C75.58 107.93 75.87 106.48 75.7 105.12C75.17 100.98 74.43 96.87 73.77 92.75C70.71 96.94 68.03 102.84 66.23 106.15C63.5 109.29 63.45 109.48 60.86 112.82C59.73 114.05 58.6 115.27 57.02 117.28H57.01Z" fill="#003C6C"/>
</g>
<defs>
<clipPath id="clip0_1_317">
<rect width="565.24" height="183" fill="white"/>
</clipPath>
</defs>
</svg>
