<svg width="148" height="113" viewBox="0 0 148 113" fill="none" xmlns="http://www.w3.org/2000/svg">
<g clip-path="url(#clip0_1_954)">
<path d="M146.86 10.75H83.43L82.29 6.75H146C147.29 7.68 146.82 9.36 146.86 10.75Z" fill="#003C6C"/>
<path d="M63.43 6.75L62.86 10.75H0V6.75H63.43Z" fill="#003C6C"/>
<path d="M146.86 102.18V106.18H82.29L83.43 102.18H146.86Z" fill="#003C6C"/>
<path d="M63.43 106.18H0V102.18H61.43L63.43 106.18Z" fill="#003C6C"/>
<path d="M66.68 100C70.89 98.71 72.49 102.16 72.86 102.16C73.37 102.16 74.53 98.7 78.89 100.14C84.55 102.02 75.81 111.85 72.54 112.8C69.71 111.46 60.82 101.78 66.68 99.99V100Z" fill="#003C6C"/>
<path d="M88.57 38.75C88.42 36.94 90.53 37.38 90.86 35.61C91.14 34.11 90.98 20.57 90.57 19.89C90.21 19.3 88.91 19.08 88.58 18.45C88.34 17.2 89.15 17.6 90.02 17.58C91.77 17.53 93.33 18.19 95.12 18.2C97.85 18.21 100.19 17.63 102.86 17.6V22.74C100.77 22.77 101.86 20.37 99.46 19.57C98.34 19.2 95.97 18.85 95.51 20.25C95.47 23.03 94.2 29.13 98.73 26.9C100.54 26.01 99.24 24.17 101.14 24.46V31.31C99.24 31.7 100.36 29.46 98.87 28.73C97.85 28.23 96.54 28.48 95.43 28.45C95.78 30.57 94.9 34.22 95.52 36.07C95.91 37.21 98.01 37.1 97.71 38.73H88.57V38.75Z" fill="#003C6C"/>
<path d="M146.28 22.74C143.76 22.09 144.02 19.13 140.86 19.02C133.84 18.77 132.89 32.48 137.68 36.2C141.66 39.29 144.31 36.1 145.99 32.46C147.61 35.44 146.23 37.48 143.23 38.26C129.35 41.89 124.19 21.74 138.06 18.23C142.06 17.22 146.9 17.38 146.28 22.73V22.74Z" fill="#003C6C"/>
<path d="M61.63 18.84C61.45 20.18 62.81 21.85 61.43 22.74C53.16 10.83 45.93 31 54 36.47C58.5 39.52 59.76 35.31 62.28 32.47C63.62 41.12 51.11 39.88 47.52 34.38C41.17 24.64 51.75 14.55 61.62 18.85L61.63 18.84Z" fill="#003C6C"/>
<path d="M112.86 38.75L112.28 37.6C113.11 36.63 114.42 37.89 114.81 35C115.1 32.83 115.19 20.49 114.16 19.46C113.69 18.98 111.84 18.87 112.01 18.47C113.4 16.83 115.45 18.24 117.43 18.23C118.04 18.23 122.6 16.81 121.71 18.46C121.28 19.12 120.07 19.31 119.72 19.9C119.21 20.73 119.2 35.61 119.72 36.47C120.19 37.24 122.06 37.22 121.72 38.76H112.86V38.75Z" fill="#003C6C"/>
<path d="M76.57 1.03001L74.53 1.57001C73.97 6.07001 81.46 6.60001 80 11.89C74.78 11.52 62.76 15.77 67.33 5.79001C68.63 2.95001 73.82 -2.19999 76.57 1.03001Z" fill="#003C6C"/>
<path d="M69.71 38.75C69.37 37.21 71.24 37.24 71.71 36.46C72.23 35.6 72.22 20.72 71.71 19.89C71.35 19.31 70.15 19.11 69.72 18.45C68.83 16.8 73.39 18.22 74 18.22C75.54 18.22 78.72 16.86 79.42 18.46C77.74 19.42 76.8 19.02 76.53 21.28C76.24 23.75 76.15 33.35 76.56 35.6C76.83 37.06 78.08 37.4 79.42 37.61C79.58 37.82 78.67 38.75 78.56 38.75H69.7H69.71Z" fill="#003C6C"/>
<path d="M93.14 43.89V45.03C92.35 44.79 90.28 45.88 90.28 46.47V54.76C91.24 54.97 91.44 54.45 91.98 53.89C93.05 52.79 99.13 45.94 98.28 45.05L95.99 43.9H106.28C105.11 45.69 103.13 44.7 101.16 45.92C99.93 46.69 95.38 51.38 95.43 52.77C95.46 53.59 104.21 65.07 105.12 65.91C105.98 66.71 108.68 66.98 107.43 68.19L95.99 68.46V66.75C96.24 66.48 98.13 67.39 97.7 65.9L90.28 56.46V65.89C90.28 66.61 93.68 66.79 93.13 68.46H81.71C81.72 66.41 84.14 66.87 84.55 64.74C84.86 63.13 84.7 47.01 84.28 46.17C83.53 44.67 81.32 45.79 81.7 43.89H93.13H93.14Z" fill="#003C6C"/>
<path d="M35.28 44.03C54.75 40.68 55.75 71.75 35.76 68.98C22.53 67.15 23.57 46.04 35.28 44.03ZM36.42 45.14C34.06 45.66 32.84 48.61 32.27 50.72C30.77 56.2 32.27 69.44 40.28 67.87C46.9 66.58 46.35 42.97 36.42 45.14Z" fill="#003C6C"/>
<path d="M63.28 44.03C82.55 40.75 83.41 72.06 63.18 69C50.57 67.09 50.84 46.15 63.28 44.03ZM68.95 46.37C65.94 43.48 62.54 45.08 60.83 48.42C59.36 51.3 59.13 55.21 59.5 58.39C60.8 69.71 71.38 72.22 72.51 59.53C72.84 55.87 71.71 49.02 68.96 46.37H68.95Z" fill="#003C6C"/>
<path d="M146.86 43.89V49.6C144.26 46.75 142.28 44.11 137.97 46.14C137.66 49.93 136.08 57.02 142.17 54.37C143.56 53.77 143.45 50.08 145.14 52.17C143.61 53.53 145.67 58.85 144.29 59.32C143.09 59.72 143.43 56.97 141.72 56.2C140.8 55.79 138.62 55.52 137.98 56.44C136.67 61.61 137.6 70.88 144.79 65.53C146.31 64.4 146.19 62.19 148.02 62.19L147.45 67.9H129.16C128.78 66 131 67.12 131.74 65.62C132.26 64.57 132.24 47.01 131.74 46.17C131.04 45 128.68 45.71 129.16 43.89H146.87H146.86Z" fill="#003C6C"/>
<path d="M21.14 49.6C18.86 49.08 18.43 46.05 16.03 45.28C6.35 42.19 2.75 61.36 10.57 66.74C12.88 68.33 15.99 68.56 18.09 66.55C18.52 66.14 20.92 61.13 21.71 62.18C23.11 69.3 15.92 69.69 10.62 68.99C-1.25 67.41 -3.59 50.75 7.04 45.51C11.6 43.26 22.43 41.67 21.14 49.61V49.6Z" fill="#003C6C"/>
<path d="M122.86 43.89C121.43 45.69 119.92 44.78 119.47 47.64C119.02 50.5 119.02 61.32 119.47 64.13C119.88 66.7 121.08 66.29 122.85 67.6C122.9 69.09 112.84 67.85 111.44 68.45C111.45 66.4 113.87 66.86 114.28 64.73C114.59 63.12 114.43 47 114.01 46.16C113.26 44.66 111.05 45.78 111.43 43.88H122.86V43.89Z" fill="#003C6C"/>
<path d="M1.13999 38.75C0.79999 37.21 2.66999 37.24 3.13999 36.46C4.39999 34.38 2.76999 22.89 3.46999 19.67L1.15999 18.46L10.01 17.56C22.17 17.11 19.2 33.8 8.00999 29.04C8.34999 32.12 6.56999 37.39 10.86 37.62C11.03 37.83 10.11 38.76 9.99999 38.76H1.13999V38.75ZM8.63999 19.39C7.89999 19.85 7.28999 27.27 8.92999 27.82C15.25 29.94 13.66 16.25 8.63999 19.39Z" fill="#003C6C"/>
<path d="M47.43 93.6C48.48 93.53 49.95 93.85 49.71 95.31H44C43.54 93.65 45.22 94.37 45.62 93.24C47.19 88.8 45.75 81.5 46.33 76.71L44 74.75L50.78 74.82L55.15 87.32L59.52 74.82L65.72 74.74L63.97 76.19C63.68 77.4 63.92 92.27 64.29 93.04C64.84 94.2 66.72 93.61 66.3 95.31H57.16V94.18L59.45 93.6V79.89L54.02 94.75C53.12 94.87 52.83 94.07 52.48 93.43C50.82 90.45 49.83 84.94 48.45 81.46C48.21 80.85 48.29 79.76 47.46 79.89V93.6H47.43Z" fill="#003C6C"/>
<path d="M38.66 77.2301C43.22 81.5701 42.48 90.45 36.98 93.72C27.03 99.64 17.38 87.62 24.01 78.46C27.42 73.75 34.52 73.2801 38.66 77.2301ZM34.11 76.64C26.07 69.32 23.62 93.05 31.76 94.18C38.12 95.06 38.16 80.34 34.11 76.64Z" fill="#003C6C"/>
<path d="M122.86 87.32V77.89C122.86 77.29 120.8 76.24 120 76.46C118.98 75.48 126.56 74.24 126.86 76.46C125.75 76.13 124 77.54 124 78.47V96.47L122.27 95.46L110.85 79.32V92.75C110.85 94.04 114.25 93.61 113.7 95.32H107.42C106.95 93.46 108.65 94.64 109.19 93.85C109.93 92.77 110.04 78.88 109.43 77.6C108.88 76.44 106.99 77.02 107.43 75.33L114.28 75.62L122.85 87.33L122.86 87.32Z" fill="#003C6C"/>
<path d="M136.57 74.75L134.84 76.71L138.57 83.31C139.04 83.31 142.47 76.93 141.65 75.95L139.43 74.76H146.28C146.57 76.43 145.17 75.62 144.06 76.81C143.51 77.4 139.16 84.83 138.99 85.47C138.39 87.84 138.07 94.53 141.71 94.2C141.88 94.41 140.96 95.34 140.85 95.34H132.56C132.39 93.67 134.17 94.07 134.6 92.54C135.03 91.01 135.04 88.18 134.71 86.62C134.54 85.8 130.09 77.96 129.39 77.08C128.61 76.09 127.3 75.9 126.84 74.78H136.55L136.57 74.75Z" fill="#003C6C"/>
<path d="M17.05 75.42C17.2 75.66 17.9 79.36 16.86 79.31C11.76 71.32 5.60998 78.03 5.77998 85.26C5.88998 90.18 10.38 97.56 15.17 92.49C16.04 91.57 16.37 89.35 17.43 89.6C19.02 93.33 15.47 95.1 12.28 95.33C-1.84002 96.34 -3.85002 73.35 14.03 74.72C14.72 74.77 16.77 74.95 17.05 75.41V75.42Z" fill="#003C6C"/>
<path d="M82.57 74.75C87.2 75.75 87.3 83.91 83.01 86.04C80.32 87.38 79.15 86.2 76.57 85.61C76.88 87.59 76.07 90.91 76.66 92.66C77.05 93.8 79.15 93.69 78.85 95.32H69.71C69.37 93.78 71.24 93.81 71.71 93.03C72.21 92.19 72.21 77.11 71.75 76.42C70.89 75.61 69.3 76.51 69.72 74.75C73.42 75.29 79.17 74.02 82.58 74.75H82.57ZM80.44 76.6C79.76 75.91 77.47 75.49 76.83 76.43L76.92 84.52C81.38 86.43 82.79 78.97 80.44 76.6Z" fill="#003C6C"/>
<path d="M96 95.32C95.51 93.54 97.72 94.42 97.73 92.78C97.73 92.51 96.47 89.24 96.29 89.03C95.6 88.19 90.69 88.13 90.22 88.79L89.68 93.25C89.88 93.92 92.51 93.56 92 95.31C90.49 95.1 85.81 95.97 85.15 94.45L87.48 93.21C89.88 88.27 91.01 80.63 93.6 76.05C95.32 73.01 96.09 75.22 96.84 77.05C98.25 80.44 101.19 91.17 102.83 93.2C103.42 93.94 104.29 94.07 105.15 94.18C105.32 94.39 104.4 95.32 104.29 95.32H96ZM95.43 86.74L93.15 80.46L91.43 86.74H95.43Z" fill="#003C6C"/>
<path d="M32 38.75L33.76 36.66L32.22 31.85L26.56 32.44C25.86 35.16 25.03 35.92 27.55 37.19C30.8 38.83 22.55 39.6 21.71 37.88L24.03 36.64C26.2 30.4 27.7 23.17 31.13 17.61C32.7 17.61 36.9 33.45 38.15 35.72C39.1 37.45 40.6 37.07 40.56 38.74H31.99L32 38.75ZM31.43 30.17C31.78 29.84 30.31 25.79 29.99 25.03C29.76 24.49 29.93 23.72 29.15 23.89L27.43 30.17H31.43Z" fill="#003C6C"/>
</g>
<defs>
<clipPath id="clip0_1_954">
<rect width="148" height="112.81" fill="white"/>
</clipPath>
</defs>
</svg>
