<svg width="150" height="114" viewBox="0 0 150 114" fill="none" xmlns="http://www.w3.org/2000/svg">
<g clip-path="url(#clip0_1_986)">
<path d="M36.16 113.02L31.84 97.21H34.72L37.08 106.25C37.91 105.04 40.13 97.44 40.82 96.99C41.14 96.78 41.69 96.81 41.92 97.15L45.5 106.25L47.75 97.41C47.99 97.08 50.41 97.09 50.65 97.41L46.22 113.03H45.4L41.09 102.76L36.98 113.03H36.16V113.02Z" fill="#003C6C"/>
<path d="M62.67 113.02H60C52.18 111.46 50.99 100.26 58.51 97.46C67.91 93.96 73.99 106.92 65.48 112.03L62.67 113.02ZM60.57 99.93C54.42 100.81 55.42 110.52 61.74 110.15C68.72 109.74 67.9 98.88 60.57 99.93Z" fill="#003C6C"/>
<path d="M113.01 113.02H110.34C109.49 112.66 106.71 111.89 106.88 110.71C106.91 110.52 107.52 109.36 107.66 109.21C108.39 108.49 109.82 110.01 110.74 110.25C112.28 110.65 114.21 110.15 113.79 108.24C113.32 106.12 107.86 105.88 106.98 102.51C105.71 97.63 111.04 95.93 114.85 97.52C115.82 97.92 116.76 98.29 116.34 99.41C115.13 102.6 112.7 98.18 110.43 99.87C107.62 101.97 113.5 103.87 114.58 104.56C117.6 106.46 118.13 109.94 115.12 112.16L113 113.02H113.01Z" fill="#003C6C"/>
<path d="M0 85.91L1.12 85.28C2.51 86.33 3.79 87.16 5.66 86.94C7 86.78 8.18 85.63 7.98 84.22C7.59 81.56 1.97 81.09 0.66 78.58C-1.15 75.1 1.91 72.12 5.42 72.38C6.21 72.44 9.21 73.22 9.01 74.25C8.68 75.97 6.59 74.16 5.43 74.01C3.27 73.74 1.01 75.24 2.1 77.54C3.28 80.02 9.77 79.91 9.88 84.36C10 89.23 2.59 89.62 0 86.52V85.9L0 85.91Z" fill="#003C6C"/>
<path d="M101.51 18.74C102.52 13.17 103.1 6.66 104.48 1.27C105.08 -1.06 106.12 0.259996 106.82 1.62C111.92 11.51 116.03 22.14 121.18 32.04C121.51 33.66 121.09 33.12 120.41 33.53C120 33.1 119.2 32.96 118.77 32.71C113.66 29.69 107.46 25.42 102.54 22.03C102.11 21.74 101.58 20.84 100.9 20.8C100.91 20.73 100.89 20.66 100.9 20.59C100.95 20.3 101.39 19.46 101.52 18.74H101.51ZM117.94 29.63L105.82 3.96L103.03 19.98L117.94 29.63ZM118.05 29.84V30.05C118.18 29.98 118.18 29.91 118.05 29.84Z" fill="#003C6C"/>
<path d="M28.77 33.53C28.46 33.31 27.59 33.51 27.83 32.5L43.09 0.23999L44.34 0.29999C45.59 5.98999 46.51 11.79 47.54 17.54C47.61 17.91 47.5 18.89 48.09 18.74C47.64 19.43 47.97 20.1 48.09 20.79C48.1 20.86 48.08 20.93 48.09 21C47.42 20.98 46.98 21.81 46.65 22.03C41.36 25.5 35.78 29.42 30.42 32.71C29.96 32.99 29.26 33.23 28.78 33.53H28.77ZM31.03 30.04L46.14 19.98L43.35 3.95999L31.03 30.04ZM36.99 27.78V27.48C36.74 27.24 36.56 26.89 36.17 26.96V27.78H36.99ZM36.16 27.99C35.61 28.15 35.03 28.08 34.48 28.26C34.27 28.33 33.58 28.59 33.7 28.91C34.18 30.18 35.23 28.26 36.16 28.61V27.99ZM33.29 29.84C32.55 29.62 31.63 30.22 31.65 31.07C32.07 31.29 33.61 30.11 33.29 29.84Z" fill="#003C6C"/>
<path d="M77.26 112.5C77.1 113.02 74.89 112.82 74.37 112.72L74.18 97.72C74.21 97.51 74.29 97.31 74.46 97.18C74.83 96.89 79.6 96.92 80.45 96.99C86.56 97.45 88.03 103.49 82.82 106.57C82.65 107.27 86.05 111.56 85.68 112.81H82.6L79.69 106.68L77.26 106.65V112.5ZM77.26 104.19H81.47C82.2 104.19 83.06 102.59 83.02 101.83C82.99 101.21 81.99 99.88 81.47 99.88H77.26V104.19Z" fill="#003C6C"/>
<path d="M85.89 8.89C85.81 9.54 85.38 10.01 85.07 10.53C82.23 15.32 79 19.89 76.01 24.59L75.82 25.53C75.5 25.6 74.47 26.13 74.38 26.35C73.97 26.12 73.89 25.52 73.35 25.53L73.37 25.01C70.3 20.32 67.25 15.62 64.28 10.86C64.07 10.53 63.72 10.56 63.69 10.53C63.67 10.51 63.87 10.27 63.73 9.99C63.54 9.62 63.29 9.24 63.07 8.89C67.85 5.84 70.45 4.29 76.53 4.79C80.91 5.15 82.55 6.77 85.88 8.89H85.89ZM83.61 9.12C78.07 5.59 71.02 5.51 65.54 9.23L74.7 23.48L83.62 9.13L83.61 9.12Z" fill="#003C6C"/>
<path d="M93.9 97.2V103.57C94.94 103.1 99.32 97.2 99.76 97.2H102.74L102.54 98.13L96.98 104.48L103.04 111.98C103.73 113.22 100.16 112.88 99.74 112.61C97.97 110.67 96.42 108.08 94.62 106.23C94.4 106.01 94.26 105.75 93.9 105.82V112.5C93.49 112.98 91.5 112.93 91.11 112.62L90.83 112.08C90.94 107.13 90.56 102.1 91.03 97.2H93.91H93.9Z" fill="#003C6C"/>
<path d="M102.53 22.03L98.63 44.83L118.77 32.71C119.2 32.96 120 33.11 120.41 33.53C112.41 38.42 104.03 44.49 95.75 48.73C95.33 48.35 94.82 48.16 94.93 47.5C95.09 47.42 96.11 46.1 96.25 45.84C98.34 37.66 99.38 29.13 100.89 20.8C101.58 20.84 102.11 21.74 102.53 22.03Z" fill="#003C6C"/>
<path d="M48.08 21C49.47 28.96 51.17 36.89 52.45 44.87C52.65 45.53 53.69 47.17 54.24 47.5C54.41 48.52 53.92 48.37 53.21 48.73C45.68 44.75 36.86 38.91 29.6 34.23C29.24 34 29.01 33.71 28.76 33.53C29.24 33.23 29.95 32.99 30.4 32.71L50.53 45.03L46.63 22.03C46.96 21.81 47.39 20.99 48.07 21H48.08Z" fill="#003C6C"/>
<path d="M43.36 84.67V73.07C43.36 72.42 45.21 72.42 45.21 73.07V88.27C45.21 88.58 44.3 88.73 44.06 88.39L34.11 76.05V87.86C34.11 88.34 32.26 88.79 32.26 87.86V72.87C32.26 72.77 32.76 72.35 32.98 72.35C33.31 72.35 33.77 72.93 34.01 73.18C37.09 76.41 39.73 80.79 42.75 84.16C42.92 84.35 43.11 84.62 43.36 84.68V84.67Z" fill="#003C6C"/>
<path d="M112.81 82.21H108.49V88.06C108.08 88.54 107.05 88.54 106.64 88.06V73.07C106.64 73.07 106.96 72.71 107.05 72.66C107.52 72.44 112.47 72.48 113.29 72.58C118.75 73.21 119.4 79.82 114.65 82.12L117.73 88.06C117.65 88.48 116.36 88.44 116.02 88.33C115.37 88.13 113.23 83.17 112.8 82.21H112.81ZM108.49 80.77H113.11C114.52 80.77 116.05 79 116.1 77.58C116.13 76.5 114.77 74.4 113.73 74.4H108.49V80.77Z" fill="#003C6C"/>
<path d="M64.14 84.5C63.77 85.29 62.9 88.23 62.16 88.38C61.69 88.47 60.65 88.48 60.91 87.75C63.07 83.32 64.81 78.51 67.02 74.13C67.28 73.62 67.79 72.16 68.51 72.37L75.62 88.06C73.27 89.92 73.04 84.87 71.99 84.5H64.14ZM64.93 83.03H71.51L68.32 75.84L67.43 77.21L64.94 83.03H64.93Z" fill="#003C6C"/>
<path d="M24.42 84.5H16.57C15.65 84.81 15.29 89.86 13.16 88.03L20.27 72.37C20.92 72.2 21.29 73.41 21.54 73.92C23.74 78.43 25.52 83.18 27.7 87.7C27.86 88.59 26.66 88.46 26.08 88.28L24.41 84.51L24.42 84.5ZM23.63 83.03L20.55 75.64L17.06 83.03H23.64H23.63Z" fill="#003C6C"/>
<path d="M122.67 72.86C122.81 72.42 124.08 72.4 124.31 72.86V82.72C124.31 82.79 124.56 83.9 124.61 84.06C125.68 87.42 130.54 88.02 132.2 84.86C132.29 84.69 132.73 83.62 132.73 83.54V73.07C132.73 72.42 134.58 72.42 134.58 73.07V83.34C134.58 83.64 134.1 85 133.94 85.37C132.14 89.36 126.08 89.7 123.65 86.06C123.42 85.71 122.67 84.25 122.67 83.96V72.87V72.86Z" fill="#003C6C"/>
<path d="M95.3 72.41C96.52 72.29 97.83 72.5 98.98 72.93C99.51 73.13 101.97 74.35 101.62 75.02L100.58 75.85C97.51 73.39 92.99 73.43 90.86 77.02C86.96 83.59 94.8 90.11 100.58 85.09L101.62 85.92C101.89 86.46 100.13 87.53 99.72 87.73C93.36 90.89 86.24 84.95 88.29 78.15C89.22 75.06 92.09 72.72 95.29 72.42L95.3 72.41Z" fill="#003C6C"/>
<path d="M75.82 25.52L89.48 46.68C90.61 47.75 91.84 48.07 93.37 47.89C93.53 47.87 94.86 47.53 94.93 47.5C94.82 48.17 95.33 48.36 95.75 48.73C92.77 50.25 90.72 50.18 88.14 47.81L76.03 29.11L74.38 26.96C74.44 26.82 74.32 26.49 74.38 26.34C74.47 26.11 75.49 25.59 75.82 25.52Z" fill="#003C6C"/>
<path d="M74.38 26.34C74.32 26.48 74.44 26.82 74.38 26.96C74.08 27.69 73.64 28.32 73.23 29C69.38 35.44 64.89 41.55 60.93 47.92C58.41 50.13 56.12 50.27 53.22 48.73C53.93 48.37 54.41 48.52 54.25 47.5C54.31 47.54 55.48 47.88 55.6 47.9C57.19 48.12 58.54 47.79 59.68 46.66L73.36 25.52C73.9 25.52 73.98 26.11 74.39 26.34H74.38Z" fill="#003C6C"/>
<path d="M141.37 86.73H148.87C149.35 87.13 149.33 88.01 148.87 88.37H139.21C139.11 88.37 138.87 88.02 138.89 87.85L147.12 74.2H139.83C139.47 74.2 139.18 72.76 140.25 72.56C142.86 72.81 146.15 72.2 148.68 72.54C149.16 72.61 149.52 72.73 149.6 73.27L141.38 86.73H141.37Z" fill="#003C6C"/>
<path d="M50.03 74.2C49.65 74.08 49.66 73.16 49.75 72.79C50.16 72.57 50.6 72.57 51.05 72.55C53.27 72.42 57.34 72.32 59.47 72.58C60.52 72.71 60.44 73.48 59.9 74.2H55.89V88.06C55.48 88.54 54.45 88.54 54.04 88.06V74.2H50.03Z" fill="#003C6C"/>
<path d="M101.51 18.74C101.38 19.46 100.95 20.3 100.89 20.59L85.07 10.53C85.38 10 85.82 9.54001 85.89 8.89001C90.59 11.88 95.25 15.16 100 18.09C100.45 18.37 100.95 18.75 101.5 18.75L101.51 18.74Z" fill="#003C6C"/>
<path d="M63.7 10.53L48.08 20.8C47.96 20.11 47.63 19.44 48.08 18.75C53.06 15.43 58.04 12.11 63.08 8.89001C63.3 9.24001 63.56 9.61001 63.74 9.99001C63.88 10.27 63.68 10.51 63.7 10.53Z" fill="#003C6C"/>
<path d="M118.05 29.84C118.18 29.91 118.18 29.98 118.05 30.05V29.84Z" fill="#003C6C"/>
<path d="M36.16 27.99V28.61C35.23 28.27 34.18 30.18 33.7 28.91C33.58 28.59 34.27 28.33 34.48 28.26C35.03 28.07 35.61 28.15 36.16 27.99Z" fill="#003C6C"/>
<path d="M33.29 29.84C33.61 30.11 32.07 31.29 31.65 31.07C31.63 30.21 32.55 29.62 33.29 29.84Z" fill="#003C6C"/>
<path d="M36.99 27.78H36.17V26.96C36.56 26.88 36.74 27.23 36.99 27.48V27.78Z" fill="#003C6C"/>
</g>
<defs>
<clipPath id="clip0_1_986">
<rect width="149.59" height="113.02" fill="white"/>
</clipPath>
</defs>
</svg>
