<svg width="363" height="120" viewBox="0 0 363 120" fill="none" xmlns="http://www.w3.org/2000/svg">
<path d="M1.73116 74.226C-5.48802 44.0266 10.4267 13.973 39.1222 3.61611C68.2872 -6.9102 99.485 6.11725 113.424 35.2454C112.805 36.3646 112.272 36.9172 111.283 37.4246C108.73 37.315 106.633 37.2506 104.447 37.017C104.202 36.6363 104.001 36.4842 103.684 35.9328C103.613 32.1985 103.613 28.9227 103.613 24.4918C96.5707 27.5473 101.245 33.5892 98.3823 37.5498C95.8071 37.5498 93.4085 37.5 89.5 37.5C88.5 42.5 96.5303 38.6333 99.5287 41.4106C99.5287 43.9264 99.6856 46.9466 99.5 50C99.5 51 99.5 51.2879 99.5 52.5C99.5 54.5 99.5 57 99.5 59C99.5 61.5 99.4294 63.9997 99.4386 66.4982C99.4682 74.4927 102.111 77.1934 110.16 77.42C111.945 77.4702 113.733 77.4273 115.574 77.4273C113.407 94.8153 92.324 113.982 71.1651 118.219C45.5173 123.355 19.8601 110.693 7 87C10.5 88.5 12.0676 86.7377 15 85C15.8474 84.4978 32 70 33 69C32.6486 69.1805 32.9846 69.0104 33 69C33 69 34.4119 67.2529 35.9984 66.0035C34.5652 70.1695 33.4244 73.1925 32.4882 76.2776C31.1548 80.6713 30.2661 85.2847 33.8355 88.9503C37.4152 92.6265 42.351 92.4062 46.376 90.4C55.634 85.7855 64.5318 80.448 73.889 75.2725C77.1829 72.8647 80.2549 70.6959 83.1093 68.271C84.7918 66.8417 86.813 65.2469 88.5 63.5C88.9382 63.2351 90.1374 62.407 90.5 62C91.2634 61.5845 93.6744 58.8191 94.5 58.5C95.3129 58.0797 98.8015 55.0845 99.5 54.5C99.5 53.5 99.5 53.7121 99.5 52.5C99.5019 51.797 99.5 50.5 99.5 50C98.9721 50.614 92.3878 56.8453 91.5 57.5C83.0825 62.8024 74.663 71.6961 66.567 76.5C66.5218 71.8762 66.5677 63.9747 66.567 59.8087C66.5649 46.9082 71.4809 41.596 84.5245 40.2339C85.2017 40.2339 85 39.5 85 38.5C76.6419 36.2986 72.5916 39.2875 66.711 45.0397C66.574 42.2038 66.4644 39.9344 66.3631 37.8388C62.5722 36.6101 62.4549 38.6431 62.467 41.0989C62.5246 52.7633 62.2562 63.1466 62 75C61.9819 75.8393 62 79 62 79C61.0128 79.0693 62.9596 78.9569 62 79C61.1936 79.5158 57.8588 80.8664 57 81.5C53.0669 83.3318 48.8106 83.9459 45.0858 85.2302C41.0362 86.6265 39.3633 85.0346 40.0683 80.8502C40.562 77.9195 41.0119 74.8423 42.2653 72.2028C47.5303 61.1149 53.3097 50.2685 58.4568 39.1285C61.3593 32.8466 64.8643 28.4804 72.5656 30.2422C72.6891 30.2705 72.9176 29.8401 73.4146 29.2409C70.8273 28.49 68.4156 27.7816 65.9986 27.0915C64.1407 26.561 62.1643 25.3876 60.4383 25.6774C57.068 26.2433 53.8359 27.6329 50.1863 28.6504C27.1317 36.7955 11.2832 52.1907 1.73116 74.226Z" fill="#003C6C"/>
<path d="M113.774 40.2092C118.851 41.8899 117.859 46.8968 118.168 50.211C118.906 58.1434 118.277 66.2031 118.197 74.5754C114.737 74.5754 112.602 74.6776 110.481 74.5554C105.125 74.2468 103.615 72.5815 103.582 67.0748C103.553 62.0944 103.566 57.1136 103.669 51.3677C107.109 47.138 110.442 43.6736 113.774 40.2092Z" fill="#003C6C"/>
<path d="M18.2218 79.1864C16.1073 80.3842 14.1473 81.4657 12.1374 82.5747C7.30977 70.7482 30.0983 39.9257 50.61 30.4363C52.635 30.1223 53.9911 29.9675 56.9702 29.6274C49.5556 41.3046 42.8888 51.7887 36.2421 62.2855C34.9671 64.299 34.2323 64.4594 33 66.5C33 66.5 32.5 67 32 67.5C32 67.5 31.2797 68.258 31 68.5C28 71.5 29 71 21.0195 77.363C20.1385 77.9321 19.2574 78.5012 18.2218 79.1864Z" fill="#003C6C"/>
<path d="M58.3799 78.4221C58.1801 78.9735 57.6794 79.534 56.8706 80.0229C57.068 79.4446 57.5735 78.9379 58.3799 78.4221Z" fill="#003C6C"/>
<path d="M138.424 39.66C138.052 39.48 137.596 39.312 137.056 39.156C136.516 39 135.976 38.922 135.436 38.922C134.596 38.922 133.924 39.132 133.42 39.552C132.916 39.972 132.664 40.5 132.664 41.136C132.664 41.616 132.808 42.018 133.096 42.342C133.384 42.654 133.762 42.924 134.23 43.152C134.698 43.368 135.196 43.578 135.724 43.782C136.144 43.938 136.558 44.112 136.966 44.304C137.386 44.496 137.764 44.73 138.1 45.006C138.436 45.282 138.7 45.624 138.892 46.032C139.096 46.44 139.198 46.944 139.198 47.544C139.198 48.252 139.03 48.882 138.694 49.434C138.358 49.974 137.89 50.394 137.29 50.694C136.69 50.994 135.994 51.144 135.202 51.144C134.566 51.144 133.984 51.066 133.456 50.91C132.94 50.754 132.484 50.574 132.088 50.37C131.704 50.154 131.398 49.974 131.17 49.83L131.584 49.11C131.848 49.302 132.166 49.494 132.538 49.686C132.922 49.878 133.336 50.04 133.78 50.172C134.224 50.304 134.668 50.37 135.112 50.37C135.628 50.37 136.126 50.268 136.606 50.064C137.098 49.86 137.5 49.554 137.812 49.146C138.136 48.726 138.298 48.198 138.298 47.562C138.298 46.95 138.148 46.458 137.848 46.086C137.548 45.702 137.164 45.39 136.696 45.15C136.228 44.91 135.73 44.694 135.202 44.502C134.794 44.346 134.386 44.184 133.978 44.016C133.57 43.836 133.198 43.626 132.862 43.386C132.526 43.134 132.256 42.834 132.052 42.486C131.86 42.138 131.764 41.718 131.764 41.226C131.764 40.614 131.92 40.08 132.232 39.624C132.544 39.168 132.964 38.814 133.492 38.562C134.032 38.298 134.644 38.16 135.328 38.148C135.928 38.148 136.534 38.226 137.146 38.382C137.77 38.538 138.31 38.736 138.766 38.976L138.424 39.66ZM141.377 51L146.777 37.662H146.849L152.249 51H151.259L146.561 39.066L147.173 38.724L142.259 51H141.377ZM143.987 45.942H149.657L149.909 46.77H143.771L143.987 45.942ZM165.894 51.306L155.814 39.948L156.048 39.768L156.066 51H155.202V37.95H155.256L165.336 49.398L165.102 49.47L165.084 38.22H165.93V51.306H165.894ZM168.977 38.22H177.347V39.066H173.585V51H172.703V39.066H168.977V38.22ZM178.326 51L183.726 37.662H183.798L189.198 51H188.208L183.51 39.066L184.122 38.724L179.208 51H178.326ZM180.936 45.942H186.606L186.858 46.77H180.72L180.936 45.942ZM206.851 50.154C206.575 50.322 206.257 50.484 205.897 50.64C205.537 50.796 205.141 50.916 204.709 51C204.277 51.096 203.809 51.144 203.305 51.144C202.333 51.144 201.451 50.976 200.659 50.64C199.867 50.292 199.189 49.824 198.625 49.236C198.061 48.636 197.623 47.952 197.311 47.184C197.011 46.404 196.861 45.576 196.861 44.7C196.861 43.764 197.023 42.894 197.347 42.09C197.671 41.286 198.127 40.584 198.715 39.984C199.303 39.384 199.987 38.916 200.767 38.58C201.547 38.244 202.393 38.076 203.305 38.076C203.977 38.076 204.607 38.166 205.195 38.346C205.783 38.526 206.317 38.76 206.797 39.048L206.419 39.858C205.999 39.594 205.525 39.372 204.997 39.192C204.469 39.012 203.911 38.922 203.323 38.922C202.567 38.922 201.853 39.072 201.181 39.372C200.509 39.66 199.915 40.068 199.399 40.596C198.895 41.112 198.499 41.718 198.211 42.414C197.923 43.11 197.779 43.86 197.779 44.664C197.779 45.432 197.905 46.158 198.157 46.842C198.421 47.526 198.793 48.126 199.273 48.642C199.765 49.158 200.353 49.566 201.037 49.866C201.721 50.154 202.483 50.298 203.323 50.298C203.947 50.298 204.517 50.214 205.033 50.046C205.561 49.866 206.029 49.644 206.437 49.38L206.851 50.154ZM213.032 38.22C213.512 38.22 213.986 38.292 214.454 38.436C214.934 38.568 215.366 38.784 215.75 39.084C216.146 39.372 216.464 39.744 216.704 40.2C216.944 40.656 217.064 41.202 217.064 41.838C217.064 42.318 216.992 42.786 216.848 43.242C216.704 43.686 216.47 44.088 216.146 44.448C215.822 44.808 215.402 45.096 214.886 45.312C214.37 45.528 213.734 45.636 212.978 45.636H210.998V51H210.116V38.22H213.032ZM212.924 44.79C213.56 44.79 214.088 44.7 214.508 44.52C214.928 44.34 215.258 44.106 215.498 43.818C215.738 43.53 215.906 43.218 216.002 42.882C216.11 42.534 216.164 42.198 216.164 41.874C216.164 41.49 216.092 41.13 215.948 40.794C215.816 40.458 215.618 40.164 215.354 39.912C215.09 39.648 214.772 39.444 214.4 39.3C214.028 39.144 213.614 39.066 213.158 39.066H210.998V44.79H212.924ZM214.76 45.186L218.306 51H217.28L213.716 45.204L214.76 45.186ZM222.317 46.68C222.317 47.424 222.467 48.066 222.767 48.606C223.079 49.146 223.499 49.566 224.027 49.866C224.555 50.154 225.155 50.298 225.827 50.298C226.511 50.298 227.117 50.154 227.645 49.866C228.185 49.566 228.605 49.146 228.905 48.606C229.217 48.066 229.373 47.424 229.373 46.68V38.22H230.237V46.734C230.237 47.658 230.039 48.45 229.643 49.11C229.259 49.77 228.731 50.274 228.059 50.622C227.399 50.97 226.655 51.144 225.827 51.144C224.999 51.144 224.249 50.97 223.577 50.622C222.917 50.274 222.395 49.77 222.011 49.11C221.627 48.45 221.435 47.658 221.435 46.734V38.22H222.317V46.68ZM233.207 51C233.483 50.616 233.789 50.19 234.125 49.722C234.461 49.254 234.815 48.756 235.187 48.228C235.571 47.688 235.961 47.136 236.357 46.572C236.765 45.996 237.179 45.42 237.599 44.844C238.019 44.268 238.427 43.704 238.823 43.152C239.231 42.588 239.621 42.048 239.993 41.532C240.377 41.004 240.737 40.512 241.073 40.056C241.409 39.6 241.715 39.192 241.991 38.832L242.153 39.066H234.935C234.719 39.066 234.521 39.036 234.341 38.976C234.161 38.916 234.017 38.82 233.909 38.688C233.801 38.556 233.747 38.376 233.747 38.148V37.59H234.593V37.806C234.593 37.962 234.635 38.07 234.719 38.13C234.803 38.19 234.947 38.22 235.151 38.22H243.377L234.629 50.298L234.557 50.154H243.809V51H233.207ZM252.409 51V37.932H252.427L258.727 46.878L258.349 46.824L264.631 37.932H264.649V51H263.785V39.966L263.857 40.398L258.529 47.904H258.493L253.129 40.398L253.273 40.002V51H252.409ZM267.912 44.628C267.912 43.728 268.08 42.888 268.416 42.108C268.752 41.316 269.22 40.62 269.82 40.02C270.42 39.408 271.11 38.934 271.89 38.598C272.682 38.25 273.528 38.076 274.428 38.076C275.327 38.076 276.174 38.25 276.966 38.598C277.758 38.934 278.454 39.408 279.054 40.02C279.654 40.62 280.122 41.316 280.458 42.108C280.806 42.888 280.98 43.728 280.98 44.628C280.98 45.528 280.806 46.374 280.458 47.166C280.122 47.946 279.654 48.636 279.054 49.236C278.454 49.836 277.758 50.304 276.966 50.64C276.174 50.976 275.327 51.144 274.428 51.144C273.528 51.144 272.682 50.982 271.89 50.658C271.11 50.334 270.42 49.878 269.82 49.29C269.22 48.702 268.752 48.012 268.416 47.22C268.08 46.428 267.912 45.564 267.912 44.628ZM268.812 44.646C268.812 45.426 268.956 46.158 269.244 46.842C269.532 47.526 269.934 48.126 270.45 48.642C270.966 49.158 271.56 49.566 272.232 49.866C272.916 50.154 273.642 50.298 274.41 50.298C275.202 50.298 275.94 50.154 276.624 49.866C277.308 49.566 277.908 49.158 278.424 48.642C278.94 48.126 279.342 47.526 279.63 46.842C279.93 46.158 280.08 45.42 280.08 44.628C280.08 43.848 279.93 43.116 279.63 42.432C279.342 41.736 278.94 41.13 278.424 40.614C277.908 40.086 277.308 39.672 276.624 39.372C275.94 39.072 275.208 38.922 274.428 38.922C273.636 38.922 272.898 39.078 272.214 39.39C271.53 39.69 270.93 40.104 270.414 40.632C269.91 41.16 269.514 41.772 269.226 42.468C268.95 43.152 268.812 43.878 268.812 44.646ZM285.053 46.68C285.053 47.424 285.203 48.066 285.503 48.606C285.815 49.146 286.235 49.566 286.763 49.866C287.291 50.154 287.891 50.298 288.563 50.298C289.247 50.298 289.853 50.154 290.381 49.866C290.921 49.566 291.341 49.146 291.641 48.606C291.953 48.066 292.109 47.424 292.109 46.68V38.22H292.973V46.734C292.973 47.658 292.775 48.45 292.379 49.11C291.995 49.77 291.467 50.274 290.795 50.622C290.135 50.97 289.391 51.144 288.563 51.144C287.735 51.144 286.985 50.97 286.313 50.622C285.653 50.274 285.131 49.77 284.747 49.11C284.363 48.45 284.171 47.658 284.171 46.734V38.22H285.053V46.68ZM307.662 51.306L297.582 39.948L297.816 39.768L297.834 51H296.97V37.95H297.024L307.104 49.398L306.87 49.47L306.852 38.22H307.698V51.306H307.662ZM310.744 38.22H319.114V39.066H315.352V51H314.47V39.066H310.744V38.22ZM320.094 51L325.494 37.662H325.566L330.966 51H329.976L325.278 39.066L325.89 38.724L320.976 51H320.094ZM322.704 45.942H328.374L328.626 46.77H322.488L322.704 45.942ZM333.919 38.22H334.801V51H333.919V38.22ZM349.568 51.306L339.488 39.948L339.722 39.768L339.74 51H338.876V37.95H338.93L349.01 49.398L348.776 49.47L348.758 38.22H349.604V51.306H349.568ZM360.067 39.66C359.695 39.48 359.239 39.312 358.699 39.156C358.159 39 357.619 38.922 357.079 38.922C356.239 38.922 355.567 39.132 355.063 39.552C354.559 39.972 354.307 40.5 354.307 41.136C354.307 41.616 354.451 42.018 354.739 42.342C355.027 42.654 355.405 42.924 355.873 43.152C356.341 43.368 356.839 43.578 357.367 43.782C357.787 43.938 358.201 44.112 358.609 44.304C359.029 44.496 359.407 44.73 359.743 45.006C360.079 45.282 360.343 45.624 360.535 46.032C360.739 46.44 360.841 46.944 360.841 47.544C360.841 48.252 360.673 48.882 360.337 49.434C360.001 49.974 359.533 50.394 358.933 50.694C358.333 50.994 357.637 51.144 356.845 51.144C356.209 51.144 355.627 51.066 355.099 50.91C354.583 50.754 354.127 50.574 353.731 50.37C353.347 50.154 353.041 49.974 352.813 49.83L353.227 49.11C353.491 49.302 353.809 49.494 354.181 49.686C354.565 49.878 354.979 50.04 355.423 50.172C355.867 50.304 356.311 50.37 356.755 50.37C357.271 50.37 357.769 50.268 358.249 50.064C358.741 49.86 359.143 49.554 359.455 49.146C359.779 48.726 359.941 48.198 359.941 47.562C359.941 46.95 359.791 46.458 359.491 46.086C359.191 45.702 358.807 45.39 358.339 45.15C357.871 44.91 357.373 44.694 356.845 44.502C356.437 44.346 356.029 44.184 355.621 44.016C355.213 43.836 354.841 43.626 354.505 43.386C354.169 43.134 353.899 42.834 353.695 42.486C353.503 42.138 353.407 41.718 353.407 41.226C353.407 40.614 353.563 40.08 353.875 39.624C354.187 39.168 354.607 38.814 355.135 38.562C355.675 38.298 356.287 38.16 356.971 38.148C357.571 38.148 358.177 38.226 358.789 38.382C359.413 38.538 359.953 38.736 360.409 38.976L360.067 39.66ZM131.53 81L140.53 58.77H140.65L149.65 81H148L140.17 61.11L141.19 60.54L133 81H131.53ZM135.88 72.57H145.33L145.75 73.95H135.52L135.88 72.57ZM159.432 59.7C160.232 59.7 161.022 59.82 161.802 60.06C162.602 60.28 163.322 60.64 163.962 61.14C164.622 61.62 165.152 62.24 165.552 63C165.952 63.76 166.152 64.67 166.152 65.73C166.152 66.53 166.032 67.31 165.792 68.07C165.552 68.81 165.162 69.48 164.622 70.08C164.082 70.68 163.382 71.16 162.522 71.52C161.662 71.88 160.602 72.06 159.342 72.06H156.042V81H154.572V59.7H159.432ZM159.252 70.65C160.312 70.65 161.192 70.5 161.892 70.2C162.592 69.9 163.142 69.51 163.542 69.03C163.942 68.55 164.222 68.03 164.382 67.47C164.562 66.89 164.652 66.33 164.652 65.79C164.652 65.15 164.532 64.55 164.292 63.99C164.072 63.43 163.742 62.94 163.302 62.52C162.862 62.08 162.332 61.74 161.712 61.5C161.092 61.24 160.402 61.11 159.642 61.11H156.042V70.65H159.252ZM162.312 71.31L168.222 81H166.512L160.572 71.34L162.312 71.31ZM171.7 59.7H185.65V61.11H179.38V81H177.91V61.11H171.7V59.7ZM215.223 79.59C214.763 79.87 214.233 80.14 213.633 80.4C213.033 80.66 212.373 80.86 211.653 81C210.933 81.16 210.153 81.24 209.313 81.24C207.693 81.24 206.223 80.96 204.903 80.4C203.583 79.82 202.453 79.04 201.513 78.06C200.573 77.06 199.843 75.92 199.323 74.64C198.823 73.34 198.573 71.96 198.573 70.5C198.573 68.94 198.843 67.49 199.383 66.15C199.923 64.81 200.683 63.64 201.663 62.64C202.643 61.64 203.783 60.86 205.083 60.3C206.383 59.74 207.793 59.46 209.313 59.46C210.433 59.46 211.483 59.61 212.463 59.91C213.443 60.21 214.333 60.6 215.133 61.08L214.503 62.43C213.803 61.99 213.013 61.62 212.133 61.32C211.253 61.02 210.323 60.87 209.343 60.87C208.083 60.87 206.893 61.12 205.773 61.62C204.653 62.1 203.663 62.78 202.803 63.66C201.963 64.52 201.303 65.53 200.823 66.69C200.343 67.85 200.103 69.1 200.103 70.44C200.103 71.72 200.313 72.93 200.733 74.07C201.173 75.21 201.793 76.21 202.593 77.07C203.413 77.93 204.393 78.61 205.533 79.11C206.673 79.59 207.943 79.83 209.343 79.83C210.383 79.83 211.333 79.69 212.193 79.41C213.073 79.11 213.853 78.74 214.533 78.3L215.223 79.59ZM220.665 59.7H233.805V61.11H222.135V69.57H232.635V70.98H222.135V79.59H234.225V81H220.665V59.7ZM257.646 81.51L240.846 62.58L241.236 62.28L241.266 81H239.826V59.25H239.916L256.716 78.33L256.326 78.45L256.296 59.7H257.706V81.51H257.646ZM262.784 59.7H276.734V61.11H270.464V81H268.994V61.11H262.784V59.7ZM281.808 59.7H294.948V61.11H283.278V69.57H293.778V70.98H283.278V79.59H295.368V81H281.808V59.7ZM305.828 59.7C306.628 59.7 307.418 59.82 308.198 60.06C308.998 60.28 309.718 60.64 310.358 61.14C311.018 61.62 311.548 62.24 311.948 63C312.348 63.76 312.548 64.67 312.548 65.73C312.548 66.53 312.428 67.31 312.188 68.07C311.948 68.81 311.558 69.48 311.018 70.08C310.478 70.68 309.778 71.16 308.918 71.52C308.058 71.88 306.998 72.06 305.738 72.06H302.438V81H300.968V59.7H305.828ZM305.648 70.65C306.708 70.65 307.588 70.5 308.288 70.2C308.988 69.9 309.538 69.51 309.938 69.03C310.338 68.55 310.618 68.03 310.778 67.47C310.958 66.89 311.048 66.33 311.048 65.79C311.048 65.15 310.928 64.55 310.688 63.99C310.468 63.43 310.138 62.94 309.698 62.52C309.258 62.08 308.728 61.74 308.108 61.5C307.488 61.24 306.798 61.11 306.038 61.11H302.438V70.65H305.648ZM308.708 71.31L314.618 81H312.908L306.968 71.34L308.708 71.31Z" fill="#003C6C"/>
</svg>
