<svg width="152" height="124" viewBox="0 0 152 124" fill="none" xmlns="http://www.w3.org/2000/svg">
<g clip-path="url(#clip0_1_1094)">
<path d="M90.61 21.18C94.58 22.55 98.12 25.83 100.17 29.47C107.59 42.68 98.31 58.51 83.42 58.95H49.13L61.28 37.77C70.26 41.41 80.1 38.24 85.34 30.2C87.18 27.38 88.9 24.11 90.61 21.18Z" fill="#003C6C"/>
<path d="M61.28 37.78C42.12 30.01 46.94 1.57 67.28 0H102.76C98.78 7.05 94.69 14.05 90.61 21.04C89.29 20.64 87.99 20.15 86.61 19.93C72.96 17.66 66.65 27.12 61.27 37.79L61.28 37.78Z" fill="#003C6C"/>
<path d="M66.69 85.78C66.78 85.8 67.13 86.06 67.21 86.15C68.2 89.19 69.07 92.37 69.86 95.5C70.05 96.23 70.17 96.97 70.32 97.71C70.36 97.91 70.18 98.14 70.54 98.08L74.1 86.52C74.19 86.33 74.36 86.03 74.54 85.92C74.99 85.65 77.86 85.55 78.16 86.32C79.45 90.12 80.42 94.02 81.59 97.86C81.65 98.07 81.5 98.12 81.89 98.08C81.96 97.11 82.25 96.14 82.49 95.2C83.16 92.67 83.84 89.75 84.66 87.3C84.8 86.89 85.12 85.78 85.66 85.78H89.14L83.72 103.12C82.77 102.94 80.31 103.51 79.74 102.66L76.03 90.81L72.38 102.57C71.86 103.45 69.34 103.06 68.39 103.04L62.91 85.77C64 85.93 65.69 85.56 66.69 85.77V85.78Z" fill="#003C6C"/>
<path d="M61.28 86.37C61.52 88.73 61.08 88.87 58.91 89.19C59.99 92.91 57.85 95.82 54.17 96.53C53.75 96.61 52.85 96.76 52.46 96.76C51.65 96.76 50.54 96.16 49.95 97.05C49.17 98.23 50.86 98.57 51.72 98.67C55.02 99.07 61.24 98.2 60.98 103.34C60.67 109.37 50.41 110.5 46.54 107.57C44.06 105.69 44.35 102.35 47.35 101.35L46.23 99.73C45.77 97.98 46.72 96.72 48.09 95.8L48.02 95.57C44.77 93.58 44.71 88.78 47.9 86.71C50.08 85.29 52.72 85.25 55.17 85.9C55.46 85.98 56.11 86.39 56.17 86.39H61.28V86.37ZM51.61 88.48C48.6 88.96 48.76 93.43 51.46 93.89C53.22 94.19 55.11 93.69 55.43 91.71C55.84 89.24 53.84 88.12 51.61 88.48ZM49.98 101.96C48.75 102.51 47.94 104.08 49.05 105.18C50.35 106.46 55.07 106.35 56.43 105.16C57.08 104.59 57.37 103.66 56.76 102.95C55.79 101.83 51.47 102.07 49.97 101.96H49.98Z" fill="#003C6C"/>
<path d="M1.32 97.67C2.43 96.65 4.3 98.6 5.53 99.07C8.61 100.25 12.9 99.21 11.84 95.13C11.34 93.21 7.44 92.62 5.79 91.99C3.05 90.96 1.08 89.43 0.830001 86.28C0.250001 78.99 8.69 76.76 14.16 79.76C14.66 80.04 15.88 80.7 15.73 81.32C15.64 81.69 14.54 83.71 14.21 83.81C13.21 84.12 12.33 83.15 11.45 82.78C9.18 81.81 5.23 81.94 5.12 85.1C5.03 87.83 9.45 88.45 11.39 89.21C13.66 90.11 15.91 91.46 16.23 94.15C17.2 102.5 8.58 105.38 2.17 101.84C1.8 101.63 0.150001 100.56 0.020001 100.28C-0.139999 99.94 1.06 97.91 1.33 97.66L1.32 97.67Z" fill="#003C6C"/>
<path d="M126.32 78.07V92.29C126.85 92.26 127.49 92.43 127.94 92.06L132.59 86.27C132.75 86.2 133.28 85.77 133.35 85.77H137.57L131.2 93.47L132.21 94.46L138.01 103.1H134.08C133.9 103.1 133.14 102.78 132.97 102.58L128.19 95.44C127.61 95.11 126.97 95.06 126.31 95.1V103.1H122.24L122.02 102.88V78.07H126.32Z" fill="#003C6C"/>
<path d="M97.55 85.52C104.28 84.99 107.96 90.44 106.7 96.74C104.84 106.01 90.73 105.33 89.88 95.77C89.41 90.44 91.89 85.96 97.55 85.52ZM97.69 88.78C92.82 89.44 93.1 99.08 97.16 99.9C101.96 100.88 103.07 96.5 102.45 92.68C102.02 90.04 100.54 88.39 97.69 88.77V88.78Z" fill="#003C6C"/>
<path d="M31.5 85.78V97.26C31.5 97.35 31.76 98.26 31.83 98.42C32.9 101.1 36.63 99.97 38.17 98.3V85.78H42.32V103.11H39.73C38.57 103.11 38.68 101.03 38.4 101.04C35.43 104.25 29.5 104.26 27.84 99.74C27.74 99.46 27.36 98.2 27.36 98V85.78H31.51H31.5Z" fill="#003C6C"/>
<path d="M145.1 85.52C147.37 85.34 149.75 85.97 151.43 87.55L151.47 87.74C150.84 88.75 150.68 89.89 149.23 89.59C147.87 89.3 147.22 88.36 145.36 88.6C143.38 88.85 142.41 90.76 144.53 91.92C147.26 93.41 151.85 93.32 151.78 97.67C151.68 103.66 143.92 104.48 139.84 101.94C139.69 101.85 139.02 101.39 138.97 101.32C138.78 101.02 139.63 99.68 139.87 99.4C141 98.16 142.34 99.79 143.57 100.12C144.73 100.43 146.62 100.44 147.4 99.38C149.37 96.73 144.12 95.96 142.6 95.31C136.83 92.85 138.98 85.99 145.09 85.51L145.1 85.52Z" fill="#003C6C"/>
<path d="M23.65 78.07H19.5V103.11H23.65V78.07Z" fill="#003C6C"/>
<path d="M112.76 85.78C113.73 85.99 113.56 87.69 113.72 88.45C115.24 86.21 117.52 84.45 120.25 86.03C119.95 86.84 120.21 88.93 119.73 89.5C119.32 89.99 117.69 89.54 116.9 89.64C116.06 89.74 115.35 90.18 114.84 90.84C114.69 91.03 114.02 92.23 114.02 92.39V103.13H109.72V85.8C110.6 85.93 111.94 85.63 112.76 85.8V85.78Z" fill="#003C6C"/>
<path d="M131.95 122C131.83 122.73 130.9 123.62 130.18 123.79C129.03 124.06 125.97 123.58 127.59 122.08C128.78 123.08 130.48 122.98 130.61 121.19C129.32 121.82 128.12 121.94 127.2 120.67C125.47 118.28 127.51 113.74 130.61 116.01V115.58L131.94 115.57V122.01L131.95 122ZM128.94 116.62C127.66 117.01 127.52 121.12 129.92 120.41C130.79 120.15 130.79 117.98 130.59 117.29C130.42 116.72 129.48 116.46 128.95 116.62H128.94Z" fill="#003C6C"/>
<path d="M116.54 115.85L115.07 115.83C115.04 113.98 111.76 114.19 112.27 115.89C112.6 116.97 115.93 116.81 116.47 118.8C117.44 122.38 110.42 122.65 110.47 119.1L111.94 119.12C111.94 121.04 115.73 120.79 114.96 118.99C114.49 117.9 111.11 118.13 110.78 116.05C110.22 112.5 116.49 112.36 116.55 115.84L116.54 115.85Z" fill="#003C6C"/>
<path d="M67.95 121.18V123.85H66.47V115.55C66.85 115.6 67.36 115.47 67.7 115.55C67.81 115.58 67.8 115.85 67.88 115.85C68.11 115.85 68.55 115.47 68.92 115.41C73.36 114.69 72.52 123.86 67.95 121.18ZM68.65 116.62C68.33 116.69 68.02 116.93 67.95 117.26C67.88 117.59 67.89 119.61 67.98 119.89C68.14 120.42 69.01 120.51 69.47 120.41C70.77 120.11 70.82 116.15 68.65 116.62Z" fill="#003C6C"/>
<path d="M20.83 121.48L19.34 121.41L18.77 119.79L15.66 119.72L15.05 121.41L13.56 121.48L16.52 113.55L17.93 113.63L20.82 121.48H20.83ZM18.32 118.52L17.21 115.41L16.1 118.52H18.32Z" fill="#003C6C"/>
<path d="M45.28 121.48H43.88L43.73 121.04C42.93 122.13 40.5 121.68 40.26 120.37C39.84 118.13 42.06 117.66 43.81 117.78C43.8 116.27 42.15 116.04 41.64 117.34H40.4C40.2 115.27 43.57 114.87 44.7 116.07C45.64 117.07 44.82 120.12 45.29 121.48H45.28ZM42.72 118.7C42.39 118.76 41.7 119.02 41.6 119.36C41.26 120.96 43.57 120.77 43.8 119.62C43.99 118.65 43.57 118.56 42.73 118.7H42.72Z" fill="#003C6C"/>
<path d="M77.72 121.48C77.11 121.43 76.41 121.74 76.16 121.04C75.29 122.11 73 121.73 72.71 120.34C72.25 118.11 74.5 117.66 76.23 117.78C76.27 116.27 74.54 116.05 74.06 117.34H72.82C72.62 115.27 75.99 114.87 77.12 116.07C78.06 117.07 77.24 120.12 77.71 121.48H77.72ZM75.17 118.7C74.36 118.84 73.73 119.36 74.18 120.21C75.63 121.62 77.55 118.3 75.17 118.7Z" fill="#003C6C"/>
<path d="M39.35 118.96H35.65C35.51 120.07 36.6 120.65 37.62 120.41C38.17 120.28 38.5 119.36 39.07 120.21C39.75 121.23 37.24 121.72 36.46 121.63C33.17 121.22 33.36 115.49 36.76 115.39C38.91 115.33 39.6 117.08 39.35 118.96ZM38.02 117.92C38.08 116.08 35.59 116.08 35.65 117.92H38.02Z" fill="#003C6C"/>
<path d="M89.87 118.96H86.02C86.2 120.12 86.94 120.69 88.14 120.41C88.69 120.28 89.02 119.36 89.59 120.21C89.88 120.65 89.63 120.83 89.27 121.1C87.64 122.35 84.93 121.47 84.69 119.33C84.48 117.44 85.11 115.45 87.28 115.39C89.45 115.33 90.09 117.11 89.87 118.96ZM88.54 117.92C88.6 116.08 86.11 116.08 86.17 117.92H88.54Z" fill="#003C6C"/>
<path d="M52.06 115.44C56.31 114.7 56.52 120.97 53.47 121.59C49.07 122.49 48.8 116 52.06 115.44ZM52.35 116.62C50.89 116.94 50.81 120.88 53.05 120.44C54.5 120.15 54.56 116.14 52.35 116.62Z" fill="#003C6C"/>
<path d="M122.02 115.55V119.92C122.02 119.98 122.19 120.25 122.27 120.3C122.72 120.64 124.1 120.34 124.1 119.77V115.55H125.58V121.4C125.16 121.78 124.22 121.8 124.03 121.18C123.28 121.81 121.72 121.84 121.04 121.13C120.94 121.02 120.55 120.3 120.55 120.22V115.55H122.03H122.02Z" fill="#003C6C"/>
<path d="M99.46 115.44C104.06 114.65 104.15 122.38 99.43 121.62C96.59 121.16 96.46 115.96 99.46 115.44ZM100.94 120.25C101.68 119.64 101.69 117.09 100.68 116.67C98.39 115.71 98.22 119.95 99.49 120.38C99.87 120.51 100.62 120.51 100.94 120.25Z" fill="#003C6C"/>
<path d="M136.56 117.46C136.56 117.46 136.5 117.07 136.33 116.88C135.98 116.48 135.27 116.5 134.82 116.73L134.63 117.39C134.89 118.18 138.13 117.73 138.03 119.93C137.92 122.33 132.86 122.26 132.98 119.56L134.22 119.58C134.5 119.68 134.45 120.13 134.67 120.31C135.56 121.05 137.29 120.06 136.23 119.34C135.41 118.78 133.29 119.06 133.13 117.39C132.89 114.96 137.79 114.56 138.01 117.24C137.91 117.57 136.64 117.53 136.56 117.45V117.46Z" fill="#003C6C"/>
<path d="M65.28 117.48L63.97 117.46C63.76 115.77 61.04 116.83 62.33 117.7C63.13 118.24 65.31 117.94 65.43 119.65C65.61 122.25 60.28 122.43 60.4 119.56L61.64 119.58C61.91 119.67 61.87 120.11 62.09 120.31C62.58 120.76 63.77 120.65 63.96 119.92C64.05 118.92 61.43 119.15 60.78 118.06C59.13 115.3 65.58 114.05 65.29 117.48H65.28Z" fill="#003C6C"/>
<path d="M29.28 117.78H27.95C27.95 116.33 26.1 116.11 25.67 117.51C25.28 118.77 25.57 120.98 27.36 120.38C28 120.17 27.89 118.97 29.28 119.41C29.32 121.18 27.71 121.87 26.13 121.6C23.62 121.17 23.38 116.67 25.59 115.65C27.26 114.88 29.45 115.74 29.28 117.78Z" fill="#003C6C"/>
<path d="M83.8 117.78H82.47C82.47 116.33 80.62 116.11 80.19 117.51C79.8 118.77 80.09 120.98 81.88 120.38C82.52 120.17 82.41 118.97 83.8 119.41C83.87 121.56 81.21 122.29 79.66 121.1C78.44 120.17 78.33 118.06 79 116.76C80.13 114.56 84 115.04 83.8 117.78Z" fill="#003C6C"/>
<path d="M94.17 116.59H93.28V115.55H94.17C94.03 114.38 94.37 113.22 95.64 112.95C96.79 112.7 97.13 112.83 96.98 114.07L95.8 114.29L95.5 115.55H96.69V116.59H95.5V121.48H94.17V116.59Z" fill="#003C6C"/>
<path d="M46.76 116.59H45.87V115.55H46.76V114.07H48.16L48.24 115.55H49.28V116.59H48.24V120.07C48.24 120.39 49.14 120.53 49.43 120.44L49.41 121.38L49.19 121.6C48.56 121.65 47.55 121.72 47.14 121.18C47.08 121.1 46.77 120.41 46.77 120.37V116.59H46.76Z" fill="#003C6C"/>
<path d="M119.21 113.04V121.41C118.86 121.82 118.22 121.58 117.73 121.63V113.04H119.21Z" fill="#003C6C"/>
<path d="M103.95 115.55C104.48 115.65 105.33 115.27 105.5 115.85C106.01 115.44 106.57 115.34 107.21 115.4V116.73C106.83 116.62 105.43 117.01 105.43 117.4V121.4C105.11 121.75 104.27 121.75 103.95 121.4V115.55Z" fill="#003C6C"/>
<path d="M30.32 115.55C30.85 115.65 31.7 115.27 31.87 115.85C32.38 115.44 32.94 115.34 33.58 115.4V116.73C33.2 116.56 31.8 117.02 31.8 117.4V121.4C31.48 121.75 30.64 121.75 30.32 121.4V115.55Z" fill="#003C6C"/>
<path d="M56.54 115.55H57.94L58.09 115.99C58.53 115.4 59.09 115.33 59.8 115.4V116.73C59.42 116.62 58.02 117.01 58.02 117.4V121.4C57.7 121.75 56.86 121.75 56.54 121.4V115.55Z" fill="#003C6C"/>
</g>
<defs>
<clipPath id="clip0_1_1094">
<rect width="151.79" height="123.86" fill="white"/>
</clipPath>
</defs>
</svg>
