<svg width="149" height="44" viewBox="0 0 149 44" fill="none" xmlns="http://www.w3.org/2000/svg">
<g clip-path="url(#clip0_1_1127)">
<path d="M11.04 27.87C15.15 27.5 17.32 29.47 20.51 31.42C22.41 32.58 23.73 32.55 25.67 33.26C27.21 33.82 29.18 34.88 28.52 36.82C27.71 39.2 24.88 38.25 23.14 37.64C21.4 37.03 17.31 34.89 15.74 35.18C15.36 35.25 15.51 35.63 15.81 35.79C16.55 36.19 18.01 36.48 18.9 36.83C21.54 37.87 25.54 40.45 28.29 38.71C30.43 37.35 32.66 36.33 34.51 34.48C35.39 33.59 36.12 32.26 36.91 31.48C38.3 30.11 41.19 30.97 40.17 33.06C39.24 34.98 36.47 37.72 34.75 39.01C24.6 46.65 9.70001 43.89 3.19001 32.99C2.85001 32.42 2.11001 31.5 2.91001 31.04C4.33001 30.24 6.88001 29.13 8.43001 28.55C9.27001 28.24 10.15 27.96 11.05 27.88L11.04 27.87Z" fill="#003C6C"/>
<path d="M4.71001 28.49L1.74001 29.78C1.58001 29.76 1.58001 29.7 1.51001 29.58C1.29001 29.22 1.03001 28.28 0.900007 27.83C-2.68999 15.77 4.86001 3.12001 17.11 0.500008C33.11 -2.92999 47.02 11.93 42.55 27.67C42.39 28.23 41.9 29.87 41.62 30.28C41.51 30.44 41.36 30.53 41.16 30.5C40.93 30.47 38.64 29.46 38.47 29.31C38.08 28.99 38.53 28.38 38.66 27.99C42.62 16.15 34.82 3.98001 22.15 3.67001C9.48001 3.36001 1.12001 14.83 4.31001 26.7C4.41001 27.08 4.96001 28.25 4.70001 28.5L4.71001 28.49Z" fill="#003C6C"/>
<path d="M6.09 27.66C2.5 18.45 7.93 8.01001 17.44 5.55001C29.54 2.41001 40.68 13.13 37.99 25.32C37.9 25.75 37.16 28.33 36.94 28.48C36.69 28.65 35.29 28.02 35.05 27.84C34.97 27.78 34.92 27.76 34.91 27.64C34.9 27.53 35.55 25.87 35.65 25.51C38.55 14.56 28.53 4.71001 17.61 7.83001C10.7 9.81001 6.47 16.59 7.35 23.67C7.49 24.76 7.84 25.8 8.09 26.87C8.07 26.94 8.02 26.97 7.96 27C7.89 27.05 6.68 27.61 6.58 27.64C6.42 27.69 6.25 27.71 6.08 27.67L6.09 27.66Z" fill="#003C6C"/>
<path d="M105.91 6.2L107.13 16.73L109.08 6.19L111.3 6.2L113.24 16.39L114.43 6.2H116.7L114.42 21.19L112.02 21.11L110.08 11.25L108.19 21.15L105.74 21.19L103.46 6.2H105.91Z" fill="#003C6C"/>
<path d="M61.43 6.20001L64.59 15.21V6.20001H66.83L66.95 6.32001V21.19H64.51L61.31 11.76V21.19H58.94V6.32001L59.07 6.20001H61.43Z" fill="#003C6C"/>
<path d="M20.73 8.67001C29.9 8.00001 36.85 16.77 34.18 25.55C34.1 25.8 33.72 26.95 33.57 27.05C33.35 27.19 32.09 26.67 32.05 26.37C32.02 26.18 32.7 24.29 32.79 23.82C34.25 16.01 27.47 9.20001 19.65 10.61C13.84 11.66 9.76001 17.2 10.49 23.08C10.55 23.56 11.05 25.27 10.97 25.52C10.92 25.68 9.64001 26.37 9.42001 26.09C9.24001 25.68 9.12001 25.24 9.02001 24.81C7.13001 16.99 12.73 9.27001 20.75 8.68001L20.73 8.67001Z" fill="#003C6C"/>
<path d="M90.82 21.19V6.20001H95.42C96.96 6.20001 98.31 7.40001 98.42 8.93001C98.65 12.12 98.27 15.62 98.38 18.83C98.25 20.11 96.71 21.18 95.51 21.18H90.83L90.82 21.19ZM93.35 19H94.91C95.32 19 95.82 18.53 95.87 18.11C95.68 15.33 96.14 12.17 95.87 9.44001C95.84 9.18001 95.77 8.91001 95.57 8.73001C95.44 8.61001 94.88 8.39001 94.73 8.39001H93.34V19H93.35Z" fill="#003C6C"/>
<path d="M15.5 14.22C15.9 14.11 16.1 14.22 16.4 14.45C17.96 15.64 19.4 17.71 20.95 19C21.42 19.32 22.01 19.32 22.47 19C24 17.67 25.39 15.8 26.94 14.53C27.31 14.22 27.61 14.03 28.11 14.29C28.25 14.36 29.2 15.33 29.28 15.48C29.5 15.92 29.36 16.23 29.09 16.59C27.87 18.22 24.21 20.78 23.6 22.47C23.09 23.87 23.67 26.76 23.44 28.37C23.4 28.65 23.19 29 22.92 29.11C22.65 29.22 21.15 29.22 20.8 29.17C20.22 29.09 20.04 28.67 19.99 28.13C19.85 26.51 20.17 24.59 19.99 22.99C19.78 21.15 15.68 18.21 14.42 16.68C14.1 16.29 13.92 15.93 14.18 15.43C14.28 15.24 15.3 14.27 15.5 14.22Z" fill="#003C6C"/>
<path d="M51.78 6.20001V18.28C51.78 18.28 51.95 18.68 51.99 18.74C52.41 19.33 53.76 19.33 54.13 18.69C54.16 18.63 54.31 18.23 54.31 18.2V6.20001H56.84V18.62C56.84 18.85 56.6 19.55 56.49 19.79C55.33 22.28 49.25 21.86 49.25 18.79V6.20001H51.78Z" fill="#003C6C"/>
<path d="M116.7 21.19L119.44 6.28001L122.48 6.20001L125.39 21.19H122.86L122.35 17.91H119.67L119.15 21.19H116.7ZM122.01 15.8L120.91 9.40001L119.98 15.8H122H122.01Z" fill="#003C6C"/>
<path d="M88.96 6.20001V8.39001H84.91V12.51H88.37V14.7H84.91V19H89.05V21.19H82.38V6.20001H88.96Z" fill="#003C6C"/>
<path d="M127.75 6.20001L129.39 13.02L131.04 6.20001H133.57L130.61 15.76V21.19H128.08V15.76L125.13 6.20001H127.75Z" fill="#003C6C"/>
<path d="M80.87 6.20001V8.39001H78.34V21.19H75.81V8.39001H73.36V6.20001H80.87Z" fill="#003C6C"/>
<path d="M71.68 6.20001H69.15V21.19H71.68V6.20001Z" fill="#003C6C"/>
<path d="M29.52 36.85C29.76 35.97 29.5 35.23 29.08 34.46C29 34.31 28.77 34.23 28.88 34.06C28.93 33.99 30.12 33.27 30.35 33.09C31.23 32.41 31.96 31.63 32.67 30.78C32.96 30.43 33.14 29.98 33.53 29.71C34.31 29.18 36 29.19 36.24 30.26C36.34 30.69 35.64 31.59 35.36 31.96C34.13 33.62 32.44 35.13 30.68 36.21C30.55 36.29 29.55 36.9 29.51 36.85H29.52Z" fill="#003C6C"/>
<path d="M53.72 28.94L53.38 29.95C52.48 29.41 49.81 29.13 49.84 30.66C49.88 32.71 53.51 32.09 54.18 34.25C55.07 37.11 51.73 37.78 49.61 37.13C48.52 36.8 48.74 36.8 49 35.76C50.02 36.31 53.05 36.81 53.05 35.04C53.05 33.04 49.37 33.64 48.7 31.46C47.78 28.44 51.72 27.77 53.71 28.94H53.72Z" fill="#003C6C"/>
<path d="M120.22 30.9C124.64 30.39 124.81 37.92 119.95 37.35C116.87 36.99 116.66 31.31 120.22 30.9ZM120.22 31.99C118.5 32.28 118.46 35.71 119.91 36.22C122.84 37.25 123.24 31.48 120.22 31.99Z" fill="#003C6C"/>
<path d="M78.51 37.19H77.81L77.46 36.69C75.92 38 73.21 37.46 73.55 35.05C73.65 34.34 74.24 33.82 74.91 33.63C75.01 33.6 75.55 33.49 75.61 33.49H77.25C77.23 31.51 75.54 32 74.22 32.39C73.9 31.48 73.7 31.36 74.72 31.09C75.84 30.79 77.25 30.74 78.05 31.72C78.19 31.89 78.51 32.51 78.51 32.69V37.2V37.19ZM77.24 34.41H75.34C75.03 34.41 74.64 35.09 74.63 35.39C74.59 36.46 75.81 36.54 76.56 36.14C76.65 36.09 77.24 35.68 77.24 35.64V34.42V34.41Z" fill="#003C6C"/>
<path d="M60.46 37.19H59.71L59.53 36.68C58.66 37.22 57.99 37.52 56.93 37.3C55.33 36.97 54.98 34.61 56.39 33.83C56.63 33.7 57.31 33.48 57.55 33.48H59.19C59.23 32.23 58.61 31.93 57.46 32.05C56.99 32.1 56.62 32.36 56.16 32.38L55.91 31.38C57.08 30.86 58.6 30.56 59.7 31.41C59.93 31.59 60.46 32.23 60.46 32.51V37.18V37.19ZM59.28 34.41H57.3C57.1 34.41 56.73 34.94 56.69 35.14C56.4 36.55 57.94 36.61 58.84 35.94C59.5 35.45 59.25 35.17 59.28 34.4V34.41Z" fill="#003C6C"/>
<path d="M148.49 31.04L145.67 38.62C145.46 39.19 144.31 40.01 143.73 39.97C143.52 39.96 143.38 39.28 143.27 39.09C144.25 38.62 144.82 38.12 144.95 36.99L142.68 31.21L143.83 31.05L143.99 31.13L145.72 35.34L147.24 31.05H148.5L148.49 31.04Z" fill="#003C6C"/>
<path d="M116.35 36.02L116.69 36.93C115.09 37.56 112.88 37.73 111.68 36.26C109.8 33.95 110.41 28.81 113.88 28.44C114.75 28.35 115.97 28.46 116.69 28.99L116.3 29.78C114.7 29.38 113.18 29.19 112.36 30.89C111.68 32.3 111.74 35.5 113.46 36.17C114.46 36.56 115.35 36.2 116.34 36.03L116.35 36.02Z" fill="#003C6C"/>
<path d="M88.7 36.02L89.04 36.93C87.91 37.4 86.41 37.59 85.25 37.15C82.35 36.03 82.32 30.43 84.85 28.92C86.05 28.2 87.79 28.27 89 28.94L88.64 29.77C87.62 29.54 86.41 29.23 85.5 29.91C84.04 31.01 84.01 33.84 84.89 35.31C85.77 36.78 87.28 36.32 88.69 36.02H88.7Z" fill="#003C6C"/>
<path d="M126.15 31.04V35.29C126.15 35.39 126.33 35.77 126.4 35.88C127.01 36.76 128.3 36.22 128.93 35.63V31.04C129.33 31.1 129.88 30.9 130.19 31.17V37.19C129.51 37.27 129.35 37.19 129.05 36.6C127.88 37.7 125.69 37.87 125.06 36.12C125.02 36.01 124.87 35.53 124.87 35.46V31.04H126.13H126.15Z" fill="#003C6C"/>
<path d="M137.28 37.19H136.02V32.77C136.02 32.69 135.76 32.26 135.68 32.19C135.02 31.61 133.67 32.19 133.16 32.77V37.19H131.9V31.04H132.65C132.75 31.25 132.82 31.48 132.91 31.68C132.95 31.76 132.86 31.83 133.04 31.8C133.96 30.83 135.97 30.38 136.88 31.59C137 31.75 137.3 32.36 137.3 32.52V37.19H137.28Z" fill="#003C6C"/>
<path d="M98.83 35.76V31.04H100.09V37.19C99.44 37.25 99.25 37.23 99.04 36.6C97.97 37.56 95.86 37.91 95.1 36.4C95.06 36.32 94.86 35.83 94.86 35.8V31.04C95.12 31.09 96.03 30.91 96.11 31.18C96.25 32.51 95.96 34.09 96.11 35.38C96.28 36.83 98 36.32 98.81 35.76H98.83Z" fill="#003C6C"/>
<path d="M67.71 37.19H66.45V32.94C66.45 32.85 66.27 32.45 66.2 32.35C65.69 31.63 64.46 32 63.88 32.48C63.81 32.54 63.5 32.83 63.5 32.86V37.2H62.32V31.05C63.19 30.94 62.97 31.18 63.27 31.66C63.47 31.99 63.65 31.55 63.9 31.4C65.12 30.62 66.97 30.55 67.54 32.12C67.58 32.23 67.73 32.71 67.73 32.78V37.2L67.71 37.19Z" fill="#003C6C"/>
<path d="M21.23 12.37C24.91 11.78 25.06 17.5 21.22 16.97C18.84 16.64 18.77 12.76 21.23 12.37Z" fill="#003C6C"/>
<path d="M106.25 31.04L106.29 31.79L102.96 36.26H106.25L106.33 37.19H101.36L101.33 36.45L104.56 32.05H101.78L101.52 31.04H106.25Z" fill="#003C6C"/>
<path d="M32.61 28.54C32.69 28.64 32.73 28.77 32.72 28.89C32.72 29.23 31.69 30.47 31.41 30.79C30.47 31.84 29.27 32.78 28.04 33.45C27.3 33.01 26.48 32.66 25.64 32.47C25.64 32.37 25.76 32.33 25.83 32.29C26.8 31.77 27.53 31.5 28.37 30.7C29.33 29.79 30.02 28 31.57 28.09C31.82 28.1 32.45 28.35 32.6 28.54H32.61Z" fill="#003C6C"/>
<path d="M140.39 29.36V31.13L141.49 31.17L141.83 32.06H140.4V35.55C140.4 35.55 140.62 36.08 140.65 36.12C140.98 36.55 141.82 36.2 141.91 36.27L142.16 37.14C141.39 37.69 139.96 37.5 139.45 36.66C139.35 36.5 139.13 35.96 139.13 35.8V32.05H138.29V31.17L139.13 31.12V29.6L140.39 29.35V29.36Z" fill="#003C6C"/>
<path d="M70.83 29.36V31.13L71.93 31.17L72.27 32.06H70.84V35.55C70.84 35.55 70.99 35.96 71.03 36.03C71.39 36.61 72.23 36.19 72.35 36.27L72.6 37.14C71.83 37.69 70.4 37.5 69.89 36.66C69.79 36.5 69.57 35.96 69.57 35.8V32.05H68.73V31.17L69.57 31.12V29.6L70.83 29.35V29.36Z" fill="#003C6C"/>
<path d="M27.73 27.86C28.23 27.79 29.11 28.05 29 28.7C28.85 29.62 25.57 31.96 24.66 32.04C24.4 32.06 22.73 31.67 22.69 31.5C22.67 31.37 22.79 31.33 22.87 31.26C23.48 30.67 26.47 28.38 27.17 28.06C27.32 27.99 27.57 27.88 27.73 27.86Z" fill="#003C6C"/>
<path d="M90.48 31.04L91.24 31.08L91.58 31.88C92.21 31.52 92.82 31.01 93.6 31.04L93.76 32.04C92.98 32.15 92.26 32.5 91.74 33.1V37.18H90.48V31.03V31.04Z" fill="#003C6C"/>
<path d="M39.7 39.56C41.15 39.26 42.26 40.43 41.74 41.85C41.12 43.53 38.19 43 38.55 40.77C38.63 40.28 39.21 39.66 39.7 39.56ZM40.99 42.16C40.99 42.16 41.14 42.16 41.23 42.03C41.92 41.08 41.23 39.71 40.04 39.82C38.37 39.98 38.44 42.87 40.59 42.48C40.96 42.41 40.92 42.23 40.99 42.16Z" fill="#003C6C"/>
<path d="M40.99 42.16C40.42 42.32 40.4 41.39 40.02 41.32C39.83 41.29 39.9 41.41 39.89 41.53C39.87 41.74 39.9 41.95 39.89 42.16H39.55V40.22C40 40.26 40.92 40.02 40.98 40.69C41.03 41.19 40.58 41.27 40.57 41.35C40.56 41.47 41.08 42.06 40.98 42.15L40.99 42.16ZM40.64 40.57L39.89 40.47V41.06L40.64 40.96V40.56V40.57Z" fill="#003C6C"/>
</g>
<defs>
<clipPath id="clip0_1_1127">
<rect width="148.49" height="43.32" fill="white"/>
</clipPath>
</defs>
</svg>
