<svg width="101" height="23" viewBox="0 0 101 23" fill="none" xmlns="http://www.w3.org/2000/svg">
<g clip-path="url(#clip0_1_1163)">
<path d="M56.09 0.0799866C57.15 0.249987 58.38 1.50999 58.55 2.56999C58.67 3.30999 58.64 5.65999 58.38 6.31999C58.03 7.20999 57.08 8.04999 56.14 8.22999C57.4 9.47999 58.33 11.97 60.1 12.53C61.68 13.03 63.84 12.6 65.09 11.5C65.68 10.98 65.98 10.29 66.42 9.66999L67.53 11.95C67.63 12.42 66.36 13.44 65.99 13.69C63.52 15.31 59.6 15.55 57.32 13.48C55.54 11.86 54.41 8.29999 51.61 8.29999H47.76V11.54C47.76 11.76 48.26 12.19 48.48 12.19H51.72V14.4H41.74V12.19H44.9C44.96 12.19 45.34 11.93 45.4 11.85C45.52 11.69 45.54 11.51 45.55 11.32C45.79 8.68999 45.36 5.67999 45.55 3.00999C45.58 2.74999 45.19 2.28999 44.98 2.28999H41.74V0.0799866H56.1H56.09ZM47.75 6.08999H55.56C55.8 6.08999 56.2 5.67999 56.29 5.44999C56.41 5.09999 56.41 3.50999 56.34 3.09999C56.25 2.54999 55.86 2.32999 55.33 2.27999C53.15 2.08999 50.68 2.42999 48.47 2.27999C48.16 2.25999 47.75 2.63999 47.75 2.92999V6.08999Z" fill="#003C6C"/>
<path d="M39.07 0V4.42H36.86V2.93C36.86 2.6 36.38 2.31 36.06 2.28C33.47 2.04 30.53 2.47 27.91 2.28C27.71 2.23 27.26 2.64 27.26 2.78V6.09H35.1V8.3H27.26V11.61C27.26 11.8 27.82 12.24 28.06 12.18C30.57 12.02 33.35 12.39 35.83 12.18C36.04 12.16 36.38 12.11 36.55 11.99C36.65 11.92 36.86 11.55 36.86 11.46V10.05H39.07V14.39H22.54V12.18H24.33C24.47 12.18 24.92 11.91 24.94 11.73L24.98 2.85C25.04 2.68 24.57 2.28 24.48 2.28H22.54V0.08L39.07 0Z" fill="#003C6C"/>
<path d="M100.52 0.0799866V4.41999H98.31V2.85999C98.31 2.60999 97.79 2.21999 97.51 2.27999C94.95 2.49999 91.94 1.99999 89.43 2.27999C89.28 2.29999 89.09 2.32999 88.97 2.42999C88.92 2.46999 88.71 2.82999 88.71 2.84999V6.08999H96.55V8.29999H88.71V11.54C88.71 11.84 89.28 12.24 89.58 12.19C92.06 12.02 94.82 12.41 97.27 12.19C97.62 12.16 98.3 11.99 98.3 11.54V10.05H100.51V14.39H83.98V12.18H85.85C86.11 12.18 86.57 11.6 86.5 11.31C86.28 8.69999 86.78 5.63999 86.5 3.07999C86.47 2.78999 86.25 2.27999 85.93 2.27999H83.99V0.0799866H100.52Z" fill="#003C6C"/>
<path d="M70.67 0V2.29H67.89C67.74 2.29 67.62 2.76 67.74 2.9L71.85 11.2L75.96 2.9C76.07 2.75 75.96 2.29 75.81 2.29H73.03V0.08H82.24V2.29H79.38C79.12 2.29 78.46 2.82 78.37 3.1L72.88 14.35L70.83 14.38L65.27 2.99C65.2 2.78 64.53 2.28 64.38 2.28H61.45V0H70.66H70.67Z" fill="#003C6C"/>
<path d="M20.79 0V2.29H17.86C17.71 2.29 17.04 2.79 16.97 3L11.41 14.39L9.36 14.36L3.75 2.92C3.67 2.71 3.04 2.29 2.86 2.29H0V0.08H9.21V2.29H6.43C6.26 2.29 6.16 2.81 6.3 2.95L10.43 11.2L14.51 2.9C14.63 2.7 14.51 2.29 14.28 2.29H11.58V0H20.79Z" fill="#003C6C"/>
<path d="M23.28 18.91C24.94 18.7 25.82 20.77 24.44 21.74C23.92 22.11 23.19 22.12 22.64 21.8C21.39 21.06 21.81 19.1 23.28 18.91ZM23.2 19.6C22.28 19.81 22.49 21.55 23.62 21.4C24.75 21.25 24.58 19.29 23.2 19.6Z" fill="#003C6C"/>
<path d="M54.28 18.91C56.42 18.65 56.73 21.74 54.79 22.01C52.53 22.32 52.21 19.17 54.28 18.91ZM54.2 19.59C53.41 19.77 53.36 21.25 54.36 21.39C55.74 21.58 55.72 19.24 54.2 19.59Z" fill="#003C6C"/>
<path d="M49.92 18.97C50.94 19.11 51.12 20.51 50.19 20.88C50.14 20.94 50.94 21.88 50.8 22.02C49.69 22.35 49.94 20.89 48.97 21.03C48.98 21.64 49.12 22.35 48.28 21.91V18.98C48.79 19.03 49.42 18.91 49.92 18.98V18.97ZM48.97 20.42C50.53 20.66 50.51 19.36 48.97 19.58V20.42Z" fill="#003C6C"/>
<path d="M78.17 18.97C79.04 19.14 79.19 20.54 78.37 20.92C78.37 21.15 79.1 21.89 78.97 22.02C78.76 21.99 78.38 22.09 78.21 21.98C77.9 21.79 77.79 20.79 77.14 21.03L77.11 21.95L76.46 22.02V18.97C76.96 19.04 77.71 18.88 78.17 18.97ZM77.07 20.42C77.37 20.39 78.14 20.56 78.21 20.15C78.35 19.39 77.57 19.6 77.07 19.58V20.42Z" fill="#003C6C"/>
<path d="M74.17 18.97V19.58H72.57V20.19H73.94V20.72H72.76C72.76 20.72 72.64 20.8 72.58 20.81V21.32C72.64 21.33 72.73 21.41 72.76 21.41H74.17V21.94H71.89V18.97H74.17Z" fill="#003C6C"/>
<path d="M38.53 18.97V19.58H37.05L36.95 19.7L36.93 20.19H38.31V20.72H36.93V21.41H38.53V21.94H36.25V18.97H38.53Z" fill="#003C6C"/>
<path d="M43.03 18.97V19.58H41.43V20.19H42.87L42.88 20.72L41.43 20.8V21.33H43.03V21.94H40.82V18.97H43.03Z" fill="#003C6C"/>
<path d="M61 22.02C60.37 22.11 60.21 21.92 60.08 21.35L58.84 21.33L58.57 21.99L57.88 22.02L59.11 18.99C59.34 18.99 59.71 18.89 59.85 19.1L61 22.03V22.02ZM59.78 20.72C59.85 20.64 59.56 19.88 59.4 19.81L59.09 20.72H59.78Z" fill="#003C6C"/>
<path d="M63.75 19.95C64.33 20.2 65.37 20.24 65.32 21.12C65.26 22.26 63.68 22.16 63.01 21.64C62.9 21.48 63.1 21.19 63.26 21.12C63.54 21.04 63.91 21.59 64.41 21.36C65.13 21.02 63.73 20.73 63.56 20.65C62.6 20.18 63.03 18.98 64.02 18.91C64.32 18.89 65.3 19.07 65.13 19.49C64.84 20.19 64.29 19.29 63.77 19.66L63.75 19.96V19.95Z" fill="#003C6C"/>
<path d="M81.8 19.95C82.61 20.27 83.56 20.25 83.3 21.43C83.12 22.22 81.35 22.1 81.07 21.64C80.95 21.45 81.13 21.16 81.32 21.12C81.57 21.06 81.99 21.58 82.46 21.36C83.18 21.02 81.78 20.73 81.61 20.65C80.65 20.18 81.08 18.98 82.07 18.91C82.38 18.89 83.35 19.07 83.17 19.48C82.85 20.21 82.4 19.29 81.82 19.66L81.8 19.96V19.95Z" fill="#003C6C"/>
<path d="M18.56 18.91C19 18.86 19.55 18.99 19.87 19.32C19.92 19.5 19.67 19.78 19.52 19.87C19.17 19.69 18.99 19.5 18.56 19.59C17.53 19.8 17.74 21.62 19.06 21.31C19.47 21.21 19.47 20.69 19.95 21.51C19.74 21.75 19.39 21.96 19.07 22.01C16.79 22.33 16.53 19.15 18.56 18.91Z" fill="#003C6C"/>
<path d="M29.62 18.97V19.58H28.02V20.19H29.36L29.46 20.31L29.47 20.8H28.02V21.94H27.34V18.97H29.62Z" fill="#003C6C"/>
<path d="M34.04 18.97V19.58H32.44V20.19H33.89V20.8H32.56C32.31 20.94 32.52 21.87 32.45 21.94H31.84V18.97H34.05H34.04Z" fill="#003C6C"/>
<path d="M69.68 18.97V19.58H68.84V21.94H68.16V19.58H67.24V18.97H69.68Z" fill="#003C6C"/>
</g>
<defs>
<clipPath id="clip0_1_1163">
<rect width="100.52" height="22.06" fill="white"/>
</clipPath>
</defs>
</svg>
