<svg width="153" height="45" viewBox="0 0 153 45" fill="none" xmlns="http://www.w3.org/2000/svg">
<g clip-path="url(#clip0_1_1183)">
<path d="M125.16 5.84001C125.91 5.94001 127.28 6.56001 127.68 7.24001C128.11 7.98001 128.14 11.21 127.85 12.02C127.49 13.04 126.49 13.26 125.67 13.77L128.14 19.36C127.7 19.33 127.16 19.51 126.82 19.15L124.14 13.83H121.09L120.87 14.05V19.14C120.58 19.48 119.85 19.48 119.56 19.14V5.84001C121.31 6.01001 123.47 5.61001 125.16 5.84001ZM121.09 7.00001L120.87 7.22001V12.46L121.09 12.68H124.58C125.2 12.68 126.31 12.07 126.55 11.45C126.79 10.83 126.78 8.71001 126.51 8.13001C126.27 7.61001 125.25 7.01001 124.72 7.01001H121.08L121.09 7.00001Z" fill="#003C6C"/>
<path d="M88.15 5.84003L89.22 5.86003L89.46 6.20003L89.52 16.9C89.91 18.55 92.81 18.57 94.08 18.1C95 17.76 95.24 17.27 95.38 16.33C95.84 13.24 94.91 9.32003 95.29 6.35003C95.31 6.18003 95.36 6.00003 95.44 5.85003L96.59 5.89003L96.73 6.33003C96.5 9.63003 97.01 13.27 96.73 16.52C96.69 17.01 96.55 17.7 96.29 18.12C95.16 19.91 90.57 19.88 89.02 18.69C88.77 18.5 88.14 17.65 88.14 17.39V5.84003H88.15Z" fill="#003C6C"/>
<path d="M109.53 5.84003V16.82C109.53 16.87 109.94 17.53 110.03 17.63C111.02 18.67 114.6 18.67 115.24 17.29C115.28 17.2 115.5 16.43 115.5 16.38V5.84003L116.57 5.86003L116.81 6.20003C116.58 9.63003 117.11 13.44 116.81 16.82C116.53 20.02 111 20.15 109.1 18.7C108.88 18.53 108.22 17.58 108.22 17.4V5.84003H109.53Z" fill="#003C6C"/>
<path d="M137.89 5.84003L137.87 6.76003L137.67 7.00003H131.92V11.65H137.45C137.56 11.89 137.72 12.81 137.38 12.81H132.14L131.92 13.03V17.98L132.14 18.2H138.03C138.14 18.44 138.3 19.36 137.96 19.36H130.61V5.84003H137.88H137.89Z" fill="#003C6C"/>
<path d="M86.25 5.84003V7.00003H79.85V11.65H85.6C85.65 11.65 85.84 11.8 85.94 11.82V12.79C85.83 12.81 85.65 12.96 85.6 12.96H79.85V19.14L79.61 19.34L78.64 19.37C78.47 19.33 78.41 18.88 78.4 18.71C78.12 15.59 78.15 9.77003 78.4 6.63003C78.42 6.35003 78.49 6.10003 78.55 5.84003H86.26H86.25Z" fill="#003C6C"/>
<path d="M38.47 24.6C39.58 24.73 40.78 25.41 40.98 26.6C41.1 27.34 41.1 29.02 40.8 29.69C40.39 30.61 39.58 30.53 39.13 31.21C39.23 31.88 41.3 35.37 41.02 35.65C40.77 35.65 40.49 35.69 40.25 35.62C39.69 35.45 38.3 31.86 37.97 31.14H35.21V35.29C35.21 35.73 34.62 35.72 34.29 35.63L34.05 35.44V24.82L34.27 24.6C35.61 24.71 37.18 24.45 38.49 24.6H38.47ZM35.2 30.13H38.47C38.88 30.13 39.72 29.47 39.82 29.01C39.91 28.61 39.9 27.43 39.85 27C39.76 26.26 39.18 25.74 38.45 25.63C37.5 25.49 36.16 25.59 35.19 25.62V30.13H35.2Z" fill="#003C6C"/>
<path d="M17.71 24.5C19.28 24.31 21.75 24.53 22.07 26.46C22.27 27.63 22.27 32.64 22.07 33.81C21.61 36.53 15.61 36.35 15.16 34.1C14.98 33.21 14.98 27.05 15.16 26.17C15.39 25.06 16.72 24.62 17.71 24.5ZM17.56 25.51C16.84 25.63 16.27 26.12 16.15 26.87C16 27.82 15.99 32.62 16.17 33.52C16.52 35.26 20.65 35.3 20.93 33.55C21.25 31.53 20.73 28.71 20.91 26.61C20.63 25.37 18.53 25.36 17.56 25.52V25.51Z" fill="#003C6C"/>
<path d="M9.88999 27.8H8.86999C9.10999 25.52 7.51999 25.22 5.60999 25.49C4.01999 25.71 3.84999 27.98 5.12999 28.71C7.61999 30.12 10.43 29.33 10.03 33.41C9.75999 36.16 5.50999 36.39 3.84999 35.08C2.96999 34.39 2.35999 31.94 4.06999 32.32C4.09999 33.57 4.15999 34.58 5.60999 34.78C7.82999 35.08 9.20999 34.55 8.87999 32.09C8.62999 30.22 3.57999 30.44 3.20999 28.02C2.75999 25.13 4.60999 24.24 7.19999 24.47C9.26999 24.65 10.19 25.7 9.88999 27.81V27.8Z" fill="#003C6C"/>
<path d="M103.35 7.00003L103.12 7.50003L102.99 19.3L101.82 19.36L101.68 7.00003H98.26L98.06 6.76003L98.04 5.84003H106.69C107.03 6.12003 107.02 6.74003 106.69 7.00003H103.34H103.35Z" fill="#003C6C"/>
<path d="M30.4 24.6H31.42V33.98C31.42 33.98 31.12 34.69 31.05 34.78C30.01 36.16 25.83 36.13 24.8 34.63C24.73 34.52 24.43 33.89 24.43 33.84V24.82C24.71 24.48 25.33 24.49 25.59 24.82V33.69C25.59 33.76 25.92 34.19 26.02 34.28C26.81 34.99 29.04 34.98 29.86 34.33C30 34.22 30.39 33.64 30.39 33.55V24.6H30.4Z" fill="#003C6C"/>
<path d="M54.33 24.75C57.77 25.16 58.15 27.68 57.9 30.65C57.75 32.45 57 32.81 55.61 33.59C54.97 33.95 56.07 34.03 56.4 34.18C57.19 34.54 57.92 34.96 58.26 35.81C58.6 36.66 58.58 39.66 58.48 40.69C58.35 42.11 57.44 43.02 56.12 43.42C55.71 43.54 54.41 43.81 54.04 43.81H47.93L47.71 43.59V24.75C49.8 24.93 52.29 24.51 54.33 24.75ZM48.15 33.62H54.19C54.8 33.62 56.2 33.04 56.66 32.6C57.64 31.66 57.61 29.16 57.46 27.87C57.29 26.34 56.1 25.57 54.7 25.24C54.51 25.19 53.58 25.03 53.46 25.03H48.37L48.15 25.25V33.61V33.62ZM48.15 43.36H54.62C54.94 43.36 56.2 42.97 56.54 42.8C57.63 42.27 58.07 41.41 58.19 40.23C58.32 38.89 58.37 36.2 57.4 35.21C56.88 34.68 55.34 34.05 54.63 34.05H48.16V43.36H48.15Z" fill="#003C6C"/>
<path d="M98.18 24.75L98.63 24.84L108.65 42.49V24.75H108.95V43.66L108.5 43.56L98.62 25.91V43.44L98.18 43.66V24.75Z" fill="#003C6C"/>
<path d="M34.3 0.0599732C36.59 -0.180027 40.49 0.139973 40.86 3.00997C41.41 7.16997 40.5 12.5 40.84 16.78C40.47 18.54 38.93 19.24 37.29 19.49C34.96 19.84 30.52 19.68 30.12 16.66L30.14 2.73997C30.53 0.819973 32.59 0.229973 34.29 0.0599732H34.3ZM34 0.499973C32.66 0.649973 30.88 1.24997 30.57 2.74997C30.46 3.26997 30.41 4.56997 30.39 5.17997C30.25 8.25997 30.15 12.76 30.41 15.79C30.52 17.06 30.8 17.98 31.99 18.58C34.03 19.61 39.9 19.73 40.4 16.79L40.43 2.86997C39.72 0.329973 36.17 0.259973 34.01 0.499973H34Z" fill="#003C6C"/>
<path d="M68 0.310013C69.58 0.470013 71.52 1.27001 71.82 3.04001C71.98 4.01001 71.98 7.24001 71.86 8.25001C71.62 10.2 69.83 10.74 68.21 11.17L72.29 19.16L71.93 19.38L67.49 11.16C67.21 11.02 61.96 11.03 61.67 11.16C61.6 11.19 61.38 11.42 61.38 11.45V18.58C61.38 18.73 61.62 19.04 61.38 19.38H61.09V0.330013C63.3 0.490013 65.82 0.110013 68 0.330013V0.310013ZM61.53 10.78H67.57C68.04 10.78 69.53 10.38 69.98 10.13C70.75 9.72001 71.33 8.96001 71.43 8.09001C71.55 6.96001 71.53 4.73001 71.43 3.57001C71.23 1.02001 68.63 0.710013 66.56 0.590013C65.39 0.520013 63.15 0.450013 62.04 0.590013C61.88 0.610013 61.7 0.590013 61.6 0.730013C61.55 1.19001 61.42 1.65001 61.38 2.11001C61.22 4.24001 61.22 7.70001 61.38 9.83001C61.4 10.16 61.51 10.45 61.53 10.77V10.78Z" fill="#003C6C"/>
<path d="M77.67 38.86C77.85 38.63 77.93 38.86 77.96 39.08C78.15 40.56 77.78 41.84 79.28 42.86C80.78 43.88 84.9 43.83 86.53 43C88.26 42.11 87.96 40.86 87.99 39.23C87.99 38.96 88.13 38.7 88.13 38.49C88.1 36.56 87.54 35.78 85.87 34.96C83.99 34.04 79.3 32.96 78.28 31.35C77.59 30.27 77.59 27.13 78.31 26.04C79.68 23.95 85.98 23.96 87.57 25.74C87.77 25.96 88.3 26.93 88.3 27.15V29.7C87.93 29.81 87.94 29.39 87.91 29.15C87.7 27.72 88.25 26.86 86.92 25.77C85.3 24.45 80.02 24.42 78.7 26.27C78.03 27.21 78.05 30.14 78.67 31.11C80.18 33.48 86.91 33.61 88.19 36.43C88.67 37.48 88.64 41.24 88 42.25C86.61 44.44 80.94 44.44 79.01 43.14C78.59 42.86 77.69 41.73 77.69 41.26V38.86H77.67Z" fill="#003C6C"/>
<path d="M152.58 29.47C152.57 29.52 152.33 29.73 152.29 29.69C152.02 27.86 152.52 26.09 150.4 25.26C148.8 24.63 144.48 24.61 143.22 25.93C142.21 26.98 142.11 29.84 142.87 31.06C144.37 33.49 151.03 33.56 152.38 36.39C152.92 37.52 152.96 41.07 152.33 42.17C150.99 44.54 144.36 44.55 142.7 42.72C142.58 42.59 141.98 41.51 141.98 41.41V38.86C142.51 38.76 142.22 39.85 142.27 40.24C142.45 41.72 142.78 42.63 144.26 43.19C146.37 43.99 151.93 44.03 152.3 40.97C152.39 40.23 152.4 37.91 152.29 37.19C152.2 36.62 151.71 35.96 151.27 35.59C149.17 33.86 142.72 33.26 142.15 30.45C141.99 29.67 142.05 27.21 142.34 26.48C143.33 23.99 149.28 23.99 151.19 25.19C151.73 25.53 152.6 26.64 152.6 27.28C152.6 27.81 152.7 29.05 152.6 29.46L152.58 29.47Z" fill="#003C6C"/>
<path d="M55.85 0.309977C56.18 0.259977 56.31 0.539977 56.29 0.809977C56.02 5.65998 56.63 10.85 56.29 15.66C56.19 17.05 55.91 18.21 54.59 18.9C52.8 19.83 48.37 19.87 46.7 18.7C46.28 18.41 45.38 17.3 45.38 16.82V0.529977L45.6 0.309977L45.82 0.529977V16.82C45.82 16.88 46.36 17.78 46.47 17.91C47.9 19.65 53.12 19.57 54.83 18.26C55.31 17.89 55.86 16.81 55.86 16.23V0.309977H55.85Z" fill="#003C6C"/>
<path d="M131.61 24.5C133.88 24.31 138.08 24.58 138.03 27.75C138.03 27.99 137.81 28.21 137.68 27.95C137.53 25.86 135.96 25.04 134.05 24.89C132.28 24.75 128.95 24.77 128.13 26.69C127.77 27.52 127.75 29.51 127.99 30.38C128.82 33.34 135.75 33.42 137.61 36.03C138.63 37.46 138.52 41.83 137.02 43C135.21 44.41 129.3 44.49 127.89 42.4C127.32 41.55 127.01 39.79 127.5 38.86C127.82 38.86 127.71 40.66 127.78 41.05C128.02 42.3 128.86 42.97 130.04 43.3C132.12 43.88 136.83 43.98 137.6 41.4C137.88 40.45 137.89 37.47 137.49 36.58C136.1 33.51 127.86 34.08 127.43 29.77C127.08 26.31 128.15 24.8 131.62 24.51L131.61 24.5Z" fill="#003C6C"/>
<path d="M73.02 24.75H73.31V41.4C73.31 41.55 72.67 42.59 72.49 42.77C70.91 44.35 65.64 44.35 63.86 43.14C63.44 42.86 62.54 41.73 62.54 41.26V24.75L62.95 24.99L62.97 40.83C63.22 44.12 69.21 44.09 71.3 43.04C72.11 42.63 73.01 41.64 73.01 40.68V24.75H73.02Z" fill="#003C6C"/>
<path d="M123.78 24.75V25.04H114.54L114.32 25.26V33.26L114.54 33.48H123.34V33.77C123.2 33.73 123.03 33.92 122.98 33.92H114.54L114.32 34.14V43.16L114.54 43.38H123.99L124.21 43.6L123.99 43.82H114.24L114.02 43.6V24.76H123.77L123.78 24.75Z" fill="#003C6C"/>
<path d="M21.82 11.29C20.14 7.79999 17.66 4.40999 16.03 0.939988C15.93 0.729988 15.81 0.569988 15.86 0.309988L16.32 0.639988L21.89 10.63C22.13 10.67 22.18 10.45 22.28 10.29C24.08 7.56999 25.49 4.09999 27.23 1.26999C27.43 0.939988 27.66 0.299988 28.07 0.299988C28.18 0.429988 27.54 1.53999 27.42 1.75999C26.76 2.98999 22.11 10.88 22.11 11.43V19.36H21.82V11.29Z" fill="#003C6C"/>
<path d="M0 24.6C0.35 24.61 0.78 24.49 1.02 24.82V35.44C1.02 35.74 0 35.74 0 35.44V24.6Z" fill="#003C6C"/>
<path d="M93.24 43.66H92.8V24.75H93.02L93.24 24.96V43.66Z" fill="#003C6C"/>
</g>
<defs>
<clipPath id="clip0_1_1183">
<rect width="152.78" height="44.03" fill="white"/>
</clipPath>
</defs>
</svg>
