<svg width="73" height="86" viewBox="0 0 73 86" fill="none" xmlns="http://www.w3.org/2000/svg">
<path d="M5.32197 27.8166C2.38289 27.8151 0.000725163 30.1964 0 33.125L0.0036259 55.351C0.00435106 58.2898 2.38796 60.6617 5.32777 60.6609C8.26904 60.6609 10.6519 58.2891 10.649 55.3518V33.1221C10.6476 30.1942 8.26251 27.8151 5.32197 27.8166ZM48.2458 7.85685L51.9608 1.09201C52.1588 0.738402 52.029 0.288618 51.67 0.0883119C51.3075 -0.103316 50.86 0.0268463 50.6679 0.382624L46.9152 7.21833C43.7578 5.81692 40.2241 5.0316 36.4851 5.03522C32.7563 5.0316 29.2241 5.81474 26.0798 7.20821L22.3227 0.389856C22.1276 0.0304621 21.678 -0.0997007 21.3234 0.0962664C20.9623 0.290787 20.8296 0.741295 21.0305 1.09418L24.7469 7.85468C17.4445 11.6099 12.5105 18.7616 12.5149 26.9727L60.4612 26.9669C60.4634 18.7587 55.5381 11.6214 48.2458 7.85685ZM25.5801 18.3111C24.4772 18.3089 23.5765 17.4137 23.5765 16.3073C23.5765 15.206 24.4743 14.3006 25.5823 14.3013C26.694 14.3006 27.5932 15.206 27.5946 16.3073C27.5954 17.4122 26.694 18.3104 25.5801 18.3111ZM47.4126 18.3067C46.3046 18.3082 45.4025 17.4122 45.4025 16.303C45.4068 15.2038 46.3031 14.2985 47.4133 14.2941C48.5163 14.2977 49.4206 15.2038 49.4199 16.3037C49.4213 17.4108 48.5199 18.3075 47.4126 18.3067ZM12.7107 28.8195L12.7186 63.2656C12.7165 66.3989 15.2582 68.9284 18.3981 68.9284L22.2654 68.9299L22.2698 80.6908C22.269 83.6195 24.6563 86 27.5888 86C30.5301 86 32.913 83.6173 32.9137 80.6872L32.9108 68.9292L40.0964 68.927L40.0993 80.6872C40.0993 83.6137 42.4873 85.9993 45.4206 85.9935C48.3619 85.9957 50.7462 83.613 50.7455 80.6829L50.7418 68.9256L54.6229 68.9227C57.7556 68.9241 60.3038 66.3917 60.3053 63.2577L60.2988 28.8116L12.7107 28.8195ZM72.9964 33.1171C72.9957 30.1848 70.6135 27.8086 67.673 27.8101C64.7339 27.8072 62.3524 30.187 62.3524 33.1193L62.3568 55.3467C62.3561 58.2811 64.7375 60.653 67.6788 60.6537C70.6186 60.653 72.9993 58.2811 73 55.3438L72.9964 33.1171Z" fill="#A4C439"/>
</svg>
