<svg width="67" height="79" viewBox="0 0 67 79" fill="none" xmlns="http://www.w3.org/2000/svg">
<path d="M55.8238 75.8304C51.4947 79.9994 46.768 79.3411 42.218 77.3663C37.403 75.3477 32.9855 75.2599 27.9055 77.3663C21.5443 80.0871 18.187 79.2972 14.388 75.8304C-7.1692 53.7571 -3.98862 20.1425 20.4841 18.9137C26.4477 19.2209 30.6001 22.1611 34.0899 22.4244C39.3025 21.3712 44.2942 18.3432 49.8602 18.7382C56.5306 19.2648 61.5665 21.8978 64.8796 26.6372C51.0971 34.8434 54.3661 52.8794 67 57.926C64.482 64.5085 61.2131 71.0471 55.7797 75.8743L55.8238 75.8304ZM33.6482 18.6504C32.9855 8.86444 40.9812 0.7899 50.1695 0C51.4505 11.3219 39.8326 19.7475 33.6482 18.6504Z" fill="black"/>
</svg>
