<svg width="76" height="75" viewBox="0 0 76 75" fill="none" xmlns="http://www.w3.org/2000/svg">
<path d="M48.3011 70.2582C55.1951 67.9862 61.1963 63.5966 65.4499 57.7148C69.7034 51.8329 71.9923 44.7587 71.9905 37.5C71.9923 30.2413 69.7034 23.1671 65.4499 17.2852C61.1963 11.4034 55.1951 7.01378 48.3011 4.7418M48.3011 70.2582C41.2932 72.5806 33.7231 72.5806 26.7152 70.2582C19.8164 67.9907 13.8096 63.603 9.55111 57.7207C5.29266 51.8385 3 44.7619 3 37.5C3 30.2381 5.29266 23.1615 9.55111 17.2793C13.8096 11.397 19.8164 7.00933 26.7152 4.7418C33.7231 2.4194 41.2932 2.4194 48.3011 4.7418M48.3011 70.2582C55.2 67.9907 61.2068 63.603 65.4653 57.7207C69.7237 51.8385 72.0164 44.7619 72.0164 37.5C72.0164 30.2381 69.7237 23.1615 65.4653 17.2793C61.2068 11.397 55.2 7.00933 48.3011 4.7418" stroke="#61DAFB" stroke-width="6" stroke-linecap="round" stroke-linejoin="round"/>
<path d="M37.5081 4.74182V70.2582" stroke="#61DAFB" stroke-width="6" stroke-linecap="round" stroke-linejoin="round"/>
<path d="M11.2671 15.0864C14.4805 16.71 17.8402 18.0262 21.3014 19.0174C26.5644 20.5668 32.0218 21.3564 37.5081 21.3622C42.8434 21.3594 48.1525 20.6167 53.2838 19.1553C56.8534 18.1233 60.3172 16.7551 63.6285 15.0692M11.836 60.5168C15.0019 58.9614 18.3028 57.6976 21.698 56.741C35.4917 52.8788 50.2255 54.2417 63.0768 60.5686" stroke="#61DAFB" stroke-width="6" stroke-linecap="round" stroke-linejoin="round"/>
<path d="M4.75 37.5001H70.2664" stroke="#61DAFB" stroke-width="6" stroke-linecap="round" stroke-linejoin="round"/>
<path d="M46.9735 4.74182L47.2494 5.22457C52.9613 14.9653 55.9724 26.0529 55.9724 37.3449C55.9724 48.6368 52.9613 59.7244 47.2494 69.4651M27.5945 4.74182L27.3186 5.22457C21.6129 14.9706 18.6126 26.0632 18.6277 37.3566C18.6429 48.6499 21.6729 59.7345 27.4048 69.4651" stroke="#61DAFB" stroke-width="6" stroke-linecap="round" stroke-linejoin="round"/>
</svg>
