<svg width="71" height="70" viewBox="0 0 71 70" fill="none" xmlns="http://www.w3.org/2000/svg">
<path d="M57.7677 10.9375H14.0177C10.3933 10.9375 7.4552 13.8756 7.4552 17.5V56.875C7.4552 60.4994 10.3933 63.4375 14.0177 63.4375H57.7677C61.3921 63.4375 64.3302 60.4994 64.3302 56.875V17.5C64.3302 13.8756 61.3921 10.9375 57.7677 10.9375Z" stroke="#0A7CE8" stroke-width="6" stroke-linejoin="round"/>
<path d="M41.3615 35C43.1736 35 44.6427 33.5309 44.6427 31.7188C44.6427 29.9066 43.1736 28.4375 41.3615 28.4375C39.5493 28.4375 38.0802 29.9066 38.0802 31.7188C38.0802 33.5309 39.5493 35 41.3615 35Z" fill="#0A7CE8"/>
<path d="M52.299 35C54.1111 35 55.5802 33.5309 55.5802 31.7188C55.5802 29.9066 54.1111 28.4375 52.299 28.4375C50.4868 28.4375 49.0177 29.9066 49.0177 31.7188C49.0177 33.5309 50.4868 35 52.299 35Z" fill="#0A7CE8"/>
<path d="M41.3615 45.9375C43.1736 45.9375 44.6427 44.4684 44.6427 42.6562C44.6427 40.8441 43.1736 39.375 41.3615 39.375C39.5493 39.375 38.0802 40.8441 38.0802 42.6562C38.0802 44.4684 39.5493 45.9375 41.3615 45.9375Z" fill="#0A7CE8"/>
<path d="M52.299 45.9375C54.1111 45.9375 55.5802 44.4684 55.5802 42.6562C55.5802 40.8441 54.1111 39.375 52.299 39.375C50.4868 39.375 49.0177 40.8441 49.0177 42.6562C49.0177 44.4684 50.4868 45.9375 52.299 45.9375Z" fill="#0A7CE8"/>
<path d="M19.4865 45.9375C21.2986 45.9375 22.7677 44.4684 22.7677 42.6562C22.7677 40.8441 21.2986 39.375 19.4865 39.375C17.6743 39.375 16.2052 40.8441 16.2052 42.6562C16.2052 44.4684 17.6743 45.9375 19.4865 45.9375Z" fill="#0A7CE8"/>
<path d="M30.424 45.9375C32.2361 45.9375 33.7052 44.4684 33.7052 42.6562C33.7052 40.8441 32.2361 39.375 30.424 39.375C28.6118 39.375 27.1427 40.8441 27.1427 42.6562C27.1427 44.4684 28.6118 45.9375 30.424 45.9375Z" fill="#0A7CE8"/>
<path d="M19.4865 56.875C21.2986 56.875 22.7677 55.4059 22.7677 53.5938C22.7677 51.7816 21.2986 50.3125 19.4865 50.3125C17.6743 50.3125 16.2052 51.7816 16.2052 53.5938C16.2052 55.4059 17.6743 56.875 19.4865 56.875Z" fill="#0A7CE8"/>
<path d="M30.424 56.875C32.2361 56.875 33.7052 55.4059 33.7052 53.5938C33.7052 51.7816 32.2361 50.3125 30.424 50.3125C28.6118 50.3125 27.1427 51.7816 27.1427 53.5938C27.1427 55.4059 28.6118 56.875 30.424 56.875Z" fill="#0A7CE8"/>
<path d="M41.3615 56.875C43.1736 56.875 44.6427 55.4059 44.6427 53.5938C44.6427 51.7816 43.1736 50.3125 41.3615 50.3125C39.5493 50.3125 38.0802 51.7816 38.0802 53.5938C38.0802 55.4059 39.5493 56.875 41.3615 56.875Z" fill="#0A7CE8"/>
<path d="M18.3927 6.5625V10.9375M53.3927 6.5625V10.9375" stroke="#0A7CE8" stroke-width="6" stroke-linecap="round" stroke-linejoin="round"/>
<path d="M64.3302 21.875H7.4552" stroke="#0A7CE8" stroke-width="6" stroke-linejoin="round"/>
</svg>
