<svg width="238" height="42" viewBox="0 0 238 42" fill="none" xmlns="http://www.w3.org/2000/svg">
<path d="M238 10.5C238 4.70101 233.299 0 227.5 0H123.926C118.127 0 113.426 4.70101 113.426 10.5V10.5C113.426 16.299 108.725 21 102.926 21H46.564C40.765 21 36.064 25.701 36.064 31.5V31.5C36.064 37.299 40.765 42 46.564 42H165.093C170.892 42 175.593 37.299 175.593 31.5V31.5C175.593 25.701 180.294 21 186.093 21H227.5C233.299 21 238 16.299 238 10.5V10.5Z" fill="white"/>
<path d="M21.2041 10.5C21.2041 4.70101 16.401 0 10.602 0V0C4.80306 0 1.98255e-06 4.70101 1.98255e-06 10.5V10.5C1.98255e-06 16.299 4.80306 21 10.602 21V21C16.401 21 21.2041 16.299 21.2041 10.5V10.5Z" fill="white"/>
</svg>
