<svg width="395" height="56" viewBox="0 0 395 56" fill="none" xmlns="http://www.w3.org/2000/svg">
<path d="M34.5985 9.37339C34.5985 4.19661 38.7952 0 43.9719 0H269.886C275.063 0 279.26 4.19661 279.26 9.37339V9.37339C279.26 14.5502 283.456 18.7468 288.633 18.7468H319.845C324.955 18.7468 329.098 22.8896 329.098 28V28C329.098 33.1104 333.241 37.2532 338.351 37.2532H363.797C368.973 37.2532 373.17 41.4498 373.17 46.6266V46.6266C373.17 51.8034 368.973 56 363.797 56H137.882C132.705 56 128.509 51.8034 128.509 46.6266V46.6266C128.509 41.4498 124.312 37.2532 119.135 37.2532H93.6901C88.5797 37.2532 84.4369 33.1104 84.4369 28V28C84.4369 22.8896 80.2941 18.7468 75.1837 18.7468H43.9719C38.7951 18.7468 34.5985 14.5502 34.5985 9.37339V9.37339Z" fill="white"/>
<path d="M350.928 9.37339C350.928 4.19661 355.125 0 360.301 0H385.627C390.803 0 395 4.19661 395 9.37339V9.37339C395 14.5502 390.803 18.7468 385.627 18.7468H360.301C355.125 18.7468 350.928 14.5502 350.928 9.37339V9.37339Z" fill="white"/>
<path d="M77.4348 46.6266C77.4348 41.4498 73.2382 37.2532 68.0614 37.2532H9.37339C4.19661 37.2532 0 41.4498 0 46.6266V46.6266C0 51.8034 4.19661 56 9.37339 56H68.0614C73.2382 56 77.4348 51.8034 77.4348 46.6266V46.6266Z" fill="white"/>
</svg>
