<svg width="1250" height="1250" viewBox="0 0 1250 1250" fill="none" xmlns="http://www.w3.org/2000/svg">
<path d="M264.309 701.025C260.052 685.607 258.575 669.834 258.816 653.902C259.156 631.375 268.629 614.231 289.316 604.849C300.998 599.551 313.669 599.073 325.85 602.934C340.886 607.7 356.126 609.522 371.754 609.118C372.51 609.098 373.275 609.391 374.74 609.674C374.26 607.346 373.855 605.501 373.502 603.645C370.415 587.434 369.095 571.133 371.428 554.699C372.021 550.527 372.576 546.233 374.035 542.334C375.697 537.89 379.077 537.208 383.616 538.792C393.55 542.258 403.442 545.978 413.601 548.602C420.274 550.326 427.368 550.612 434.304 551.024C449.037 551.898 463.864 551.756 478.508 553.369C486.926 554.296 494.313 551.68 502.176 550.406C511.957 548.821 521.664 547.407 530.826 543.287C542.315 538.121 552.713 531.929 558.218 519.598C564.808 504.833 572.072 490.371 578.464 475.522C586.582 456.66 593.346 437.168 602.119 418.638C610.84 400.219 619.067 381.311 632.021 365.293C643.927 350.573 656.168 336.112 672.531 326.067C678.611 322.334 684.761 318.719 691.522 314.803C696.452 313.065 700.739 311.577 705.31 309.989C705.221 315.83 701.041 315.187 698.243 316.776C687.535 322.854 677.113 329.446 666.266 335.954C660.788 341.284 655.34 346.251 650.536 351.789C643.275 360.159 635.259 368.208 629.72 377.682C619.551 395.077 610.791 413.329 601.803 431.407C599.235 436.572 597.904 442.365 595.716 448.089C594.341 451.563 593.255 454.818 592.074 458.156C591.979 458.238 592.061 458.477 591.768 458.708C590.837 460.268 590.146 461.574 589.571 462.93C584.923 473.901 580.692 485.074 575.551 495.802C570.617 506.097 565.017 516.099 559.15 525.886C556.963 529.535 553.593 532.819 550.059 535.204C543.071 539.922 535.593 543.898 527.946 548.177C518.986 550.889 510.397 553.604 501.532 556.308C501.144 556.445 501.032 556.592 500.491 556.754C495.738 557.369 491.415 557.97 486.661 558.702C450.296 556.784 413.616 560.225 379.173 543.264C373.118 565.766 375.393 587.31 380.501 608.781C392.52 608.03 403.88 607.565 415.192 606.545C426.309 605.541 437.449 604.404 448.447 602.531C459.341 600.676 470.07 597.829 480.871 595.417C480.985 595.859 481.099 596.3 481.214 596.741C479.818 597.48 478.475 598.354 477.018 598.937C458.523 606.329 439.223 610.042 419.477 611.623C406.479 612.664 393.485 613.873 380.466 614.49C365.069 615.219 349.652 615.462 334.485 611.677C327.276 609.878 320.059 607.368 312.742 606.926C300.83 606.206 289.405 608.963 280.238 617.434C271.867 625.169 265.854 634.495 265.501 646.312C265.158 657.808 265.461 669.333 265.815 680.834C265.933 684.666 266.701 688.587 267.837 692.257C271.217 703.184 274.814 714.047 278.538 724.859C283.109 738.13 285.996 751.987 293.04 764.406C296.131 769.857 297.953 776.089 300.008 782.086C303.729 792.944 306.09 804.182 311.447 814.582C317.897 827.103 323.046 840.312 328.703 853.247C338.018 874.548 346.609 896.179 360.683 915.018C372.253 930.505 384.341 945.508 398.186 958.948C406.462 966.982 415.271 974.455 423.882 982.132C426.436 984.409 429.134 986.519 431.759 988.714C437.739 993.716 443.821 998.602 449.656 1003.77C453.602 1007.27 456.834 1011.67 461.021 1014.79C472.506 1023.35 484.352 1031.41 496.005 1039.74C504.212 1045.61 512.06 1052.04 520.556 1057.44C538.093 1068.57 555.841 1079.38 573.717 1089.95C590.008 1099.58 606.392 1109.09 623.089 1117.98C638.821 1126.35 654.736 1134.49 671.083 1141.51C688.229 1148.88 706.488 1151.56 725.159 1149.76C729.082 1149.38 733.95 1149.03 736.583 1146.64C750.247 1134.24 763.616 1121.47 776.517 1108.26C786.579 1097.96 796.079 1087.05 805.326 1075.99C814.652 1064.83 824.045 1053.61 832.152 1041.56C841.166 1028.15 848.73 1013.75 856.988 999.824C861.319 992.519 866.111 985.472 870.104 977.987C874.754 969.272 878.759 960.206 883.362 950.628C884.135 951.893 885.053 952.808 885.294 953.879C887.701 964.561 889.645 975.363 892.445 985.935C894.368 993.201 896.826 1000.45 902.383 1006.03C908.87 1012.55 916.177 1016.81 925.737 1015C932.233 1013.76 938.733 1012.51 945.17 1011C954.084 1008.91 963.26 1007.41 971.738 1004.12C981.351 1000.38 990.555 995.357 999.505 990.138C1011.03 983.417 1022.71 976.717 1033.27 968.615C1048.4 957.016 1059.74 941.638 1070.79 926.131C1078.1 915.884 1084.06 905.22 1085.98 892.465C1087.28 883.813 1085.24 879.058 1077.28 876.526C1064.88 872.583 1054.52 865.21 1045.51 856.219C1032.81 843.533 1020.96 829.966 1008.6 816.917C992.481 799.891 981.906 778.983 969.156 759.602C965.539 754.103 962.638 748.121 959.268 742.109C953.688 745.966 949.244 749.263 944.586 752.216C923.95 765.3 901.009 771.187 877.07 773.056C863.088 774.147 848.975 774.323 834.956 773.854C823.999 773.487 812.932 772.289 802.205 770.041C785.036 766.441 768.011 762.022 751.105 757.289C733.428 752.341 715.68 747.397 698.491 740.998C682.417 735.014 667.014 727.225 653.156 716.664C642.957 708.891 632.489 701.472 622.039 694.041C597.844 676.836 575.422 657.539 556.615 634.426C547.373 623.069 539.429 610.559 531.615 598.11C524.132 586.19 520.266 572.63 516.641 558.636C516.763 556.709 516.878 555.227 516.993 553.745C517.241 553.781 517.488 553.818 517.735 553.854C520.562 561.846 523.389 569.838 526.218 577.834C529.762 575.947 532.448 574.517 534.436 573.459C532.661 565.741 530.989 558.47 529.621 550.976C533.582 548.656 533.457 552.1 534.128 553.878C536.043 558.947 537.736 564.102 539.506 569.424C539.497 569.625 539.713 569.962 539.735 570.335C540.492 572.188 541.227 573.669 541.998 575.074C542.035 574.998 541.912 575.112 541.916 575.34C541.92 575.568 542.193 575.931 542.192 576.256C542.799 577.44 543.407 578.3 544.075 579.502C546.313 584.055 548.047 588.586 550.751 592.419C561.096 607.086 571.895 621.416 585.562 633.188C591.573 638.364 597.768 643.321 603.896 648.342C603.912 648.306 603.844 648.343 603.975 648.651C604.798 649.655 605.43 650.425 606.188 651.036C628.432 668.984 653.071 682.98 678.735 695.936C684.972 699.378 690.684 703.265 696.943 705.73C705.914 709.264 715.228 711.963 724.498 714.658C743.894 720.298 763.179 726.516 782.851 730.944C798.39 734.443 814.44 735.622 830.592 738.076C836.6 738.676 842.275 739.148 847.958 739.366C870.097 740.217 892.163 739.216 913.821 734.366C924.777 731.913 935.391 727.901 946.51 724.583C950.911 724.122 952.473 721.038 954.186 717.618C956.414 713.73 958.338 710.017 960.262 706.26C960.263 706.217 960.348 706.207 960.647 706.083C961.433 704.964 961.919 703.971 962.618 702.746C968.874 692.215 975.03 681.979 980.931 671.595C987.395 660.221 993.737 648.771 999.905 637.23C1002.8 631.815 1005.16 626.109 1008 620.266C1008.7 619.323 1009.36 618.71 1009.59 617.963C1016.4 596.268 1019.42 573.946 1020.44 550.817C1020.51 540.06 1020.45 529.762 1020.47 519.04C1018.86 508.132 1017.47 497.586 1015.37 487.187C1013.72 479.041 1011.39 471.015 1009 463.046C1005.59 451.665 1001.91 440.367 998.227 429.071C996.475 423.696 992.623 418.295 992.935 413.104C993.646 401.288 996.342 389.594 998.5 377.626C1001.13 371.2 1003.48 364.998 1006.04 358.52C1014.96 340.69 1021.02 322.136 1026.59 303.046C1031.87 290.724 1036.94 278.675 1042.22 266.335C1044.92 258.83 1047.18 251.521 1049.97 244.425C1053.23 236.133 1056.82 227.963 1060.53 219.865C1062.83 214.866 1066.44 211.8 1072.05 209.77C1083.58 205.597 1092 197.275 1095.03 184.897C1098.2 171.922 1093.76 161.274 1083.24 153.344C1073.16 145.748 1061.96 144.909 1050.44 149.031C1038.93 153.149 1031.6 161.533 1028.02 173.762C1028.27 180.219 1028.27 186.363 1029.22 192.352C1029.81 196.031 1031.85 199.473 1033.24 203.021C1023.04 195.243 1021.41 176.602 1027.21 164.729C1032.69 153.502 1041.6 146.381 1053.03 143.283C1073.27 137.799 1096.55 149.337 1100.25 173.375C1102.66 188.975 1092.33 208.039 1076.47 213.136C1063.07 217.441 1061.1 228.394 1057.04 238.487C1051.74 251.683 1047.31 265.235 1042.36 278.58C1036.85 293.435 1031.22 308.245 1025.56 323.044C1021.01 334.951 1016.55 346.897 1011.68 358.672C1004.09 377.043 997.823 395.313 999.553 416.048C1000.25 424.362 1004.5 430.112 1007.02 437.004C1015 458.75 1020.59 481.097 1024.41 503.887C1027.89 524.633 1026.76 545.49 1024.87 566.349C1023.46 581.868 1021.92 597.397 1016.75 612.113C1013.16 622.353 1008.6 632.338 1003.54 641.938C994.744 658.633 985.339 675.005 975.989 691.395C968.85 703.91 961.401 716.243 954.174 728.515C960.742 738.872 969.177 747.066 974.217 758.113C979.192 769.019 987.021 778.579 993.446 788.826C1005.3 807.729 1021.16 823.151 1036.35 839.115C1044.73 847.934 1053.6 856.463 1063.2 863.868C1069.68 868.872 1077.81 871.708 1085.22 875.478C1089.84 877.829 1091.38 881.497 1091.37 886.75C1091.33 904.141 1083.55 918.282 1073.48 931.39C1064.91 942.546 1056.66 954.183 1046.68 963.943C1037.67 972.759 1026.74 979.694 1016.2 986.764C1006.88 993.019 997.261 999.047 987.146 1003.82C978.446 1007.92 968.947 1010.42 959.643 1013.05C950.816 1015.55 941.779 1017.28 932.843 1019.39C910.545 1024.66 895.6 1012.07 890.172 992.151C887.489 982.306 884.932 972.425 882.226 962.21C880.504 966.091 879.017 970.083 877.031 973.801C869.781 987.374 862.861 1001.16 854.89 1014.3C843.784 1032.6 833.144 1051.42 819.966 1068.14C798.785 1095.01 775.572 1120.22 750.225 1143.27C747.441 1145.8 744.834 1148.64 741.713 1150.65C739.346 1152.17 736.33 1152.75 733.536 1153.5C724.66 1155.87 715.676 1155.64 706.578 1154.97C693.583 1154.02 681.131 1151.03 668.893 1146.69C667.339 1146.13 664.763 1146.52 663.466 1147.53C644.376 1162.4 623.078 1172.63 599.193 1175.43C572.258 1178.57 546.004 1174.88 520.938 1163.35C511.198 1158.86 503.049 1152.34 494.257 1146.56C484.481 1140.13 473.896 1134.96 463.612 1129.34C461.052 1127.94 458.391 1126.54 455.606 1125.79C450.523 1124.41 444.493 1121.31 440.33 1122.89C432.333 1125.92 425.521 1122.18 418.206 1122.02C409.055 1121.83 399.873 1121.88 390.766 1121.09C376.87 1119.88 362.929 1118.65 349.187 1116.34C330.284 1113.17 311.29 1109.94 292.815 1104.93C275.215 1100.16 258.129 1093.34 241.006 1086.9C224.134 1080.56 208.129 1072.21 193.423 1061.76C186.314 1056.7 180.065 1050.22 174.11 1043.74C165.999 1034.91 158.614 1025.41 150.79 1016.32C134.682 997.585 121.331 976.962 110.853 954.601C102.539 936.861 98.1742 918.048 98.8613 898.113C99.393 882.686 98.2416 867.182 99.1577 851.792C100.441 830.237 106.546 810.111 118.82 791.94C123.488 785.027 129.379 781.471 136.804 778.932C149.064 774.74 161.619 770.97 173.156 765.195C187.513 758.009 199.636 747.387 209.685 734.556C216.958 725.269 223.957 715.668 234.175 709.311C242.331 704.236 250.6 699.408 260.885 701.867C260.27 702.919 259.617 703.615 258.906 703.682C243.094 705.176 232.027 714.858 221.99 725.951C213.194 735.672 204.91 745.865 196.416 755.862C196.433 755.875 196.401 755.872 196.109 755.992C178.142 771.509 156.649 778.646 134.909 785.544C130.514 786.938 126.073 790.852 123.46 794.82C115.708 806.593 110.398 819.587 107.098 833.436C103.179 849.878 104.815 866.614 104.026 883.216C103.798 888.023 104.487 892.881 104.858 897.707C105.608 907.458 105.463 917.409 107.439 926.905C110.597 942.08 117.477 956.06 125.29 969.28C132.423 981.349 140.765 992.716 148.991 1004.08C153.28 1010.01 158.466 1015.28 163.265 1020.88C163.283 1020.92 163.28 1021 163.357 1021.35C166.725 1025.52 170.017 1029.33 173.426 1033.37C173.838 1033.77 174.132 1033.94 174.525 1034.43C184.999 1043.87 195.19 1053.24 205.845 1062.02C209.633 1065.15 214.452 1067.08 218.97 1069.19C229.506 1074.1 240.144 1078.78 250.979 1083.83C252.374 1084.3 253.533 1084.49 254.938 1084.95C269.596 1090.08 283.833 1095.61 298.471 1099.66C311.349 1103.21 324.66 1105.2 337.81 1107.71C362.191 1112.37 386.711 1115.66 411.614 1115.25C420.407 1115.1 429.208 1115.39 438.04 1115.47C438.074 1115.46 438.065 1115.39 438.342 1115.7C441.418 1116.05 444.217 1116.1 447.352 1116.21C448.832 1116.89 449.976 1117.51 451.131 1118.49C467.38 1126.95 483.617 1135.06 499.89 1143.1C499.926 1143.04 499.807 1143.11 499.972 1143.39C513.015 1154.85 528.042 1161.45 544.803 1165.28C551.957 1166.7 558.758 1168.26 565.645 1168.98C580.166 1170.5 594.77 1171.19 609.035 1167.19C626.471 1162.29 642.465 1154.13 658.672 1143.56C655.319 1141.72 652.649 1140.27 649.99 1138.8C636.374 1131.25 622.752 1123.72 609.151 1116.16C596.655 1109.2 584.05 1102.44 571.735 1095.17C557.854 1086.98 544.103 1078.55 530.557 1069.8C519.774 1062.84 509.437 1055.17 498.802 1047.97C491.138 1042.78 483.309 1037.84 475.529 1032.83C475.504 1032.88 475.591 1032.84 475.446 1032.53C457.768 1020.02 441.139 1006.75 426.281 991.236C420.525 985.227 413.947 980.029 407.874 974.319C398.521 965.525 389.055 956.834 380.072 947.663C373.938 941.401 368.546 934.396 362.796 927.764C362.769 927.806 362.859 927.768 362.822 927.466C362.431 926.69 362.076 926.216 361.668 925.538C361.462 925.075 361.239 924.919 360.834 924.536C355.774 917.351 350.825 910.496 345.804 903.359C345.5 902.768 345.268 902.459 345.072 901.848C344.842 901.036 344.578 900.525 344.278 899.652C342.531 896.137 340.623 893.073 339.141 889.811C334 878.499 329.035 867.107 323.953 855.768C316.532 839.214 308.889 822.759 301.721 806.095C299.252 800.355 297.922 794.113 296.001 787.936C295.929 787.77 295.584 787.677 295.57 787.671C295.557 787.666 295.587 787.644 295.52 787.359C295.268 786.73 295.084 786.387 294.944 785.751C294.757 784.943 294.526 784.427 294.279 783.962C294.261 784.011 294.365 784.001 294.364 783.641C294.213 782.578 294.064 781.876 293.957 780.809C292.434 777.029 291.012 773.536 289.276 770.212C281.705 755.718 277.476 739.963 272.268 724.577C269.611 716.728 266.962 708.876 264.309 701.025ZM919.535 740.309C911.332 741.767 903.129 743.225 894.905 744.686C894.905 752.191 894.905 758.985 894.905 766.651C903.506 764.017 911.102 761.285 918.903 759.449C923.871 758.279 924.239 756.117 922.892 751.809C921.817 748.373 921.749 744.614 921.636 740.534C921.59 740.271 921.545 740.008 921.499 739.745C921.108 739.903 920.717 740.06 919.535 740.309ZM758.195 732.5C745.047 728.354 731.899 724.208 718.947 720.123C718.476 727.586 718.05 734.347 717.628 741.036C730.075 745.386 742.027 749.564 754.354 753.872C754.888 747.333 755.235 741.649 755.935 736.01C756.042 735.146 757.771 734.488 758.718 734.527C758.718 741.324 758.718 748.12 758.718 755.228C772.274 758.426 785.354 761.511 798.594 764.634C798.594 756.258 798.594 748.811 798.594 741.079C792.874 740.019 786.879 739.005 780.926 737.78C773.54 736.259 766.189 734.565 758.195 732.5ZM647.76 686.534C646.529 686.028 645.298 685.522 643.371 684.956C642.312 684.035 641.341 682.978 640.18 682.216C633.099 677.566 625.967 672.993 618.867 668.372C615.522 666.195 612.208 663.969 608.869 661.757C606.605 665.77 604.624 669.283 601.952 674.02C625.833 690.736 650.016 707.663 674.345 724.693C677.192 719.224 679.227 714.705 681.869 710.584C682.743 709.22 685.181 708.881 687.087 708.8C684.654 714.741 682.222 720.683 679.663 726.934C689.675 730.967 700.378 735.279 710.962 739.543C712.082 732.569 713.129 726.05 714.26 719.013C705.83 715.251 696.815 711.228 687.355 706.688C684.179 705.094 681.006 703.494 677.827 701.906C667.898 696.947 657.967 691.991 647.76 686.534ZM803.116 741.63C802.844 748.26 802.521 754.888 802.325 761.519C802.246 764.174 803.398 765.573 806.341 765.844C812.281 766.39 818.162 767.58 824.102 768.135C830.924 768.773 837.782 769.011 844.624 769.423C844.624 761.14 844.624 753.726 844.624 746.974C830.757 745.112 817.381 743.315 803.116 741.63ZM882.067 745.573C872.232 745.76 862.397 745.979 852.561 746.111C850.277 746.142 847.907 745.427 848.01 749.245C848.188 755.777 848.059 762.318 848.059 770.359C862.538 769.326 876.532 768.329 889.899 767.376C889.899 759.695 889.899 752.741 889.899 745.473C887.839 745.473 885.402 745.473 882.067 745.573ZM573.493 646.785C581.665 654.488 589.838 662.191 598.288 670.157C601.202 666.218 603.676 662.875 606.274 659.364C595.64 650.192 585.451 641.404 575.867 633.137C573.123 635.432 570.416 637.697 567.556 640.089C569.542 642.405 571.234 644.377 573.493 646.785ZM571.389 627.65C564.625 619.059 557.862 610.468 550.824 601.529C547.738 604.009 545.268 605.993 542.331 608.353C550.029 618.418 557.319 627.951 565.204 638.261C567.83 634.297 569.821 631.292 571.389 627.65ZM952.858 739.282C952.527 736.427 952.195 733.572 951.833 730.454C942.534 733.467 933.826 736.288 925.059 739.128C926.01 744.927 926.937 750.581 928.092 757.619C936.793 751.289 944.603 745.606 952.858 739.282ZM528.823 582.742C532.987 590.786 537.151 598.831 541.186 606.627C544.127 603.923 546.695 601.563 549.824 598.687C545.812 591.774 541.741 584.758 537.357 577.205C534.179 578.932 531.334 580.479 528.823 582.742ZM717.413 720.201L717.102 720.101C717.102 720.101 717.188 720.316 717.413 720.201Z" fill="#12110F"/>
<path d="M702.052 300.46C708.228 289.897 709.598 277.93 711.621 266.202C713.424 255.746 714.87 245.22 716.203 234.69C717.187 226.922 717.589 219.08 718.516 211.303C719.785 200.652 721.658 190.063 722.609 179.387C723.4 170.506 723.235 161.538 723.49 152.608C723.504 152.114 723.339 151.569 723.492 151.132C726.167 143.484 722.711 138.503 717.875 132.533C698.812 108.999 716.768 71.8202 744.845 68.0767C760.997 65.9231 778.163 74.7199 784.187 89.9892C789.045 102.305 788.643 114.853 782.102 126.741C781.421 127.979 780.001 128.777 779.084 129.912C775.823 133.947 772.631 138.039 768.953 142.378C767.273 142.638 766.053 142.629 764.815 142.641C764.797 142.664 764.85 142.654 764.773 142.263C765.323 140.195 765.474 137.942 766.659 136.937C772.328 132.133 776.893 126.669 779.427 119.515C783.001 109.426 783.198 99.5543 778.176 89.5481C777.878 88.9027 777.647 88.5612 777.411 87.8987C776.817 87.069 776.229 86.5603 775.617 86.0917C775.594 86.1319 775.686 86.1379 775.611 85.869C775.23 85.4131 774.925 85.2262 774.611 85.0973C774.602 85.1553 774.717 85.136 774.637 84.8693C774.251 84.417 773.945 84.2315 773.631 84.1046C773.623 84.1631 773.738 84.1435 773.658 83.8768C773.272 83.4246 772.965 83.2391 772.655 83.1062C772.651 83.1588 772.75 83.1269 772.7 82.784C770.772 80.6857 769.113 78.5772 766.983 77.2299C747.322 64.791 720.744 77.0276 715.317 101.139C712.928 115.429 715.39 127.895 726.051 138.023C727.731 139.618 728.814 142.441 729.086 144.823C729.449 148.011 728.46 151.333 728.56 154.581C729.116 172.7 727.089 190.556 724.033 208.378C722.404 217.88 721.747 227.553 720.401 237.448C719.243 244.191 718.342 250.636 717.426 257.079C715.385 271.45 713.121 285.797 706.714 298.987C704.77 302.989 701.862 306.512 699.396 310.255C698.961 309.962 698.526 309.668 698.091 309.374C699.411 306.403 700.731 303.431 702.052 300.46Z" fill="#181510"/>
<path d="M764.925 154.199C763.404 164.372 761.826 174.537 760.386 184.721C759.745 189.247 759.226 193.801 758.927 198.361C758.466 205.388 758.073 212.427 757.947 219.467C757.593 239.218 759.04 258.835 763.865 278.022C765.034 282.67 767.872 286.895 770.007 291.283C770.773 292.857 771.73 294.336 772.639 295.926C781.802 296.382 791.216 296.628 800.591 297.367C815.404 298.535 830.226 299.695 844.408 304.863C859.165 310.241 874.102 315.125 888.785 320.696C894.35 322.807 899.609 325.934 904.691 329.116C919.55 338.418 934.293 347.913 948.975 357.498C952.065 359.516 954.702 362.243 957.832 365.199C958.691 366.632 959.264 367.511 959.707 368.188C947.121 360.309 934.805 352.277 922.163 344.809C914.957 340.552 907.22 337.214 899.71 333.39C899.698 333.318 899.549 333.371 899.55 333.227C899.046 332.787 898.542 332.491 897.789 331.964C886.033 326.579 874.628 321.17 862.976 316.374C856.607 313.753 849.818 312.17 843.205 310.162C843.19 310.205 843.277 310.179 843.167 309.829C841.628 308.781 840.266 307.734 838.759 307.437C818.872 303.527 798.85 300.635 778.534 301.321C770.965 301.577 766.748 297.419 763.97 291.424C758.561 279.756 756.219 267.106 755.063 254.458C753.815 240.798 753.756 226.993 753.826 213.254C753.869 204.759 754.979 196.256 755.872 187.784C756.691 180.009 757.86 172.271 758.961 164.4C759.046 164.284 758.988 164.001 759.192 163.955C759.705 163.876 759.915 163.713 760.282 163.123C760.929 161.072 761.321 159.317 761.934 157.296C763.077 156.086 764.001 155.143 764.925 154.199Z" fill="#181510"/>
<path d="M959.394 365.007C963.028 357.562 966.663 350.118 970.615 342.116C973.24 335.836 975.547 330.115 977.854 324.394C983.709 312.134 989.668 299.924 995.382 287.598C999.163 279.44 1002.35 271 1006.23 262.894C1011.79 251.285 1017.73 239.864 1023.51 228.366C1027.25 220.924 1031.01 213.489 1035.17 205.642C1036.5 204.744 1037.43 204.256 1038.54 203.822C1038.71 203.876 1039.08 203.895 1039.08 203.895C1039.08 203.895 1039.43 203.765 1039.68 204.02C1040.32 205.548 1040.7 206.822 1041.1 208.132C1041.12 208.168 1041.12 208.09 1040.86 208.095C1040.46 208.193 1040.31 208.287 1039.92 208.385C1039.36 208.524 1039.13 208.757 1038.71 209.201C1036.16 212.902 1033.57 216.321 1031.75 220.112C1027.36 229.222 1023.46 238.57 1019.12 247.705C1014.44 257.554 1009.49 267.271 1004.42 277.328C1001.14 284.813 998.229 292.075 995.024 299.204C990.143 310.064 985.279 320.942 980.005 331.609C974.609 342.523 968.779 353.221 962.955 363.912C962.526 364.699 960.615 364.661 959.394 365.007Z" fill="#15120E"/>
<path d="M959.162 364.923C960.615 364.661 962.526 364.699 962.955 363.912C968.779 353.221 974.609 342.524 980.005 331.609C985.279 320.942 990.143 310.064 995.024 299.204C998.228 292.075 1001.14 284.813 1004.49 277.739C1004.84 278.42 1004.88 278.973 1004.86 279.904C1000.29 290.623 995.77 300.96 991.271 311.307C986.29 322.763 981.637 334.379 976.258 345.64C972.479 353.551 967.828 361.049 963.308 368.574C962.48 369.953 959.925 371.731 959.002 371.335C955.545 369.854 952.32 367.711 949.227 365.502C946.396 363.48 944.05 360.724 941.128 358.877C935.691 355.438 929.992 352.42 924.397 349.236C919.758 346.596 915.347 343.291 910.399 341.535C905.771 339.893 903.192 336.245 899.723 333.462C907.22 337.214 914.957 340.552 922.163 344.809C934.805 352.277 947.121 360.309 959.707 368.189C959.265 367.511 958.691 366.632 958.065 365.464C958.299 365.006 958.605 364.894 959.162 364.923Z" fill="#D2C263"/>
<path d="M264.07 701.251C266.962 708.876 269.611 716.728 272.267 724.577C277.476 739.963 281.705 755.718 289.276 770.212C291.012 773.536 292.433 777.029 293.749 781.025C293.787 782.404 294.076 783.202 294.365 784.001C294.365 784.001 294.261 784.011 294.234 784.257C294.439 785.016 294.669 785.53 294.9 786.044C295.084 786.387 295.268 786.73 295.124 787.446C293.934 786.508 292.858 785.287 292.269 783.86C291.66 782.385 291.77 780.603 291.142 779.14C286.629 768.624 281.525 758.339 277.548 747.624C272.945 735.218 269.223 722.471 265.295 709.817C264.195 706.272 262.812 704.937 258.71 705.599C244.232 707.935 233.316 715.87 224.399 727.005C222.047 729.942 221.23 734.184 218.76 736.968C213.641 742.737 207.998 748.054 202.318 753.277C200.816 754.658 198.397 755.019 196.399 755.849C204.91 745.865 213.194 735.671 221.99 725.951C232.027 714.857 243.093 705.176 258.906 703.682C259.617 703.615 260.27 702.918 261.152 702.155C262.18 701.689 263.006 701.583 264.07 701.251Z" fill="#D5C564"/>
<path d="M701.726 300.511C700.732 303.431 699.411 306.403 698.091 309.374C698.526 309.668 698.961 309.962 699.396 310.255C701.863 306.512 704.771 302.989 706.715 298.987C713.121 285.797 715.385 271.45 717.427 257.079C718.342 250.636 719.244 244.191 720.384 237.864C720.879 240.569 721.142 243.158 721.392 246.141C720.446 252.004 719.417 257.459 718.594 262.947C716.326 278.06 713.107 292.861 705.031 306.494C708.544 308.43 708.345 311.446 706.827 314.459C706.113 315.876 704.836 317.757 703.548 318.002C694.229 319.782 686.494 324.632 678.884 329.975C675.076 332.648 670.834 334.69 666.73 336.726C666.643 336.238 666.614 336.042 666.585 335.846C677.113 329.446 687.535 322.854 698.243 316.776C701.042 315.187 705.221 315.83 705.31 309.989C700.74 311.577 696.452 313.065 691.79 314.581C692.68 308.427 696.883 304.38 701.726 300.511Z" fill="#D2C263"/>
<path d="M1038.36 203.767C1037.43 204.256 1036.5 204.745 1035.32 205.322C1034.48 204.832 1033.89 204.253 1033.27 203.348C1031.85 199.473 1029.81 196.031 1029.23 192.352C1028.27 186.363 1028.27 180.22 1028.3 173.705C1029.25 173.024 1029.77 172.779 1030.29 172.947C1028.46 181.136 1028.91 188.653 1033.03 195.654C1034.67 198.441 1036.58 201.067 1038.36 203.767Z" fill="#D2C263"/>
<path d="M977.496 324.379C975.546 330.115 973.239 335.836 970.667 341.789C969.868 340.971 968.731 339.809 968.898 338.89C969.951 333.117 971.23 327.361 977.496 324.379Z" fill="#DDCF7B"/>
<path d="M764.877 154.196C764 155.143 763.076 156.086 761.904 157.267C761.656 157.505 761.599 157.449 761.63 157.226C761.661 157.003 761.63 156.555 761.553 156.235C762.118 151.36 761.578 146.5 764.833 142.619C766.053 142.629 767.273 142.638 768.845 142.725C768.394 145.329 767.592 147.856 766.162 150.407C765.271 151.701 765.007 152.968 764.743 154.236C764.743 154.236 764.829 154.193 764.877 154.196Z" fill="#D2C263"/>
<path d="M765.093 154.032C765.007 152.969 765.271 151.701 765.873 150.541C765.956 151.709 765.699 152.768 765.093 154.032Z" fill="#181510"/>
<path d="M500.92 556.74C501.032 556.592 501.144 556.445 501.679 556.679C503.283 557.23 504.81 557.963 505.589 557.475C509.825 554.821 513.563 554.189 516.635 559.082C520.266 572.63 524.133 586.19 531.615 598.11C539.429 610.559 547.373 623.069 556.615 634.426C575.422 657.539 597.844 676.836 622.039 694.041C632.489 701.472 642.957 708.891 653.156 716.664C667.014 727.225 682.417 735.014 698.491 740.998C715.68 747.397 733.428 752.341 751.105 757.289C768.011 762.022 785.036 766.441 802.205 770.041C812.932 772.289 823.999 773.487 834.956 773.854C848.975 774.323 863.088 774.147 877.07 773.056C901.009 771.187 923.95 765.3 944.586 752.216C949.244 749.263 953.688 745.966 959.268 742.109C962.638 748.121 965.539 754.103 969.157 759.602C981.906 778.983 992.481 799.891 1008.6 816.917C1020.96 829.966 1032.81 843.533 1045.51 856.219C1054.52 865.21 1064.88 872.583 1077.28 876.526C1085.24 879.058 1087.28 883.813 1085.98 892.465C1084.06 905.22 1078.1 915.884 1070.79 926.131C1059.74 941.638 1048.4 957.016 1033.27 968.615C1022.71 976.717 1011.03 983.417 999.505 990.138C990.555 995.357 981.351 1000.38 971.738 1004.12C963.26 1007.41 954.084 1008.91 945.17 1011C938.733 1012.51 932.233 1013.76 925.737 1015C916.177 1016.81 908.87 1012.55 902.383 1006.03C896.826 1000.45 894.368 993.201 892.445 985.935C889.645 975.363 887.701 964.561 885.294 953.879C885.053 952.808 884.136 951.893 883.363 950.628C878.759 960.206 874.754 969.272 870.104 977.987C866.111 985.472 861.319 992.519 856.988 999.824C848.73 1013.75 841.167 1028.15 832.152 1041.56C824.045 1053.61 814.652 1064.83 805.326 1075.99C796.079 1087.05 786.579 1097.96 776.517 1108.26C763.616 1121.47 750.247 1134.24 736.583 1146.64C733.95 1149.03 729.082 1149.38 725.159 1149.76C706.488 1151.56 688.229 1148.88 671.083 1141.51C654.736 1134.49 638.821 1126.35 623.089 1117.98C606.392 1109.09 590.008 1099.58 573.717 1089.95C555.841 1079.38 538.093 1068.57 520.556 1057.44C512.06 1052.04 504.212 1045.61 496.005 1039.74C484.352 1031.41 472.506 1023.35 461.021 1014.79C456.834 1011.67 453.602 1007.27 449.656 1003.77C443.821 998.602 437.739 993.716 431.759 988.714C429.134 986.519 426.436 984.409 423.882 982.132C415.271 974.455 406.462 966.982 398.186 958.948C384.341 945.508 372.253 930.505 360.683 915.018C346.609 896.179 338.018 874.548 328.703 853.247C323.046 840.312 317.897 827.103 311.447 814.582C306.09 804.182 303.729 792.944 300.008 782.086C297.953 776.089 296.131 769.857 293.04 764.406C285.996 751.987 283.109 738.13 278.538 724.859C274.814 714.047 271.217 703.184 267.837 692.257C266.701 688.587 265.933 684.666 265.815 680.834C265.461 669.333 265.158 657.808 265.501 646.312C265.854 634.495 271.867 625.169 280.238 617.434C289.405 608.963 300.83 606.206 312.742 606.926C320.059 607.368 327.276 609.879 334.485 611.677C349.652 615.462 365.069 615.219 380.466 614.49C393.485 613.873 406.479 612.664 419.477 611.623C439.223 610.042 458.523 606.329 477.018 598.937C478.475 598.354 479.818 597.48 481.214 596.741C481.099 596.3 480.985 595.859 480.871 595.417C470.07 597.829 459.341 600.676 448.447 602.531C437.449 604.404 426.309 605.541 415.192 606.545C403.88 607.565 392.52 608.03 380.501 608.781C375.393 587.31 373.118 565.766 379.173 543.264C413.616 560.225 450.296 556.784 486.895 559.062C492.333 560.156 497.248 561.775 500.92 556.74ZM545.998 788.49C533.685 798.471 519.595 804.845 504.5 809.008C491.591 812.569 478.585 815.77 465.626 819.145C462.455 819.971 459.81 821.188 459.796 825.276C459.733 843.758 459.571 862.239 459.434 880.721C459.404 884.811 461.264 887.131 465.346 887.858C470.648 888.803 475.907 889.997 481.179 891.11C494.834 893.994 494.833 894 497.432 879.981C497.492 879.656 497.536 879.328 497.615 879.008C498.314 876.16 497.236 874.726 494.346 874.213C490.17 873.472 485.95 872.728 481.949 871.377C480.466 870.877 478.565 868.681 478.534 867.222C478.331 857.66 478.461 848.082 478.835 838.523C478.889 837.154 480.628 835.494 481.996 834.642C483.297 833.832 485.139 833.926 486.735 833.588C506.432 829.417 526.043 824.864 543.368 813.882C550.741 809.208 557.624 803.743 564.634 798.707C560.921 794.691 557.799 791.764 555.223 788.409C552.262 784.553 549.588 784.747 545.998 788.49ZM642.303 901.963C639.819 902.779 637.368 903.725 634.843 904.377C631.69 905.192 631.08 906.88 632.219 909.858C633.512 913.238 634.257 916.836 635.595 920.195C636.988 923.692 636.485 925.837 632.924 927.738C625.279 931.818 617.784 936.211 610.419 940.792C607.312 942.725 605.601 941.96 603.472 939.381C599.502 934.572 595.205 930.037 591.021 925.41C575.797 908.572 558.024 895.538 536.691 887.609C532.391 886.01 530.824 886.835 530.293 891.361C529.914 894.606 528.796 897.779 527.848 900.935C527.011 903.72 527.941 905.234 530.599 906.214C547.682 912.512 561.79 923.244 574.32 936.328C582.609 944.983 590.965 953.573 599.307 962.175C601.864 964.811 604.467 966.498 608.338 964.197C623.957 954.913 639.657 945.769 655.366 936.64C658.524 934.805 659.687 932.547 658.435 928.871C655.885 921.383 653.343 913.875 651.266 906.245C649.954 901.426 647.813 899.456 642.303 901.963ZM600.437 763.039C602.93 759.197 605.665 759.216 609.393 761.693C615.255 765.588 621.492 768.904 627.546 772.506C634.651 776.733 634.694 776.771 631.975 784.674C624.74 805.71 619.231 827.065 620.702 849.615C621.149 856.458 622.218 863.26 623.1 870.926C628.862 869.262 633.641 867.739 638.497 866.535C641.215 865.861 641.753 864.488 641.275 861.882C637.984 843.936 640.255 826.356 644.955 808.971C648.228 796.864 651.5 784.756 654.94 772.698C655.953 769.144 655.31 766.635 652.085 764.746C636.253 755.477 620.441 746.172 604.642 736.845C601.63 735.066 599.123 735.458 596.803 738.094C590.94 744.757 584.971 751.324 579.182 758.051C578.397 758.964 577.699 761.288 578.156 761.75C582.046 765.69 586.214 769.35 590.298 773.094C592.953 770.524 595.613 767.96 598.259 765.38C598.846 764.807 599.38 764.179 600.437 763.039ZM546.562 767.273C552.958 774.05 559.22 780.962 565.778 787.574C577.961 799.858 592.44 808.574 608.436 814.776C615.206 817.401 615.213 817.304 616.798 809.919C617.281 807.67 617.731 805.368 618.598 803.26C620.171 799.436 618.766 797.656 615.17 796.296C600.442 790.725 587.686 781.946 576.572 770.809C566.96 761.176 557.573 751.308 548.296 741.344C544.671 737.45 541.245 736.69 536.777 739.752C533.146 742.24 529.226 744.3 525.423 746.531C514.149 753.148 502.868 759.75 491.596 766.369C488.909 767.948 486.741 769.784 487.967 773.472C490.664 781.583 493.476 789.662 495.886 797.861C496.969 801.545 498.825 802.72 502.314 801.651C505.588 800.648 508.85 799.605 512.135 798.64C514.831 797.847 515.85 796.424 514.718 793.526C513.407 790.166 512.501 786.648 511.282 783.249C509.989 779.642 510.493 777.192 514.253 775.18C521.59 771.254 528.676 766.845 535.804 762.53C538.588 760.845 540.914 760.68 543.041 763.53C543.919 764.706 545.063 765.68 546.562 767.273ZM555.064 930.357C551.77 933.781 548.159 936.957 545.291 940.713C543.244 943.395 541.702 943.868 538.877 942.14C531.069 937.363 523.054 932.926 515.335 928.01C514.076 927.208 513.019 924.428 513.39 922.953C514.831 917.221 516.848 911.634 518.718 906.016C526.287 883.275 528.382 860.098 524.468 836.37C523.903 832.944 522.528 832.248 519.503 833.253C515.792 834.487 512.054 835.697 508.249 836.569C505.516 837.196 505.017 838.365 505.52 841.099C508.456 857.074 507.069 872.941 503.25 888.553C499.851 902.45 495.921 916.22 491.928 929.959C490.821 933.767 491.403 936.459 494.685 938.401C510.302 947.641 525.933 956.856 541.611 965.992C544.533 967.694 547.282 967.755 549.871 964.737C555.833 957.785 562.1 951.102 568.109 944.19C568.731 943.474 568.984 941.339 568.494 940.896C564.347 937.146 559.987 933.636 555.064 930.357ZM616.17 904.981C623.384 901.967 630.41 898.313 637.853 896.074C652.364 891.71 667.092 888.075 681.768 884.285C685.285 883.376 687.13 881.6 687.124 877.817C687.096 859.317 687.12 840.817 687.167 822.317C687.176 818.609 685.536 816.527 681.888 815.805C673.272 814.099 664.655 812.377 656.096 810.406C653.165 809.731 652.238 811.019 651.69 813.439C650.891 816.97 650.067 820.495 649.202 824.01C648.472 826.978 649.433 828.73 652.504 829.352C656.495 830.159 660.436 831.221 664.432 831.999C667.527 832.601 668.757 834.187 668.611 837.464C668.201 846.683 668.21 855.925 667.629 865.13C667.539 866.558 665.429 868.617 663.883 869.058C656.994 871.022 650.013 872.721 642.989 874.121C622.904 878.123 605.149 887.066 589.08 899.664C586.716 901.518 584.567 903.653 582.824 905.207C586.429 909.159 589.57 912.512 592.603 915.961C594.791 918.45 596.63 918.266 599.289 916.29C604.526 912.396 610.128 909.003 616.17 904.981Z" fill="#F6F6F7"/>
<path d="M764.815 142.642C761.578 146.5 762.119 151.36 761.288 156.278C760.692 156.955 760.284 157.268 759.621 157.8C759.23 158.891 759.095 159.765 758.921 161.057C758.917 162.317 758.952 163.159 758.988 164.001C758.988 164.001 759.046 164.284 758.586 164.494C757.597 166.833 757.031 168.953 756.546 171.091C752.717 187.975 751.413 205.148 751.086 222.402C750.98 227.97 751.917 233.553 751.905 239.128C751.864 257.256 755.505 274.652 761.709 291.557C764.504 299.175 770.566 302.869 778.493 303.385C794.357 304.418 810.201 305.817 826.027 307.334C831.814 307.889 837.529 309.209 843.276 310.179C843.276 310.179 843.19 310.205 843.226 310.527C849.501 313.305 855.75 315.737 861.978 318.222C873.93 322.992 886.504 326.352 897.216 334.399C897.713 335.078 898.172 335.391 898.63 335.704C898.936 334.926 899.243 334.149 899.549 333.371C899.549 333.371 899.697 333.318 899.709 333.39C903.191 336.244 905.77 339.893 910.398 341.535C915.346 343.291 919.757 346.596 924.397 349.236C929.992 352.42 935.69 355.438 941.128 358.877C944.049 360.724 946.395 363.48 949.227 365.502C952.32 367.71 955.544 369.854 959.001 371.335C959.925 371.731 962.479 369.953 963.308 368.574C967.827 361.049 972.478 353.551 976.257 345.64C981.636 334.379 986.289 322.763 991.27 311.307C995.769 300.96 1000.29 290.623 1005.16 279.732C1008.02 273.903 1010.51 268.619 1013.04 263.351C1013.39 262.619 1013.96 262.001 1014.34 261.277C1020.9 248.549 1028.26 236.203 1032.96 222.566C1034.61 217.772 1036.51 213.427 1041.67 213.658C1041.46 211.543 1041.29 209.816 1041.12 208.09C1041.12 208.09 1041.11 208.168 1041.45 208.149C1042.35 207.448 1042.91 206.766 1043.48 206.083C1042.13 205.311 1040.78 204.538 1039.43 203.766L1039.08 203.895C1039.08 203.895 1038.71 203.877 1038.54 203.822C1036.58 201.067 1034.67 198.441 1033.03 195.654C1028.91 188.652 1028.46 181.136 1030.45 172.627C1031.11 170.856 1031.65 169.835 1032.11 168.777C1036.35 158.898 1044.44 152.901 1053.99 150.093C1064.85 146.897 1075.48 148.724 1084.31 157.125C1090.43 162.949 1094.56 169.864 1093.95 178.312C1092.95 192.103 1085.34 202.022 1072.85 207.017C1065.21 210.07 1059.78 214.424 1056.94 222.019C1052.83 233.005 1048.9 244.059 1044.91 255.087C1043.63 258.609 1042.38 262.142 1040.86 265.894C1039.48 268.807 1038.35 271.495 1037.22 274.185C1033.03 284.208 1028.84 294.231 1024.49 304.582C1017.52 322.816 1010.72 340.723 1003.64 358.883C1001.9 362.679 1000.43 366.221 998.69 369.796C998.272 370.454 998.125 371.08 997.929 372.065C997.517 373.834 997.154 375.243 996.445 376.782C995.116 382.301 993.909 387.659 993.216 393.085C992.553 398.274 993.575 403.995 991.75 408.636C989.761 413.693 991.238 417.39 992.803 421.635C997.417 434.149 1002.1 446.642 1006.44 459.253C1008.08 464.027 1009.07 469.063 1010 474.048C1012.99 490.103 1015.82 506.19 1018.67 522.745C1018.6 532.858 1018.56 542.491 1018.26 552.445C1017.24 560.352 1016.54 567.945 1015.7 575.524C1015.01 581.837 1014.55 588.214 1013.29 594.416C1011.5 603.2 1009.07 611.849 1006.89 620.551C1006.87 620.548 1006.87 620.58 1006.67 620.675C1006.23 620.942 1006.08 621.182 1005.88 621.798C996.823 639.663 985.391 655.755 977.339 673.842C972.842 683.941 966.432 693.17 960.604 703.045C960.332 704.269 960.339 705.238 960.347 706.207C960.347 706.207 960.262 706.217 959.898 706.124C958.366 707.394 957.121 708.698 956.049 710.133C953.401 713.679 950.833 717.286 948.091 721.052C947.746 721.476 947.501 721.661 946.966 721.83C946.537 722.139 946.356 722.408 946.164 722.695C946.153 722.713 946.124 722.744 945.751 722.753C936.708 725.577 928.158 728.894 919.329 731.036C913.173 732.529 906.62 732.285 900.27 733.041C891.298 734.108 882.377 736.053 873.387 736.415C859.068 736.991 844.71 736.572 830.084 736.293C825.953 735.536 822.084 735.197 818.264 734.562C802.625 731.962 786.928 729.636 771.399 726.475C762.369 724.637 753.592 721.49 744.746 718.784C730.709 714.49 716.548 710.529 702.755 705.534C694.648 702.599 687.151 697.939 679.078 693.871C677.727 693.254 676.615 692.931 675.634 692.374C662.955 685.18 650.174 678.159 637.679 670.652C630.776 666.506 624.418 661.443 617.706 656.958C613.183 653.937 608.471 651.205 603.843 648.344C603.843 648.344 603.912 648.306 603.886 647.991C603.074 646.671 602.414 645.522 601.48 644.683C597.35 640.976 592.98 637.528 588.999 633.668C582.599 627.465 575.913 621.446 570.305 614.554C562.827 605.364 556.239 595.431 549.326 585.775C547.494 583.216 545.871 580.504 544.134 577.543C544.075 576.8 544.034 576.376 543.835 575.685C543.088 575.316 542.5 575.214 541.912 575.112C541.912 575.112 542.034 574.998 542.071 574.676C542.082 573.552 542.057 572.749 541.969 571.73C541.744 571.247 541.521 571.052 541.214 570.696C541.191 570.463 541.12 570.001 541.131 569.746C541.122 569.323 541.104 569.154 541.095 568.612C539.193 562.524 537.362 556.779 535.337 551.106C534.266 548.106 534.867 546.591 537.89 544.975C543.998 541.71 550.653 538.627 555.354 533.762C560.81 528.115 565.156 521.011 568.666 513.876C576.389 498.179 583.346 482.093 590.443 466.088C591.47 463.772 591.545 461.025 592.061 458.478C592.061 458.478 591.979 458.238 592.419 458.067C593.942 455.268 595.026 452.64 596.381 449.794C597.433 447.435 598.078 445.231 599.018 443.164C603.689 432.899 608.156 422.525 613.232 412.466C619.399 400.242 625.081 387.567 632.85 376.424C641.193 364.458 651.703 354.034 661.294 342.961C663.06 340.922 664.953 338.996 666.788 337.017C670.834 334.69 675.076 332.648 678.884 329.975C686.493 324.632 694.228 319.782 703.548 318.003C704.836 317.757 706.112 315.876 706.826 314.459C708.345 311.446 708.543 308.43 705.031 306.494C713.107 292.861 716.326 278.06 718.594 262.947C719.417 257.46 720.446 252.004 721.437 245.713C721.837 241.968 722.141 239.039 722.531 236.121C724.678 220.085 727.1 204.08 728.908 188.005C729.944 178.798 730.059 169.481 730.461 160.208C730.658 155.656 730.752 151.082 730.53 146.536C730.404 143.947 730.146 141.031 728.887 138.904C726.577 134.997 723.056 131.814 720.807 127.881C716.617 120.555 716.187 112.347 716.912 103.821C719.345 93.4759 723.067 84.5845 733.898 81.0585C734.407 80.8927 734.709 80.1499 735.174 79.7561C736.663 78.4953 737.997 76.7007 739.721 76.1283C750.119 72.6758 759.691 74.4131 768.355 81.314C769.55 82.2655 771.272 82.5394 772.75 83.1271C772.75 83.1271 772.651 83.1589 772.736 83.3732C773.127 83.7729 773.433 83.9583 773.738 84.1437C773.738 84.1437 773.623 84.1632 773.712 84.3715C774.107 84.7652 774.412 84.9506 774.717 85.1361C774.717 85.1361 774.602 85.1554 774.691 85.3636C775.081 85.7605 775.383 85.9492 775.686 86.138C775.686 86.138 775.594 86.1321 775.576 86.3871C775.566 86.8404 775.573 87.0388 775.582 87.5579C775.922 88.6581 776.262 89.4378 776.583 90.5985C777.219 92.7889 778.359 94.5767 778.438 96.4113C778.715 102.837 779.923 109.638 778.308 115.614C776.716 121.507 775.908 129.914 766.367 129.847C766.226 131.248 766.392 132.763 765.87 133.977C765.241 135.438 764.038 136.65 763.066 137.956C761.178 140.493 761.46 142.174 764.851 142.654C764.851 142.654 764.797 142.664 764.815 142.642ZM737.239 449.038C737.239 449.038 737.251 448.996 737.809 448.427C739.131 442.672 737.97 437.312 735.295 431.395C734.927 419.493 719.618 410.56 709.556 409.471C696.554 408.064 685.518 411.583 676.219 421.64C665.161 433.598 662.182 447.27 666.237 462.435C668.003 469.04 672.066 475.016 674.727 480.535C676.692 480.754 678.32 480.429 679.115 481.105C684.843 485.978 691.839 487.088 698.763 487.098C702.726 487.104 706.692 484.763 710.68 483.609C710.68 483.609 710.55 483.586 711.041 483.51C711.276 483.284 711.512 483.058 712.34 482.635C713.376 482.021 714.411 481.407 716.208 480.772C720.025 477.949 724.258 475.546 727.56 472.203C732.448 467.254 735.126 460.896 736.792 453.458C736.932 451.995 737.072 450.533 737.239 449.038ZM797.794 558.057C800.748 556.768 804.015 555.933 806.6 554.109C816.37 547.215 824.782 539.279 824.519 525.805C824.391 519.292 820.352 515.019 813.227 513.958C809.027 512.827 804.857 511.561 800.621 510.589C789.339 507.999 778.253 504.597 768.749 497.877C763.226 493.972 757.306 492.55 751.083 491.978C748.479 491.738 744.828 492.77 743.181 494.617C740.553 497.565 738.427 501.477 737.455 505.333C734.45 517.255 736.678 528.781 741.687 539.788C742.192 540.899 743.92 541.441 745.214 542.902C752.04 552.591 761.381 557.957 772.957 559.71C781.142 560.949 789.283 562.517 797.794 558.057ZM868.92 486.5C857.553 492.244 851.252 502.237 847.275 513.828C844.031 523.285 844.725 532.996 848.115 542.3C852.605 554.625 861.963 563.46 876.648 563.877C889.915 564.253 900.839 558.792 908.817 547.685C914.067 540.377 918.605 532.769 918.561 523.449C918.518 514.599 918.682 506.205 913.647 497.585C905.413 483.489 882.453 478.001 868.92 486.5ZM912.733 594.453C911.841 587.948 907.628 583.304 902.401 580.895C888.073 574.292 873.232 568.657 857.009 571.169C852.682 571.839 848.375 573.97 844.556 576.275C841.105 578.357 840.711 583.685 842.391 587.35C844.557 592.078 848.344 595.029 852.598 597.405C866.842 605.361 882.254 607.669 898.292 606.603C905.717 606.11 912.007 601.105 912.733 594.453ZM639.251 501.829C640.016 503.601 640.478 505.602 641.594 507.107C649.925 518.343 663.835 519.23 675.035 525.161C676.423 525.896 678.805 524.586 680.743 524.415C684.943 524.042 689.201 524.09 693.348 523.414C697.754 522.696 703.467 517.502 702.547 514.079C701.299 509.433 699.079 503.289 695.439 501.393C684.013 495.44 672.239 489.699 658.917 488.874C650.159 488.332 639.038 490.422 639.251 501.829Z" fill="#EBD43B"/>
<path d="M196.416 755.862C198.397 755.02 200.816 754.658 202.318 753.277C207.997 748.054 213.641 742.737 218.76 736.968C221.229 734.185 222.046 729.943 224.398 727.006C233.316 715.87 244.232 707.935 258.71 705.599C262.812 704.937 264.194 706.273 265.295 709.817C269.223 722.472 272.944 735.218 277.548 747.625C281.524 758.34 286.629 768.625 291.142 779.14C291.769 780.603 291.659 782.385 292.268 783.861C292.857 785.287 293.934 786.508 295.191 787.731C295.587 787.644 295.556 787.666 295.418 788C295.246 788.572 295.212 788.81 295.162 789.461C295.4 791.481 295.362 793.209 295.956 794.674C300.481 805.839 305.066 816.98 309.756 828.075C315.929 842.68 321.95 857.36 328.545 871.77C332.962 881.421 338.261 890.659 343.201 900.394C343.836 901.188 344.436 901.669 345.037 902.15C345.268 902.459 345.499 902.768 345.458 903.53C345.152 905.121 344.643 906.598 345.162 907.342C348.781 912.537 352.497 917.675 356.46 922.602C357.421 923.796 359.422 924.134 360.945 924.866C361.238 924.919 361.462 925.075 361.46 925.74C361.822 926.687 362.34 927.228 362.858 927.768C362.858 927.768 362.768 927.806 362.759 928.138C363.453 930.1 363.801 932.052 364.916 933.308C375.11 944.793 385.104 956.491 395.849 967.433C402.339 974.041 410.307 979.138 417.153 985.423C425.226 992.835 432.797 1000.81 440.603 1008.52C443.096 1010.98 445.444 1013.65 448.21 1015.76C453.74 1019.96 459.397 1024.03 465.232 1027.78C468.443 1029.85 472.122 1031.18 475.591 1032.84C475.591 1032.84 475.504 1032.88 475.535 1033.19C476.421 1034.42 477.153 1035.52 478.152 1036.23C485.492 1041.49 492.868 1046.69 500.267 1051.86C511.454 1059.68 522.685 1067.43 533.861 1075.26C536.08 1076.82 537.978 1078.89 540.294 1080.25C545.41 1083.26 550.781 1085.82 555.887 1088.84C559.632 1091.06 562.942 1094.06 566.766 1096.1C572.86 1099.34 579.396 1101.75 585.431 1105.09C597.157 1111.58 608.619 1118.56 620.278 1125.17C628.44 1129.81 636.751 1134.17 644.987 1138.67C647.711 1140.16 650.408 1141.7 654.18 1143.81C650.005 1146.39 647.14 1148.46 644.023 1150.01C638.352 1152.84 632.339 1155.01 626.811 1158.09C613.495 1165.49 599.065 1167.48 583.824 1167.84C581.784 1167.82 580.149 1167.85 578.106 1167.85C576.608 1167.84 575.518 1167.86 574.022 1167.84C571.98 1167.8 570.344 1167.8 568.482 1167.54C567.384 1167.15 566.51 1167.01 565.327 1166.83C564.601 1166.82 564.185 1166.83 563.4 1166.67C558.031 1165.91 553.032 1165.33 547.791 1164.48C543.436 1162.8 539.196 1161.68 535.233 1159.93C525.398 1155.56 515.68 1150.92 505.937 1146.35C503.847 1145.37 501.847 1144.19 499.806 1143.11C499.806 1143.11 499.925 1143.04 499.908 1142.74C499.354 1141.67 498.989 1140.59 498.256 1140.18C490.391 1135.77 482.651 1131.06 474.508 1127.25C466.944 1123.7 458.933 1121.13 451.119 1118.12C449.975 1117.51 448.831 1116.89 447.29 1115.87C443.951 1115.45 441.008 1115.42 438.064 1115.39C438.064 1115.39 438.073 1115.46 438.079 1115.13C437.471 1114.31 436.857 1113.82 435.789 1113.29C420.624 1113.24 405.913 1113.23 390.904 1112.94C377.512 1111.21 364.364 1110.13 351.342 1108.18C338.698 1106.3 326.147 1103.71 313.623 1101.09C300.155 1098.28 286.78 1095.19 274.099 1089.42C268.715 1086.97 262.654 1086.04 256.714 1084.2C255.98 1083.83 255.432 1083.69 254.644 1083.53C254.405 1083.5 253.923 1083.46 253.706 1083.19C243.916 1078.55 234.309 1074.26 224.795 1069.76C222.704 1068.77 221.128 1066.44 218.998 1065.8C205.434 1061.68 195.683 1052.15 185.433 1043.02C181.735 1039.72 180.476 1033.63 174.515 1032.91C174.504 1032.9 174.482 1032.88 174.386 1032.67C174.108 1032.21 173.874 1032.02 173.532 1031.56C170.079 1027.81 166.679 1024.41 163.28 1021C163.28 1021 163.283 1020.92 163.396 1020.49C158.436 1012.6 153.527 1005.01 148.243 997.702C142.98 990.422 136.584 983.878 132.045 976.19C125.397 964.927 119.49 953.148 114.139 941.19C108.544 928.686 107.116 915.119 106.871 901.488C106.713 892.717 106.826 883.94 106.821 875.166C106.817 867.567 106.565 859.957 106.866 852.369C107.56 834.902 112.804 818.679 120.617 803.212C124.777 794.977 130.495 788.507 139.697 786.11C143.58 785.098 147.771 785.014 151.456 783.56C158.604 780.738 165.595 777.451 172.465 773.978C180.544 769.894 188.364 765.301 194.968 758.937C195.723 758.21 195.936 756.908 196.401 755.872C196.401 755.872 196.433 755.875 196.416 755.862Z" fill="#EBD43B"/>
<path d="M686.904 708.074C685.181 708.881 682.743 709.22 681.869 710.584C679.227 714.705 677.192 719.224 674.345 724.693C650.016 707.663 625.833 690.736 601.952 674.02C604.624 669.283 606.605 665.77 608.869 661.757C612.208 663.969 615.522 666.195 618.867 668.372C625.968 672.993 633.099 677.566 640.18 682.216C641.341 682.978 642.312 684.035 643.769 685.349C642.626 689.225 641.086 692.709 639.546 696.193C639.974 696.606 640.401 697.019 640.828 697.433C642.198 696.226 643.89 695.236 644.858 693.761C646.202 691.709 647.003 689.294 648.037 687.034C657.967 691.991 667.898 696.947 677.827 701.906C681.006 703.494 684.179 705.093 687.355 707.165C687.204 707.786 687.054 707.93 686.904 708.074Z" fill="#F1F1F0"/>
<path d="M803.56 741.575C817.38 743.315 830.756 745.112 844.623 746.975C844.623 753.726 844.623 761.14 844.623 769.423C837.782 769.011 830.923 768.773 824.101 768.135C818.162 767.58 812.28 766.39 806.34 765.844C803.397 765.573 802.245 764.174 802.324 761.519C802.52 754.888 802.843 748.26 803.56 741.575Z" fill="#F1F1F0"/>
<path d="M882.515 745.523C885.401 745.473 887.839 745.473 889.899 745.473C889.899 752.741 889.899 759.695 889.899 767.376C876.532 768.329 862.538 769.327 848.059 770.359C848.059 762.318 848.188 755.777 848.01 749.245C847.906 745.427 850.277 746.142 852.561 746.111C862.397 745.979 872.232 745.76 882.515 745.523Z" fill="#F1F1F0"/>
<path d="M758.823 732.945C766.189 734.565 773.54 736.259 780.926 737.78C786.879 739.005 792.874 740.019 798.594 741.079C798.594 748.811 798.594 756.259 798.594 764.634C785.354 761.511 772.274 758.426 758.718 755.228C758.718 748.12 758.718 741.324 758.758 733.934C758.799 733.341 758.823 732.945 758.823 732.945Z" fill="#F1F1F0"/>
<path d="M758.51 732.723C758.824 732.945 758.799 733.341 758.775 733.538C757.771 734.488 756.042 735.146 755.935 736.01C755.236 741.649 754.888 747.333 754.355 753.872C742.027 749.564 730.075 745.386 717.628 741.036C718.05 734.347 718.476 727.586 718.947 720.123C731.899 724.208 745.048 728.354 758.51 732.723Z" fill="#F0F0EF"/>
<path d="M548.033 1164.75C553.032 1165.33 558.032 1165.91 563.542 1166.87C564.581 1167.12 565.109 1166.99 565.638 1166.87C566.511 1167.01 567.385 1167.15 568.716 1167.8C570.925 1168.17 572.677 1168.02 574.428 1167.88C575.518 1167.86 576.608 1167.84 578.353 1168.09C580.748 1168.2 582.489 1168.04 584.23 1167.88C599.066 1167.48 613.496 1165.49 626.812 1158.08C632.339 1155.01 638.353 1152.84 644.024 1150.01C647.141 1148.46 650.006 1146.38 654.181 1143.81C650.408 1141.7 647.712 1140.16 644.988 1138.67C636.752 1134.17 628.441 1129.81 620.278 1125.17C608.62 1118.56 597.158 1111.58 585.432 1105.09C579.397 1101.75 572.861 1099.34 566.767 1096.1C562.942 1094.06 559.633 1091.06 555.888 1088.84C550.782 1085.82 545.41 1083.26 540.295 1080.25C537.978 1078.89 536.081 1076.82 533.861 1075.26C522.686 1067.43 511.455 1059.68 500.268 1051.86C492.868 1046.69 485.493 1041.49 478.152 1036.23C477.154 1035.52 476.422 1034.42 475.561 1033.15C483.31 1037.84 491.139 1042.78 498.802 1047.97C509.438 1055.17 519.774 1062.84 530.557 1069.8C544.103 1078.55 557.854 1086.98 571.735 1095.17C584.051 1102.44 596.655 1109.2 609.151 1116.16C622.753 1123.72 636.375 1131.25 649.99 1138.8C652.649 1140.27 655.319 1141.72 658.673 1143.56C642.466 1154.13 626.471 1162.29 609.035 1167.19C594.771 1171.19 580.166 1170.5 565.645 1168.98C558.758 1168.26 551.957 1166.7 545.243 1165.2C546.257 1164.84 547.145 1164.79 548.033 1164.75Z" fill="#D5C564"/>
<path d="M196.109 755.993C195.937 756.908 195.724 758.21 194.969 758.937C188.364 765.301 180.545 769.894 172.465 773.978C165.595 777.451 158.605 780.738 151.456 783.56C147.771 785.014 143.581 785.098 139.697 786.11C130.495 788.508 124.777 794.977 120.618 803.212C112.804 818.68 107.56 834.902 106.867 852.369C106.566 859.957 106.817 867.567 106.822 875.166C106.827 883.94 106.713 892.717 106.871 901.488C107.116 915.119 108.544 928.686 114.139 941.19C119.49 953.148 125.397 964.927 132.046 976.19C136.584 983.878 142.981 990.422 148.244 997.702C153.528 1005.01 158.436 1012.6 163.379 1020.45C158.466 1015.28 153.28 1010.01 148.99 1004.08C140.765 992.716 132.423 981.349 125.29 969.28C117.477 956.06 110.596 942.08 107.439 926.905C105.462 917.409 105.608 907.458 104.858 897.707C104.487 892.881 103.797 888.023 104.026 883.217C104.815 866.614 103.179 849.878 107.097 833.436C110.398 819.587 115.708 806.593 123.459 794.821C126.072 790.852 130.514 786.939 134.909 785.544C156.649 778.646 178.142 771.509 196.109 755.993Z" fill="#D5C564"/>
<path d="M687.577 707.423C696.814 711.228 705.829 715.251 714.259 719.013C713.129 726.05 712.081 732.569 710.961 739.543C700.377 735.279 689.674 730.967 679.662 726.934C682.221 720.683 684.654 714.741 686.995 708.437C687.054 707.93 687.204 707.786 687.577 707.423Z" fill="#F1F1F0"/>
<path d="M921.234 740.999C921.749 744.614 921.817 748.373 922.892 751.809C924.239 756.117 923.871 758.279 918.903 759.449C911.102 761.285 903.506 764.017 894.905 766.651C894.905 758.985 894.905 752.191 894.905 744.686C903.129 743.225 911.332 741.767 920.152 740.465C920.924 740.746 921.079 740.873 921.234 740.999Z" fill="#F0F0EF"/>
<path d="M573.21 646.567C571.234 644.377 569.542 642.405 567.556 640.089C570.416 637.697 573.123 635.432 575.866 633.137C585.451 641.404 595.64 650.192 606.274 659.364C603.676 662.875 601.202 666.218 598.288 670.157C589.838 662.191 581.665 654.488 573.21 646.567Z" fill="#F0F0EF"/>
<path d="M1041.12 265.67C1042.38 262.142 1043.63 258.609 1044.91 255.087C1048.9 244.059 1052.83 233.005 1056.94 222.019C1059.78 214.424 1065.21 210.07 1072.85 207.017C1085.34 202.022 1092.95 192.103 1093.95 178.312C1094.56 169.864 1090.43 162.949 1084.31 157.125C1075.48 148.724 1064.85 146.897 1053.99 150.093C1044.44 152.901 1036.35 158.898 1032.11 168.777C1031.65 169.835 1031.11 170.856 1030.45 172.214C1029.77 172.779 1029.25 173.024 1028.46 173.326C1031.6 161.533 1038.93 153.149 1050.44 149.032C1061.96 144.909 1073.16 145.748 1083.24 153.344C1093.76 161.275 1098.2 171.922 1095.03 184.897C1092 197.275 1083.58 205.597 1072.05 209.77C1066.44 211.8 1062.83 214.866 1060.53 219.865C1056.82 227.963 1053.23 236.133 1049.97 244.425C1047.18 251.521 1044.92 258.83 1042.03 266.219C1041.4 266.195 1041.23 265.954 1041.12 265.67Z" fill="#D5C564"/>
<path d="M571.6 627.969C569.821 631.292 567.831 634.297 565.204 638.261C557.319 627.951 550.029 618.418 542.331 608.353C545.268 605.993 547.738 604.009 550.824 601.529C557.862 610.468 564.625 619.059 571.6 627.969Z" fill="#F0F0EF"/>
<path d="M952.636 739.603C944.603 745.606 936.792 751.289 928.092 757.619C926.937 750.581 926.01 744.927 925.059 739.128C933.826 736.288 942.534 733.467 951.833 730.454C952.195 733.572 952.526 736.427 952.636 739.603Z" fill="#F0F0EF"/>
<path d="M679.379 694.055C687.15 697.939 694.647 702.599 702.755 705.534C716.547 710.528 730.709 714.49 744.745 718.784C753.592 721.49 762.369 724.637 771.398 726.475C786.927 729.635 802.624 731.962 818.263 734.562C822.084 735.197 825.952 735.536 830.068 736.608C830.312 737.413 830.287 737.622 830.262 737.831C814.439 735.622 798.389 734.443 782.85 730.944C763.178 726.516 743.894 720.298 724.497 714.658C715.227 711.963 705.914 709.264 696.942 705.731C690.683 703.265 684.972 699.379 678.837 695.715C678.898 694.888 679.138 694.471 679.379 694.055Z" fill="#D2C263"/>
<path d="M256.901 1084.42C262.654 1086.04 268.716 1086.97 274.1 1089.42C286.781 1095.19 300.156 1098.28 313.623 1101.09C326.148 1103.71 338.699 1106.3 351.343 1108.18C364.365 1110.13 377.513 1111.21 391.189 1113.24C406.184 1113.89 420.598 1113.99 435.011 1114.04C435.421 1114.04 435.833 1113.58 436.245 1113.33C436.858 1113.82 437.472 1114.31 438.046 1115.14C429.208 1115.39 420.408 1115.1 411.614 1115.25C386.711 1115.66 362.191 1112.37 337.81 1107.71C324.66 1105.2 311.349 1103.21 298.472 1099.66C283.833 1095.61 269.597 1090.08 255.007 1084.87C254.83 1084.54 254.971 1084.39 255.292 1084.41C256.042 1084.43 256.471 1084.42 256.901 1084.42Z" fill="#D2C263"/>
<path d="M475.446 1032.53C472.123 1031.18 468.444 1029.85 465.233 1027.78C459.398 1024.03 453.741 1019.96 448.211 1015.76C445.445 1013.65 443.097 1010.98 440.604 1008.52C432.798 1000.81 425.227 992.835 417.154 985.424C410.307 979.138 402.34 974.041 395.85 967.433C385.105 956.491 375.11 944.793 364.917 933.308C363.802 932.052 363.454 930.1 362.786 928.097C368.546 934.396 373.938 941.401 380.072 947.663C389.055 956.834 398.521 965.525 407.875 974.32C413.947 980.03 420.525 985.227 426.281 991.237C441.139 1006.75 457.768 1020.02 475.446 1032.53Z" fill="#D5C564"/>
<path d="M1018.71 522.265C1015.82 506.19 1012.99 490.103 1010 474.048C1009.07 469.063 1008.08 464.027 1006.44 459.253C1002.1 446.642 997.418 434.149 992.804 421.635C991.239 417.39 989.761 413.693 991.751 408.636C993.576 403.995 992.554 398.274 993.217 393.085C993.91 387.659 995.117 382.301 996.644 377.031C997.537 377.383 997.884 377.617 998.231 377.85C996.342 389.594 993.646 401.288 992.936 413.104C992.624 418.296 996.476 423.696 998.228 429.071C1001.91 440.367 1005.59 451.666 1009.01 463.047C1011.39 471.015 1013.72 479.041 1015.37 487.187C1017.47 497.586 1018.86 508.132 1020.27 519.239C1019.56 520.664 1019.13 521.464 1018.71 522.265Z" fill="#D2C263"/>
<path d="M516.641 558.636C513.563 554.189 509.825 554.821 505.589 557.475C504.811 557.963 503.284 557.23 501.955 556.689C510.397 553.604 518.986 550.889 527.995 548.502C528.716 549.619 529.017 550.409 529.317 551.198C530.99 558.47 532.662 565.741 534.436 573.459C532.449 574.517 529.763 575.947 526.218 577.834C523.389 569.838 520.562 561.846 517.735 553.854C517.488 553.818 517.241 553.781 516.994 553.745C516.878 555.227 516.763 556.709 516.641 558.636Z" fill="#EBEAE8"/>
<path d="M830.592 738.076C830.288 737.622 830.314 737.413 830.354 736.889C844.71 736.572 859.068 736.991 873.387 736.415C882.378 736.053 891.299 734.108 900.27 733.041C906.62 732.285 913.173 732.528 919.33 731.036C928.159 728.894 936.709 725.577 945.768 723.06C946.158 723.771 946.159 724.182 946.16 724.594C935.392 727.901 924.777 731.913 913.822 734.366C892.164 739.216 870.098 740.217 847.959 739.366C842.275 739.148 836.601 738.676 830.592 738.076Z" fill="#DDCF7B"/>
<path d="M529.622 550.976C529.017 550.409 528.716 549.62 528.366 548.505C535.593 543.898 543.071 539.922 550.059 535.204C553.593 532.819 556.963 529.535 559.15 525.887C565.017 516.099 570.617 506.097 575.551 495.802C580.692 485.074 584.923 473.901 589.571 462.93C590.146 461.574 590.837 460.268 591.768 458.708C591.546 461.025 591.47 463.772 590.444 466.088C583.346 482.093 576.389 498.179 568.667 513.876C565.157 521.011 560.81 528.115 555.354 533.762C550.653 538.627 543.998 541.71 537.89 544.975C534.867 546.591 534.266 548.106 535.337 551.106C537.362 556.779 539.193 562.524 540.702 568.664C540.038 569.134 539.777 569.179 539.516 569.224C537.736 564.103 536.043 558.947 534.128 553.878C533.457 552.101 533.582 548.656 529.622 550.976Z" fill="#D2C263"/>
<path d="M528.655 582.384C531.333 580.479 534.179 578.932 537.357 577.205C541.74 584.758 545.812 591.774 549.824 598.687C546.695 601.563 544.126 603.924 541.185 606.627C537.15 598.831 532.987 590.787 528.655 582.384Z" fill="#F0F0EF"/>
<path d="M666.731 336.726C664.954 338.996 663.06 340.922 661.294 342.961C651.703 354.034 641.194 364.458 632.851 376.425C625.082 387.567 619.399 400.242 613.232 412.466C608.157 422.525 603.69 432.899 599.019 443.164C598.078 445.231 597.433 447.435 596.364 449.438C596.052 448.824 596.029 448.347 596.006 447.871C597.904 442.366 599.235 436.572 601.803 431.407C610.792 413.33 619.551 395.077 629.72 377.682C635.259 368.208 643.275 360.159 650.536 351.789C655.34 346.251 660.788 341.284 666.266 335.954C666.614 336.042 666.644 336.238 666.731 336.726Z" fill="#D7C662"/>
<path d="M343.166 900.082C338.262 890.659 332.962 881.421 328.545 871.77C321.951 857.36 315.929 842.68 309.756 828.075C305.067 816.98 300.482 805.839 295.957 794.674C295.363 793.208 295.401 791.48 295.355 789.352C295.802 788.635 295.971 788.392 296.072 788.101C297.922 794.113 299.252 800.355 301.721 806.095C308.889 822.759 316.532 839.214 323.953 855.768C329.035 867.107 334 878.499 339.141 889.811C340.623 893.073 342.531 896.137 343.992 899.672C343.549 900.063 343.357 900.072 343.166 900.082Z" fill="#D2C263"/>
<path d="M174.526 1032.92C180.477 1033.63 181.735 1039.72 185.434 1043.02C195.683 1052.15 205.435 1061.68 218.999 1065.8C221.129 1066.44 222.704 1068.77 224.796 1069.76C234.31 1074.26 243.916 1078.55 253.309 1083.19C252.333 1083.5 251.537 1083.53 250.741 1083.56C240.144 1078.78 229.506 1074.1 218.97 1069.19C214.452 1067.08 209.633 1065.15 205.845 1062.02C195.19 1053.24 184.999 1043.87 174.557 1034.13C174.502 1033.32 174.514 1033.12 174.526 1032.92Z" fill="#D7C662"/>
<path d="M960.884 702.791C966.432 693.17 972.842 683.941 977.339 673.842C985.391 655.755 996.823 639.663 1006.05 621.692C1006.62 621.086 1006.77 620.855 1006.87 620.58C1006.87 620.58 1006.87 620.548 1007.1 620.544C1007.33 620.541 1007.76 620.535 1007.76 620.535C1005.16 626.109 1002.8 631.815 999.905 637.23C993.737 648.771 987.395 660.221 980.931 671.596C975.03 681.979 968.874 692.215 962.237 702.7C961.391 702.854 961.137 702.822 960.884 702.791Z" fill="#D5C564"/>
<path d="M679.079 693.871C679.139 694.471 678.899 694.888 678.556 695.525C653.071 682.98 628.433 668.984 606.188 651.037C605.43 650.425 604.798 649.655 603.976 648.651C608.471 651.205 613.184 653.937 617.706 656.958C624.418 661.442 630.776 666.505 637.679 670.652C650.174 678.159 662.956 685.18 675.634 692.374C676.616 692.931 677.727 693.254 679.079 693.871Z" fill="#D5C564"/>
<path d="M544.152 577.862C545.872 580.504 547.495 583.216 549.327 585.775C556.24 595.431 562.828 605.364 570.306 614.554C575.914 621.446 582.6 627.464 589 633.668C592.981 637.528 597.351 640.976 601.481 644.683C602.415 645.521 603.075 646.67 603.871 648.027C597.769 643.321 591.574 638.364 585.563 633.188C571.896 621.415 561.097 607.086 550.751 592.419C548.048 588.586 546.314 584.055 544.114 579.178C544.113 578.295 544.133 578.079 544.152 577.862Z" fill="#D5C564"/>
<path d="M1008 620.266C1007.76 620.535 1007.33 620.54 1007.12 620.548C1009.07 611.849 1011.5 603.2 1013.29 594.416C1014.55 588.214 1015.01 581.836 1015.7 575.523C1016.54 567.945 1017.24 560.352 1018.51 552.382C1019.45 551.758 1019.88 551.518 1020.32 551.277C1019.42 573.946 1016.4 596.268 1009.59 617.963C1009.36 618.71 1008.7 619.322 1008 620.266Z" fill="#D7C662"/>
<path d="M1003.91 358.63C1010.72 340.723 1017.52 322.816 1024.71 304.485C1025.52 303.814 1025.95 303.567 1026.38 303.32C1021.02 322.136 1014.96 340.69 1005.72 358.515C1004.77 358.733 1004.34 358.681 1003.91 358.63Z" fill="#D5C564"/>
<path d="M451.132 1118.49C458.934 1121.13 466.945 1123.7 474.509 1127.25C482.652 1131.06 490.392 1135.77 498.257 1140.18C498.99 1140.59 499.355 1141.67 499.873 1142.8C483.617 1135.06 467.38 1126.95 451.132 1118.49Z" fill="#D7C662"/>
<path d="M547.792 1164.48C547.145 1164.79 546.257 1164.84 544.929 1164.96C528.043 1161.45 513.016 1154.85 499.973 1143.39C501.849 1144.19 503.848 1145.37 505.938 1146.35C515.682 1150.92 525.399 1155.56 535.235 1159.93C539.197 1161.68 543.437 1162.8 547.792 1164.48Z" fill="#D7C662"/>
<path d="M1026.59 303.046C1025.95 303.567 1025.52 303.814 1024.87 304.158C1028.84 294.231 1033.03 284.207 1037.22 274.184C1038.35 271.494 1039.48 268.807 1040.86 265.894C1041.23 265.954 1041.4 266.195 1041.82 266.51C1036.94 278.675 1031.87 290.724 1026.59 303.046Z" fill="#D2C263"/>
<path d="M1020.44 550.817C1019.88 551.518 1019.45 551.759 1018.76 552.061C1018.56 542.491 1018.6 532.858 1018.67 522.745C1019.13 521.464 1019.56 520.664 1020.19 519.664C1020.45 529.762 1020.51 540.06 1020.44 550.817Z" fill="#DDCF7B"/>
<path d="M360.835 924.536C359.423 924.134 357.422 923.796 356.461 922.602C352.498 917.675 348.782 912.537 345.163 907.342C344.644 906.597 345.153 905.121 345.532 903.812C350.826 910.496 355.775 917.351 360.835 924.536Z" fill="#D7C662"/>
<path d="M647.898 686.784C647.003 689.294 646.202 691.71 644.857 693.761C643.89 695.237 642.197 696.226 640.828 697.433C640.401 697.019 639.973 696.606 639.546 696.193C641.086 692.709 642.626 689.225 644.116 685.379C645.298 685.522 646.529 686.028 647.898 686.784Z" fill="#181510"/>
<path d="M1003.64 358.883C1004.34 358.681 1004.77 358.733 1005.52 358.79C1003.49 364.998 1001.13 371.2 998.501 377.626C997.884 377.616 997.536 377.383 996.99 376.9C997.154 375.242 997.517 373.834 998.17 371.905C998.627 370.845 998.794 370.304 998.962 369.763C1000.43 366.221 1001.9 362.679 1003.64 358.883Z" fill="#DDCF7B"/>
<path d="M948.232 720.867C950.833 717.285 953.401 713.679 956.049 710.133C957.121 708.698 958.366 707.394 959.897 706.167C958.338 710.017 956.414 713.73 954.001 717.443C951.752 718.584 949.992 719.726 948.232 720.867Z" fill="#DDCF7B"/>
<path d="M163.356 1021.35C166.679 1024.41 170.079 1027.81 173.52 1031.8C173.561 1032.38 173.582 1032.86 173.514 1032.93C173.445 1033 173.308 1033.14 173.308 1033.14C170.016 1029.33 166.725 1025.52 163.356 1021.35Z" fill="#D5C564"/>
<path d="M500.492 556.754C497.249 561.775 492.334 560.156 487.326 558.932C491.416 557.97 495.739 557.369 500.492 556.754Z" fill="#EBEAE8"/>
<path d="M948.091 721.052C949.993 719.726 951.753 718.584 953.697 717.617C952.473 721.038 950.912 724.122 946.51 724.583C946.159 724.183 946.158 723.771 946.14 723.052C946.124 722.744 946.153 722.713 946.393 722.625C946.93 722.371 947.124 722.122 947.215 721.791C947.501 721.661 947.746 721.476 948.091 721.052Z" fill="#EBEAE8"/>
<path d="M595.716 448.089C596.028 448.347 596.052 448.823 596.092 449.656C595.026 452.64 593.942 455.268 592.514 457.984C593.255 454.818 594.34 451.563 595.716 448.089Z" fill="#D2C263"/>
<path d="M438.342 1115.7C441.008 1115.42 443.951 1115.45 446.955 1115.81C444.217 1116.1 441.418 1116.05 438.342 1115.7Z" fill="#D2C263"/>
<path d="M542.033 571.947C542.058 572.749 542.082 573.552 542.034 574.752C541.227 573.669 540.492 572.188 540.088 570.345C540.652 569.989 540.886 569.995 541.121 570.001C541.121 570.001 541.191 570.463 541.283 570.911C541.529 571.63 541.748 571.826 542.033 571.947Z" fill="#D2C263"/>
<path d="M960.604 703.045C961.138 702.822 961.391 702.853 962.025 702.931C961.92 703.971 961.434 704.964 960.648 706.083C960.34 705.238 960.332 704.269 960.604 703.045Z" fill="#DDCF7B"/>
<path d="M544.135 577.543C544.133 578.079 544.113 578.295 544.055 578.836C543.408 578.3 542.799 577.44 542.493 576.257C543.195 575.94 543.594 575.946 543.993 575.952C544.035 576.376 544.076 576.8 544.135 577.543Z" fill="#D2C263"/>
<path d="M250.979 1083.83C251.537 1083.53 252.332 1083.5 253.525 1083.47C253.923 1083.46 254.405 1083.5 254.661 1083.73C254.916 1083.97 254.97 1084.39 254.97 1084.39C254.97 1084.39 254.829 1084.54 254.76 1084.62C253.532 1084.49 252.374 1084.3 250.979 1083.83Z" fill="#D2C263"/>
<path d="M343.201 900.394C343.357 900.072 343.549 900.063 344.027 900.033C344.578 900.524 344.842 901.035 345.072 901.848C344.437 901.669 343.837 901.188 343.201 900.394Z" fill="#D7C662"/>
<path d="M294.364 783.641C294.076 783.202 293.787 782.404 293.706 781.389C294.064 781.876 294.213 782.578 294.364 783.641Z" fill="#D2C263"/>
<path d="M362.822 927.466C362.341 927.228 361.823 926.687 361.513 925.945C362.076 926.216 362.431 926.69 362.822 927.466Z" fill="#D7C662"/>
<path d="M294.944 785.751C294.67 785.53 294.439 785.016 294.252 784.207C294.527 784.427 294.757 784.943 294.944 785.751Z" fill="#D2C263"/>
<path d="M543.835 575.685C543.593 575.946 543.194 575.94 542.494 575.932C542.193 575.931 541.92 575.568 541.916 575.34C542.5 575.214 543.088 575.316 543.835 575.685Z" fill="#D5C564"/>
<path d="M174.515 1032.91C174.513 1033.12 174.501 1033.32 174.457 1033.82C174.131 1033.95 173.838 1033.77 173.426 1033.37C173.308 1033.14 173.445 1033 173.738 1032.94C174.032 1032.89 174.482 1032.88 174.482 1032.88C174.482 1032.88 174.505 1032.9 174.515 1032.91Z" fill="#D5C564"/>
<path d="M920.548 740.418C920.717 740.06 921.109 739.903 921.5 739.745C921.545 740.008 921.591 740.271 921.435 740.766C921.08 740.872 920.925 740.746 920.548 740.418Z" fill="#F0F0EF"/>
<path d="M296.001 787.936C295.972 788.393 295.802 788.636 295.372 788.939C295.213 788.81 295.247 788.572 295.432 788.005C295.584 787.677 295.929 787.77 296.001 787.936Z" fill="#D5C564"/>
<path d="M717.301 720.258C717.188 720.316 717.103 720.101 717.103 720.101C717.103 720.101 717.413 720.201 717.301 720.258Z" fill="#F0F0EF"/>
<path d="M541.131 569.746C540.887 569.995 540.653 569.989 540.067 569.973C539.714 569.962 539.498 569.625 539.507 569.424C539.778 569.179 540.039 569.134 540.693 569.037C541.104 569.154 541.123 569.323 541.131 569.746Z" fill="#D5C564"/>
<path d="M716.64 104.078C716.188 112.346 716.617 120.555 720.807 127.881C723.057 131.814 726.577 134.997 728.888 138.903C730.146 141.031 730.404 143.946 730.531 146.536C730.753 151.082 730.659 155.656 730.461 160.208C730.059 169.481 729.944 178.798 728.908 188.005C727.1 204.08 724.678 220.084 722.532 236.121C722.141 239.039 721.837 241.968 721.449 245.32C721.142 243.158 720.879 240.569 720.634 237.564C721.747 227.553 722.404 217.88 724.034 208.378C727.09 190.556 729.116 172.7 728.561 154.581C728.461 151.333 729.45 148.011 729.086 144.823C728.814 142.441 727.732 139.618 726.052 138.022C715.39 127.895 712.929 115.428 715.356 101.5C715.969 102.383 716.305 103.23 716.64 104.078Z" fill="#D5C564"/>
<path d="M716.913 103.821C716.305 103.23 715.969 102.383 715.596 101.175C720.745 77.0276 747.323 64.791 766.984 77.2298C769.114 78.5772 770.773 80.6856 772.701 82.784C771.273 82.5393 769.551 82.2653 768.356 81.3138C759.692 74.413 750.12 72.6756 739.722 76.1282C737.998 76.7005 736.663 78.4951 735.175 79.7559C734.71 80.1498 734.408 80.8925 733.899 81.0583C723.067 84.5843 719.346 93.4757 716.913 103.821Z" fill="#D7C662"/>
<path d="M764.773 142.263C761.459 142.174 761.177 140.493 763.066 137.956C764.038 136.65 765.241 135.438 765.869 133.977C766.391 132.763 766.226 131.248 766.367 129.847C775.907 129.913 776.716 121.507 778.308 115.614C779.922 109.638 778.714 102.837 778.438 96.4112C778.359 94.5766 777.218 92.7888 776.996 90.5231C777.699 89.9951 777.971 89.9236 778.243 89.8521C783.197 99.5544 783.001 109.426 779.427 119.515C776.892 126.669 772.328 132.133 766.659 136.937C765.474 137.942 765.323 140.195 764.773 142.263Z" fill="#D2C263"/>
<path d="M778.177 89.5483C777.972 89.9236 777.7 89.9951 777.014 90.142C776.262 89.4378 775.923 88.6581 775.817 87.6667C776.506 87.7099 776.961 87.9648 777.416 88.2198C777.648 88.5613 777.879 88.9029 778.177 89.5483Z" fill="#D7C662"/>
<path d="M777.411 87.8988C776.961 87.9649 776.506 87.71 775.815 87.3461C775.573 87.0388 775.566 86.8405 775.599 86.3469C776.229 86.5605 776.818 87.0692 777.411 87.8988Z" fill="#D2C263"/>
<path d="M774.637 84.8694C774.412 84.9507 774.107 84.7652 773.721 84.313C773.946 84.2317 774.251 84.4172 774.637 84.8694Z" fill="#D2C263"/>
<path d="M773.657 83.8767C773.432 83.958 773.127 83.7726 772.74 83.3204C772.965 83.239 773.271 83.4245 773.657 83.8767Z" fill="#D2C263"/>
<path d="M775.611 85.8691C775.384 85.9492 775.081 85.7605 774.699 85.3055C774.925 85.2263 775.231 85.4132 775.611 85.8691Z" fill="#D2C263"/>
<path d="M843.167 309.829C837.529 309.209 831.814 307.889 826.027 307.334C810.201 305.817 794.357 304.418 778.493 303.385C770.566 302.869 764.504 299.175 761.709 291.557C755.504 274.652 751.864 257.256 751.905 239.128C751.917 233.553 750.98 227.97 751.085 222.402C751.413 205.148 752.717 187.975 756.546 171.091C757.031 168.953 757.597 166.833 758.5 164.61C757.86 172.271 756.69 180.009 755.871 187.784C754.978 196.256 753.869 204.759 753.825 213.254C753.755 226.993 753.814 240.798 755.062 254.458C756.218 267.106 758.561 279.756 763.969 291.424C766.747 297.419 770.964 301.577 778.533 301.321C798.849 300.635 818.872 303.527 838.758 307.437C840.265 307.734 841.627 308.781 843.167 309.829Z" fill="#D7C662"/>
<path d="M897.177 334.034C886.503 326.352 873.93 322.992 861.977 318.222C855.749 315.737 849.5 313.305 843.239 310.483C849.817 312.17 856.605 313.753 862.975 316.374C874.627 321.17 886.031 326.579 897.767 332.234C897.722 333.168 897.449 333.601 897.177 334.034Z" fill="#D7C662"/>
<path d="M758.959 160.639C759.094 159.765 759.229 158.891 759.908 157.807C760.834 157.547 761.216 157.498 761.598 157.449C761.598 157.449 761.655 157.505 761.684 157.533C761.32 159.317 760.928 161.072 760.227 162.736C759.598 161.976 759.279 161.308 758.959 160.639Z" fill="#D2C263"/>
<path d="M897.216 334.399C897.45 333.6 897.723 333.167 898.016 332.465C898.541 332.491 899.045 332.787 899.549 333.227C899.243 334.148 898.936 334.926 898.63 335.704C898.172 335.39 897.713 335.077 897.216 334.399Z" fill="#D2C263"/>
<path d="M758.921 161.057C759.279 161.308 759.599 161.976 759.973 163.033C759.915 163.713 759.705 163.876 759.192 163.955C758.953 163.159 758.918 162.317 758.921 161.057Z" fill="#D7C662"/>
<path d="M1040.86 208.094C1041.29 209.816 1041.46 211.543 1041.67 213.658C1036.51 213.427 1034.61 217.772 1032.96 222.565C1028.26 236.203 1020.9 248.549 1014.34 261.277C1013.96 262 1013.39 262.619 1013.04 263.351C1010.51 268.618 1008.02 273.903 1005.22 279.354C1004.88 278.973 1004.83 278.42 1004.72 277.456C1009.49 267.271 1014.44 257.554 1019.12 247.705C1023.45 238.57 1027.36 229.222 1031.75 220.112C1033.57 216.321 1036.15 212.902 1038.93 209.154C1039.78 208.873 1040.01 208.669 1040.17 208.38C1040.31 208.286 1040.46 208.193 1040.86 208.094Z" fill="#D7C662"/>
<path d="M1039.68 204.02C1040.78 204.538 1042.13 205.311 1043.48 206.083C1042.91 206.766 1042.35 207.448 1041.43 208.113C1040.7 206.822 1040.32 205.548 1039.68 204.02Z" fill="#D2C263"/>
<path d="M1039.92 208.385C1040.01 208.669 1039.78 208.874 1039.25 209.041C1039.13 208.757 1039.35 208.524 1039.92 208.385Z" fill="#D2C263"/>
<path d="M761.63 157.226C761.217 157.498 760.835 157.547 760.165 157.589C760.284 157.268 760.692 156.955 761.365 156.598C761.631 156.555 761.662 157.004 761.63 157.226Z" fill="#D7C662"/>
<path d="M546.286 788.281C549.588 784.747 552.262 784.553 555.223 788.409C557.8 791.764 560.921 794.691 564.634 798.707C557.624 803.743 550.742 809.208 543.369 813.882C526.043 824.864 506.432 829.417 486.736 833.587C485.139 833.926 483.297 833.832 481.997 834.642C480.628 835.494 478.89 837.154 478.836 838.523C478.461 848.081 478.331 857.659 478.535 867.222C478.566 868.681 480.466 870.877 481.949 871.377C485.95 872.727 490.171 873.472 494.347 874.213C497.237 874.726 498.314 876.159 497.615 879.008C497.537 879.328 497.492 879.656 497.432 879.981C494.833 894 494.835 893.994 481.18 891.11C475.907 889.997 470.648 888.803 465.346 887.858C461.265 887.131 459.405 884.811 459.435 880.721C459.572 862.239 459.733 843.758 459.797 825.276C459.811 821.188 462.455 819.97 465.626 819.145C478.585 815.77 491.591 812.569 504.5 809.008C519.596 804.845 533.686 798.471 546.286 788.281Z" fill="#086FE6"/>
<path d="M642.67 901.854C647.814 899.456 649.955 901.426 651.267 906.245C653.344 913.875 655.886 921.383 658.436 928.871C659.688 932.547 658.525 934.805 655.366 936.64C639.658 945.769 623.958 954.912 608.339 964.197C604.468 966.498 601.864 964.811 599.308 962.175C590.966 953.572 582.61 944.983 574.321 936.328C561.79 923.244 547.683 912.512 530.6 906.214C527.942 905.234 527.012 903.72 527.849 900.935C528.797 897.779 529.914 894.606 530.294 891.361C530.824 886.835 532.392 886.01 536.692 887.609C558.025 895.538 575.798 908.572 591.022 925.409C595.206 930.037 599.503 934.572 603.473 939.381C605.602 941.96 607.312 942.725 610.42 940.792C617.784 936.211 625.28 931.818 632.925 927.738C636.486 925.837 636.989 923.692 635.596 920.195C634.258 916.836 633.513 913.238 632.22 909.858C631.081 906.88 631.691 905.192 634.844 904.377C637.369 903.725 639.82 902.779 642.67 901.854Z" fill="#086FE6"/>
<path d="M600.187 763.308C599.379 764.179 598.845 764.807 598.258 765.38C595.613 767.96 592.952 770.524 590.297 773.094C586.213 769.35 582.046 765.69 578.155 761.751C577.698 761.288 578.396 758.964 579.182 758.051C584.97 751.324 590.94 744.757 596.802 738.094C599.122 735.458 601.63 735.067 604.641 736.845C620.44 746.172 636.252 755.477 652.084 764.746C655.31 766.635 655.953 769.144 654.939 772.698C651.499 784.756 648.228 796.864 644.955 808.971C640.254 826.356 637.984 843.936 641.275 861.882C641.752 864.488 641.214 865.861 638.496 866.535C633.64 867.739 628.862 869.262 623.099 870.926C622.218 863.26 621.148 856.458 620.702 849.615C619.23 827.066 624.739 805.71 631.975 784.674C634.693 776.771 634.651 776.733 627.546 772.506C621.491 768.904 615.255 765.588 609.393 761.693C605.665 759.216 602.929 759.197 600.187 763.308Z" fill="#086FE6"/>
<path d="M546.325 767.009C545.064 765.68 543.919 764.706 543.041 763.53C540.915 760.681 538.589 760.845 535.805 762.531C528.677 766.845 521.59 771.254 514.254 775.18C510.494 777.192 509.99 779.642 511.283 783.249C512.502 786.648 513.408 790.167 514.719 793.526C515.851 796.424 514.832 797.847 512.136 798.64C508.851 799.605 505.588 800.648 502.315 801.651C498.826 802.721 496.969 801.545 495.887 797.861C493.477 789.662 490.665 781.584 487.968 773.472C486.741 769.785 488.909 767.948 491.597 766.37C502.869 759.75 514.15 753.148 525.424 746.531C529.226 744.3 533.146 742.24 536.778 739.752C541.246 736.69 544.672 737.45 548.297 741.344C557.574 751.308 566.961 761.177 576.573 770.809C587.686 781.946 600.443 790.725 615.17 796.296C618.766 797.657 620.172 799.436 618.599 803.26C617.732 805.368 617.282 807.67 616.799 809.919C615.214 817.305 615.207 817.401 608.437 814.776C592.441 808.574 577.962 799.858 565.779 787.575C559.221 780.962 552.958 774.05 546.325 767.009Z" fill="#7AC4F8"/>
<path d="M555.378 930.205C559.987 933.636 564.347 937.146 568.494 940.896C568.984 941.339 568.731 943.474 568.109 944.19C562.1 951.102 555.833 957.785 549.871 964.737C547.282 967.755 544.533 967.694 541.611 965.992C525.933 956.857 510.302 947.641 494.685 938.401C491.403 936.459 490.821 933.767 491.928 929.959C495.921 916.221 499.851 902.45 503.25 888.553C507.069 872.941 508.456 857.074 505.52 841.099C505.017 838.365 505.516 837.196 508.249 836.569C512.054 835.697 515.792 834.487 519.503 833.253C522.528 832.248 523.903 832.944 524.468 836.37C528.382 860.098 526.287 883.275 518.718 906.016C516.848 911.634 514.831 917.221 513.39 922.953C513.019 924.428 514.076 927.208 515.335 928.01C523.054 932.926 531.069 937.363 538.877 942.14C541.702 943.869 543.244 943.395 545.291 940.713C548.159 936.957 551.77 933.781 555.378 930.205Z" fill="#7AC4F8"/>
<path d="M615.875 905.192C610.129 909.003 604.527 912.396 599.29 916.289C596.631 918.266 594.792 918.45 592.603 915.961C589.57 912.512 586.429 909.159 582.825 905.207C584.568 903.653 586.716 901.518 589.081 899.664C605.149 887.066 622.905 878.123 642.99 874.121C650.014 872.721 656.995 871.022 663.884 869.058C665.429 868.617 667.54 866.558 667.63 865.13C668.211 855.925 668.201 846.683 668.612 837.464C668.758 834.187 667.528 832.601 664.432 831.999C660.436 831.221 656.495 830.159 652.505 829.352C649.433 828.73 648.473 826.978 649.203 824.01C650.068 820.495 650.891 816.969 651.691 813.439C652.238 811.019 653.166 809.731 656.097 810.406C664.656 812.377 673.272 814.099 681.889 815.805C685.536 816.527 687.177 818.609 687.167 822.317C687.121 840.817 687.096 859.317 687.125 877.817C687.131 881.599 685.286 883.376 681.769 884.285C667.093 888.075 652.365 891.71 637.854 896.074C630.411 898.312 623.385 901.967 615.875 905.192Z" fill="#7AC4F8"/>
<path d="M715.446 480.793C714.411 481.407 713.376 482.021 711.774 482.703C710.988 483.043 710.769 483.314 710.551 483.586C710.551 483.586 710.68 483.609 710.232 483.597C708.501 483.751 707.207 483.851 705.937 484.09C691.108 486.87 678.492 481.977 671.648 470.45C657.669 446.908 674.239 413.627 699.24 412.027C709.468 411.372 718.732 412.341 726.1 419.794C729.543 423.276 731.738 428.02 734.413 432.589C735.025 437.69 735.724 442.393 736.284 447.456C734.253 455.637 732.615 463.617 726.873 469.711C723.236 473.571 719.266 477.11 715.446 480.793Z" fill="#030302"/>
<path d="M869.246 486.327C882.453 478.001 905.414 483.489 913.648 497.585C918.683 506.205 918.519 514.599 918.561 523.449C918.606 532.769 914.068 540.377 908.818 547.685C900.84 558.792 889.916 564.254 876.649 563.877C861.964 563.46 852.606 554.625 848.115 542.3C844.726 532.996 844.031 523.285 847.276 513.828C851.253 502.237 857.554 492.244 869.246 486.327ZM868.998 560.473C871.368 560.972 873.739 561.91 876.106 561.898C888.239 561.835 898.232 557.576 906.106 547.621C917.708 532.954 920.19 517.624 912.276 500.465C904.895 484.464 886.112 481.566 872.521 486.919C857.292 492.918 844.643 515.381 847.891 532.513C850.34 545.431 855.533 555.42 868.998 560.473Z" fill="#D5C564"/>
<path d="M734.5 432.193C731.739 428.02 729.544 423.276 726.101 419.794C718.733 412.341 709.468 411.372 699.241 412.026C674.239 413.627 657.67 446.908 671.648 470.45C678.493 481.977 691.108 486.87 705.937 484.089C707.207 483.851 708.502 483.75 710.221 483.532C706.693 484.763 702.727 487.104 698.764 487.098C691.84 487.088 684.844 485.978 679.116 481.105C678.321 480.428 676.693 480.754 674.728 480.535C672.066 475.016 668.004 469.039 666.238 462.435C662.183 447.27 665.162 433.598 676.219 421.64C685.518 411.583 696.555 408.063 709.557 409.471C719.619 410.56 734.928 419.493 735.094 431.794C734.892 432.193 734.5 432.193 734.5 432.193Z" fill="#D7C662"/>
<path d="M912.736 594.856C912.008 601.104 905.718 606.109 898.293 606.603C882.255 607.669 866.843 605.361 852.599 597.405C848.345 595.029 844.558 592.078 842.392 587.35C840.712 583.684 841.106 578.357 844.557 576.274C848.376 573.97 852.683 571.839 857.01 571.169C873.233 568.657 888.074 574.292 902.402 580.895C907.629 583.304 911.842 587.947 912.736 594.856ZM902.453 583.764C894.358 580.525 886.483 576.346 878.099 574.334C870.972 572.624 863.242 572.99 855.813 573.294C852.614 573.425 849.16 575.228 846.44 577.16C843.386 579.329 842.001 582.951 844.403 586.477C846.268 589.216 848.537 591.956 851.231 593.788C864.862 603.056 880.247 605.428 896.292 604.629C901.999 604.345 908.099 603.142 910.261 597.372C912.567 591.215 907.126 587.68 902.453 583.764Z" fill="#D7C662"/>
<path d="M639.249 501.43C639.037 490.422 650.159 488.332 658.917 488.874C672.239 489.699 684.013 495.44 695.439 501.392C699.079 503.289 701.299 509.433 702.547 514.079C703.467 517.502 697.754 522.696 693.348 523.414C689.201 524.09 684.943 524.042 680.743 524.414C678.805 524.586 676.423 525.896 675.035 525.161C663.835 519.23 649.925 518.343 641.594 507.107C640.478 505.602 640.016 503.601 639.249 501.43ZM655.791 515.064C667.813 520.966 680.267 524.323 693.676 521.138C700.145 519.601 702.377 513.21 697.923 508.489C695.01 505.402 691.465 502.801 687.87 500.517C676.74 493.446 664.486 490.706 651.39 491.433C646.6 491.699 643.779 493.956 641.869 498.455C640.056 502.727 642.508 505.31 644.837 507.491C647.874 510.335 651.669 512.35 655.791 515.064Z" fill="#D7C662"/>
<path d="M745.081 542.247C743.92 541.441 742.192 540.899 741.687 539.788C736.679 528.781 734.451 517.255 737.456 505.333C738.428 501.477 740.553 497.565 743.181 494.617C744.828 492.77 748.479 491.738 751.084 491.978C757.306 492.549 763.226 493.972 768.75 497.877C778.254 504.597 789.339 507.999 800.622 510.589C804.858 511.561 809.027 512.827 813.45 514.553C813.649 515.367 813.626 515.586 813.213 515.693C807.304 514.35 801.706 513.391 796.279 511.828C785.31 508.671 774.767 504.569 765.141 498.082C759.807 494.487 753.292 492.706 747.077 494.928C744.559 495.829 742.66 499.658 741.313 502.551C734.865 516.403 738.877 529.227 745.48 541.821C745.347 541.963 745.081 542.247 745.081 542.247Z" fill="#D2C263"/>
<path d="M813.601 515.804C813.626 515.585 813.649 515.367 813.702 514.819C820.353 515.019 824.392 519.292 824.519 525.805C824.782 539.279 816.371 547.215 806.6 554.109C804.015 555.933 800.748 556.767 797.421 557.792C797.043 557.353 797.037 557.18 797.248 556.747C805.907 552.959 812.712 547.401 818.337 540.097C825.554 530.726 823.547 519.694 813.601 515.804Z" fill="#D7C662"/>
<path d="M797.033 557.006C797.038 557.18 797.043 557.353 797.051 557.787C789.284 562.517 781.143 560.949 772.958 559.71C761.382 557.957 752.041 552.591 745.148 542.575C745.081 542.247 745.348 541.963 745.782 541.961C747.279 542.961 748.241 544.106 749.42 544.938C754.282 548.368 758.807 552.778 764.199 554.845C774.73 558.88 785.83 560.352 797.033 557.006Z" fill="#D2C263"/>
<path d="M715.827 480.783C719.266 477.11 723.236 473.571 726.873 469.711C732.615 463.617 734.253 455.637 736.491 447.631C736.976 447.963 737.114 448.479 737.252 448.996C737.252 448.996 737.239 449.037 736.967 449.305C736.551 451.031 736.407 452.489 736.263 453.948C735.127 460.896 732.448 467.254 727.56 472.203C724.258 475.546 720.025 477.949 715.827 480.783Z" fill="#D2C263"/>
<path d="M737.53 448.712C737.113 448.479 736.975 447.963 736.63 447.271C735.724 442.393 735.025 437.69 734.412 432.589C734.498 432.193 734.891 432.193 735.087 432.194C737.97 437.312 739.131 442.672 737.53 448.712Z" fill="#D5C564"/>
<path d="M736.528 453.703C736.407 452.489 736.551 451.031 736.953 449.322C737.072 450.533 736.932 451.995 736.528 453.703Z" fill="#D5C564"/>
<path d="M998.691 369.796C998.795 370.304 998.627 370.845 998.22 371.546C998.126 371.08 998.273 370.454 998.691 369.796Z" fill="#D2C263"/>
<path d="M710.796 483.548C710.769 483.314 710.988 483.043 711.477 482.802C711.512 483.058 711.277 483.284 710.796 483.548Z" fill="#D7C662"/>
<path d="M1006.67 620.674C1006.77 620.855 1006.62 621.086 1006.22 621.381C1006.08 621.182 1006.23 620.942 1006.67 620.674Z" fill="#D7C662"/>
<path d="M541.97 571.73C541.748 571.826 541.529 571.63 541.307 571.144C541.521 571.052 541.744 571.247 541.97 571.73Z" fill="#D5C564"/>
<path d="M946.967 721.83C947.125 722.122 946.93 722.371 946.404 722.607C946.356 722.408 946.538 722.139 946.967 721.83Z" fill="#DDCF7B"/>
<path d="M435.79 1113.29C435.833 1113.58 435.421 1114.04 435.01 1114.04C420.597 1113.99 406.184 1113.89 391.487 1113.51C405.914 1113.23 420.625 1113.24 435.79 1113.29Z" fill="#DDCF7B"/>
<path d="M574.022 1167.84C572.676 1168.02 570.925 1168.17 568.94 1168.05C570.344 1167.8 571.98 1167.8 574.022 1167.84Z" fill="#D7C662"/>
<path d="M583.825 1167.84C582.489 1168.04 580.748 1168.2 578.761 1168.12C580.15 1167.85 581.785 1167.82 583.825 1167.84Z" fill="#D7C662"/>
<path d="M255.292 1084.41C254.971 1084.38 254.917 1083.97 254.901 1083.76C255.433 1083.69 255.981 1083.83 256.715 1084.19C256.472 1084.42 256.042 1084.43 255.292 1084.41Z" fill="#D7C662"/>
<path d="M565.327 1166.83C565.109 1166.99 564.581 1167.12 563.911 1167.05C564.186 1166.83 564.601 1166.82 565.327 1166.83Z" fill="#D7C662"/>
<path d="M174.385 1032.67C174.482 1032.88 174.031 1032.89 173.807 1032.87C173.582 1032.86 173.561 1032.38 173.573 1032.14C173.874 1032.02 174.108 1032.21 174.385 1032.67Z" fill="#D7C662"/>
<path d="M868.651 560.3C855.532 555.42 850.34 545.431 847.891 532.513C844.643 515.381 857.291 492.918 872.52 486.919C886.112 481.566 904.895 484.464 912.275 500.465C920.19 517.624 917.707 532.954 906.106 547.621C898.232 557.576 888.239 561.835 876.106 561.898C873.739 561.91 871.367 560.972 868.651 560.3Z" fill="#030302"/>
<path d="M902.763 583.951C907.126 587.681 912.567 591.216 910.26 597.372C908.099 603.142 901.999 604.345 896.292 604.629C880.247 605.428 864.862 603.056 851.231 593.788C848.537 591.957 846.268 589.216 844.403 586.478C842.001 582.952 843.386 579.329 846.44 577.161C849.16 575.229 852.614 573.425 855.813 573.294C863.242 572.99 870.972 572.624 878.099 574.334C886.483 576.346 894.358 580.525 902.763 583.951ZM898.969 587.271C883.521 577.509 857.514 574.965 848.525 582.94C850.351 584.763 851.891 586.94 853.964 588.266C867.213 596.741 881.845 599.718 897.312 598.419C899.849 598.206 902.242 596.237 904.702 595.079C903.308 592.995 901.927 590.902 900.511 588.833C900.237 588.433 899.825 588.129 898.969 587.271Z" fill="#120C0B"/>
<path d="M655.464 514.893C651.669 512.35 647.873 510.335 644.836 507.491C642.508 505.31 640.055 502.727 641.868 498.455C643.778 493.956 646.6 491.699 651.389 491.433C664.485 490.706 676.739 493.446 687.869 500.517C691.464 502.801 695.01 505.402 697.923 508.489C702.376 513.21 700.144 519.601 693.676 521.138C680.266 524.323 667.812 520.966 655.464 514.893ZM681.167 501.12C678.837 500.43 676.403 499.98 674.196 499.005C666.846 495.755 659.326 496.159 651.758 497.706C650.156 498.034 648.689 499.037 646.254 500.139C648.802 502.515 650.395 504.811 652.576 505.883C659.075 509.074 665.672 512.177 672.492 514.548C677.168 516.174 682.283 517.193 687.194 517.165C689.815 517.15 693.36 514.936 694.792 512.635C696.549 509.811 693.258 508.3 690.942 506.984C687.861 505.233 684.883 503.296 681.167 501.12Z" fill="#130F0D"/>
<path d="M797.247 556.747C785.829 560.352 774.729 558.88 764.198 554.845C758.806 552.778 754.281 548.368 749.42 544.938C748.24 544.106 747.278 542.961 745.914 541.819C738.876 529.227 734.865 516.403 741.313 502.551C742.66 499.658 744.558 495.829 747.076 494.928C753.292 492.706 759.806 494.487 765.141 498.082C774.767 504.569 785.31 508.671 796.278 511.828C801.706 513.391 807.303 514.35 813.212 515.693C823.546 519.694 825.554 530.726 818.337 540.097C812.712 547.401 805.907 552.959 797.247 556.747ZM750.429 537.183C763.536 553.936 784.368 558.101 802.257 547.545C794.794 535.688 785.123 527.648 776.456 526.15C774.545 528.864 775.333 533.887 768.941 534.263C770.094 530.367 771.059 527.106 772.053 523.744C763.223 521.23 754.24 519.784 744.973 523.549C746.858 528.406 748.44 532.481 750.429 537.183ZM815.599 522.968C814.443 522.462 813.333 521.758 812.126 521.48C794.538 517.418 777.054 513.115 761.982 502.304C760.673 501.365 759.102 500.745 757.581 500.171C750.794 497.607 747.769 498.179 745.865 503.435C744.068 508.395 743.008 513.736 745.332 519.318C757.464 514.298 769.066 516.851 780.468 520.951C792.081 525.127 801.07 532.784 808.297 543.926C810.927 540.261 813.847 536.936 815.874 533.125C817.394 530.269 819.232 526.807 815.599 522.968Z" fill="#130F0D"/>
<path d="M899.222 587.525C899.824 588.129 900.235 588.433 900.509 588.833C901.926 590.902 903.307 592.995 904.701 595.079C902.241 596.237 899.848 598.206 897.311 598.419C881.844 599.718 867.212 596.741 853.963 588.266C851.89 586.94 850.349 584.763 848.523 582.94C857.513 574.965 883.52 577.509 899.222 587.525Z" fill="#D88FB2"/>
<path d="M681.515 501.28C684.884 503.296 687.862 505.233 690.943 506.984C693.259 508.3 696.55 509.811 694.793 512.635C693.361 514.936 689.816 517.15 687.195 517.165C682.284 517.193 677.169 516.174 672.493 514.548C665.673 512.177 659.076 509.074 652.577 505.883C650.396 504.811 648.803 502.515 646.255 500.139C648.69 499.037 650.157 498.034 651.759 497.706C659.327 496.159 666.847 495.755 674.197 499.005C676.404 499.98 678.838 500.43 681.515 501.28Z" fill="#D88FB2"/>
<path d="M750.226 536.869C748.44 532.481 746.858 528.406 744.973 523.549C754.24 519.784 763.223 521.23 772.053 523.744C771.059 527.106 770.094 530.367 768.941 534.263C775.333 533.887 774.545 528.864 776.456 526.15C785.123 527.648 794.794 535.688 802.257 547.545C784.368 558.101 763.536 553.936 750.226 536.869Z" fill="#DA8FB3"/>
<path d="M815.862 523.26C819.233 526.807 817.394 530.269 815.875 533.125C813.847 536.936 810.928 540.261 808.297 543.926C801.07 532.784 792.081 525.127 780.468 520.951C769.066 516.851 757.465 514.298 745.333 519.318C743.008 513.736 744.068 508.395 745.865 503.435C747.769 498.179 750.794 497.607 757.582 500.171C759.102 500.745 760.673 501.365 761.982 502.304C777.054 513.115 794.538 517.418 812.127 521.48C813.333 521.758 814.444 522.462 815.862 523.26Z" fill="#F0F0EF"/>
</svg>
