<svg width="24" height="24" viewBox="0 0 24 24" fill="none" xmlns="http://www.w3.org/2000/svg">
<path d="M10.9998 5C10.9998 4.73478 11.1051 4.48043 11.2927 4.29289C11.4802 4.10536 11.7346 4 11.9998 4C12.265 4 12.5193 4.10536 12.7069 4.29289C12.8944 4.48043 12.9998 4.73478 12.9998 5V12.158L16.2428 8.915L17.6568 10.329L11.9998 15.986L6.34277 10.33L7.75677 8.916L10.9998 12.158V5Z" fill="black"/>
<path d="M4 14H6V18H18V14H20V18C20 18.5304 19.7893 19.0391 19.4142 19.4142C19.0391 19.7893 18.5304 20 18 20H6C5.46957 20 4.96086 19.7893 4.58579 19.4142C4.21071 19.0391 4 18.5304 4 18V14Z" fill="black"/>
</svg>
