<svg width="57" height="76" viewBox="0 0 57 76" fill="none" xmlns="http://www.w3.org/2000/svg">
<g clip-path="url(#clip0_275_7518)">
<path d="M18.4808 70.4179C21.4303 71.6215 24.6301 72.336 27.9898 72.4549C32.5368 72.6159 36.8606 71.6625 40.7262 69.8515C36.0908 68.0047 31.8927 65.304 28.3099 61.9458C25.9874 65.717 22.5524 68.6954 18.4808 70.4179Z" fill="#FF9100"/>
<path d="M28.3092 61.947C20.1306 54.2762 15.1691 43.1736 15.5884 30.9961C15.6021 30.6007 15.6226 30.2055 15.6467 29.8104C14.1819 29.4262 12.6528 29.1918 11.0791 29.136C8.82648 29.0562 6.64503 29.3396 4.58557 29.9277C2.40232 33.8061 1.08481 38.2562 0.920683 43.0225C0.497097 55.324 7.83767 66.0724 18.4802 70.4191C22.5517 68.6967 25.9867 65.7215 28.3092 61.947Z" fill="#FFC400"/>
<path d="M28.3095 61.9465C30.211 58.8605 31.3639 55.2426 31.4981 51.3448C31.8512 41.0914 25.0543 32.2711 15.6471 29.8098C15.623 30.2049 15.6024 30.6001 15.5888 30.9955C15.1694 43.1731 20.1309 54.2757 28.3095 61.9465Z" fill="#FF9100"/>
<path d="M30.4461 0.988525C25.0884 5.34136 20.8576 11.0809 18.2979 17.6928C16.8324 21.48 15.9115 25.5481 15.6426 29.8124C25.0499 32.2737 31.8468 41.0941 31.4938 51.3475C31.3595 55.2453 30.2033 58.8595 28.3052 61.9492C31.8879 65.3106 36.0861 68.0081 40.7215 69.8549C50.0254 65.4936 56.6266 56.1083 57.009 45.0076C57.2565 37.8153 54.5317 31.4053 50.6813 25.9946C46.6152 20.2723 30.4461 0.988525 30.4461 0.988525Z" fill="#DD2C00"/>
</g>
<defs>
<clipPath id="clip0_275_7518">
<rect width="57" height="75" fill="white" transform="translate(0 0.5)"/>
</clipPath>
</defs>
</svg>
