<svg width="125" height="126" viewBox="0 0 125 126" fill="none" xmlns="http://www.w3.org/2000/svg">
<g clip-path="url(#clip0_275_7787)">
<path d="M62.5 0.5C27.9688 0.5 0 29.1952 0 64.586C0 92.9062 17.9062 116.922 42.7344 125.389C45.8594 125.993 47.0052 124.009 47.0052 122.308C47.0052 120.786 46.9531 116.754 46.9271 111.411C29.5417 115.275 25.875 102.814 25.875 102.814C23.0312 95.4171 18.9219 93.4388 18.9219 93.4388C13.2604 89.4661 19.3594 89.5476 19.3594 89.5476C25.6354 89.9932 28.9323 96.1507 28.9323 96.1507C34.5052 105.95 43.5625 103.118 47.1354 101.482C47.6979 97.3355 49.3073 94.5149 51.0938 92.9117C37.2135 91.3084 22.625 85.7976 22.625 61.2437C22.625 54.2492 25.0469 48.5319 29.0573 44.0483C28.3542 42.4287 26.2448 35.9125 29.6042 27.0866C29.6042 27.0866 34.8385 25.3692 46.7917 33.6571C51.7917 32.2332 57.1042 31.5267 62.4167 31.4941C67.7292 31.5267 73.0417 32.2332 78.0417 33.6571C89.9167 25.3692 95.151 27.0866 95.151 27.0866C98.5104 35.9125 96.401 42.4287 95.776 44.0483C99.7604 48.5319 102.182 54.2492 102.182 61.2437C102.182 85.8629 87.5729 91.2812 73.6667 92.8573C75.8542 94.7812 77.8854 98.7105 77.8854 104.716C77.8854 113.292 77.8073 120.183 77.8073 122.264C77.8073 123.944 78.901 125.949 82.1042 125.308C107.109 116.895 125 92.8627 125 64.586C125 29.1952 97.0156 0.5 62.5 0.5Z" fill="black"/>
</g>
<defs>
<clipPath id="clip0_275_7787">
<rect width="125" height="125" fill="white" transform="translate(0 0.5)"/>
</clipPath>
</defs>
</svg>
