<svg width="90" height="90" viewBox="0 0 90 90" fill="none" xmlns="http://www.w3.org/2000/svg">
<g clip-path="url(#clip0_182_1205)">
<path d="M87.0862 61.1986V38.5102L88.5009 37.7635C89.4206 37.2853 89.9999 36.3374 90.0111 35.2997C90.0224 34.2646 89.4613 33.3056 88.5528 32.8064L46.2388 10.1658C45.3923 9.70176 44.3685 9.70448 43.5163 10.1742L1.43425 32.8429C0.538382 33.3422 -0.0155923 34.2899 -0.00996733 35.318C-0.00434233 36.3461 0.56097 37.2868 1.46809 37.7763L19.9589 47.6186C19.7268 48.0278 19.5834 48.4947 19.5834 48.9981V72.7975C19.5835 73.1943 19.6675 73.5866 19.8299 73.9487C19.9923 74.3107 20.2293 74.6344 20.5256 74.8984C21.136 75.4398 26.9804 80.1803 44.8496 80.1803C62.6555 80.1803 68.6574 75.7 69.2832 75.1895C69.9371 74.6565 70.3154 73.8578 70.3154 73.0112V48.6014C70.3154 48.2063 70.2324 47.8308 70.0861 47.4905L81.4613 41.4815V61.2141C79.7935 62.19 78.6629 63.9802 78.6629 66.0502C78.6629 69.1566 81.1815 71.6752 84.2879 71.6752C87.3943 71.6752 89.9129 69.1566 89.9129 66.0502C89.9129 63.9675 88.7667 62.1703 87.0862 61.1986ZM64.6902 71.3996C62.4796 72.4627 56.6296 74.5552 44.8494 74.5552C32.9947 74.5552 27.2769 72.3277 25.2083 71.2561V50.4141L43.4727 60.1369C43.8826 60.3586 44.3412 60.4746 44.8072 60.4744C45.261 60.4748 45.7081 60.3643 46.1094 60.1524L64.6902 50.3382V71.3996ZM44.8297 54.4755L8.65394 35.2661L44.893 15.8443L81.2446 35.2098L44.8297 54.4755Z" fill="#0CA46D"/>
</g>
<defs>
<clipPath id="clip0_182_1205">
<rect width="90" height="90" fill="white"/>
</clipPath>
</defs>
</svg>
