<svg width="85" height="63" viewBox="0 0 85 63" fill="none" xmlns="http://www.w3.org/2000/svg">
<path d="M11.1997 36.1124C11.358 36.2797 11.5487 36.4147 11.7606 36.5096C11.9726 36.6044 12.2016 36.6572 12.4345 36.6649C12.8802 36.6634 13.3087 36.4968 13.634 36.1987L14.1103 35.767L18.9614 40.8264C18.1291 41.7799 17.6927 43.0044 17.7384 44.2578C17.7842 45.5112 18.3087 46.7022 19.2083 47.5952C20.0834 48.4536 21.2523 48.9642 22.4894 49.0284C22.5742 50.2416 23.1072 51.3832 23.9888 52.2401C24.8658 53.0958 26.0336 53.6059 27.2699 53.6733C27.3452 54.8819 27.8654 56.0229 28.7341 56.885C29.611 57.7407 30.7788 58.2508 32.0151 58.3182C32.081 59.2769 32.4274 60.1969 33.0128 60.9683C33.5982 61.7396 34.398 62.3298 35.3167 62.6684C36.2354 63.007 37.2342 63.0797 38.194 62.8778C39.1537 62.676 40.0339 62.208 40.7294 61.5299L41.3468 60.9256L41.929 61.5127C42.4091 61.9841 42.9796 62.3582 43.6077 62.6134C44.2358 62.8686 44.9092 63 45.5893 63C46.2694 63 46.9428 62.8686 47.5709 62.6134C48.199 62.3582 48.7695 61.9841 49.2496 61.5127C50.1419 60.649 50.676 59.4926 50.7491 58.2664C52.0133 58.2 53.2075 57.677 54.1007 56.7987C54.9932 55.9299 55.5218 54.7658 55.5825 53.5351C56.8432 53.4686 58.0354 52.9526 58.9341 52.0847C59.8114 51.1987 60.3369 50.0353 60.4159 48.8039C61.7309 48.733 62.9678 48.1701 63.8707 47.2317C64.7736 46.2932 65.2735 45.0509 65.267 43.7618C65.252 42.7742 64.939 41.8129 64.3673 40.999L69.5359 36.0951L70.1004 36.734C70.2657 36.9182 70.4692 37.0658 70.6973 37.167C70.9254 37.2682 71.1729 37.3208 71.4234 37.3211C71.8522 37.3205 72.2661 37.167 72.5876 36.8894L84.2478 26.857C84.5983 26.5546 84.8119 26.1283 84.8417 25.6718C84.8714 25.2154 84.715 24.766 84.4066 24.4224L63.0972 0.593384C62.944 0.420963 62.7573 0.280033 62.548 0.178767C62.3387 0.0775011 62.1109 0.0179138 61.8779 0.00345799C61.6449 -0.0109978 61.4113 0.0199651 61.1906 0.0945543C60.9699 0.169143 60.7666 0.285875 60.5923 0.437978L48.9498 10.4531C48.7744 10.6031 48.6311 10.7856 48.5282 10.9901C48.4252 11.1946 48.3647 11.417 48.35 11.6445C48.3236 12.0997 48.4821 12.5466 48.791 12.8878L49.7083 13.9238H49.038C45.6021 14.344 42.331 15.6093 39.5299 17.6017L36.9544 15.098L37.3601 14.7354C37.5326 14.5818 37.6722 14.3963 37.771 14.1896C37.8698 13.9828 37.9257 13.759 37.9355 13.531C37.9454 13.303 37.9089 13.0753 37.8283 12.8612C37.7477 12.647 37.6246 12.4507 37.466 12.2834L26.8818 1.16321C26.5937 0.836219 26.1909 0.626754 25.7529 0.576117C25.5214 0.565634 25.2901 0.599887 25.0722 0.676919C24.8543 0.753951 24.654 0.872254 24.4828 1.02507L0.739039 22.5402C0.410488 22.8637 0.226074 23.3014 0.226074 23.7576C0.226074 24.2137 0.410488 24.6514 0.739039 24.9749L11.1997 36.1124ZM21.7838 43.0193L24.2182 40.6364C24.4392 40.4176 24.7216 40.2679 25.0296 40.2064C25.3376 40.1448 25.6573 40.1742 25.9483 40.2907C26.2392 40.4072 26.4883 40.6056 26.6639 40.8608C26.8395 41.116 26.9338 41.4165 26.9348 41.7243C26.9364 41.9289 26.8968 42.132 26.8181 42.3216C26.7394 42.5112 26.6232 42.6838 26.4761 42.8294L23.9888 45.1605C23.6913 45.4504 23.2886 45.6132 22.8687 45.6132C22.4488 45.6132 22.0461 45.4504 21.7485 45.1605C21.4536 44.864 21.29 44.4656 21.2933 44.0518C21.2966 43.638 21.4665 43.2421 21.7662 42.9502L21.7838 43.0193ZM26.0528 48.7693C26.056 48.3538 26.2272 47.9565 26.529 47.6642L28.9634 45.2813C29.1098 45.133 29.2852 45.0151 29.4792 44.9345C29.6731 44.854 29.8817 44.8125 30.0924 44.8125C30.3031 44.8125 30.5116 44.854 30.7056 44.9345C30.8995 45.0151 31.0749 45.133 31.2213 45.2813C31.3678 45.4237 31.4839 45.5932 31.5626 45.78C31.6414 45.9668 31.6813 46.1671 31.68 46.3692C31.6817 46.5739 31.642 46.7769 31.5633 46.9665C31.4846 47.1562 31.3684 47.3287 31.2213 47.4743L28.7517 49.8054C28.5265 50.017 28.2431 50.1598 27.9362 50.2161C27.6294 50.2725 27.3124 50.2401 27.0241 50.1228C26.7358 50.0055 26.4887 49.8085 26.313 49.5558C26.1374 49.3031 26.0408 49.0058 26.0351 48.7003L26.0528 48.7693ZM30.798 53.4143C30.8012 52.9987 30.9725 52.6014 31.2743 52.3092L33.7086 49.9263C33.855 49.7779 34.0304 49.66 34.2244 49.5795C34.4183 49.4989 34.6269 49.4574 34.8376 49.4574C35.0483 49.4574 35.2568 49.4989 35.4508 49.5795C35.6447 49.66 35.8201 49.7779 35.9666 49.9263C36.1131 50.0686 36.2291 50.2382 36.3078 50.4249C36.3866 50.6117 36.4265 50.812 36.4252 51.0141C36.4269 51.2188 36.3872 51.4218 36.3085 51.6114C36.2298 51.8011 36.1136 51.9736 35.9666 52.1192L33.5146 54.5194C33.217 54.8093 32.8143 54.9721 32.3944 54.9721C31.9746 54.9721 31.5718 54.8093 31.2743 54.5194C31.113 54.3681 30.9858 54.1855 30.9007 53.9833C30.8157 53.7811 30.7747 53.5638 30.7803 53.3452L30.798 53.4143ZM36.09 59.1643C35.9385 59.021 35.818 58.8493 35.7357 58.6594C35.6535 58.4696 35.611 58.2654 35.611 58.0592C35.611 57.8529 35.6535 57.6488 35.7357 57.459C35.818 57.2691 35.9385 57.0974 36.09 56.9541L38.5244 54.5712C38.6708 54.4229 38.8462 54.3049 39.0402 54.2244C39.2341 54.1438 39.4427 54.1023 39.6534 54.1023C39.8641 54.1023 40.0726 54.1438 40.2666 54.2244C40.4605 54.3049 40.6359 54.4229 40.7823 54.5712C41.0743 54.8646 41.2378 55.258 41.2378 55.6677C41.2378 56.0773 41.0743 56.4707 40.7823 56.7641L40.2002 57.334L38.3303 59.1643C38.1769 59.3169 37.9929 59.4368 37.7899 59.5166C37.5869 59.5963 37.3693 59.6341 37.1507 59.6276C36.9321 59.6211 36.7171 59.5705 36.5195 59.4789C36.3218 59.3873 36.1455 59.2566 36.0018 59.0952L36.09 59.1643ZM61.5978 4.16773L80.5963 25.3203L71.6174 33.0733L52.6013 11.9208L61.5978 4.16773ZM49.4613 17.4291L51.8075 17.1528C51.9787 17.1333 52.1455 17.0866 52.3014 17.0147H52.4425L67.1897 33.4532L61.8977 38.4262L47.5738 23.6799C47.2944 23.3932 46.9228 23.2092 46.5214 23.1589C46.1199 23.1086 45.7129 23.195 45.3688 23.4036L41.6291 25.7347C40.473 26.4363 39.163 26.8587 37.8072 26.9667C36.4515 27.0748 35.0889 26.8656 33.8321 26.3563L41.2233 20.7444C43.6157 18.9358 46.4612 17.7907 49.4613 17.4291ZM36.6898 19.7602L31.2566 23.8871C30.8139 24.2154 30.4658 24.6505 30.2463 25.1498C30.0268 25.6492 29.9433 26.1958 30.0042 26.7362C30.0539 27.2733 30.2418 27.7893 30.5502 28.2362C30.8587 28.683 31.2777 29.0462 31.7682 29.2917C33.6061 30.1445 35.633 30.5328 37.6637 30.4212C39.6945 30.3096 41.6642 29.7016 43.3931 28.6529L46.0568 27.0297L60.6099 42.0178L61.1921 42.5876C61.3466 42.7358 61.4685 42.9133 61.5504 43.1093C61.6323 43.3053 61.6725 43.5156 61.6684 43.7273C61.6714 43.9388 61.6308 44.1488 61.549 44.3447C61.4672 44.5405 61.3457 44.7181 61.1921 44.8669C60.8818 45.1664 60.4636 45.3343 60.0278 45.3343C59.5921 45.3343 59.1738 45.1664 58.8636 44.8669C58.5337 44.5418 58.0854 44.3582 57.6173 44.3566C57.1492 44.3549 56.6996 44.5354 56.3675 44.8583C56.0353 45.1811 55.8478 45.6199 55.8461 46.0782C55.8444 46.5364 56.0288 46.9765 56.3586 47.3016C56.6744 47.5947 56.8584 47.9986 56.8699 48.4244C56.8815 48.8503 56.7198 49.2631 56.4204 49.5723C56.121 49.8814 55.7084 50.0614 55.2733 50.0728C54.8383 50.0841 54.4165 49.9258 54.1007 49.6327C53.7685 49.3076 53.318 49.1249 52.8482 49.1249C52.3785 49.1249 51.928 49.3076 51.5958 49.6327C51.2636 49.9579 51.077 50.3989 51.077 50.8587C51.077 51.3185 51.2636 51.7595 51.5958 52.0847C51.7494 52.2339 51.8713 52.4115 51.9545 52.6071C52.0377 52.8027 52.0805 53.0125 52.0805 53.2243C52.0805 53.4362 52.0377 53.646 51.9545 53.8416C51.8713 54.0372 51.7494 54.2147 51.5958 54.364C51.2727 54.6455 50.8553 54.8011 50.4227 54.8011C49.9902 54.8011 49.5727 54.6455 49.2496 54.364C48.9122 54.0811 48.4781 53.9333 48.0341 53.9501C47.5902 53.9668 47.169 54.147 46.8549 54.4545C46.5407 54.762 46.3567 55.1743 46.3395 55.6088C46.3224 56.0434 46.4734 56.4683 46.7624 56.7987C47.0333 57.1084 47.1753 57.5066 47.16 57.9141C47.1447 58.3215 46.9733 58.7085 46.6799 58.9979C46.3864 59.2873 45.9925 59.458 45.5763 59.4761C45.1601 59.4941 44.7523 59.3581 44.4339 59.0952L43.7635 58.4391C44.4421 57.4765 44.7538 56.3113 44.6442 55.1468C44.5346 53.9822 44.0106 52.8923 43.1638 52.0674C42.2803 51.2083 41.108 50.6928 39.865 50.6169C39.7894 49.4063 39.2628 48.2649 38.385 47.4089C37.5072 46.5528 36.3392 46.0416 35.1022 45.972C35.0456 44.7658 34.5283 43.6243 33.6528 42.7737C32.7773 41.923 31.6073 41.4252 30.3746 41.3789C30.3089 40.1494 29.7811 38.987 28.8928 38.1154C27.9123 37.2171 26.6196 36.7173 25.2766 36.7173C23.9336 36.7173 22.6409 37.2171 21.6603 38.1154L21.4134 38.3571L16.7564 33.4187L34.3966 17.4118L36.6898 19.7602ZM25.5235 4.73755L33.6733 13.3712L13.0519 32.0718L12.6109 32.4862L4.44349 23.8525L25.5235 4.73755Z" fill="black"/>
</svg>
