<svg width="135" height="135" viewBox="0 0 135 135" fill="none" xmlns="http://www.w3.org/2000/svg">
<g clip-path="url(#clip0_604_1792)">
<path d="M61.4823 60.6749C63.6345 59.1945 65.7877 57.7157 67.9384 56.2333C70.2672 54.6282 72.5909 53.0157 74.9223 51.4145C76.1056 50.602 76.8124 50.7697 77.6597 51.9302C78.8863 53.6103 80.1478 55.2653 81.4146 56.9156C82.0953 57.8024 81.9673 58.7638 81.04 59.4256C75.9927 63.0284 70.9466 66.6326 65.9001 70.2366C64.7593 71.0513 63.6086 71.853 62.4877 72.6943C62.2786 72.8513 62.0676 73.1671 62.0644 73.4123C62.0328 75.7872 62.0454 78.1626 62.0454 80.5942C62.3226 80.6104 62.5611 80.6362 62.7997 80.6365C65.2894 80.6395 67.7798 80.6026 70.2687 80.6495C72.3046 80.6878 74.1331 81.3428 75.5931 82.8206C77.015 84.2596 77.6115 86.0606 77.6381 88.0316C77.6837 91.406 77.6507 94.7815 77.6507 98.1565C77.6507 98.4285 77.6507 98.7005 77.6507 99.0661C77.9927 99.0661 78.2865 99.066 78.5804 99.0661C82.3151 99.0661 86.0497 99.0654 89.7843 99.0664C91.2411 99.0668 91.762 99.575 91.762 100.989C91.762 105.525 91.7577 110.062 91.7669 114.599C91.7682 115.248 91.6427 115.791 90.9504 116.109C81.0779 116.166 71.2242 116.166 61.2774 116.109C60.6027 115.639 60.3912 115.034 60.3897 114.363C60.3797 109.912 60.365 105.461 60.3959 101.011C60.4059 99.576 61.0174 99.0663 62.485 99.0661C63.7155 99.0659 64.946 99.0661 66.1316 99.0661C66.1316 96.6658 66.1316 94.3873 66.1316 92.1299C62.8694 92.1299 59.6708 92.1299 56.4007 92.1299C56.4007 92.4613 56.4007 92.7579 56.4007 93.0545C56.4007 100.159 56.3945 107.263 56.4098 114.368C56.4115 115.127 56.1676 115.715 55.5703 116.166C52.3019 116.166 49.0335 116.166 45.6872 116.166C44.9639 115.648 44.9311 114.95 44.933 114.185C44.9526 106.272 44.945 98.3587 44.945 90.4457C44.945 90.1448 44.945 89.8438 44.945 89.3578C44.385 90.1235 43.9127 90.7521 43.4588 91.3937C42.8616 92.2379 41.7241 92.4237 40.998 91.7077C38.5555 89.299 36.1125 86.8895 33.7265 84.4253C32.2271 82.8768 31.383 81.0288 31.4856 78.796C31.5646 77.0752 32.1643 75.5735 33.2788 74.3112C35.4531 71.8486 37.694 69.4451 39.8956 67.0065C40.5521 66.2794 41.2096 65.5471 41.7954 64.7638C42.5503 63.7543 43.5521 63.5357 44.8483 63.7644C44.2789 62.9226 43.7525 62.2264 43.3147 61.4783C42.6146 60.2818 42.195 58.9775 42.1289 57.5867C42.0484 55.8919 42.2156 54.2573 42.9058 52.6476C44.1951 49.641 46.4531 47.7497 49.5194 46.9755C53.4301 45.988 56.9079 47.038 59.5876 50.0838C61.5635 52.3295 62.4383 55.0171 61.8847 58.0493C61.7405 58.8395 61.5494 59.621 61.3278 60.4905C61.2656 60.6503 61.2553 60.7261 61.245 60.8019C61.3241 60.7596 61.4032 60.7172 61.4823 60.6749ZM77.2496 58.5718C77.6051 58.3186 77.9606 58.0655 78.3778 57.7685C77.5004 56.6011 76.6643 55.4888 75.8134 54.3568C70.1762 58.2603 64.6284 62.0966 59.0937 65.9515C58.8421 66.1268 58.6714 66.4524 58.5257 66.7398C57.3262 69.1059 56.1374 71.4773 54.9552 73.8521C54.6322 74.501 54.2643 75.0507 53.4234 75.0286C52.6258 75.0078 52.2822 74.4668 51.9741 73.851C50.8611 71.6271 49.7264 69.4139 48.6336 67.1802C48.406 66.7149 48.1385 66.5274 47.6196 66.548C46.6529 66.5864 45.6828 66.5367 44.716 66.5735C44.4445 66.5838 44.0973 66.693 43.9241 66.8835C41.0774 70.0134 38.2306 73.1439 35.4327 76.3173C33.9218 78.031 33.9135 80.3485 35.4578 81.9736C37.4957 84.1179 39.6347 86.1661 41.7337 88.2521C41.784 88.3021 41.8753 88.3108 42.0185 88.3662C42.7855 87.296 43.5503 86.2288 44.3298 85.1411C42.8262 83.5683 41.372 82.0548 39.9268 80.5327C39.101 79.6629 39.0759 78.9718 39.883 78.1538C41.651 76.362 43.4303 74.581 45.2314 72.8227C45.4885 72.5716 45.879 72.3669 46.2314 72.3207C47.2407 72.1882 47.7794 72.8566 47.7795 74.1531C47.7807 86.8501 47.7802 99.5471 47.7802 112.244C47.7802 112.591 47.7802 112.938 47.7802 113.292C49.72 113.292 51.5338 113.292 53.4366 113.292C53.4366 112.923 53.4366 112.599 53.4366 112.274C53.4367 105.275 53.4355 98.2765 53.4376 91.2779C53.4381 89.7285 53.912 89.2624 55.4743 89.2619C59.4024 89.2605 63.3304 89.2583 67.2585 89.2635C68.5241 89.2651 69.024 89.7586 69.0278 91.0083C69.035 93.4149 69.0286 95.8215 69.0321 98.2282C69.0325 98.5205 69.0586 98.8129 69.0747 99.1426C70.9712 99.1426 72.782 99.1426 74.6866 99.1426C74.6866 98.8241 74.6866 98.5554 74.6866 98.2866C74.6866 94.9395 74.6041 91.5897 74.7125 88.246C74.8003 85.5375 72.7176 83.4866 70.0633 83.5784C67.0518 83.6826 64.0338 83.6091 61.0186 83.5993C59.6464 83.5948 59.1092 83.06 59.1037 81.6825C59.0919 78.7227 59.1081 75.7627 59.0953 72.8029C59.0915 71.9324 59.4107 71.3046 60.1418 70.786C65.8242 66.7549 71.4866 62.6955 77.2496 58.5718ZM75.2432 102.022C71.3044 102.022 67.3656 102.022 63.4409 102.022C63.4409 105.871 63.4409 109.585 63.4409 113.275C71.9518 113.275 80.3956 113.275 88.8285 113.275C88.8285 109.5 88.8285 105.789 88.8285 102.022C84.3062 102.022 79.8577 102.022 75.2432 102.022ZM46.3765 52.4471C45.3961 53.7577 44.9139 55.2563 44.9806 56.8665C45.154 61.0468 48.577 64.0195 52.7497 63.6924C55.5014 63.4766 57.9345 61.476 58.7868 58.7285C59.613 56.0647 58.7145 52.9801 56.621 51.2942C53.3746 48.6796 49.2593 49.1088 46.3765 52.4471ZM54.0267 69.3898C54.4729 68.4861 54.919 67.5823 55.3995 66.609C54.0772 66.609 52.8642 66.609 51.5053 66.609C52.16 67.9184 52.7649 69.1281 53.4439 70.486C53.6702 70.055 53.8173 69.7748 54.0267 69.3898ZM44.945 78.4363C44.945 78.0903 44.945 77.7443 44.945 77.4203C44.2639 78.075 43.618 78.6959 42.8927 79.3931C43.524 80.0691 44.1643 80.7547 44.945 81.5907C44.945 80.4496 44.945 79.5212 44.945 78.4363Z" fill="#3C3D49"/>
<path d="M103.641 31.166C104.28 31.5979 104.536 32.1506 104.556 32.8807C104.658 36.6123 107.155 40.4014 110.728 41.6174C111.836 41.9947 112.997 42.2826 114.157 42.4265C115.327 42.5717 115.83 42.9017 115.834 43.9315C115.838 44.8416 115.169 45.3144 114.115 45.4691C112.796 45.6629 111.394 45.8168 110.223 46.3885C107.147 47.8909 105.158 50.33 104.708 53.8409C104.65 54.2972 104.575 54.7533 104.55 55.2117C104.504 56.067 103.874 56.7277 103.062 56.7325C102.194 56.7377 101.582 56.1164 101.557 55.1999C101.483 52.515 100.489 50.1835 98.6352 48.2873C97.2414 46.8614 95.505 45.93 93.4946 45.6113C92.7235 45.4891 91.9363 45.4419 91.1801 45.2615C90.4294 45.0823 90.095 44.4085 90.2789 43.5363C90.4228 42.8541 90.8591 42.467 91.5995 42.4519C96.411 42.354 100.28 39.1916 101.333 34.5884C101.483 33.9314 101.516 33.242 101.548 32.5651C101.576 31.9666 101.761 31.5088 102.368 31.2232C102.78 31.166 103.174 31.166 103.641 31.166ZM97.8916 43.7085C97.4615 44.1606 98.0192 44.1618 98.1843 44.3094C99.3924 45.3896 100.65 46.4181 101.813 47.5443C102.308 48.0237 102.614 48.6982 102.995 49.2679C103.819 48.2198 104.515 47.1441 105.402 46.2581C106.287 45.3728 107.363 44.6771 108.427 43.8418C106.117 42.589 104.364 40.7724 103.032 38.4011C101.773 40.6991 100.137 42.42 97.8916 43.7085Z" fill="#3D3D48"/>
<path d="M93.8834 59.6755C91.4298 61.4905 89.0186 63.2617 86.6084 65.0345C85.7841 65.6408 84.9626 66.2509 84.0587 66.9193C83.4582 66.1229 82.8648 65.336 82.2324 64.4974C84.0219 63.1716 85.768 61.8704 87.5222 60.5802C89.9748 58.7762 92.4337 56.9807 94.8893 55.1808C95.3245 54.8618 95.7362 54.503 96.2013 54.2371C96.3613 54.1456 96.7523 54.1962 96.864 54.3286C97.3136 54.8614 97.7175 55.4377 98.086 56.0305C98.1767 56.1766 98.1538 56.5565 98.0418 56.6406C96.6852 57.6583 95.3022 58.6408 93.8834 59.6755Z" fill="#3C3C48"/>
<path d="M82.9217 53.6194C82.6977 53.2779 82.5162 52.9801 82.2835 52.5983C83.348 51.8921 84.4171 51.1841 85.4848 50.4741C87.1385 49.3743 88.8038 48.291 90.4362 47.1604C90.8686 46.861 91.0437 46.8829 91.3073 47.346C91.69 48.0185 92.1727 48.6341 92.6718 49.3597C91.5507 50.1101 90.4641 50.8428 89.372 51.5674C87.7626 52.6351 86.1228 53.6599 84.553 54.7828C84.0474 55.1445 83.8399 55.105 83.5731 54.6103C83.3955 54.2809 83.1689 53.9779 82.9217 53.6194Z" fill="#3C3C48"/>
<path d="M75.2031 69.7853C76.3786 68.8097 77.5732 67.8688 78.8113 66.9891C78.9448 66.8942 79.4247 67.0761 79.5817 67.2647C80.0611 67.8405 80.4613 68.4823 80.9464 69.1757C79.6498 70.1256 78.3195 71.1002 76.9511 72.1027C76.3397 71.2958 75.7873 70.5668 75.2031 69.7853Z" fill="#3C3C48"/>
<path d="M77.2024 58.6085C71.4866 62.6956 65.8242 66.755 60.1418 70.7861C59.4107 71.3047 59.0914 71.9325 59.0952 72.803C59.1081 75.7628 59.0919 78.7228 59.1037 81.6826C59.1092 83.0601 59.6464 83.5949 61.0186 83.5994C64.0337 83.6092 67.0517 83.6827 70.0633 83.5785C72.7176 83.4866 74.8003 85.5376 74.7125 88.2461C74.6041 91.5898 74.6866 94.9396 74.6866 98.2867C74.6866 98.5555 74.6866 98.8242 74.6866 99.1427C72.782 99.1427 70.9712 99.1427 69.0746 99.1427C69.0586 98.813 69.0325 98.5206 69.0321 98.2283C69.0286 95.8216 69.0349 93.415 69.0277 91.0084C69.024 89.7587 68.524 89.2652 67.2585 89.2636C63.3304 89.2584 59.4024 89.2606 55.4743 89.2619C53.912 89.2625 53.4381 89.7286 53.4376 91.278C53.4355 98.2766 53.4366 105.275 53.4366 112.274C53.4366 112.599 53.4366 112.923 53.4366 113.292C51.5338 113.292 49.72 113.292 47.7802 113.292C47.7802 112.939 47.7802 112.591 47.7802 112.244C47.7802 99.5472 47.7806 86.8502 47.7795 74.1532C47.7794 72.8567 47.2407 72.1883 46.2314 72.3207C45.879 72.367 45.4885 72.5717 45.2313 72.8228C43.4303 74.5811 41.651 76.3621 39.883 78.1539C39.0759 78.9719 39.101 79.663 39.9268 80.5327C41.372 82.0548 42.8262 83.5684 44.3298 85.1412C43.5503 86.2289 42.7855 87.296 42.0185 88.3663C41.8753 88.3109 41.784 88.3022 41.7337 88.2522C39.6347 86.1662 37.4956 84.118 35.4578 81.9737C33.9134 80.3486 33.9218 78.0311 35.4326 76.3174C38.2306 73.144 41.0774 70.0135 43.924 66.8836C44.0973 66.6931 44.4445 66.5839 44.716 66.5735C45.6828 66.5368 46.6529 66.5865 47.6196 66.5481C48.1384 66.5275 48.4059 66.715 48.6336 67.1803C49.7264 69.414 50.8611 71.6272 51.974 73.8511C52.2822 74.4669 52.6258 75.0079 53.4234 75.0287C54.2643 75.0508 54.6321 74.5011 54.9552 73.8522C56.1374 71.4774 57.3262 69.106 58.5256 66.7399C58.6713 66.4525 58.8421 66.1269 59.0937 65.9516C64.6284 62.0966 70.1762 58.2604 75.8134 54.3569C76.6642 55.4889 77.5004 56.6012 78.3778 57.7686C77.9606 58.0656 77.6051 58.3187 77.2024 58.6085Z" fill="#63C7CC"/>
<path d="M75.3262 102.022C79.8577 102.022 84.3062 102.022 88.8285 102.022C88.8285 105.789 88.8285 109.5 88.8285 113.276C80.3956 113.276 71.9517 113.276 63.4409 113.276C63.4409 109.585 63.4409 105.871 63.4409 102.022C67.3656 102.022 71.3044 102.022 75.3262 102.022Z" fill="#EE9F35"/>
<path d="M46.414 52.401C49.2593 49.1089 53.3746 48.6797 56.621 51.2942C58.7144 52.9802 59.613 56.0648 58.7868 58.7286C57.9345 61.4761 55.5014 63.4767 52.7497 63.6924C48.577 64.0196 45.154 61.0469 44.9806 56.8666C44.9139 55.2563 45.3961 53.7577 46.414 52.401Z" fill="#63C7CC"/>
<path d="M53.9955 69.4423C53.8173 69.7749 53.6701 70.0551 53.4439 70.4861C52.7649 69.1282 52.16 67.9185 51.5052 66.6091C52.8641 66.6091 54.0772 66.6091 55.3995 66.6091C54.919 67.5825 54.4728 68.4862 53.9955 69.4423Z" fill="#E89B36"/>
<path d="M61.4554 60.6395C61.4032 60.7174 61.3241 60.7597 61.245 60.802C61.2553 60.7262 61.2656 60.6504 61.3216 60.5569C61.3877 60.5607 61.408 60.5824 61.4554 60.6395Z" fill="white"/>
<path d="M97.941 43.6726C100.137 42.4199 101.773 40.6991 103.032 38.4011C104.364 40.7724 106.117 42.589 108.427 43.8418C107.363 44.6771 106.287 45.3727 105.402 46.2581C104.515 47.1441 103.819 48.2197 102.995 49.2679C102.614 48.6982 102.308 48.0237 101.813 47.5443C100.65 46.4181 99.3925 45.3896 98.1843 44.3094C98.0192 44.1618 97.4616 44.1606 97.941 43.6726Z" fill="#F5CE4F"/>
</g>
<path d="M2.30213 0.636109C1.80533 0.798546 1.37571 1.11981 1.07944 1.55043C0.783182 1.98104 0.636711 2.49711 0.662592 3.01916V131.704C0.662592 132.336 0.913664 132.942 1.36057 133.389C1.80748 133.836 2.41362 134.087 3.04564 134.087H131.73C132.362 134.087 132.969 133.836 133.415 133.389C133.862 132.942 134.113 132.336 134.113 131.704V3.01916C134.113 2.38713 133.862 1.781 133.415 1.33409C132.969 0.88718 132.362 0.636109 131.73 0.636109H3.04564C2.79933 0.597208 2.54844 0.597208 2.30213 0.636109ZM5.42869 5.40221H129.347V19.7005H5.42869V5.40221ZM12.5778 10.1683C11.9458 10.1683 11.3397 10.4194 10.8928 10.8663C10.4459 11.3132 10.1948 11.9193 10.1948 12.5514C10.1948 13.1834 10.4459 13.7895 10.8928 14.2364C11.3397 14.6833 11.9458 14.9344 12.5778 14.9344C13.2099 14.9344 13.816 14.6833 14.2629 14.2364C14.7098 13.7895 14.9609 13.1834 14.9609 12.5514C14.9609 11.9193 14.7098 11.3132 14.2629 10.8663C13.816 10.4194 13.2099 10.1683 12.5778 10.1683ZM22.11 10.1683C21.478 10.1683 20.8719 10.4194 20.425 10.8663C19.9781 11.3132 19.727 11.9193 19.727 12.5514C19.727 13.1834 19.9781 13.7895 20.425 14.2364C20.8719 14.6833 21.478 14.9344 22.11 14.9344C22.7421 14.9344 23.3482 14.6833 23.7951 14.2364C24.242 13.7895 24.4931 13.1834 24.4931 12.5514C24.4931 11.9193 24.242 11.3132 23.7951 10.8663C23.3482 10.4194 22.7421 10.1683 22.11 10.1683ZM31.6422 10.1683C31.0102 10.1683 30.4041 10.4194 29.9572 10.8663C29.5103 11.3132 29.2592 11.9193 29.2592 12.5514C29.2592 13.1834 29.5103 13.7895 29.9572 14.2364C30.4041 14.6833 31.0102 14.9344 31.6422 14.9344C32.2743 14.9344 32.8804 14.6833 33.3273 14.2364C33.7742 13.7895 34.0253 13.1834 34.0253 12.5514C34.0253 11.9193 33.7742 11.3132 33.3273 10.8663C32.8804 10.4194 32.2743 10.1683 31.6422 10.1683ZM5.42869 24.4666H129.347V129.321H5.42869V24.4666Z" fill="black"/>
<defs>
<clipPath id="clip0_604_1792">
<rect width="85" height="85" fill="white" transform="translate(31 31)"/>
</clipPath>
</defs>
</svg>
