<svg width="19" height="19" viewBox="0 0 19 19" fill="none" xmlns="http://www.w3.org/2000/svg">
<path fill-rule="evenodd" clip-rule="evenodd" d="M3.9622 0.288975C7.43823 -0.0963249 10.9462 -0.0963249 14.4222 0.288975C16.3212 0.500975 17.8522 1.99597 18.0752 3.90197C18.4874 7.42663 18.4874 10.9873 18.0752 14.512C17.8522 16.418 16.3212 17.913 14.4232 18.126C10.9469 18.5114 7.43855 18.5114 3.9622 18.126C2.0632 17.913 0.532204 16.418 0.309204 14.513C-0.103068 10.988 -0.103068 7.42696 0.309204 3.90197C0.532204 1.99597 2.0632 0.500975 3.9622 0.288975ZM13.6022 6.18697L14.4422 5.38397V5.20697H11.5402L9.4712 10.367L7.1192 5.20697H4.0752V5.38397L5.0552 6.56397C5.10281 6.60664 5.13967 6.65994 5.16278 6.71955C5.18589 6.77915 5.1946 6.84337 5.1882 6.90697V11.548C5.2022 11.6304 5.19665 11.715 5.17198 11.7949C5.14732 11.8748 5.10424 11.9478 5.0462 12.008L3.9422 13.348V13.523H7.0692V13.347L5.9662 12.009C5.90762 11.9489 5.86349 11.8762 5.83715 11.7965C5.81081 11.7168 5.80297 11.6322 5.8142 11.549V7.53497L8.5592 13.524H8.8792L11.2362 7.53497V12.308C11.2362 12.435 11.2362 12.459 11.1522 12.543L10.3042 13.366V13.542H14.4212V13.366L13.6032 12.562C13.5676 12.5351 13.5401 12.499 13.5235 12.4576C13.5069 12.4161 13.502 12.371 13.5092 12.327V6.42197C13.502 6.37796 13.5069 6.33281 13.5235 6.2914C13.5401 6.24998 13.5666 6.21388 13.6022 6.18697Z" fill="white"/>
</svg>
