<svg width="64" height="67" viewBox="0 0 64 67" fill="none" xmlns="http://www.w3.org/2000/svg">
<g clip-path="url(#clip0_604_1776)">
<path d="M4.023 2.88448L41.0225 0.151984C45.5672 -0.238016 46.735 0.0249836 49.5925 2.10223L61.4033 10.4227C63.3515 11.8535 64 12.2437 64 13.8017V59.4335C64 62.2932 62.9613 63.9847 59.326 64.2435L16.36 66.8445C13.6318 66.9737 12.3325 66.5837 10.9038 64.7627L2.2065 53.4535C0.6465 51.3717 0 49.8135 0 47.9925V7.43148C0 5.09348 1.03875 3.14323 4.023 2.88448Z" fill="white"/>
<path d="M41.0225 0.151984L4.023 2.88448C1.03875 3.14323 0 5.09348 0 7.43148V47.9927C0 49.8137 0.64625 51.3717 2.2065 53.4535L10.9038 64.7627C12.3325 66.5837 13.6318 66.9737 16.36 66.8445L59.326 64.2435C62.959 63.9847 64 62.2932 64 59.4335V13.8017C64 12.324 63.416 11.8982 61.6975 10.6367L61.4012 10.4227L49.5925 2.10223C46.735 0.0249836 45.5675 -0.238016 41.0225 0.151984ZM17.3318 13.055C13.8235 13.2912 13.0277 13.3447 11.0352 11.7242L5.969 7.69448C5.454 7.17298 5.7125 6.52198 7.00975 6.39273L42.5783 3.79398C45.565 3.53323 47.1207 4.57398 48.2887 5.48348L54.389 9.90348C54.6497 10.0347 55.2985 10.8127 54.5182 10.8127L17.7865 13.0237L17.3318 13.055ZM13.2417 59.0435V20.3055C13.2417 18.6137 13.761 17.8337 15.3167 17.7022L57.505 15.2325C58.936 15.1032 59.5825 16.0125 59.5825 17.7022V56.1815C59.5825 57.8732 59.3215 59.304 56.9857 59.4335L16.614 61.7737C14.2783 61.903 13.2417 61.1252 13.2417 59.0435ZM53.0942 22.3825C53.3527 23.5527 53.0942 24.723 51.924 24.8567L49.9782 25.2422V53.8432C48.2887 54.7525 46.733 55.272 45.4333 55.272C43.3563 55.272 42.8367 54.621 41.281 52.673L28.5565 32.6532V52.0222L32.5815 52.9337C32.5815 52.9337 32.5815 55.2742 29.3342 55.2742L20.3808 55.7935C20.12 55.272 20.3807 53.9725 21.2882 53.714L23.626 53.0652V27.4557L20.381 27.1927C20.12 26.0227 20.7685 24.333 22.5875 24.2015L32.194 23.5552L45.4335 43.8335V25.8935L42.059 25.5055C41.7982 24.0722 42.8367 23.0315 44.134 22.9045L53.0942 22.3825Z" fill="black"/>
</g>
<defs>
<clipPath id="clip0_604_1776">
<rect width="64" height="67" fill="white"/>
</clipPath>
</defs>
</svg>
