<svg width="81" height="79" viewBox="0 0 81 79" fill="none" xmlns="http://www.w3.org/2000/svg">
<path d="M53.8523 0H26.9578C22.1642 0 18.2566 3.81113 18.2566 8.48633V70.5137C18.2566 75.1889 22.1642 79 26.9578 79H53.8523C58.6459 79 62.5535 75.1889 62.5535 70.5137V8.48633C62.5535 3.81113 58.6617 0 53.8523 0ZM37.1302 3.48711H43.8064C44.5816 3.48711 45.1986 4.18145 45.1986 5.03008C45.1986 5.87871 44.5816 6.57305 43.8064 6.57305H37.1302C36.355 6.57305 35.738 5.87871 35.738 5.03008C35.738 4.18145 36.355 3.48711 37.1302 3.48711ZM30.8179 3.25566C31.8146 3.25566 32.6373 4.04258 32.6373 5.03008C32.6373 6.01758 31.8146 6.78906 30.8179 6.78906C29.8212 6.78906 28.9986 6.00215 28.9986 5.01465C28.9986 4.02715 29.8054 3.25566 30.8179 3.25566ZM40.4683 73.615C38.8546 73.615 37.5574 72.3498 37.5574 70.776C37.5574 69.2021 38.8546 67.9369 40.4683 67.9369C42.082 67.9369 43.3793 69.2021 43.3793 70.776C43.3793 72.3498 42.082 73.615 40.4683 73.615ZM57.491 66.2705H23.3349V10.2762H57.491V66.2705Z" fill="#0A7CE8"/>
</svg>
