<svg width="71" height="70" viewBox="0 0 71 70" fill="none" xmlns="http://www.w3.org/2000/svg">
<path d="M36.3038 38.25C40.9264 38.25 47.674 39.3648 53.3419 41.5908C56.1771 42.7043 58.9331 44.1686 61.0294 46.0654C63.1436 47.9784 64.8038 50.547 64.8038 53.75V56.875C64.8038 60.3063 61.97 63 58.6163 63H13.9913C10.6376 63 7.80383 60.3063 7.80383 56.875V53.75C7.80383 50.547 9.46411 47.9784 11.5782 46.0654C13.6746 44.1686 16.4306 42.7043 19.2657 41.5908C24.9337 39.3648 31.6813 38.25 36.3038 38.25ZM36.3038 7C44.9488 7 52.0538 13.8812 52.0538 22.5C52.0538 31.1188 44.9488 38 36.3038 38C27.6589 38 20.5538 31.1188 20.5538 22.5C20.5538 13.8812 27.6589 7 36.3038 7Z" stroke="#0A7CE8" stroke-width="6"/>
</svg>
