<svg width="131" height="131" viewBox="0 0 131 131" fill="none" xmlns="http://www.w3.org/2000/svg">
<path d="M1.62362 0.528451C1.13916 0.686851 0.720219 1.00013 0.431318 1.42005C0.142418 1.83996 -0.000413675 2.34321 0.0248244 2.85228V128.339C0.0248244 128.956 0.269657 129.547 0.70546 129.982C1.14126 130.418 1.73234 130.663 2.34866 130.663H127.836C128.452 130.663 129.043 130.418 129.479 129.982C129.915 129.547 130.159 128.956 130.159 128.339V2.85228C130.159 2.23596 129.915 1.64489 129.479 1.20909C129.043 0.773283 128.452 0.528451 127.836 0.528451H2.34866C2.10847 0.490516 1.86381 0.490516 1.62362 0.528451ZM4.67249 5.17612H125.512V19.1191H4.67249V5.17612ZM11.644 9.82378C11.0277 9.82378 10.4366 10.0686 10.0008 10.5044C9.56499 10.9402 9.32015 11.5313 9.32015 12.1476C9.32015 12.7639 9.56499 13.355 10.0008 13.7908C10.4366 14.2266 11.0277 14.4714 11.644 14.4714C12.2603 14.4714 12.8514 14.2266 13.2872 13.7908C13.723 13.355 13.9678 12.7639 13.9678 12.1476C13.9678 11.5313 13.723 10.9402 13.2872 10.5044C12.8514 10.0686 12.2603 9.82378 11.644 9.82378ZM20.9393 9.82378C20.323 9.82378 19.7319 10.0686 19.2961 10.5044C18.8603 10.9402 18.6155 11.5313 18.6155 12.1476C18.6155 12.7639 18.8603 13.355 19.2961 13.7908C19.7319 14.2266 20.323 14.4714 20.9393 14.4714C21.5556 14.4714 22.1467 14.2266 22.5825 13.7908C23.0183 13.355 23.2631 12.7639 23.2631 12.1476C23.2631 11.5313 23.0183 10.9402 22.5825 10.5044C22.1467 10.0686 21.5556 9.82378 20.9393 9.82378ZM30.2346 9.82378C29.6183 9.82378 29.0272 10.0686 28.5914 10.5044C28.1556 10.9402 27.9108 11.5313 27.9108 12.1476C27.9108 12.7639 28.1556 13.355 28.5914 13.7908C29.0272 14.2266 29.6183 14.4714 30.2346 14.4714C30.851 14.4714 31.442 14.2266 31.8778 13.7908C32.3136 13.355 32.5585 12.7639 32.5585 12.1476C32.5585 11.5313 32.3136 10.9402 31.8778 10.5044C31.442 10.0686 30.851 9.82378 30.2346 9.82378ZM4.67249 23.7668H125.512V126.015H4.67249V23.7668Z" fill="black"/>
<path d="M65.1045 81.2433C68.3252 81.2433 70.936 78.6277 70.936 75.4013C70.936 72.1749 68.3252 69.5593 65.1045 69.5593C61.8838 69.5593 59.2729 72.1749 59.2729 75.4013C59.2729 78.6277 61.8838 81.2433 65.1045 81.2433Z" fill="#61DAFB"/>
<path d="M65.1044 87.3702C82.3861 87.3702 96.3956 82.0115 96.3956 75.4013C96.3956 68.791 82.3861 63.4324 65.1044 63.4324C47.8228 63.4324 33.8132 68.791 33.8132 75.4013C33.8132 82.0115 47.8228 87.3702 65.1044 87.3702Z" stroke="#61DAFB" stroke-width="5"/>
<path d="M54.7575 81.3856C63.3983 96.3787 75.0356 105.854 80.75 102.549C86.4644 99.2434 84.0921 84.4098 75.4513 69.4167C66.8104 54.4236 55.1732 44.9486 49.4588 48.2537C43.7444 51.5589 46.1167 66.3925 54.7575 81.3856Z" stroke="#61DAFB" stroke-width="5"/>
<path d="M54.7576 69.4168C46.1167 84.4099 43.7444 99.2435 49.4588 102.549C55.1733 105.854 66.8105 96.3788 75.4513 81.3857C84.0921 66.3926 86.4645 51.559 80.75 48.2538C75.0356 44.9487 63.3984 54.4237 54.7576 69.4168Z" stroke="#61DAFB" stroke-width="5"/>
</svg>
