<svg width="45" height="44" viewBox="0 0 45 44" fill="none" xmlns="http://www.w3.org/2000/svg">
<path d="M17.3867 4.66211C10.6846 4.66211 5.27246 10.0707 5.27246 16.7695C5.27268 23.4682 10.6848 28.876 17.3867 28.876C24.0885 28.8758 29.4998 23.4681 29.5 16.7695C29.5 10.0708 24.0886 4.66229 17.3867 4.66211ZM29.5 30.0049L29.3594 29.8604L28.6631 29.1377L28.335 28.7979L27.9775 29.1064C26.1596 30.6703 24.0176 31.8129 21.7061 32.4531C19.539 33.0533 17.2726 33.1983 15.0498 32.8799L14.6064 32.8096H14.6055C7.86577 31.6708 2.4362 26.1838 1.33008 19.4766L1.23633 18.8242V18.8213L1.18457 18.3594C0.958675 16.0461 1.23107 13.7093 1.98535 11.5068C2.78989 9.15774 4.12119 7.02329 5.87793 5.26758C7.63469 3.51189 9.77051 2.18103 12.1211 1.37695C14.3248 0.623166 16.6629 0.351402 18.9775 0.577148L19.4395 0.628906H19.4424C26.2295 1.45257 31.8957 6.69415 33.3125 13.3418L33.4365 13.9893V13.9912C33.8421 16.3535 33.7205 18.7762 33.0801 21.0859C32.4395 23.396 31.2952 25.5367 29.7305 27.3535L29.4219 27.7119L29.7627 28.0391L30.4854 28.7363L30.6309 28.876H32.6631L43.46 39.7168V39.7178C44.3227 40.58 44.3227 41.9913 43.46 42.8535C42.6511 43.6616 41.3595 43.712 40.4902 43.0049L40.3223 42.8535L29.5 32.0371V30.0049Z" fill="#0A7CE8" stroke="#0A7CE8"/>
</svg>
