<svg width="52" height="53" viewBox="0 0 52 53" fill="none" xmlns="http://www.w3.org/2000/svg">
<path fill-rule="evenodd" clip-rule="evenodd" d="M44.7771 7.52915L8.05045 20.8087L20.2859 27.8904L31.0746 17.0987C31.6219 16.5518 32.364 16.2447 33.1377 16.245C33.9114 16.2453 34.6533 16.5529 35.2002 17.1002C35.7471 17.6475 36.0542 18.3896 36.054 19.1633C36.0537 19.937 35.7461 20.6789 35.1988 21.2258L24.4071 32.0175L31.4946 44.25L44.7771 7.52915ZM45.7192 0.984145C49.2046 -0.278772 52.5821 3.09873 51.3192 6.58415L35.9134 49.1821C34.6475 52.6762 29.8759 53.1021 28.0121 49.885L18.6292 33.6741L2.41837 24.2912C-0.798717 22.4275 -0.372882 17.6558 3.12128 16.39L45.7192 0.984145Z" fill="#0A7CE8"/>
</svg>
