<svg width="66" height="67" viewBox="0 0 66 67" fill="none" xmlns="http://www.w3.org/2000/svg">
<path d="M36.87 54.17H29.12C28.41 54.17 27.83 54.75 27.83 55.46V63.21C27.83 63.92 28.41 64.5 29.12 64.5H36.87C37.58 64.5 38.16 63.92 38.16 63.21V55.46C38.17 54.74 37.59 54.17 36.87 54.17ZM8.45996 59.33C8.45996 60.04 9.03996 60.62 9.74996 60.62H25.25V58.04H9.74996C9.03996 58.04 8.45996 58.62 8.45996 59.33ZM56.25 58.04H40.75V60.62H56.25C56.96 60.62 57.54 60.04 57.54 59.33C57.54 58.62 56.96 58.04 56.25 58.04Z" fill="black"/>
<path d="M34.29 49H31.71V51.58H34.29V49Z" fill="black"/>
<path d="M58.8301 2.5H7.17008C5.74008 2.5 4.58008 3.66 4.58008 5.08V12.83C4.58008 14.26 5.74008 15.41 7.16008 15.41H58.8301C60.2601 15.41 61.4101 14.25 61.4101 12.83V5.08C61.4201 3.66 60.2601 2.5 58.8301 2.5ZM34.2901 11.54C32.8601 11.54 31.7101 10.38 31.7101 8.96C31.7101 7.53 32.8701 6.38 34.2901 6.38C35.7201 6.38 36.8701 7.54 36.8701 8.96C36.8701 10.39 35.7201 11.54 34.2901 11.54ZM44.6201 11.54C43.1901 11.54 42.0401 10.38 42.0401 8.96C42.0401 7.53 43.2001 6.38 44.6201 6.38C46.0501 6.38 47.2001 7.54 47.2001 8.96C47.2101 10.39 46.0501 11.54 44.6201 11.54ZM54.9601 11.54C53.5301 11.54 52.3801 10.38 52.3801 8.96C52.3801 7.53 53.5401 6.38 54.9601 6.38C56.3901 6.38 57.5401 7.54 57.5401 8.96C57.5401 10.39 56.3801 11.54 54.9601 11.54ZM58.8301 18H7.17008C5.74008 18 4.59008 19.16 4.59008 20.58V28.33C4.59008 29.76 5.75008 30.91 7.17008 30.91H58.8401C60.2701 30.91 61.4201 29.75 61.4201 28.33V20.58C61.4201 19.16 60.2601 18 58.8301 18ZM34.2901 27.04C32.8601 27.04 31.7101 25.88 31.7101 24.46C31.7101 23.03 32.8701 21.88 34.2901 21.88C35.7201 21.88 36.8701 23.04 36.8701 24.46C36.8701 25.89 35.7201 27.04 34.2901 27.04ZM44.6201 27.04C43.1901 27.04 42.0401 25.88 42.0401 24.46C42.0401 23.03 43.2001 21.88 44.6201 21.88C46.0501 21.88 47.2001 23.04 47.2001 24.46C47.2101 25.89 46.0501 27.04 44.6201 27.04ZM54.9601 27.04C53.5301 27.04 52.3801 25.88 52.3801 24.46C52.3801 23.03 53.5401 21.88 54.9601 21.88C56.3901 21.88 57.5401 23.04 57.5401 24.46C57.5401 25.89 56.3801 27.04 54.9601 27.04ZM58.8301 33.5H7.17008C5.74008 33.5 4.59008 34.66 4.59008 36.08V43.83C4.59008 45.26 5.75008 46.41 7.17008 46.41H58.8401C60.2701 46.41 61.4201 45.25 61.4201 43.83V36.08C61.4201 34.66 60.2601 33.5 58.8301 33.5ZM34.2901 42.54C32.8601 42.54 31.7101 41.38 31.7101 39.96C31.7101 38.53 32.8701 37.38 34.2901 37.38C35.7201 37.38 36.8701 38.54 36.8701 39.96C36.8701 41.38 35.7201 42.54 34.2901 42.54ZM44.6201 42.54C43.1901 42.54 42.0401 41.38 42.0401 39.96C42.0401 38.53 43.2001 37.38 44.6201 37.38C46.0501 37.38 47.2001 38.54 47.2001 39.96C47.2101 41.38 46.0501 42.54 44.6201 42.54ZM54.9601 42.54C53.5301 42.54 52.3801 41.38 52.3801 39.96C52.3801 38.53 53.5401 37.38 54.9601 37.38C56.3901 37.38 57.5401 38.54 57.5401 39.96C57.5401 41.38 56.3801 42.54 54.9601 42.54Z" fill="black"/>
</svg>
