<svg width="16" height="16" viewBox="0 0 16 16" fill="none" xmlns="http://www.w3.org/2000/svg">
<g clip-path="url(#clip0_604_1762)">
<path d="M3.40686 10.0899C3.40686 11.0062 2.65961 11.7545 1.74324 11.7545C0.82686 11.7545 0.0787354 11.0062 0.0787354 10.0899C0.0787354 9.17367 0.82711 8.42529 1.74336 8.42529H3.40699L3.40686 10.0899ZM4.24549 10.0899C4.24549 9.17367 4.99386 8.42529 5.91011 8.42529C6.82636 8.42529 7.57474 9.17354 7.57474 10.0899V14.2568C7.57474 15.173 6.82648 15.9214 5.91011 15.9214C4.99386 15.9214 4.24549 15.173 4.24549 14.2568V10.0899Z" fill="#DE1C59"/>
<path d="M5.91011 3.40698C4.99386 3.40698 4.24549 2.65973 4.24549 1.74336C4.24549 0.826982 4.99386 0.0788574 5.91011 0.0788574C6.82636 0.0788574 7.57474 0.827232 7.57474 1.74348V3.40711L5.91011 3.40698ZM5.91011 4.24561C6.82636 4.24561 7.57474 4.99398 7.57474 5.91023C7.57474 6.82648 6.82648 7.57486 5.91011 7.57486H1.74324C0.826985 7.57486 0.0787354 6.82661 0.0787354 5.91023C0.0787354 4.99398 0.82711 4.24561 1.74336 4.24561H5.91011Z" fill="#35C5F0"/>
<path d="M12.5931 5.91023C12.5931 4.99398 13.3404 4.24561 14.2568 4.24561C15.1731 4.24561 15.9214 4.99398 15.9214 5.91023C15.9214 6.82648 15.173 7.57486 14.2568 7.57486H12.5931V5.91023ZM11.7545 5.91023C11.7545 6.82648 11.0061 7.57486 10.0899 7.57486C9.17364 7.57486 8.42526 6.82661 8.42526 5.91023V1.74336C8.42526 0.827107 9.17351 0.0788574 10.0899 0.0788574C11.0061 0.0788574 11.7545 0.827232 11.7545 1.74348V5.91023Z" fill="#2EB57D"/>
<path d="M10.0899 12.5932C11.0061 12.5932 11.7545 13.3404 11.7545 14.2568C11.7545 15.1732 11.0061 15.9214 10.0899 15.9214C9.17364 15.9214 8.42526 15.173 8.42526 14.2568V12.5932H10.0899ZM10.0899 11.7545C9.17364 11.7545 8.42526 11.0062 8.42526 10.0899C8.42526 9.17367 9.17351 8.42529 10.0899 8.42529H14.2568C15.173 8.42529 15.9214 9.17354 15.9214 10.0899C15.9214 11.0062 15.173 11.7545 14.2568 11.7545H10.0899Z" fill="#EBB02E"/>
</g>
<defs>
<clipPath id="clip0_604_1762">
<rect width="16" height="16" fill="white"/>
</clipPath>
</defs>
</svg>
