<svg width="174" height="100" viewBox="0 0 174 100" fill="none" xmlns="http://www.w3.org/2000/svg">
<path d="M22.108 83.1726C31.2344 79.3481 49.9808 71.5838 56.8954 69.0387C57.8187 68.6989 58.7639 68.4575 59.7319 68.2816C74.8525 65.5345 102.562 60.5203 103.018 60.5203C103.331 60.5203 110.464 57.1355 117.539 53.7364C123.661 50.7955 130.856 51.1296 136.661 54.6552L139.887 56.6141C143.952 59.0829 146.673 63.2666 147.282 67.9832C148.27 75.6419 143.526 82.8769 136.103 85.0054C119.676 89.7154 99.8641 95.3401 99.0935 95.3401C98.0993 95.3401 67.7193 96.5482 52.6536 97.1523L31.9485 99.7132C30.408 99.9038 28.8506 99.9143 27.3077 99.7447L4.74563 97.2641C4.08682 97.1917 3.47187 96.8986 3.00074 96.4324C1.54632 94.9933 1.97219 92.5452 3.82716 91.6818L22.108 83.1726Z" fill="#FAD762"/>
<path d="M151.888 10.0003V7.64545C151.888 7.02251 152.306 6.47722 152.908 6.3159C153.58 6.1356 154.282 6.4858 154.541 7.1317L155.245 8.88142L159.707 24.1398L164.997 24.9881L164.061 15.8098C164.006 15.2742 163.857 14.7527 163.619 14.2699L162.668 12.3416C162.557 12.1155 162.408 11.9099 162.228 11.7334C161.741 11.2555 161.498 10.5814 161.57 9.90267L161.657 9.07302C161.727 8.40575 162.29 7.89911 162.961 7.89911C163.559 7.89911 164.082 8.30505 164.231 8.88532L168.49 25.5483L168.549 25.5578C171.63 26.0518 173.818 28.825 173.582 31.9365L173.159 37.4991L172.195 45.5468C171.95 47.5897 170.676 49.3648 168.818 50.2496L160.542 54.1916C159.373 54.7486 158.416 55.6689 157.813 56.8151L150.571 70.5806C148.395 74.7169 142.535 74.8874 140.122 70.8845L131.944 57.3152C130.295 54.5782 131.08 51.0284 133.73 49.2425L144.894 41.7187C145.373 41.3958 145.803 41.0055 146.17 40.5597L155.866 28.799L156.644 27.8549L154.279 13.6039C154.215 13.2199 154.039 12.8633 153.774 12.5787L152.908 11.6516C152.858 11.5974 152.811 11.5423 152.769 11.4864C152.547 11.366 152.345 11.188 152.18 10.9467C151.99 10.6678 151.888 10.338 151.888 10.0003Z" fill="#FAD762"/>
<path d="M109.504 47.9035L129.663 36.762C130.179 36.4768 130.719 36.2378 131.277 36.0478L133.531 35.2802C135.946 34.458 138.584 34.5898 140.905 35.6486L144.585 37.3277C149.335 39.4947 151.619 44.9507 149.828 49.8548L149.01 52.096C148.396 53.7788 147.341 55.2658 145.955 56.4013L133.864 66.3107C132.773 67.2046 131.506 67.8576 130.145 68.2271L110.824 73.4715C109.539 73.8203 108.197 73.909 106.878 73.7323L91.692 71.6992C85.6886 70.8955 82.4673 64.2107 85.5795 59.0143C86.5547 57.3859 88.0511 56.1344 89.8262 55.4623L108.207 48.5036C108.653 48.3347 109.087 48.1342 109.504 47.9035Z" fill="#FAD762"/>
</svg>
