<svg width="142" height="126" viewBox="0 0 142 126" fill="none" xmlns="http://www.w3.org/2000/svg">
<path fill-rule="evenodd" clip-rule="evenodd" d="M78.9876 10.202C78.9876 11.433 79.9818 12.4304 81.2051 12.4304C87.1924 12.4304 92.0635 17.3211 92.0635 23.3337C92.0635 24.565 93.0552 25.5621 94.2813 25.5621C95.5074 25.5621 96.5002 24.5647 96.5002 23.3337C96.5002 14.8652 89.639 7.97332 81.2051 7.97332C79.9818 7.97359 78.9876 8.97346 78.9876 10.202ZM4.9668 120.447C5.47708 121.143 6.27386 121.544 7.14911 121.544H38.8933C39.7699 121.544 40.5653 121.143 41.0784 120.447C41.5886 119.748 41.7351 118.865 41.4749 118.027C38.9576 109.86 31.5418 104.373 23.0213 104.373C14.5023 104.373 7.08644 109.86 4.56772 118.027C4.30731 118.865 4.45374 119.748 4.9668 120.447ZM23.021 82.5072C18.2401 82.5072 14.3517 86.4122 14.3517 91.211C14.3517 96.0123 18.2401 99.9174 23.021 99.9174C27.8031 99.9174 31.6904 96.0123 31.6904 91.211C31.6904 86.4125 27.8033 82.5072 23.021 82.5072ZM62.3305 91.211C62.3305 96.0123 66.219 99.9174 70.9999 99.9174C75.7808 99.9174 79.6693 96.0123 79.6693 91.211C79.6693 86.4125 75.7808 82.5072 70.9999 82.5072C66.219 82.5072 62.3305 86.4125 62.3305 91.211ZM52.5463 118.027C52.2859 118.865 52.4326 119.748 52.9454 120.447C53.4556 121.143 54.251 121.544 55.1277 121.544H86.8718C87.7471 121.544 88.5438 121.143 89.0569 120.447C89.5672 119.748 89.7136 118.865 89.4535 118.027C86.9362 109.86 79.52 104.373 70.9999 104.373C62.4808 104.373 55.065 109.86 52.5463 118.027ZM110.309 91.211C110.309 96.0123 114.196 99.9174 118.978 99.9174C123.759 99.9174 127.648 96.0123 127.648 91.211C127.648 86.4125 123.759 82.5072 118.978 82.5072C114.196 82.5072 110.309 86.4125 110.309 91.211ZM100.524 118.027C100.263 118.865 100.411 119.748 100.921 120.447C101.434 121.143 102.23 121.544 103.107 121.544H134.849C135.726 121.544 136.521 121.143 137.035 120.447C137.546 119.748 137.692 118.865 137.432 118.027C134.913 109.86 127.497 104.373 118.978 104.373C110.458 104.373 103.042 109.86 100.524 118.027ZM108.171 36.7809C108.171 42.833 103.265 47.7566 97.2382 47.7566H44.7613C38.7349 47.7566 33.8311 42.8333 33.8311 36.7809C33.8311 31.8403 37.1544 27.4833 41.9131 26.1837C42.795 25.9434 43.4387 25.1864 43.5355 24.2731C44.4593 15.7244 51.6175 9.28066 60.1926 9.28066C62.1369 9.28066 64.0391 9.61182 65.8476 10.2635C66.643 10.5499 67.5302 10.3582 68.1412 9.76806C71.6621 6.34122 76.3055 4.45568 81.2054 4.45568C91.5718 4.45568 100.003 12.9256 100.003 23.3337C100.003 23.6818 99.9915 24.0497 99.9729 24.4254C99.9166 25.373 100.469 26.2531 101.345 26.6118C105.492 28.3163 108.171 32.3082 108.171 36.7809ZM0.327042 116.706C1.79773 111.947 4.80289 107.668 8.79619 104.666C10.6385 103.281 12.635 102.193 14.7402 101.405C11.7977 98.9896 9.91493 95.3183 9.91493 91.2107C9.91493 84.7133 14.629 79.3034 20.8032 78.2431V64.8223C20.8032 64.231 21.0362 63.6659 21.4522 63.2481C21.8682 62.8304 22.4334 62.5936 23.021 62.5936H68.7807V52.2134H44.7613C36.2869 52.2134 29.3944 45.2887 29.3944 36.7809C29.3944 30.3383 33.4138 24.6017 39.3317 22.3455C41.1111 12.2608 49.8367 4.82359 60.1926 4.82359C62.1891 4.82359 64.1556 5.0996 66.0528 5.64883C70.2672 1.99723 75.5975 0 81.2054 0C93.9571 0 104.343 10.3685 104.44 23.1521C109.45 25.8233 112.608 31.0148 112.608 36.7806C112.608 45.2887 105.713 52.2131 97.2385 52.2131H73.2191V62.5934H118.979C120.203 62.5934 121.196 63.5932 121.196 64.822V78.2428C127.37 79.3031 132.085 84.7127 132.085 91.2105C132.085 95.318 130.202 98.9891 127.26 101.404C129.365 102.193 131.364 103.281 133.202 104.666C137.197 107.668 140.202 111.946 141.673 116.706C142.352 118.915 141.963 121.24 140.608 123.089C139.248 124.939 137.152 125.999 134.85 125.999H103.107C100.808 125.999 98.7078 124.939 97.3522 123.089C95.9927 121.24 95.6041 118.915 96.2844 116.706C97.7537 111.946 100.761 107.668 104.754 104.666C106.594 103.281 108.591 102.193 110.696 101.404C107.755 98.9894 105.871 95.318 105.871 91.2105C105.871 84.713 110.586 79.3031 116.759 78.2428V67.0496H73.2185V78.2434C79.3914 79.3037 84.1057 84.7133 84.1057 91.211C84.1057 95.3185 82.2229 98.9896 79.2804 101.405C81.3857 102.193 83.3822 103.281 85.2245 104.666C89.2178 107.669 92.2243 111.947 93.6939 116.706C94.3728 118.915 93.9843 121.241 92.6289 123.09C91.2695 124.939 89.1734 126 86.8721 126H55.128C52.8292 126 50.7306 124.94 49.3736 123.09C48.0141 121.241 47.627 118.915 48.3059 116.706C49.7752 111.947 52.782 107.669 56.775 104.666C58.6173 103.281 60.6138 102.193 62.719 101.405C59.7766 98.9899 57.8938 95.3185 57.8938 91.211C57.8938 84.7135 62.6078 79.3037 68.781 78.2434V67.0496H25.2403V78.2434C31.4134 79.3037 36.1288 84.7133 36.1288 91.211C36.1288 95.3185 34.2446 98.9896 31.3035 101.405C33.4074 102.193 35.408 103.281 37.2462 104.666C41.2392 107.669 44.246 111.947 45.7153 116.706C46.3945 118.915 46.0071 121.241 44.6504 123.09C43.2923 124.939 41.1951 126 38.8935 126H7.1494C4.8506 126 2.75175 124.94 1.39505 123.09C0.0366821 121.24 -0.351852 118.915 0.327042 116.706Z" fill="#57A4FF"/>
</svg>
