<svg width="71" height="70" viewBox="0 0 71 70" fill="none" xmlns="http://www.w3.org/2000/svg">
<path d="M0.672473 24.4404C0.672473 24.4404 -1.04906 23.1992 1.01678 21.5417L5.8299 17.2367C5.8299 17.2367 7.20712 15.7873 8.66325 17.0501L53.0788 50.6869V66.8165C53.0788 66.8165 53.0573 69.3493 49.8079 69.0695L0.672473 24.4404Z" fill="#2489CA"/>
<path d="M12.1207 34.8372L0.672494 45.2482C0.672494 45.2482 -0.503887 46.1235 0.672494 47.6877L5.98773 52.5237C5.98773 52.5237 7.25019 53.8798 9.11518 52.3372L21.252 43.1315L12.1207 34.8372Z" fill="#1070B3"/>
<path d="M32.2196 34.9232L53.2151 18.8868L53.0788 2.84331C53.0788 2.84331 52.1822 -0.658139 49.191 1.16434L21.252 26.6001L32.2196 34.9232Z" fill="#0877B9"/>
<path d="M49.8079 69.091C51.0273 70.3395 52.505 69.9305 52.505 69.9305L68.8667 61.8657C70.9612 60.4379 70.6671 58.6656 70.6671 58.6656V10.5064C70.6671 8.38977 68.5009 7.65791 68.5009 7.65791L54.3198 0.820052C51.221 -1.0957 49.191 1.16446 49.191 1.16446C49.191 1.16446 51.802 -0.715418 53.0788 2.84343V66.5224C53.0788 66.96 52.9856 67.3905 52.7991 67.778C52.4261 68.5314 51.6155 69.2346 49.6716 68.9404L49.8079 69.091Z" fill="#3C99D4"/>
</svg>
