<svg width="64" height="65" viewBox="0 0 64 65" fill="none" xmlns="http://www.w3.org/2000/svg">
<path fill-rule="evenodd" clip-rule="evenodd" d="M6.4125 0.5C2.90379 0.5 0 3.38297 0 6.89167V58.0917C0 61.6003 2.90379 64.5 6.4125 64.5H57.6083C61.117 64.5 64 61.6003 64 58.0917V6.89167C64 3.38297 61.117 0.5 57.6083 0.5H6.4125ZM6.4125 4.75H57.6083C58.8271 4.75 59.75 5.67286 59.75 6.89167V17.5583H19.2083C16.3247 17.518 16.3247 21.8644 19.2083 21.825H59.75V58.0917C59.75 59.3103 58.8271 60.2333 57.6083 60.2333H6.4125C5.19374 60.2333 4.26667 59.3103 4.26667 58.0917V21.825H10.675C13.5586 21.8653 13.5586 17.5189 10.675 17.5583H4.26667V6.89167C4.26667 5.67286 5.19374 4.75 6.4125 4.75ZM10.675 9.025C9.49677 9.025 8.54164 9.98009 8.54167 11.1583C8.54168 12.3365 9.4968 13.2917 10.675 13.2917C11.8532 13.2917 12.8083 12.3365 12.8083 11.1583C12.8084 9.98009 11.8532 9.025 10.675 9.025ZM19.2083 9.025C18.0301 9.025 17.075 9.98009 17.075 11.1583C17.075 12.3365 18.0301 13.2917 19.2083 13.2917C20.3865 13.2917 21.3417 12.3365 21.3417 11.1583C21.3417 9.98009 20.3866 9.025 19.2083 9.025ZM27.7417 9.025C26.5634 9.025 25.6083 9.98009 25.6083 11.1583C25.6083 12.3365 26.5635 13.2917 27.7417 13.2917C28.9199 13.2917 29.875 12.3365 29.875 11.1583C29.875 9.98009 28.9199 9.025 27.7417 9.025ZM19.2125 30.3583C18.9283 30.352 18.6457 30.4024 18.3813 30.5068C18.1169 30.6111 17.876 30.7672 17.6728 30.966C17.4695 31.1647 17.308 31.402 17.1978 31.664C17.0875 31.926 17.0307 32.2074 17.0307 32.4917C17.0307 32.7759 17.0875 33.0573 17.1978 33.3193C17.308 33.5813 17.4695 33.8187 17.6728 34.0174C17.876 34.2161 18.1169 34.3722 18.3813 34.4766C18.6457 34.5809 18.9283 34.6314 19.2125 34.625H44.8042C45.0883 34.6314 45.3709 34.5809 45.6354 34.4766C45.8998 34.3722 46.1407 34.2161 46.3439 34.0174C46.5471 33.8187 46.7086 33.5813 46.8189 33.3193C46.9291 33.0573 46.9859 32.7759 46.9859 32.4917C46.9859 32.2074 46.9291 31.926 46.8189 31.664C46.7086 31.402 46.5471 31.1647 46.3439 30.966C46.1407 30.7672 45.8998 30.6111 45.6354 30.5068C45.3709 30.4024 45.0883 30.352 44.8042 30.3583H19.2125ZM18.9917 38.8917C18.4253 38.921 17.8938 39.174 17.514 39.5952C17.1343 40.0164 16.9374 40.5711 16.9667 41.1375C16.996 41.7038 17.249 42.2354 17.6702 42.6151C18.0914 42.9949 18.6462 43.1918 19.2125 43.1625H44.8042C45.3705 43.1625 45.9137 42.9375 46.3141 42.537C46.7146 42.1366 46.9396 41.5934 46.9396 41.0271C46.9396 40.4607 46.7146 39.9176 46.3141 39.5171C45.9137 39.1166 45.3705 38.8917 44.8042 38.8917H19.2125C19.1389 38.8879 19.0652 38.8879 18.9917 38.8917ZM18.9917 47.4292C18.4347 47.4704 17.9161 47.7281 17.5467 48.147C17.1774 48.5659 16.9868 49.1128 17.0156 49.6705C17.0445 50.2282 17.2906 50.7525 17.7012 51.131C18.1118 51.5096 18.6543 51.7123 19.2125 51.6958H32C32.2842 51.7022 32.5668 51.6517 32.8312 51.5474C33.0956 51.4431 33.3365 51.2869 33.5397 51.0882C33.743 50.8895 33.9045 50.6522 34.0147 50.3901C34.125 50.1281 34.1818 49.8468 34.1818 49.5625C34.1818 49.2782 34.125 48.9969 34.0147 48.7348C33.9045 48.4728 33.743 48.2355 33.5397 48.0368C33.3365 47.8381 33.0956 47.6819 32.8312 47.5776C32.5668 47.4732 32.2842 47.4228 32 47.4292H19.2125C19.1389 47.4254 19.0652 47.4254 18.9917 47.4292Z" fill="#0A7CE8"/>
</svg>
