
<svg width="160" height="50" viewBox="0 0 160 50" fill="none" xmlns="http://www.w3.org/2000/svg">
  <g clipPath="url(#clip0_1_2)">
    <path d="M42.5 25C42.5 34.665 34.665 42.5 25 42.5C15.335 42.5 7.5 34.665 7.5 25C7.5 15.335 15.335 7.5 25 7.5C34.665 7.5 42.5 15.335 42.5 25Z" stroke="white" strokeWidth="3"/>
    <path d="M32.5 25C32.5 29.1421 29.1421 32.5 25 32.5C20.8579 32.5 17.5 29.1421 17.5 25C17.5 20.8579 20.8579 17.5 25 17.5C29.1421 17.5 32.5 20.8579 32.5 25Z" stroke="#2984CE" strokeWidth="3"/>
    <path d="M25 7.5V17.5M25 32.5V42.5M42.5 25H32.5M17.5 25H7.5M36.5 13.5L29.5 20.5M20.5 29.5L13.5 36.5M36.5 36.5L29.5 29.5M20.5 20.5L13.5 13.5" stroke="white" strokeWidth="3"/>
    <path d="M69.6992 27.8242H63.7969V33H61.1367V19.3281H70.668V21.582H63.7969V25.5781H69.6992V27.8242ZM80.625 33H72.8711V19.3281H80.625V21.582H75.5312V24.8711H80.1562V27.125H75.5312V30.7539H80.625V33ZM92.6172 33H89.9688V27.0703H84.2969V33H81.6367V19.3281H84.2969V24.8164H89.9688V19.3281H92.6172V33ZM105.984 33H103.334V27.0703H97.6621V33H95.002V19.3281H97.6621V24.8164H103.334V19.3281H105.984V33ZM112.646 28.4375H110.818V33H108.158V19.3281H112.646C114.339 19.3281 115.646 19.7227 116.568 20.5117C117.49 21.3008 117.951 22.4375 117.951 23.9219C117.951 24.9219 117.733 25.7695 117.295 26.4648C116.857 27.1602 116.181 27.6953 115.267 28.0703L118.486 32.8594V33H115.638L112.646 28.4375ZM110.818 26.1914H112.646C113.334 26.1914 113.857 26.0039 114.216 25.6289C114.576 25.2539 114.756 24.7422 114.756 24.0938C114.756 23.4453 114.576 22.9375 114.216 22.5703C113.857 22.1953 113.334 22.0039 112.646 21.9961H110.818V26.1914ZM128.49 30.7539H123.605L122.586 33H119.744L125.152 19.3281H126.934L132.361 33H129.518L128.49 30.7539ZM124.371 28.5H127.723L126.047 23.9492L124.371 28.5ZM135.605 30.7539V33H132.967V30.7539H135.605Z" fill="white"/>
  </g>
  <defs>
    <clipPath id="clip0_1_2">
      <rect width="160" height="50" fill="white"/>
    </clipPath>
  </defs>
</svg>
