<svg width="605" height="657" viewBox="0 0 605 657" fill="none" xmlns="http://www.w3.org/2000/svg">
<rect x="140.327" width="463.081" height="466.589" fill="white"/>
<path d="M142.581 0.102353C140.839 0.672212 139.331 1.79928 138.292 3.30995C137.253 4.82063 136.739 6.63111 136.83 8.46254V459.913C136.83 462.13 137.71 464.256 139.278 465.824C140.846 467.392 142.973 468.273 145.19 468.273H596.64C598.857 468.273 600.984 467.392 602.551 465.824C604.119 464.256 605 462.13 605 459.913V8.46254C605 6.24528 604.119 4.11884 602.551 2.551C600.984 0.983158 598.857 0.102353 596.64 0.102353H145.19C144.326 -0.0341178 143.446 -0.0341178 142.581 0.102353ZM153.55 16.8227H588.28V66.9838H153.55V16.8227ZM178.631 33.5431C176.413 33.5431 174.287 34.4239 172.719 35.9917C171.151 37.5596 170.27 39.686 170.27 41.9033C170.27 44.1205 171.151 46.247 172.719 47.8148C174.287 49.3827 176.413 50.2635 178.631 50.2635C180.848 50.2635 182.974 49.3827 184.542 47.8148C186.11 46.247 186.991 44.1205 186.991 41.9033C186.991 39.686 186.11 37.5596 184.542 35.9917C182.974 34.4239 180.848 33.5431 178.631 33.5431ZM212.071 33.5431C209.854 33.5431 207.728 34.4239 206.16 35.9917C204.592 37.5596 203.711 39.686 203.711 41.9033C203.711 44.1205 204.592 46.247 206.16 47.8148C207.728 49.3827 209.854 50.2635 212.071 50.2635C214.289 50.2635 216.415 49.3827 217.983 47.8148C219.551 46.247 220.431 44.1205 220.431 41.9033C220.431 39.686 219.551 37.5596 217.983 35.9917C216.415 34.4239 214.289 33.5431 212.071 33.5431ZM245.512 33.5431C243.295 33.5431 241.168 34.4239 239.6 35.9917C238.033 37.5596 237.152 39.686 237.152 41.9033C237.152 44.1205 238.033 46.247 239.6 47.8148C241.168 49.3827 243.295 50.2635 245.512 50.2635C247.729 50.2635 249.856 49.3827 251.424 47.8148C252.991 46.247 253.872 44.1205 253.872 41.9033C253.872 39.686 252.991 37.5596 251.424 35.9917C249.856 34.4239 247.729 33.5431 245.512 33.5431ZM153.55 83.7042H588.28V451.552H153.55V83.7042Z" fill="#0A7CE8"/>
<g clip-path="url(#clip0_652_1617)">
<path d="M271.885 384.147L8.77051 489.392L114.016 542.015L166.639 647.261L271.885 384.147Z" fill="white"/>
<path d="M278.901 377.13C275.393 375.376 271.885 375.376 268.376 375.376L5.26228 480.622C1.75409 482.376 0 485.884 0 489.392C0 492.9 1.75409 496.409 5.26228 498.163L87.7047 538.507V594.638C87.7047 598.146 89.4588 599.9 91.2129 601.654C92.967 603.408 94.7211 603.408 96.4752 603.408C98.2293 603.408 99.9833 603.408 99.9833 601.654L128.049 587.621L159.623 650.769C159.623 654.277 163.131 656.031 166.639 656.031C170.147 656.031 173.655 654.277 173.655 650.769L208.737 563.064L215.5 544.5L192.95 557.802L164.885 627.966L124.541 543.769L247.327 420.983L205.229 526.228L215.5 544.5L221.016 531.49L280.655 387.655C280.655 384.147 280.655 380.638 278.901 377.13ZM235.049 408.704L112.262 531.49L29.8196 491.146L235.049 408.704ZM105.246 580.605V547.277L107 549.031L119.278 573.589L105.246 580.605Z" fill="#0A7CE8"/>
<path d="M184 580L211.5 510.5L215.5 544.5L184 580Z" fill="#0A7CE8"/>
</g>
<path d="M344.851 191.524C348.153 187.99 350.828 187.796 353.789 191.652C356.365 195.007 359.487 197.934 363.2 201.95C356.19 206.986 349.307 212.451 341.934 217.125C324.609 228.108 304.998 232.66 285.301 236.831C283.705 237.169 281.863 237.075 280.562 237.885C279.194 238.737 277.455 240.397 277.401 241.766C277.027 251.325 276.897 260.903 277.1 270.465C277.131 271.924 279.032 274.12 280.515 274.62C284.516 275.971 288.736 276.715 292.912 277.456C295.802 277.969 296.879 279.403 296.18 282.251C296.102 282.571 296.058 282.899 295.998 283.224C293.399 297.243 293.4 297.237 279.745 294.353C274.473 293.24 269.214 292.046 263.911 291.101C259.83 290.374 257.97 288.054 258 283.964C258.137 265.482 258.299 247.001 258.362 228.519C258.376 224.431 261.021 223.214 264.192 222.388C277.151 219.013 290.157 215.812 303.066 212.251C318.161 208.088 332.251 201.714 344.851 191.524Z" fill="#086FE6"/>
<path d="M441.235 305.097C446.379 302.699 448.52 304.67 449.832 309.488C451.91 317.118 454.451 324.626 457.001 332.114C458.253 335.79 457.09 338.048 453.932 339.883C438.224 349.012 422.523 358.156 406.905 367.44C403.034 369.741 400.43 368.054 397.873 365.418C389.531 356.816 381.175 348.226 372.886 339.571C360.356 326.488 346.248 315.755 329.166 309.458C326.507 308.477 325.577 306.963 326.414 304.178C327.363 301.022 328.48 297.849 328.86 294.604C329.39 290.078 330.957 289.254 335.257 290.852C356.59 298.781 374.363 311.815 389.588 328.653C393.772 333.28 398.068 337.815 402.038 342.624C404.168 345.203 405.878 345.968 408.985 344.035C416.35 339.454 423.845 335.061 431.491 330.981C435.051 329.081 435.554 326.935 434.161 323.438C432.823 320.079 432.078 316.482 430.785 313.101C429.646 310.123 430.256 308.435 433.409 307.62C435.934 306.968 438.385 306.022 441.235 305.097Z" fill="#086FE6"/>
<path d="M398.752 166.551C397.945 167.422 397.411 168.05 396.823 168.623C394.178 171.203 391.518 173.768 388.863 176.338C384.778 172.594 380.611 168.933 376.721 164.994C376.263 164.531 376.962 162.207 377.747 161.295C383.535 154.567 389.505 148 395.368 141.338C397.688 138.701 400.195 138.31 403.207 140.088C419.006 149.415 434.817 158.72 450.649 167.989C453.875 169.878 454.518 172.388 453.504 175.941C450.065 188 446.793 200.108 443.52 212.214C438.82 229.599 436.549 247.179 439.84 265.125C440.318 267.731 439.78 269.104 437.061 269.778C432.206 270.983 427.427 272.505 421.665 274.169C420.783 266.503 419.714 259.702 419.267 252.858C417.795 230.309 423.304 208.953 430.54 187.918C433.259 180.014 433.216 179.976 426.111 175.749C420.057 172.147 413.82 168.831 407.958 164.936C404.23 162.459 401.494 162.44 398.752 166.551Z" fill="#086FE6"/>
<path d="M344.89 170.252C343.629 168.923 342.485 167.949 341.607 166.773C339.481 163.924 337.154 164.088 334.37 165.774C327.243 170.089 320.156 174.498 312.82 178.423C309.059 180.436 308.555 182.885 309.849 186.492C311.068 189.891 311.974 193.41 313.285 196.769C314.416 199.667 313.397 201.09 310.701 201.883C307.416 202.848 304.154 203.891 300.88 204.894C297.391 205.964 295.535 204.788 294.452 201.104C292.043 192.905 289.23 184.827 286.533 176.716C285.307 173.028 287.475 171.191 290.162 169.613C301.434 162.993 312.716 156.391 323.989 149.775C327.792 147.543 331.712 145.483 335.344 142.995C339.812 139.934 343.237 140.693 346.862 144.587C356.139 154.551 365.527 164.42 375.139 174.052C386.252 185.19 399.009 193.968 413.736 199.539C417.332 200.9 418.738 202.679 417.165 206.503C416.297 208.611 415.847 210.913 415.364 213.162C413.779 220.548 413.772 220.644 407.002 218.019C391.006 211.817 376.528 203.101 364.345 190.818C357.787 184.205 351.524 177.293 344.89 170.252Z" fill="#086FE6"/>
<path d="M353.943 333.448C358.553 336.879 362.912 340.389 367.059 344.139C367.549 344.582 367.297 346.717 366.674 347.433C360.666 354.345 354.398 361.029 348.436 367.98C345.847 370.999 343.098 370.938 340.176 369.235C324.499 360.1 308.867 350.884 293.25 341.644C289.968 339.702 289.387 337.01 290.493 333.202C294.486 319.464 298.417 305.693 301.816 291.796C305.634 276.185 307.021 260.317 304.085 244.342C303.583 241.609 304.081 240.439 306.815 239.813C310.619 238.94 314.357 237.731 318.069 236.496C321.094 235.491 322.468 236.187 323.034 239.614C326.947 263.341 324.853 286.518 317.283 309.259C315.413 314.877 313.396 320.465 311.955 326.197C311.585 327.672 312.641 330.451 313.901 331.254C321.62 336.169 329.635 340.606 337.443 345.384C340.267 347.112 341.809 346.638 343.856 343.957C346.724 340.2 350.336 337.025 353.943 333.448Z" fill="#086FE6"/>
<path d="M414.441 308.435C408.694 312.246 403.093 315.639 397.855 319.533C395.196 321.51 393.357 321.693 391.169 319.204C388.136 315.755 384.995 312.402 381.391 308.45C383.133 306.896 385.282 304.761 387.646 302.907C403.715 290.309 421.47 281.366 441.555 277.364C448.58 275.964 455.56 274.265 462.449 272.301C463.995 271.86 466.105 269.801 466.195 268.373C466.777 259.168 466.767 249.926 467.177 240.707C467.323 237.43 466.094 235.844 462.998 235.242C459.002 234.465 455.061 233.402 451.07 232.595C447.999 231.973 447.038 230.222 447.769 227.253C448.633 223.738 449.457 220.213 450.256 216.682C450.804 214.262 451.732 212.974 454.662 213.649C463.221 215.62 471.838 217.342 480.454 219.048C484.102 219.77 485.742 221.852 485.733 225.56C485.686 244.06 485.662 262.56 485.69 281.06C485.696 284.843 483.851 286.62 480.334 287.528C465.658 291.318 450.93 294.953 436.419 299.317C428.976 301.556 421.95 305.21 414.441 308.435Z" fill="#086FE6"/>
<defs>
<clipPath id="clip0_652_1617">
<rect width="280.655" height="280.655" fill="white" transform="translate(0 375.376)"/>
</clipPath>
</defs>
</svg>
