<svg width="216" height="46" viewBox="0 0 216 46" fill="none" xmlns="http://www.w3.org/2000/svg">
<path d="M71.206 36.34C69.846 36.34 68.6333 36.034 67.568 35.422C66.5027 34.81 65.664 33.9713 65.052 32.906V36H61.074V11.18H65.63V21.312C66.2647 20.2467 67.092 19.408 68.112 18.796C69.1547 18.184 70.3673 17.878 71.75 17.878C72.906 17.878 73.96 18.1273 74.912 18.626C75.864 19.102 76.68 19.7707 77.36 20.632C78.0627 21.4933 78.5953 22.4793 78.958 23.59C79.3433 24.7007 79.536 25.8907 79.536 27.16C79.536 28.4293 79.3207 29.6193 78.89 30.73C78.482 31.8407 77.904 32.8267 77.156 33.688C76.408 34.5267 75.524 35.184 74.504 35.66C73.5067 36.1133 72.4073 36.34 71.206 36.34ZM69.948 32.464C70.6733 32.464 71.3307 32.328 71.92 32.056C72.532 31.7613 73.0533 31.376 73.484 30.9C73.9373 30.424 74.2773 29.8687 74.504 29.234C74.7533 28.5767 74.878 27.8967 74.878 27.194C74.878 26.2193 74.674 25.324 74.266 24.508C73.8807 23.6693 73.3367 23.0007 72.634 22.502C71.954 22.0033 71.1493 21.754 70.22 21.754C69.5627 21.754 68.928 21.9127 68.316 22.23C67.7267 22.5247 67.194 22.9327 66.718 23.454C66.2647 23.9753 65.902 24.5647 65.63 25.222V29.472C65.766 29.9253 65.9813 30.3333 66.276 30.696C66.5933 31.0587 66.956 31.376 67.364 31.648C67.772 31.8973 68.1913 32.1013 68.622 32.26C69.0753 32.396 69.5173 32.464 69.948 32.464ZM82.5888 11.18H87.1448V30.288C87.1448 31.104 87.2808 31.6593 87.5528 31.954C87.8248 32.226 88.1988 32.362 88.6748 32.362C89.0375 32.362 89.4115 32.3167 89.7968 32.226C90.1822 32.1353 90.5222 32.022 90.8168 31.886L91.4288 35.354C90.8168 35.6487 90.1028 35.8753 89.2868 36.034C88.4708 36.1927 87.7342 36.272 87.0768 36.272C85.6488 36.272 84.5382 35.898 83.7448 35.15C82.9742 34.3793 82.5888 33.2913 82.5888 31.886V11.18ZM93.2438 29.336V18.184H97.7998V28.35C97.7998 29.71 98.0492 30.7413 98.5478 31.444C99.0465 32.124 99.7832 32.464 100.758 32.464C101.347 32.464 101.925 32.3507 102.492 32.124C103.081 31.8747 103.614 31.512 104.09 31.036C104.589 30.56 105.008 29.9593 105.348 29.234V18.184H109.904V30.9C109.904 31.376 109.983 31.716 110.142 31.92C110.323 32.124 110.607 32.2487 110.992 32.294V36C110.539 36.068 110.153 36.1133 109.836 36.136C109.541 36.1813 109.269 36.204 109.02 36.204C108.204 36.204 107.535 36.0227 107.014 35.66C106.515 35.2747 106.221 34.7533 106.13 34.096L106.028 32.668C105.235 33.8693 104.215 34.7873 102.968 35.422C101.721 36.034 100.35 36.34 98.8538 36.34C97.0178 36.34 95.6238 35.7507 94.6718 34.572C93.7198 33.3707 93.2438 31.6253 93.2438 29.336ZM122.693 36.34C121.265 36.34 119.973 36.102 118.817 35.626C117.661 35.1273 116.675 34.4587 115.859 33.62C115.043 32.7587 114.409 31.784 113.955 30.696C113.525 29.5853 113.309 28.418 113.309 27.194C113.309 25.494 113.683 23.9413 114.431 22.536C115.202 21.1307 116.29 20.0087 117.695 19.17C119.123 18.3087 120.801 17.878 122.727 17.878C124.677 17.878 126.343 18.3087 127.725 19.17C129.108 20.0087 130.162 21.1307 130.887 22.536C131.635 23.9187 132.009 25.4147 132.009 27.024C132.009 27.296 131.998 27.5793 131.975 27.874C131.953 28.146 131.93 28.3727 131.907 28.554H118.137C118.228 29.4607 118.489 30.254 118.919 30.934C119.373 31.614 119.939 32.1353 120.619 32.498C121.322 32.838 122.07 33.008 122.863 33.008C123.77 33.008 124.62 32.7927 125.413 32.362C126.229 31.9087 126.785 31.3193 127.079 30.594L130.989 31.682C130.559 32.5887 129.935 33.3933 129.119 34.096C128.326 34.7987 127.385 35.354 126.297 35.762C125.209 36.1473 124.008 36.34 122.693 36.34ZM118.035 25.664H127.351C127.261 24.7573 127 23.9753 126.569 23.318C126.161 22.638 125.617 22.1167 124.937 21.754C124.257 21.3687 123.498 21.176 122.659 21.176C121.843 21.176 121.095 21.3687 120.415 21.754C119.758 22.1167 119.214 22.638 118.783 23.318C118.375 23.9753 118.126 24.7573 118.035 25.664ZM145.461 36.34C144.078 36.34 142.854 36.034 141.789 35.422C140.746 34.7873 139.93 33.9373 139.341 32.872V43.242H134.785V18.184H138.763V21.244C139.443 20.2013 140.304 19.3853 141.347 18.796C142.39 18.184 143.58 17.878 144.917 17.878C146.118 17.878 147.218 18.116 148.215 18.592C149.235 19.068 150.119 19.7367 150.867 20.598C151.615 21.4367 152.193 22.4113 152.601 23.522C153.032 24.61 153.247 25.7887 153.247 27.058C153.247 28.7807 152.907 30.3447 152.227 31.75C151.57 33.1553 150.652 34.2773 149.473 35.116C148.317 35.932 146.98 36.34 145.461 36.34ZM143.931 32.464C144.634 32.464 145.268 32.3167 145.835 32.022C146.402 31.7273 146.889 31.3307 147.297 30.832C147.728 30.3107 148.045 29.7327 148.249 29.098C148.476 28.4407 148.589 27.7607 148.589 27.058C148.589 26.31 148.464 25.6187 148.215 24.984C147.988 24.3493 147.648 23.794 147.195 23.318C146.742 22.8193 146.209 22.434 145.597 22.162C145.008 21.89 144.362 21.754 143.659 21.754C143.228 21.754 142.786 21.8333 142.333 21.992C141.902 22.128 141.483 22.332 141.075 22.604C140.667 22.876 140.304 23.1933 139.987 23.556C139.692 23.9187 139.477 24.3153 139.341 24.746V28.928C139.613 29.5853 139.976 30.186 140.429 30.73C140.905 31.274 141.449 31.7047 142.061 32.022C142.673 32.3167 143.296 32.464 143.931 32.464ZM166.942 22.128C165.559 22.128 164.324 22.4 163.236 22.944C162.148 23.4653 161.366 24.2247 160.89 25.222V36H156.334V18.184H160.516V21.992C161.15 20.768 161.955 19.8047 162.93 19.102C163.904 18.3993 164.936 18.014 166.024 17.946C166.273 17.946 166.466 17.946 166.602 17.946C166.738 17.946 166.851 17.9573 166.942 17.98V22.128ZM169.482 36V18.184H174.038V36H169.482ZM169.482 15.702V11.18H174.038V15.702H169.482ZM194.706 36H190.15V26.004C190.15 24.576 189.901 23.5333 189.402 22.876C188.904 22.2187 188.212 21.89 187.328 21.89C186.716 21.89 186.093 22.0487 185.458 22.366C184.846 22.6833 184.291 23.1253 183.792 23.692C183.294 24.236 182.931 24.8707 182.704 25.596V36H178.148V18.184H182.262V21.482C182.716 20.7113 183.294 20.0653 183.996 19.544C184.699 19 185.504 18.592 186.41 18.32C187.34 18.0253 188.314 17.878 189.334 17.878C190.445 17.878 191.352 18.082 192.054 18.49C192.78 18.8753 193.324 19.408 193.686 20.088C194.072 20.7453 194.332 21.4933 194.468 22.332C194.627 23.1707 194.706 24.0207 194.706 24.882V36ZM209.244 35.082C208.859 35.2407 208.394 35.422 207.85 35.626C207.306 35.83 206.717 35.9887 206.082 36.102C205.47 36.238 204.847 36.306 204.212 36.306C203.373 36.306 202.603 36.1587 201.9 35.864C201.197 35.5693 200.631 35.1047 200.2 34.47C199.792 33.8127 199.588 32.9627 199.588 31.92V21.686H197.242V18.184H199.588V12.404H204.144V18.184H207.884V21.686H204.144V30.39C204.167 31.002 204.337 31.444 204.654 31.716C204.971 31.988 205.368 32.124 205.844 32.124C206.32 32.124 206.785 32.0447 207.238 31.886C207.691 31.7273 208.054 31.5913 208.326 31.478L209.244 35.082Z" fill="white"/>
<g clip-path="url(#clip0_507_2115)">
<path d="M9.16021 21.7701C9.16021 21.2373 9.16021 20.7046 9.16021 20.144C10.1557 19.8875 11.1574 19.622 12.1632 19.3727C12.925 19.1838 12.9776 19.1857 13.0961 19.9909C13.268 21.1594 13.3588 22.3396 13.4556 23.5862C13.4155 24.4583 13.397 25.2591 13.3966 26.0598C13.3965 26.311 13.4451 26.5621 13.4715 26.8133C13.3852 27.6786 13.3357 28.5495 13.2038 29.4079C13.0229 30.5851 12.8617 31.7755 12.5428 32.9191C12.0981 34.5139 11.5235 36.0734 10.9835 37.6408C10.8998 37.8838 10.8872 37.9909 11.1423 38.1324C12.3973 38.8288 13.6356 39.5551 14.8825 40.2662C15.4368 40.5823 15.9912 40.8995 16.5603 41.1875C16.6762 41.2461 16.9226 41.2359 16.9991 41.155C17.4762 40.6503 17.9231 40.1172 18.3781 39.592C18.6939 39.2274 18.9927 38.8467 19.3307 38.5039C19.4156 38.4177 19.6755 38.3755 19.7632 38.4388C20.3577 38.8675 20.9487 39.3063 21.4972 39.7906C21.8076 40.0647 22.0543 40.4188 22.2873 40.7651C22.3506 40.8592 22.3105 41.093 22.2316 41.1994C21.6424 41.9929 21.0387 42.7762 20.4254 43.5517C19.7632 44.3891 19.0856 45.2145 18.4443 46.0685C18.2244 46.0918 17.975 46.0918 17.684 46.0918C17.5004 45.9648 17.3769 45.8035 17.2134 45.7162C15.9104 45.0204 14.5972 44.3433 13.2923 43.6511C12.1306 43.0348 10.98 42.3979 9.81612 41.7859C8.61805 41.156 7.40974 40.5454 6.15234 39.8987C6.25913 39.5394 6.36504 39.1889 6.46744 38.8375C7.08077 36.7322 7.7504 34.6409 8.28413 32.5159C8.59219 31.2894 8.71524 30.0122 8.85761 28.7507C8.99622 27.5226 9.0533 26.2853 9.17532 24.9792C9.21633 24.4348 9.24393 23.963 9.23601 23.4917C9.22635 22.9176 9.18682 22.3439 9.16021 21.7701Z" fill="#FAD762"/>
<path d="M36.3784 22.7734C36.5043 23.6488 36.6327 24.5239 36.7547 25.3999C36.7932 25.6763 36.757 25.897 36.4157 25.99C35.463 26.2496 34.5173 26.5344 33.5699 26.8126C33.1487 26.9362 33.0176 26.8175 32.9682 26.3949C32.8481 25.3677 32.6909 24.3449 32.5497 23.3202C32.5332 23.2007 32.5097 23.08 32.5121 22.9603C32.5394 21.6049 32.4987 20.2431 32.6215 18.8961C32.7501 17.4859 32.9521 16.0758 33.3757 14.7095C33.9925 12.7198 34.5407 10.7072 35.2285 8.7425C35.4057 8.23629 35.2103 8.12481 34.9202 7.95713C33.6531 7.22479 32.3734 6.51409 31.1059 5.78246C30.4845 5.42375 29.8797 5.03651 29.2445 4.6482C28.4937 5.49543 27.7661 6.31811 27.0359 7.1385C26.924 7.26423 26.8195 7.42268 26.6759 7.48638C26.5508 7.54183 26.3181 7.54698 26.2309 7.46779C25.3939 6.70739 24.5777 5.92439 23.7085 5.10349C24.3288 4.4345 24.9361 3.79685 25.5234 3.14159C26.1518 2.44052 26.7396 1.7023 27.3885 1.02115C27.7102 0.683406 28.1293 0.437267 28.4772 0.120741C28.5486 0.0917966 28.6471 0.0917966 28.7826 0.0917969C28.9068 0.164067 28.9854 0.251563 29.0827 0.306289C30.2683 0.973234 31.4675 1.61688 32.6418 2.30275C34.8128 3.5707 36.9719 4.85871 39.1303 6.14773C39.5913 6.42304 39.6675 6.71358 39.5343 7.18478C39.2475 8.19884 38.9866 9.22009 38.7068 10.2361C38.4828 11.0495 38.2448 11.859 38.0162 12.6711C37.8112 13.399 37.601 14.1256 37.4106 14.8573C37.2047 15.6488 36.9865 16.4393 36.8338 17.2416C36.6801 18.0493 36.6008 18.8709 36.4879 19.6863C36.4592 19.8932 36.4266 20.0996 36.3656 20.376C36.3497 21.2217 36.3641 21.9975 36.3784 22.7734Z" fill="#0A7CE8"/>
<path d="M3.88928 26.9898C4.62111 27.1423 5.35291 27.2949 6.08476 27.4473C6.52555 27.5391 6.96357 27.6492 7.40815 27.7161C7.77043 27.7707 7.81079 28.0006 7.75098 28.2696C7.54732 29.1854 7.31763 30.0956 7.11366 31.0114C7.02999 31.387 6.78614 31.4567 6.46769 31.3918C4.99697 31.0923 3.51533 30.833 2.06383 30.4587C1.41496 30.2914 0.668918 30.3175 0.117418 29.8106C0.0922853 29.7715 0.0922853 29.7026 0.118793 29.5714C0.156243 27.8423 0.167186 26.1757 0.180801 24.4666C0.185357 23.8312 0.197149 23.2381 0.184614 22.6455C0.17901 22.3806 0.124565 22.1167 0.0922852 21.8523C0.0922852 20.3507 0.0922852 18.8492 0.0922852 17.3045C1.12777 16.6007 2.33985 16.4729 3.48891 16.1609C5.31196 15.6659 7.13595 15.171 8.97256 14.7295C10.4638 14.3711 11.9018 13.8716 13.2754 13.2112C14.2941 12.7215 15.2811 12.156 16.2392 11.5566C16.9066 11.139 17.5128 10.6204 18.1231 10.1191C18.3916 9.89866 18.5923 9.89032 18.8353 10.1292C19.5774 10.8582 20.3316 11.5753 21.0618 12.3158C21.114 12.3687 21.0564 12.6248 20.9721 12.6984C20.4951 13.1142 20.0141 13.5309 19.4974 13.8953C18.5652 14.5527 17.6508 15.2548 16.6484 15.7891C15.334 16.4897 13.9773 17.1465 12.5736 17.6384C10.825 18.2512 9.01767 18.7063 7.22066 19.1721C6.14923 19.4498 5.04891 19.6173 3.89702 19.836C3.81351 19.9995 3.78074 20.1613 3.77786 20.3237C3.75954 21.3595 3.7478 22.3955 3.72746 23.4727C3.74177 24.6447 3.76252 25.7753 3.79576 26.9255C3.83526 26.9599 3.86227 26.9748 3.88928 26.9898Z" fill="#0A7CE8"/>
<path d="M0.178043 24.509C0.1671 26.1757 0.156157 27.8424 0.118707 29.537C0.0921994 27.9103 0.0921994 26.2557 0.113653 24.5565C0.135107 24.5118 0.178043 24.509 0.178043 24.509Z" fill="white"/>
<path d="M0.180801 24.4665C0.178129 24.5089 0.135193 24.5117 0.113739 24.5133C0.0922852 23.656 0.0922852 22.7972 0.0922852 21.8953C0.124565 22.1166 0.17901 22.3805 0.184614 22.6454C0.197149 23.238 0.185357 23.8311 0.180801 24.4665Z" fill="white"/>
<path d="M10.5236 4.03718C11.2873 3.59287 12.0093 3.13928 12.7471 2.71289C14.0263 1.97364 15.3196 1.25838 16.5972 0.516473C16.8986 0.341443 17.0216 0.386813 17.2759 0.65861C18.8847 2.37806 20.4891 4.10716 22.195 5.72915C23.2522 6.73432 24.469 7.57837 25.6453 8.45347C26.6472 9.19886 27.6675 9.92649 28.7276 10.5858C29.7283 11.2081 30.7844 11.7444 31.8299 12.2924C32.3739 12.5776 32.4683 12.6832 32.3259 13.244C32.0921 14.1643 31.8348 15.0786 31.5967 15.9978C31.5182 16.3006 31.4309 16.3981 31.067 16.2721C28.9997 15.5563 27.0681 14.5654 25.2112 13.4342C22.8254 11.9807 20.6524 10.2502 18.7513 8.20408C17.9698 7.36288 17.2665 6.44984 16.5262 5.57062C16.438 5.46578 16.3411 5.3681 16.2316 5.24909C15.4157 5.71409 14.6032 6.17103 13.7968 6.63829C12.7408 7.2501 11.6934 7.87663 10.6334 8.48133C10.4026 8.61302 10.3139 8.6987 10.4231 8.99693C10.8423 10.1427 11.2141 11.3056 11.6152 12.4962C10.5337 13.0881 9.42498 13.5908 8.15738 13.5763C7.99896 13.5745 7.75683 13.4129 7.69859 13.2677C6.92622 11.3432 6.18046 9.40818 5.42528 7.47683C5.38256 7.36756 5.31583 7.26757 5.22705 7.10089C6.98562 6.07796 8.73729 5.05905 10.5236 4.03718Z" fill="#FAD762"/>
<path d="M42.1353 22.4039C42.1353 22.4039 42.1209 22.3643 42.1197 22.3148C42.1179 22.2463 42.1171 22.2272 42.1164 22.2082C42.1164 22.2082 42.1207 22.166 42.1478 22.1138C42.1616 21.288 42.1483 20.5143 42.135 19.7407C42.135 19.7407 42.1205 19.7036 42.1066 19.6617C42.0661 19.6002 42.0395 19.5808 42.0128 19.5613C41.2911 19.4297 40.5694 19.2984 39.8478 19.1664C39.3913 19.0828 38.936 18.9923 38.4783 18.9161C38.2246 18.8738 38.1401 18.7507 38.1419 18.489C38.1502 17.2557 38.4291 16.0924 39.0275 14.9573C41.2867 15.3438 43.5716 15.7347 45.9074 16.1343C45.9074 16.2538 45.9074 16.4182 45.9074 16.5825C45.9074 20.6988 45.8967 24.8152 45.9218 28.9314C45.9247 29.4188 45.7431 29.5652 45.3193 29.6615C43.342 30.111 41.3571 30.5359 39.3998 31.0611C36.4984 31.8398 33.7782 33.082 31.136 34.487C30.1111 35.032 29.1306 35.6603 28.1386 36.2647C27.6773 36.5458 27.4804 36.5438 27.1089 36.1748C26.423 35.4935 25.746 34.8028 25.0464 34.1357C24.7883 33.8896 24.7987 33.7209 25.0776 33.5215C26.0757 32.8076 27.0427 32.0466 28.0731 31.3827C29.0254 30.7692 30.0339 30.2388 31.0354 29.7046C33.2399 28.5289 35.5844 27.7062 38.0076 27.1206C39.1128 26.8535 40.2521 26.7258 41.3757 26.5341C41.5374 26.5065 41.6983 26.4746 41.9108 26.459C41.9928 26.4765 42.0138 26.4621 42.0249 26.4304C42.0552 26.3892 42.0855 26.3481 42.1454 26.2504C42.1874 25.1218 42.2041 24.0498 42.2088 22.9778C42.2096 22.7866 42.161 22.5952 42.1353 22.4039Z" fill="#FAD762"/>
<path d="M21.9665 33.7225C22.4781 34.1086 22.9976 34.4363 23.4467 34.8412C24.3088 35.6183 25.1627 36.4094 25.9624 37.2489C27.1434 38.4888 28.275 39.7752 29.4252 41.044C29.6068 41.2444 29.7543 41.2622 30.0123 41.1103C31.3319 40.3334 32.6732 39.593 34.0023 38.8319C34.6111 38.4832 35.2093 38.1163 35.8847 37.7146C35.7506 37.2984 35.6118 36.8483 35.4605 36.4024C35.2229 35.7024 34.9604 35.0103 34.7432 34.3042C34.6638 34.0462 34.7315 33.8325 35.0829 33.7391C36.0234 33.4892 36.9495 33.1862 37.8833 32.9111C38.0096 32.8739 38.1476 32.8759 38.3319 32.8535C38.9265 34.7197 39.486 36.5738 40.1141 38.4046C40.4129 39.2756 40.3143 39.49 39.5014 39.9497C38.3609 40.5947 37.2146 41.2297 36.081 41.8864C34.5513 42.7725 33.0334 43.6789 31.5059 44.5688C30.9615 44.886 30.4097 45.1921 29.8503 45.4822C29.3068 45.764 28.9657 45.6697 28.547 45.2369C28.1248 44.8006 27.6597 44.4056 27.2295 43.9766C26.7152 43.4636 26.2217 42.9301 25.7123 42.4122C25.2195 41.9113 24.7125 41.4241 24.2215 40.9215C23.5951 40.2804 23.0171 39.5866 22.3479 38.9939C21.4465 38.1956 20.4772 37.473 19.5385 36.7162C18.4572 35.8446 17.2529 35.1734 15.9993 34.5873C15.393 34.3038 14.7821 34.0174 14.1475 33.8106C13.7592 33.6841 13.7039 33.4431 13.7729 33.1533C14.0172 32.127 14.2938 31.1084 14.5812 29.9983C15.3064 30.2563 16.0128 30.4784 16.6961 30.7566C18.4262 31.461 20.0278 32.4052 21.5913 33.4154C21.7171 33.4967 21.8259 33.6038 21.9665 33.7225Z" fill="#0A7CE8"/>
<path d="M3.78328 26.906C3.76253 25.7754 3.74178 24.6448 3.74904 23.469C3.80608 23.4178 3.83537 23.4135 3.86492 23.4109C3.86905 24.5444 3.87318 25.678 3.85006 26.8553C3.82281 26.899 3.78328 26.906 3.78328 26.906Z" fill="white"/>
<path d="M3.87183 23.3685C3.83521 23.4133 3.80592 23.4176 3.75531 23.4275C3.74764 22.3954 3.75938 21.3594 3.77771 20.3236C3.78058 20.1612 3.81335 19.9994 3.85939 19.8391C3.88396 21.0027 3.88143 22.1645 3.87183 23.3685Z" fill="white"/>
<path d="M42.1289 22.4465C42.1613 22.5953 42.2099 22.7867 42.2091 22.9779C42.2044 24.0499 42.1877 25.1219 42.1553 26.2261C42.1311 25.0019 42.1267 23.7455 42.1289 22.4465Z" fill="white"/>
<path d="M9.15383 21.812C9.18683 22.344 9.22636 22.9177 9.23602 23.4919C9.24394 23.9631 9.21634 24.4349 9.18223 24.9365C9.1558 23.9291 9.15162 22.8915 9.15383 21.812Z" fill="white"/>
<path d="M13.4791 26.7705C13.4455 26.5622 13.3969 26.311 13.397 26.0599C13.3973 25.2591 13.4158 24.4583 13.4495 23.6262C13.4765 24.6391 13.4815 25.6834 13.4791 26.7705Z" fill="white"/>
<path d="M42.1284 19.7834C42.1482 20.5145 42.1615 21.2882 42.1549 22.094C42.1307 21.3594 42.1263 20.5928 42.1284 19.7834Z" fill="white"/>
<path d="M36.3838 22.7302C36.3637 21.9975 36.3494 21.2217 36.358 20.4153C36.3838 21.1522 36.3867 21.9196 36.3838 22.7302Z" fill="white"/>
<path d="M42.021 19.5861C42.0397 19.5807 42.0663 19.6002 42.1043 19.6419C42.0867 19.6464 42.0578 19.6286 42.021 19.5861Z" fill="white"/>
<path d="M42.0929 22.2173C42.1175 22.2273 42.1182 22.2463 42.1178 22.2939C42.1009 22.2904 42.085 22.2584 42.0929 22.2173Z" fill="white"/>
<path d="M42.0033 26.437C42.0141 26.4622 41.9931 26.4766 41.9503 26.466C41.9383 26.4585 41.9814 26.4435 42.0033 26.437Z" fill="white"/>
<path d="M3.79585 26.9254C3.78336 26.9058 3.82289 26.8989 3.8429 26.8972C3.86779 26.9111 3.87266 26.9267 3.88345 26.966C3.86236 26.9747 3.83535 26.9598 3.79585 26.9254Z" fill="white"/>
</g>
<defs>
<clipPath id="clip0_507_2115">
<rect width="46" height="46" fill="white"/>
</clipPath>
</defs>
</svg>
