<svg width="228" height="232" viewBox="0 0 228 232" fill="none" xmlns="http://www.w3.org/2000/svg">
<path d="M86.8513 52.5238C90.1534 48.99 92.8277 48.7965 95.7887 52.6523C98.3652 56.0071 101.487 58.934 105.2 62.9499C98.1899 67.9864 91.3072 73.4514 83.934 78.1252C66.6087 89.1075 46.9977 93.6598 27.3013 97.8306C25.7047 98.1688 23.8625 98.0752 22.5622 98.8847C21.1935 99.7368 19.455 101.397 19.4013 102.766C19.0265 112.325 18.8967 121.903 19.1001 131.465C19.1311 132.924 21.0316 135.12 22.5146 135.62C26.5156 136.971 30.7363 137.715 34.9121 138.456C37.8023 138.969 38.8795 140.403 38.1805 143.251C38.102 143.571 38.0579 143.899 37.9977 144.224C35.3989 158.243 35.4 158.237 21.745 155.353C16.4729 154.24 11.2136 153.046 5.91144 152.101C1.8301 151.374 -0.0298565 149.054 0.000362165 144.964C0.136973 126.482 0.298776 108.001 0.362325 89.5188C0.376386 85.4308 3.02065 84.2136 6.1916 83.3878C19.1509 80.013 32.1568 76.8117 45.0658 73.2513C60.1611 69.0878 74.2512 62.7144 86.8513 52.5238Z" fill="#086FE6"/>
<path d="M183.235 166.097C188.379 163.699 190.52 165.67 191.832 170.488C193.91 178.118 196.451 185.626 199.001 193.114C200.253 196.79 199.09 199.048 195.932 200.883C180.224 210.012 164.523 219.156 148.905 228.44C145.034 230.741 142.43 229.054 139.873 226.418C131.531 217.816 123.175 209.226 114.886 200.571C102.356 187.488 88.248 176.755 71.1656 170.458C68.5072 169.477 67.577 167.963 68.4142 165.178C69.3627 162.022 70.4798 158.849 70.8597 155.604C71.3897 151.078 72.9572 150.254 77.2571 151.852C98.5902 159.781 116.363 172.815 131.588 189.653C135.772 194.28 140.068 198.815 144.038 203.624C146.168 206.203 147.878 206.968 150.985 205.035C158.35 200.454 165.845 196.061 173.491 191.981C177.051 190.081 177.554 187.935 176.161 184.438C174.823 181.079 174.078 177.482 172.785 174.101C171.646 171.123 172.256 169.435 175.409 168.62C177.934 167.968 180.385 167.022 183.235 166.097Z" fill="#086FE6"/>
<path d="M140.752 27.5507C139.945 28.4218 139.411 29.0501 138.823 29.6228C136.178 32.203 133.518 34.7675 130.863 37.3376C126.778 33.5937 122.611 29.9334 118.721 25.9937C118.263 25.5307 118.962 23.2075 119.747 22.2945C125.535 15.5674 131.505 9.00015 137.368 2.33759C139.688 -0.298758 142.195 -0.690331 145.207 1.08784C161.006 10.4151 176.817 19.7197 192.649 28.9894C195.875 30.8781 196.518 33.3876 195.504 36.9412C192.065 48.9995 188.793 61.1075 185.52 73.2139C180.82 90.5993 178.549 108.179 181.84 126.125C182.318 128.731 181.78 130.104 179.061 130.778C174.206 131.983 169.427 133.505 163.665 135.169C162.783 127.503 161.714 120.702 161.267 113.858C159.795 91.3087 165.304 69.9528 172.54 48.9176C175.259 41.014 175.216 40.9763 168.111 36.7493C162.057 33.1473 155.82 29.8309 149.958 25.936C146.23 23.459 143.494 23.4398 140.752 27.5507Z" fill="#086FE6"/>
<path d="M86.8899 31.2524C85.629 29.9229 84.4849 28.9494 83.6069 27.7729C81.4807 24.9238 79.154 25.0883 76.3699 26.7738C69.2426 31.0886 62.1558 35.4975 54.8196 39.4232C51.059 41.4355 50.5554 43.8853 51.8488 47.4919C53.0678 50.8911 53.9736 54.4098 55.2848 57.7692C56.4161 60.6673 55.3971 62.0904 52.7011 62.8829C49.4164 63.8483 46.1539 64.891 42.8801 65.8944C39.3914 66.9639 37.5349 65.7879 36.4523 62.1044C34.0427 53.9055 31.2303 45.8267 28.5332 37.7156C27.3069 34.0277 29.4749 32.191 32.1624 30.6127C43.4339 23.993 54.7156 17.3909 65.9892 10.7746C69.7918 8.54301 73.7119 6.48332 77.3436 3.99496C81.8115 0.933646 85.237 1.69308 88.8623 5.58697C98.1391 15.5512 107.527 25.4198 117.139 35.0525C128.252 46.1895 141.009 54.9681 155.736 60.5394C159.332 61.8998 160.738 63.6789 159.165 67.503C158.297 69.6115 157.847 71.9133 157.364 74.1622C155.779 81.5477 155.772 81.6441 149.002 79.0193C133.006 72.8174 118.528 64.1013 106.345 51.8178C99.7866 45.2054 93.5239 38.2931 86.8899 31.2524Z" fill="#FAD762"/>
<path d="M95.9432 194.448C100.553 197.879 104.912 201.389 109.059 205.139C109.549 205.582 109.297 207.717 108.674 208.433C102.666 215.345 96.3985 222.029 90.4364 228.98C87.8474 231.999 85.0984 231.938 82.1761 230.235C66.4989 221.1 50.8673 211.884 35.2503 202.644C31.9681 200.702 31.3866 198.01 32.4934 194.202C36.4861 180.464 40.4168 166.693 43.8159 152.796C47.6344 137.185 49.0212 121.317 46.0852 105.342C45.5829 102.609 46.0811 101.439 48.8147 100.813C52.6193 99.9402 56.3573 98.7306 60.0689 97.4965C63.0938 96.4907 64.4683 97.1869 65.0335 100.614C68.9472 124.341 66.8527 147.518 59.2833 170.259C57.4133 175.877 55.3963 181.465 53.9554 187.197C53.5846 188.672 54.6412 191.451 55.9006 192.254C63.6195 197.169 71.6346 201.606 79.4429 206.384C82.2671 208.112 83.8094 207.638 85.8563 204.957C88.7241 201.2 92.3358 198.025 95.9432 194.448Z" fill="#FAD762"/>
<path d="M156.441 169.435C150.694 173.246 145.093 176.639 139.855 180.533C137.196 182.51 135.357 182.693 133.169 180.204C130.136 176.755 126.995 173.402 123.391 169.45C125.133 167.896 127.282 165.761 129.646 163.907C145.715 151.309 163.47 142.366 183.555 138.364C190.58 136.964 197.56 135.265 204.449 133.301C205.995 132.86 208.105 130.801 208.195 129.373C208.777 120.168 208.767 110.926 209.177 101.707C209.323 98.4297 208.094 96.844 204.998 96.2418C201.002 95.4646 197.061 94.4019 193.07 93.5947C189.999 92.9734 189.038 91.2216 189.769 88.2529C190.633 84.7381 191.457 81.2126 192.256 77.682C192.804 75.2623 193.732 73.9737 196.662 74.6487C205.221 76.6197 213.838 78.3423 222.454 80.0478C226.102 80.7699 227.742 82.8517 227.733 86.5599C227.686 105.06 227.662 123.56 227.69 142.06C227.696 145.843 225.851 147.62 222.334 148.528C207.658 152.318 192.93 155.953 178.419 160.317C170.976 162.556 163.95 166.21 156.441 169.435Z" fill="#FAD762"/>
</svg>
