<svg width="370" height="389" viewBox="0 0 370 389" fill="none" xmlns="http://www.w3.org/2000/svg">
<rect x="67.9609" y="70.7144" width="224.269" height="225.968" fill="#0A7CE8"/>
<path d="M69.0523 70.7639C68.2082 71.0399 67.4783 71.5857 66.9749 72.3174C66.4716 73.049 66.2227 73.9258 66.2667 74.8127V293.449C66.2667 294.523 66.6933 295.553 67.4526 296.312C68.2119 297.071 69.2417 297.498 70.3155 297.498H288.952C290.025 297.498 291.055 297.071 291.815 296.312C292.574 295.553 293 294.523 293 293.449V74.8127C293 73.7389 292.574 72.7091 291.815 71.9498C291.055 71.1905 290.025 70.7639 288.952 70.7639H70.3155C69.897 70.6978 69.4708 70.6978 69.0523 70.7639ZM74.3643 78.8616H284.903V103.154H74.3643V78.8616ZM86.5108 86.9592C85.437 86.9592 84.4071 87.3858 83.6478 88.1451C82.8885 88.9044 82.462 89.9342 82.462 91.008C82.462 92.0818 82.8885 93.1117 83.6478 93.871C84.4071 94.6303 85.437 95.0568 86.5108 95.0568C87.5846 95.0568 88.6144 94.6303 89.3737 93.871C90.133 93.1117 90.5596 92.0818 90.5596 91.008C90.5596 89.9342 90.133 88.9044 89.3737 88.1451C88.6144 87.3858 87.5846 86.9592 86.5108 86.9592ZM102.706 86.9592C101.632 86.9592 100.602 87.3858 99.8431 88.1451C99.0838 88.9044 98.6572 89.9342 98.6572 91.008C98.6572 92.0818 99.0838 93.1117 99.8431 93.871C100.602 94.6303 101.632 95.0568 102.706 95.0568C103.78 95.0568 104.81 94.6303 105.569 93.871C106.328 93.1117 106.755 92.0818 106.755 91.008C106.755 89.9342 106.328 88.9044 105.569 88.1451C104.81 87.3858 103.78 86.9592 102.706 86.9592ZM118.901 86.9592C117.828 86.9592 116.798 87.3858 116.038 88.1451C115.279 88.9044 114.852 89.9342 114.852 91.008C114.852 92.0818 115.279 93.1117 116.038 93.871C116.798 94.6303 117.828 95.0568 118.901 95.0568C119.975 95.0568 121.005 94.6303 121.764 93.871C122.524 93.1117 122.95 92.0818 122.95 91.008C122.95 89.9342 122.524 88.9044 121.764 88.1451C121.005 87.3858 119.975 86.9592 118.901 86.9592ZM74.3643 111.252H284.903V289.4H74.3643V111.252Z" fill="white"/>
<g clip-path="url(#clip0_675_2761)">
<path d="M135.071 253.358C133.372 252.508 131.673 252.508 129.974 252.508L2.54851 303.478C0.849503 304.328 0 306.027 0 307.726C0 309.425 0.849503 311.124 2.54851 311.973L42.4752 331.512V358.696C42.4752 360.395 43.3247 361.244 44.1742 362.094C45.0237 362.943 45.8732 362.943 46.7227 362.943C47.5722 362.943 48.4217 362.943 48.4217 362.094L62.0137 355.298L77.3048 385.88C77.3048 387.579 79.0038 388.429 80.7028 388.429C82.4018 388.429 84.1008 387.579 84.1008 385.88L101.091 343.405L104.366 334.414L93.4454 340.856L79.8533 374.837L60.3147 334.06L119.78 274.595L99.3919 325.565L104.366 334.414L107.037 328.114L135.921 258.455C135.921 256.756 135.921 255.057 135.071 253.358ZM113.833 268.649L54.3682 328.114L14.4416 308.575L113.833 268.649ZM50.9702 351.9V335.759L51.8197 336.609L57.7662 348.502L50.9702 351.9Z" fill="white"/>
<path d="M89.1113 351.607L102.43 317.948L104.367 334.414L89.1113 351.607Z" fill="white"/>
</g>
<path d="M161.199 165.89C162.798 164.179 164.093 164.085 165.527 165.953C166.775 167.577 168.286 168.995 170.085 170.94C166.69 173.379 163.357 176.025 159.786 178.289C151.395 183.608 141.898 185.812 132.359 187.832C131.585 187.996 130.693 187.951 130.064 188.343C129.401 188.755 128.559 189.56 128.533 190.222C128.351 194.852 128.288 199.49 128.387 204.122C128.402 204.828 129.322 205.891 130.04 206.134C131.978 206.788 134.022 207.148 136.045 207.507C137.444 207.756 137.966 208.45 137.627 209.829C137.589 209.984 137.568 210.143 137.539 210.3C136.28 217.09 136.281 217.087 129.668 215.69C127.114 215.151 124.567 214.573 122 214.115C120.023 213.763 119.122 212.64 119.137 210.659C119.203 201.708 119.281 192.758 119.312 183.807C119.319 181.827 120.6 181.238 122.135 180.838C128.411 179.203 134.71 177.653 140.962 175.929C148.273 173.912 155.096 170.826 161.199 165.89Z" fill="white"/>
<path d="M207.879 220.893C210.37 219.732 211.407 220.686 212.042 223.02C213.048 226.715 214.279 230.351 215.514 233.978C216.12 235.758 215.557 236.851 214.028 237.74C206.42 242.162 198.817 246.59 191.253 251.086C189.378 252.2 188.117 251.384 186.879 250.107C182.839 245.941 178.792 241.781 174.778 237.589C168.709 231.253 161.877 226.055 153.604 223.005C152.316 222.531 151.866 221.797 152.271 220.448C152.731 218.92 153.272 217.383 153.456 215.812C153.712 213.62 154.471 213.221 156.554 213.995C166.885 217.835 175.493 224.147 182.866 232.301C184.892 234.542 186.973 236.739 188.896 239.068C189.927 240.317 190.755 240.687 192.26 239.751C195.827 237.532 199.457 235.405 203.16 233.429C204.884 232.509 205.128 231.47 204.453 229.776C203.805 228.149 203.444 226.407 202.818 224.77C202.266 223.327 202.562 222.51 204.089 222.116C205.311 221.799 206.498 221.341 207.879 220.893Z" fill="white"/>
<path d="M187.303 153.796C186.912 154.218 186.653 154.522 186.369 154.799C185.088 156.049 183.799 157.291 182.513 158.536C180.535 156.722 178.517 154.95 176.633 153.042C176.411 152.818 176.75 151.692 177.13 151.25C179.933 147.992 182.824 144.812 185.664 141.585C186.787 140.308 188.002 140.119 189.46 140.98C197.111 145.497 204.769 150.003 212.436 154.493C213.999 155.407 214.31 156.623 213.819 158.344C212.153 164.183 210.569 170.047 208.984 175.91C206.707 184.33 205.608 192.844 207.201 201.535C207.433 202.797 207.172 203.462 205.856 203.789C203.504 204.372 201.19 205.109 198.399 205.915C197.972 202.203 197.454 198.909 197.238 195.594C196.525 184.674 199.193 174.331 202.698 164.144C204.014 160.316 203.994 160.298 200.553 158.251C197.621 156.506 194.6 154.9 191.761 153.014C189.956 151.814 188.631 151.805 187.303 153.796Z" fill="white"/>
<path d="M161.217 155.589C160.607 154.945 160.053 154.473 159.627 153.904C158.598 152.524 157.471 152.603 156.123 153.42C152.671 155.509 149.239 157.645 145.686 159.546C143.865 160.52 143.621 161.707 144.247 163.453C144.837 165.1 145.276 166.804 145.911 168.431C146.459 169.834 145.966 170.523 144.66 170.907C143.069 171.375 141.489 171.88 139.904 172.366C138.214 172.884 137.315 172.314 136.791 170.53C135.624 166.559 134.262 162.647 132.955 158.719C132.362 156.933 133.411 156.043 134.713 155.279C140.172 152.073 145.635 148.876 151.095 145.671C152.937 144.591 154.835 143.593 156.594 142.388C158.758 140.905 160.417 141.273 162.173 143.159C166.665 147.985 171.212 152.764 175.867 157.429C181.249 162.823 187.427 167.074 194.559 169.772C196.301 170.431 196.982 171.293 196.22 173.145C195.8 174.166 195.582 175.281 195.348 176.37C194.58 179.946 194.577 179.993 191.298 178.722C183.551 175.718 176.539 171.497 170.639 165.548C167.463 162.346 164.43 158.998 161.217 155.589Z" fill="white"/>
<path d="M165.602 234.624C167.834 236.285 169.946 237.985 171.954 239.802C172.191 240.016 172.069 241.05 171.768 241.397C168.858 244.744 165.822 247.981 162.935 251.348C161.681 252.81 160.35 252.78 158.935 251.955C151.342 247.531 143.772 243.068 136.209 238.593C134.619 237.653 134.337 236.349 134.873 234.505C136.807 227.851 138.711 221.182 140.357 214.452C142.206 206.891 142.878 199.207 141.456 191.47C141.213 190.146 141.454 189.58 142.778 189.277C144.62 188.854 146.431 188.268 148.228 187.671C149.693 187.183 150.359 187.521 150.633 189.18C152.528 200.671 151.514 211.896 147.848 222.909C146.942 225.63 145.965 228.336 145.267 231.112C145.088 231.826 145.6 233.173 146.209 233.561C149.948 235.942 153.829 238.091 157.611 240.404C158.979 241.241 159.726 241.012 160.717 239.713C162.106 237.894 163.855 236.356 165.602 234.624Z" fill="white"/>
<path d="M194.901 222.51C192.118 224.356 189.405 225.999 186.868 227.885C185.581 228.842 184.69 228.931 183.63 227.726C182.161 226.055 180.64 224.432 178.895 222.518C179.738 221.765 180.779 220.731 181.924 219.833C189.706 213.732 198.305 209.401 208.032 207.463C211.434 206.785 214.815 205.962 218.151 205.011C218.9 204.797 219.922 203.8 219.965 203.109C220.247 198.65 220.242 194.175 220.441 189.71C220.512 188.123 219.916 187.355 218.417 187.063C216.481 186.687 214.573 186.172 212.64 185.781C211.153 185.48 210.687 184.632 211.041 183.194C211.46 181.492 211.859 179.784 212.246 178.075C212.511 176.903 212.96 176.279 214.38 176.605C218.525 177.56 222.698 178.394 226.871 179.22C228.637 179.57 229.432 180.578 229.427 182.374C229.405 191.334 229.393 200.293 229.407 209.253C229.409 211.085 228.516 211.945 226.813 212.385C219.705 214.22 212.572 215.981 205.545 218.095C201.94 219.179 198.538 220.948 194.901 222.51Z" fill="white"/>
<defs>
<clipPath id="clip0_675_2761">
<rect width="135.921" height="135.921" fill="white" transform="translate(0 252.508)"/>
</clipPath>
</defs>
</svg>
