<svg width="74" height="74" viewBox="0 0 74 74" fill="none" xmlns="http://www.w3.org/2000/svg">
<g clip-path="url(#clip0_176_1223)">
<path d="M14.7362 35.0214C14.7362 34.1644 14.7362 33.3074 14.7362 32.4056C16.3377 31.993 17.9491 31.5658 19.5672 31.1648C20.7926 30.861 20.8772 30.864 21.0678 32.1593C21.3444 34.039 21.4905 35.9377 21.6461 37.943C21.5816 39.346 21.5519 40.6342 21.5513 41.9224C21.5511 42.3264 21.6294 42.7305 21.6717 43.1345C21.5329 44.5265 21.4533 45.9275 21.2411 47.3083C20.95 49.2021 20.6907 51.1171 20.1778 52.9568C19.4624 55.5224 18.5381 58.0312 17.6693 60.5527C17.5347 60.9435 17.5144 61.1158 17.9247 61.3434C19.9438 62.4637 21.9358 63.6321 23.9417 64.7761C24.8333 65.2845 25.7252 65.7949 26.6406 66.2581C26.8271 66.3525 27.2235 66.3361 27.3466 66.2059C28.1141 65.394 28.833 64.5364 29.5649 63.6915C30.073 63.105 30.5537 62.4926 31.0974 61.9411C31.234 61.8025 31.6521 61.7346 31.7932 61.8364C32.7496 62.526 33.7003 63.2319 34.5826 64.011C35.082 64.452 35.4789 65.0217 35.8536 65.5787C35.9555 65.7301 35.8911 66.1062 35.7641 66.2773C34.8162 67.5539 33.8451 68.8139 32.8585 70.0614C31.7932 71.4086 30.7032 72.7365 29.6714 74.1102C29.3177 74.1477 28.9164 74.1477 28.4484 74.1477C28.153 73.9434 27.9543 73.684 27.6913 73.5435C25.5952 72.4241 23.4827 71.3349 21.3834 70.2213C19.5147 69.23 17.6638 68.2053 15.7914 67.2209C13.864 66.2076 11.9202 65.2252 9.89746 64.1849C10.0692 63.6069 10.2396 63.0431 10.4043 62.4777C11.391 59.091 12.4682 55.7267 13.3269 52.3082C13.8224 50.3351 14.0204 48.2805 14.2494 46.2512C14.4724 44.2755 14.5642 42.2851 14.7605 40.1839C14.8265 39.3081 14.8709 38.5491 14.8581 37.7911C14.8426 36.8675 14.779 35.9446 14.7362 35.0214Z" fill="#0A7CE8"/>
<path d="M58.5212 36.6355C58.7237 38.0438 58.9302 39.4516 59.1265 40.8607C59.1884 41.3054 59.1303 41.6604 58.5811 41.81C57.0487 42.2277 55.5273 42.6858 54.0031 43.1333C53.3256 43.3323 53.1147 43.1412 53.0352 42.4613C52.842 40.809 52.5891 39.1636 52.3619 37.5152C52.3354 37.3229 52.2975 37.1287 52.3014 36.9362C52.3453 34.7558 52.2799 32.565 52.4775 30.3981C52.6843 28.1295 53.0093 25.8612 53.6907 23.6632C54.683 20.4624 55.5649 17.2247 56.6713 14.0641C56.9563 13.2497 56.6421 13.0704 56.1753 12.8006C54.137 11.6225 52.0784 10.4792 50.0394 9.30226C49.0397 8.72519 48.0668 8.10225 47.0449 7.47758C45.837 8.84051 44.6666 10.1639 43.492 11.4837C43.3119 11.686 43.1439 11.9409 42.9128 12.0433C42.7116 12.1325 42.3372 12.1408 42.197 12.0134C40.8504 10.7902 39.5374 9.53057 38.1392 8.21C39.1371 7.13379 40.1139 6.10802 41.0588 5.05389C42.0696 3.92609 43.0152 2.73852 44.0591 1.64275C44.5767 1.09942 45.2509 0.703462 45.8105 0.194267C45.9254 0.147705 46.0839 0.147705 46.3018 0.147705C46.5017 0.263965 46.6281 0.404719 46.7846 0.492757C48.6919 1.56567 50.6211 2.60111 52.5102 3.70445C56.0025 5.74419 59.4759 7.81622 62.9481 9.88986C63.6897 10.3327 63.8124 10.8001 63.598 11.5582C63.1367 13.1895 62.717 14.8324 62.2668 16.4669C61.9065 17.7753 61.5237 19.0776 61.1559 20.384C60.8262 21.5549 60.4879 22.7239 60.1816 23.901C59.8504 25.1742 59.4994 26.4459 59.2538 27.7365C59.0065 29.0358 58.879 30.3576 58.6973 31.6693C58.6512 32.0022 58.5987 32.3342 58.5005 32.7789C58.4751 34.1392 58.4981 35.3874 58.5212 36.6355Z" fill="#0A7CE8"/>
<path d="M6.25665 43.4182C7.43393 43.6636 8.61118 43.9092 9.78851 44.1543C10.4976 44.3019 11.2022 44.479 11.9174 44.5867C12.5002 44.6745 12.5652 45.0443 12.4689 45.4771C12.1413 46.9504 11.7718 48.4145 11.4437 49.8878C11.3091 50.4921 10.9168 50.6041 10.4045 50.4998C8.03858 50.018 5.65508 49.6008 3.32006 48.9988C2.27622 48.7297 1.07606 48.7716 0.188868 47.9561C0.148438 47.8932 0.148438 47.7824 0.19108 47.5713C0.251326 44.7898 0.26893 42.1086 0.290833 39.3592C0.298162 38.3371 0.317132 37.383 0.296966 36.4296C0.287951 36.0035 0.200366 35.5789 0.148438 35.1537C0.148438 32.7381 0.148438 30.3225 0.148438 27.8377C1.81422 26.7055 3.76408 26.4999 5.61258 25.9979C8.54531 25.2015 11.4796 24.4054 14.4341 23.6953C16.833 23.1187 19.1463 22.3151 21.3561 21.2527C22.9948 20.4649 24.5826 19.5553 26.1239 18.5909C27.1976 17.9192 28.1727 17.085 29.1546 16.2786C29.5865 15.9239 29.9093 15.9105 30.3003 16.2947C31.494 17.4676 32.7073 18.6211 33.882 19.8123C33.9659 19.8974 33.8733 20.3095 33.7377 20.4277C32.9703 21.0967 32.1966 21.767 31.3653 22.3532C29.8657 23.4108 28.3947 24.5403 26.7822 25.3997C24.6677 26.5268 22.4851 27.5834 20.227 28.3748C17.414 29.3606 14.5067 30.0927 11.6158 30.842C9.89222 31.2887 8.12214 31.5582 6.26909 31.9099C6.13475 32.1731 6.08203 32.4334 6.07741 32.6945C6.04794 34.3609 6.02905 36.0274 5.99632 37.7604C6.01935 39.6457 6.05273 41.4646 6.1062 43.3148C6.16975 43.3702 6.2132 43.3942 6.25665 43.4182Z" fill="#0A7CE8"/>
<path d="M0.286736 39.4275C0.269132 42.1086 0.251528 44.7898 0.191282 47.5159C0.148639 44.8991 0.148639 42.2374 0.183152 39.5038C0.217664 39.432 0.286736 39.4275 0.286736 39.4275Z" fill="#0A7CE8"/>
<path d="M0.290833 39.3592C0.286534 39.4274 0.217463 39.4319 0.18295 39.4345C0.148438 38.0554 0.148438 36.6738 0.148438 35.2229C0.200366 35.5789 0.287951 36.0035 0.296966 36.4296C0.317132 37.383 0.298162 38.3371 0.290833 39.3592Z" fill="#0A7CE8"/>
<path d="M16.9292 6.49443C18.1579 5.77967 19.3192 5.04998 20.5061 4.36405C22.564 3.17481 24.6445 2.02418 26.6998 0.830677C27.1847 0.549108 27.3826 0.622095 27.7917 1.05933C30.3797 3.82541 32.9607 6.607 35.705 9.21629C37.4056 10.8333 39.3632 12.1911 41.2554 13.5989C42.8672 14.798 44.5086 15.9685 46.214 17.0292C47.8237 18.0303 49.5227 18.893 51.2046 19.7746C52.0797 20.2334 52.2316 20.4032 52.0025 21.3054C51.6264 22.7858 51.2125 24.2567 50.8294 25.7355C50.7032 26.2226 50.5628 26.3794 49.9773 26.1767C46.6516 25.0251 43.5442 23.4312 40.5571 21.6113C36.7192 19.2731 33.2233 16.4892 30.1652 13.1977C28.9078 11.8445 27.7765 10.3757 26.5856 8.96126C26.4436 8.7926 26.2878 8.63547 26.1117 8.44402C24.7992 9.19206 23.4921 9.92714 22.1947 10.6788C20.496 11.663 18.8111 12.6709 17.1059 13.6437C16.7346 13.8556 16.5919 13.9934 16.7675 14.4732C17.4419 16.3163 18.0401 18.187 18.6853 20.1024C16.9455 21.0546 15.1619 21.8634 13.1227 21.8399C12.8678 21.837 12.4783 21.577 12.3846 21.3436C11.1421 18.2476 9.94243 15.1347 8.72759 12.0278C8.65886 11.852 8.55151 11.6911 8.40869 11.423C11.2377 9.77742 14.0556 8.13831 16.9292 6.49443Z" fill="#0A7CE8"/>
<path d="M67.7833 36.0412C67.7833 36.0412 67.7601 35.9775 67.7583 35.8979C67.7553 35.7877 67.7541 35.7571 67.753 35.7264C67.753 35.7264 67.7599 35.6585 67.8034 35.5746C67.8256 34.2461 67.8042 33.0015 67.7828 31.7569C67.7828 31.7569 67.7596 31.6973 67.7372 31.6298C67.6719 31.531 67.6291 31.4997 67.5863 31.4683C66.4253 31.2566 65.2642 31.0455 64.1034 30.833C63.369 30.6986 62.6367 30.553 61.9004 30.4304C61.4922 30.3625 61.3563 30.1644 61.3591 29.7434C61.3725 27.7594 61.8212 25.888 62.7838 24.0619C66.4182 24.6837 70.0939 25.3125 73.8515 25.9554C73.8515 26.1477 73.8515 26.412 73.8515 26.6764C73.8515 33.2983 73.8342 39.9203 73.8746 46.542C73.8793 47.326 73.5871 47.5616 72.9053 47.7166C69.7246 48.4397 66.5314 49.1231 63.3828 49.9681C58.7152 51.2208 54.3392 53.2191 50.0887 55.4793C48.4401 56.356 46.8627 57.3667 45.2669 58.3391C44.5247 58.7913 44.208 58.788 43.6104 58.1945C42.5069 57.0985 41.418 55.9874 40.2925 54.9141C39.8773 54.5183 39.894 54.2469 40.3427 53.926C41.9483 52.7776 43.5038 51.5534 45.1615 50.4854C46.6934 49.4984 48.3159 48.6452 49.927 47.7859C53.4733 45.8945 57.245 44.571 61.1431 43.6289C62.921 43.1992 64.7538 42.9938 66.5614 42.6854C66.8214 42.6411 67.0802 42.5898 67.4221 42.5647C67.5541 42.5928 67.5878 42.5697 67.6057 42.5186C67.6545 42.4525 67.7033 42.3863 67.7995 42.2291C67.8672 40.4135 67.8939 38.689 67.9015 36.9644C67.9029 36.6569 67.8247 36.349 67.7833 36.0412Z" fill="#0A7CE8"/>
<path d="M35.3374 54.2494C36.1604 54.8706 36.9962 55.3977 37.7187 56.049C39.1056 57.2992 40.4793 58.5718 41.7657 59.9224C43.6656 61.9169 45.486 63.9864 47.3362 66.0275C47.6285 66.3499 47.8656 66.3784 48.2807 66.1341C50.4036 64.8843 52.5613 63.6933 54.6994 62.4689C55.6788 61.908 56.6411 61.3177 57.7276 60.6714C57.5119 60.002 57.2886 59.2779 57.0452 58.5606C56.6631 57.4345 56.2407 56.321 55.8913 55.1852C55.7636 54.7701 55.8725 54.4264 56.4378 54.2762C57.9507 53.8741 59.4406 53.3866 60.9429 52.9441C61.146 52.8842 61.368 52.8875 61.6644 52.8514C62.6209 55.8537 63.5211 58.8363 64.5315 61.7815C65.0121 63.1827 64.8535 63.5276 63.5458 64.2671C61.7111 65.3047 59.8671 66.3262 58.0435 67.3826C55.5826 68.8081 53.1408 70.2662 50.6834 71.6979C49.8076 72.2081 48.9201 72.7005 48.0201 73.1672C47.1459 73.6205 46.597 73.4689 45.9235 72.7727C45.2444 72.0707 44.4961 71.4353 43.804 70.7451C42.9767 69.9199 42.1828 69.0616 41.3633 68.2286C40.5706 67.4227 39.755 66.639 38.9651 65.8305C37.9573 64.7991 37.0276 63.6829 35.9511 62.7295C34.501 61.4452 32.9417 60.2828 31.4315 59.0654C29.6922 57.6632 27.7548 56.5835 25.7381 55.6406C24.7627 55.1845 23.78 54.7238 22.759 54.3912C22.1344 54.1877 22.0455 53.8 22.1565 53.3337C22.5495 51.6828 22.9945 50.0442 23.4568 48.2583C24.6234 48.6734 25.7599 49.0307 26.8591 49.4782C29.6422 50.6113 32.2188 52.1302 34.7339 53.7554C34.9362 53.8861 35.1113 54.0585 35.3374 54.2494Z" fill="#0A7CE8"/>
<path d="M6.08627 43.2834C6.05289 41.4646 6.01951 39.6458 6.03119 37.7544C6.12295 37.672 6.17007 37.665 6.21761 37.6609C6.22426 39.4844 6.2309 41.308 6.19371 43.2019C6.14987 43.2723 6.08627 43.2834 6.08627 43.2834Z" fill="#0A7CE8"/>
<path d="M6.22887 37.5929C6.16996 37.6649 6.12284 37.6719 6.04143 37.6878C6.02909 36.0274 6.04798 34.3608 6.07746 32.6945C6.08208 32.4334 6.1348 32.1731 6.20886 31.9152C6.24838 33.7869 6.24431 35.656 6.22887 37.5929Z" fill="#0A7CE8"/>
<path d="M67.7723 36.1096C67.8244 36.3489 67.9026 36.6568 67.9013 36.9644C67.8937 38.6889 67.8669 40.4134 67.8147 42.1898C67.7757 40.2205 67.7687 38.1993 67.7723 36.1096Z" fill="#0A7CE8"/>
<path d="M14.7259 35.0887C14.779 35.9446 14.8426 36.8675 14.8581 37.7911C14.8709 38.5491 14.8265 39.3081 14.7716 40.1152C14.7291 38.4944 14.7224 36.8253 14.7259 35.0887Z" fill="#0A7CE8"/>
<path d="M21.6834 43.0655C21.6293 42.7304 21.5511 42.3264 21.5513 41.9224C21.5519 40.6342 21.5816 39.3459 21.6357 38.0073C21.6793 39.6368 21.6872 41.3167 21.6834 43.0655Z" fill="#0A7CE8"/>
<path d="M67.7723 31.8254C67.8042 33.0015 67.8255 34.2461 67.8149 35.5424C67.7759 34.3607 67.7688 33.1274 67.7723 31.8254Z" fill="#0A7CE8"/>
<path d="M58.5304 36.5661C58.4982 35.3874 58.4751 34.1393 58.489 32.842C58.5305 34.0275 58.535 35.2621 58.5304 36.5661Z" fill="#0A7CE8"/>
<path d="M67.5991 31.5082C67.6291 31.4997 67.6719 31.531 67.7331 31.5981C67.7049 31.6053 67.6584 31.5767 67.5991 31.5082Z" fill="#0A7CE8"/>
<path d="M67.7143 35.741C67.7538 35.7571 67.7549 35.7877 67.7544 35.8642C67.7271 35.8586 67.7016 35.807 67.7143 35.741Z" fill="#0A7CE8"/>
<path d="M67.57 42.5291C67.5873 42.5696 67.5537 42.5927 67.4848 42.5757C67.4654 42.5636 67.5348 42.5396 67.57 42.5291Z" fill="#0A7CE8"/>
<path d="M6.10638 43.3148C6.0863 43.2834 6.14989 43.2722 6.18208 43.2695C6.22212 43.2919 6.22996 43.3169 6.24732 43.3801C6.21338 43.3942 6.16993 43.3703 6.10638 43.3148Z" fill="#0A7CE8"/>
</g>
<defs>
<clipPath id="clip0_176_1223">
<rect width="74" height="74" fill="white"/>
</clipPath>
</defs>
</svg>
