<svg width="714" height="722" viewBox="0 0 714 722" fill="none" xmlns="http://www.w3.org/2000/svg">
<path d="M148.95 677.932C82.325 658.789 34.8697 618.177 8.24939 554.376C-0.941065 532.349 -2.5767 509.255 3.96833 485.885C7.61341 472.869 14.3872 462.02 26.9191 456.585C50.4252 446.391 67.8131 429.65 81.9131 408.788C86.8886 401.427 93.2491 395.272 101.029 390.737C111.93 384.382 123.504 382.943 135.691 385.902C137.308 386.295 138.877 386.901 140.503 387.24C143.29 387.822 146.877 389.986 148.531 386.47C150.088 383.159 149.432 379.368 146.319 376.428C134.922 365.664 128.594 352.02 124.689 337.148C123.56 332.848 122.82 328.38 123.595 323.809C126.032 309.432 135.771 302.806 150.252 305.571C156.657 306.794 162.803 308.838 169.015 310.714C192.354 317.764 215.347 316.073 238.029 307.762C244.139 305.523 248.859 301.308 253.15 296.57C257.078 292.234 261.496 289.209 267.744 289.006C272.7 288.845 274.897 284.459 277.122 280.827C282.364 272.272 286.163 262.991 289.663 253.634C300.161 225.572 315.031 200.077 334.37 177.241C343.539 166.415 353.067 155.441 365.904 149.164C378.158 143.172 382.177 133.731 383.054 121.302C384.534 100.326 384.599 79.4156 382.128 58.501C381.354 51.9425 379.567 46.6862 373.538 42.6294C364.727 36.7004 362.52 24.4399 367.3 14.3255C371.971 4.44223 383.85 -1.69675 394.215 0.415538C413.666 4.37954 421.456 24.956 409.106 40.3121C405.422 44.8931 405.024 49.0471 406.065 54.9051C408.475 68.4564 410.621 82.1585 410.563 96.0198C410.525 105.36 411.132 114.664 411.6 123.981C411.75 126.962 412.588 128.022 415.86 127.544C426.391 126.008 436.944 124.243 447.547 123.691C456.475 123.226 465.444 124.629 474.335 126.038C500.242 130.143 524.885 137.914 547.517 151.356C553.079 154.659 558.112 158.854 563.382 162.646C571.447 168.45 572.381 168.251 578.303 160.103C589.505 144.691 596.732 127.333 602.919 109.509C606.52 99.1354 609.499 88.5475 612.953 78.1206C614.073 74.7408 613.5 72.1018 611.347 69.3546C603.534 59.3846 603.082 48.1996 609.912 38.4293C615.937 29.809 628.544 25.916 639.492 29.2952C650.377 32.6552 657.93 42.6146 657.817 54.0192C657.718 63.9891 652.801 71.185 643.777 75.1924C639.738 76.9864 637.482 79.5937 636.164 83.7101C632.807 94.1958 630.715 104.975 628.257 115.673C623.662 135.666 616.489 154.866 610.083 174.3C608.103 180.308 606.343 186.403 604.03 192.28C601.9 197.691 602.395 202.584 605.085 207.598C611.391 219.353 617.213 231.308 620.096 244.481C628.669 283.652 626.248 321.822 609.966 358.784C606.542 366.556 603.252 374.387 599.859 382.174C598.545 385.189 598.409 387.846 601.181 390.266C604.398 393.074 604.961 396.802 604.088 400.792C602.36 408.7 603.847 415.362 609.081 422.08C632.275 451.851 656.202 480.841 686.349 504.034C692.474 508.746 693.695 512.832 689.956 519.587C686.947 525.025 688.187 528.634 692.052 532.834C697.227 538.459 702.905 543.628 707.353 549.952C719.813 567.666 711.921 580.452 695.821 587.565C680.42 594.37 664.463 593.092 649.047 587.234C625.569 578.313 631.945 579.155 611.905 588.716C605.24 591.896 598.47 594.406 590.964 594.783C582.379 595.214 575.796 591.845 570.686 585.146C564.705 577.304 559.945 568.706 555.089 560.161C554 558.246 553.288 555.814 550.213 555.16C548.615 560.618 547.146 566.033 545.447 571.375C533.426 609.169 514.361 643.074 488.884 673.41C487.175 675.445 485.2 677.262 483.293 679.124C475.2 687.026 465.783 690.357 454.532 687.486C451.959 686.83 449.32 686.427 446.706 685.935C440.729 684.81 435.468 685.729 430.253 689.474C408.143 705.348 383.725 716.018 356.673 719.938C333.007 723.368 310.275 719.377 288.411 710.014C280.91 706.802 273.406 703.574 266.067 700.014C250.057 692.247 232.955 689.318 215.444 687.652C193.264 685.543 171.035 683.618 148.95 677.932Z" fill="#FAD762"/>
<path d="M637.69 466.791C624.954 452.231 613.072 436.981 601.461 421.523C599.399 418.778 597.613 417.907 594.43 419.746C591.422 421.484 588.162 422.899 584.861 423.997C555.888 433.637 526.039 435.775 495.7 435.121C458.763 434.326 422.894 427.861 387.865 416.561C354.133 405.678 322.79 390.041 295.122 367.619C276.933 352.878 262.393 334.941 250.12 315.095C248.743 312.868 247.89 310.286 244.11 311.971C226.073 320.015 207.07 322.559 187.519 320.87C181.774 320.373 177.661 322.148 174.045 326.448C155.618 348.358 144.732 387.768 167.741 420.075C169.338 422.317 170.634 425.001 173.619 425.882C175.63 424.899 176.394 422.959 177.472 421.326C186.658 407.425 195.806 393.499 204.972 379.585C205.704 378.473 206.425 377.344 207.253 376.305C208.313 374.977 209.78 374.625 211.296 375.29C213.192 376.123 212.679 377.749 212.171 379.158C211.495 381.033 210.767 382.913 209.838 384.672C202.982 397.651 195.071 409.948 186.231 421.678C175.865 435.432 165.183 448.79 150.236 458.02C143.585 462.126 142.184 468.232 144.662 475.394C145.75 478.537 146.82 481.702 148.164 484.739C156.638 503.89 167.671 521.505 180.393 538.095C207.832 573.875 242.95 600.054 282.983 620.069C314.178 635.664 346.767 647.924 379.338 660.224C402.726 669.057 426.341 677.04 450.96 681.907C463.378 684.362 473.689 682.169 481.635 671.851C481.838 671.587 482.071 671.347 482.292 671.097C510.033 639.769 528.652 603.358 542.041 564.015C545.904 552.665 547.971 541.45 541.093 530.426C540.575 529.597 540.316 528.58 540.063 527.618C539.259 524.566 536.526 520.38 540.87 518.979C544.658 517.758 545.367 522.597 546.343 525.344C553.089 544.322 562.687 561.788 574.054 578.331C575.556 580.518 577.355 582.506 579.078 584.534C581.507 587.394 584.652 588.589 588.384 588.509C594.818 588.37 600.889 586.577 606.799 584.303C628.175 576.079 645.9 562.339 662.502 546.98C670.995 539.123 678.187 530.173 683.85 520.064C687.349 513.819 687.159 512.114 681.402 507.989C665.16 496.352 651.374 482.154 637.69 466.791ZM358.763 398.642C364.95 401.56 371.456 403.592 377.946 405.695C381.106 406.72 383.114 405.989 384.166 402.812C384.741 401.076 385.391 399.362 385.901 397.607C386.934 394.056 386.048 391.587 382.24 390.22C376.296 388.084 370.472 385.616 364.591 383.305C358.95 381.089 358.036 381.512 355.301 387.528C352.39 393.928 352.86 395.769 358.763 398.642ZM389.644 406.101C389.146 409.107 390.51 410.716 393.358 411.592C400.361 413.747 407.439 415.518 414.638 416.915C419.096 417.781 420.406 415.246 420.952 411.876C421.535 408.279 424.498 403.784 418.396 401.933C412.671 400.196 406.869 398.716 401.117 397.065C392.619 394.626 392.282 394.792 389.988 403.313C389.816 403.95 389.792 404.627 389.644 406.101ZM321.302 365.077C323.236 362.261 322.9 359.905 320.111 357.771C314.819 353.725 309.577 349.611 304.402 345.417C302.239 343.663 300.537 343.963 298.858 345.972C297.578 347.502 296.229 348.975 294.962 350.515C292.436 353.586 292.329 356.437 295.666 359.095C299.57 362.205 303.276 365.574 307.276 368.552C315.477 374.656 315.65 374.554 321.302 365.077ZM472.724 427.606C477.813 428.624 482.971 428.149 488.099 428.353C491.577 428.492 493.684 427.23 493.355 423.588C493.03 420.001 495.328 415.042 489.349 413.911C482.18 412.554 474.909 412.022 467.611 411.896C465.607 411.861 464.155 412.555 463.137 414.384C458.742 422.279 461.013 426.71 469.851 427.346C470.513 427.393 471.174 427.443 472.724 427.606ZM425.766 417.918C425.872 420.672 428.097 420.854 429.988 421.23C436.149 422.453 442.328 423.587 448.507 424.713C453.438 425.611 454.815 424.512 456.008 418.855C457.392 412.289 456.606 410.246 451.934 409.137C448.238 408.261 444.491 407.56 440.737 406.975C428.729 405.105 428.724 405.139 425.766 417.918ZM529.243 413.753C520.907 413.381 512.635 414.697 504.325 414.72C500.808 414.73 499.408 415.966 499.76 419.393C499.862 420.381 499.889 421.405 499.752 422.385C499.126 426.851 500.74 428.715 505.497 428.447C511.803 428.092 518.146 428.413 524.472 428.351C527.373 428.323 530.755 429.129 532.116 425.315C533.593 421.175 533.553 417.225 529.243 413.753ZM345.718 391.124C348.978 389.376 349.487 385.874 350.891 382.957C352.865 378.857 351.488 376.011 347.531 374.069C344.106 372.388 340.773 370.52 337.366 368.8C327.982 364.063 328.067 364.125 323.178 373.41C321.567 376.47 321.684 378.431 324.841 380.361C331.361 384.348 337.862 388.325 345.718 391.124ZM570.476 415.02C570.87 419.714 573.243 420.806 577.545 419.248C581.748 417.726 586.129 416.702 590.36 415.249C595.062 413.633 600.584 401.988 598.977 397.27C598.499 395.868 597.842 394.467 595.377 394.262C593.362 399.087 589.24 401.87 584.077 403.304C581.044 404.146 578.075 405.242 575.013 405.95C570.32 407.036 568.607 409.636 570.476 415.02ZM290.969 331.517C288.364 328.959 285.791 326.367 283.145 323.853C281.231 322.035 279.417 322.005 277.725 324.293C270.139 334.553 269.89 331.934 277.245 341.054C279.323 343.631 281.675 345.993 283.979 348.378C284.874 349.304 286.046 350.619 287.389 349.604C290.987 346.887 294.481 343.757 296.047 339.537C297.4 335.885 293.125 334.487 290.969 331.517ZM254.283 304.929C253.148 307.263 254.459 309.203 255.532 310.993C257.753 314.701 260.074 318.375 262.678 321.817C264.024 323.595 265.034 326.666 268.391 325.305C271.302 324.125 276.517 316.652 275.528 314.685C272.416 308.494 269.149 302.358 264.45 296.963C263.275 297.64 262.351 298.033 261.594 298.634C259.254 300.494 256.978 302.433 254.283 304.929ZM564.224 420.475C564.27 419.316 564.407 418.153 564.349 416.999C564.009 410.271 562.78 409.346 555.969 410.42C552.857 410.911 549.708 411.723 546.605 411.607C539.013 411.321 538.347 412.033 538.447 421.442C538.482 424.753 539.982 426.294 543.311 426.274C548.329 426.245 553.216 425.31 558.077 424.243C560.263 423.764 562.829 423.822 564.224 420.475Z" fill="#FAF1E2"/>
<path d="M347.183 562.971C348.874 566.332 346.624 568.345 345.199 570.446C343.432 573.053 341.398 575.492 339.342 577.885C337.317 580.241 334.501 581.455 331.732 579.977C322.337 574.962 312.055 571.885 302.861 566.423C298.55 563.861 297.612 561.196 299.34 556.218C304.666 540.874 306.62 524.886 306.727 508.67C306.775 501.487 309.207 499.065 316.523 498.719C319.256 498.59 320.785 499.421 321.457 502.32C323.091 509.366 323.7 516.518 322.935 523.626C321.963 532.654 321.275 541.801 316.84 550.126C314.627 554.28 316.23 558.539 320.464 560.578C323.137 561.865 325.998 562.86 328.874 563.597C330.991 564.139 333.076 563.663 334.882 562.032C340.289 557.15 341.428 557.255 347.183 562.971Z" fill="#EBC44D"/>
<path d="M388.049 524.802C392.804 522.893 397.486 522.574 402.087 521.964C405.02 521.575 406.439 520.092 407.1 517.301C408.079 513.168 407.886 509.004 407.561 504.878C407.251 500.952 404.02 499.808 400.777 499.459C396.642 499.015 395.333 496.851 395.908 493.025C396.483 489.201 397.767 486.309 402.522 486.752C407.509 487.218 412.639 487.376 417.118 489.683C423.02 492.724 419.727 498.655 420.513 503.248C421.757 510.517 420.272 517.865 420.227 525.186C420.201 529.372 418.318 532.311 413.448 532.84C400.313 534.267 388.348 539.048 377.133 545.956C373.751 548.038 370.088 549.729 366.111 550.551C362.433 551.311 359.496 550.427 357.742 546.897C355.899 543.189 358.024 541.105 360.791 539.023C368.995 532.853 378.118 528.495 388.049 524.802Z" fill="#EBC44D"/>
<path d="M310.469 481.956C305.499 482.914 303 480.818 301.389 476.607C294.832 459.467 296.601 462.524 308.205 455.128C313.956 451.463 319.93 448.151 325.751 444.594C329.361 442.388 332.487 442.336 335.451 445.794C337.283 447.931 339.605 449.641 341.534 451.704C350.826 461.644 361.22 470.04 373.672 475.816C378.928 478.255 379.838 484.134 376.191 488.69C374.334 491.009 372.017 490.663 369.878 489.563C358.317 483.621 346.84 477.489 338.139 467.469C329.208 457.184 329.502 457.518 317.842 464.366C313.074 467.167 312.477 469.873 314.174 474.353C315.486 477.818 314.778 480.593 310.469 481.956Z" fill="#EBC44D"/>
<path d="M355.432 550.565C359.942 554.794 364.234 558.741 368.435 562.782C370.393 564.666 372.354 565.031 374.711 563.592C376.841 562.291 379.062 561.141 381.228 559.899C388.23 555.883 388.339 555.848 386.233 548.194C385.362 545.026 386.759 543.349 389.297 542.314C391.915 541.247 394.946 539.976 396.838 543.301C399.58 548.119 401.12 553.394 401.615 558.945C401.787 560.884 400.659 562.03 399.198 562.989C391.118 568.295 382.854 573.293 374.292 577.786C369.994 580.042 366.224 578.955 362.932 575.71C357.83 570.682 352.743 565.638 347.713 560.539C341.569 554.309 334.732 549.076 326.626 545.646C323.534 544.338 321.677 542.338 322.248 538.746C323.162 533.01 324.91 531.913 330.397 533.844C340.042 537.238 347.901 543.348 355.432 550.565Z" fill="#416FB6"/>
<path d="M292.132 519.467C292.62 523.677 295.758 523.462 298.246 523.637C303.26 523.989 303.796 527.066 303.119 530.949C302.456 534.755 300.602 536.732 296.208 536.011C280.453 533.423 279.701 532.698 279.755 516.633C279.776 510.65 279.683 504.674 280.509 498.695C281.112 494.333 283.033 491.741 287.352 490.666C294.768 488.82 302.073 486.492 309.532 484.856C318.086 482.981 325.09 478.259 332.127 473.526C334.967 471.616 337.409 471.247 340.189 473.711C344.516 477.548 344.659 480.288 339.835 483.651C330.073 490.458 319.547 495.56 307.796 498.186C289.318 502.316 292.722 499.589 292.072 517.533C292.054 518.031 292.091 518.532 292.132 519.467Z" fill="#416FB6"/>
<path d="M383.664 477.758C387.078 465.037 388.532 467.403 376.821 459.988C371.938 456.897 367.877 456.237 363.628 460.982C360.922 464.005 358.052 462.783 355.377 460.302C352.57 457.698 352.738 455.449 355.224 452.669C368.465 437.86 364.411 440.225 379.373 447.566C385.191 450.421 390.675 453.957 396.309 457.187C399.446 458.985 400.743 461.467 399.603 465.129C398.815 467.66 398.772 470.475 397.714 472.861C391.684 486.453 390.214 500.683 391.232 515.327C391.412 517.91 391.173 520.163 388.077 521.32C382.801 523.292 380.407 522.458 379.487 516.92C377.285 503.666 378.935 490.728 383.664 477.758Z" fill="#416FB6"/>
<path d="M438.19 272.733C450.072 275.492 461.558 278.176 473.053 280.826C481.597 282.796 485.129 289.143 481.862 297.338C476.538 310.689 460.486 325.757 437.509 324.333C420.248 323.262 404.411 311.176 399.515 294.482C397.073 286.155 396.467 277.817 399.591 269.53C401.624 264.14 405.886 261.991 411.507 263.295C420.628 265.41 428.858 270.024 438.19 272.733ZM429.46 316.15C438.04 318.646 446.597 318.573 454.916 315.291C461.7 312.615 462.364 308.756 456.868 304.382C452.134 300.614 447.094 297.449 440.45 299C438.22 299.52 435.714 299.5 433.564 298.456C427.471 295.499 421.875 297.535 416.305 299.951C412.838 301.454 412.485 303.83 414.729 306.685C418.359 311.302 423.258 314.022 429.46 316.15ZM450.191 290.487C453.691 289.343 457.786 289.371 460.851 284.481C449.104 283.679 439.095 278.879 427.896 276.332C428.443 280.433 430.632 282.789 433.187 284.921C437.881 288.838 443.59 289.835 450.191 290.487Z" fill="black"/>
<path d="M509.057 286.641C503.392 270.554 507.035 256.41 517.046 243.805C521.791 237.829 528.669 235.355 536.306 237.114C543.814 238.843 548.226 244.194 550.21 251.397C554.347 266.418 550.969 279.65 540.085 290.842C535.473 295.585 529.489 297.026 523.173 296.705C516.674 296.374 511.896 293.067 509.057 286.641Z" fill="black"/>
<path d="M389.41 247.396C387.333 249.628 385.202 251.201 382.836 252.459C370.01 259.283 358.021 253.082 355.996 238.1C354.475 226.846 357.067 216.256 363.789 206.961C369.376 199.237 377.933 196.114 385.996 198.477C393.74 200.746 398.545 207.267 399.196 217.078C399.94 228.283 397.143 238.481 389.41 247.396Z" fill="black"/>
<path d="M148.95 677.932C82.325 658.789 34.8697 618.177 8.24939 554.376C-0.941065 532.349 -2.5767 509.255 3.96833 485.885C7.61341 472.869 14.3872 462.02 26.9191 456.585C50.4252 446.391 67.8131 429.65 81.9131 408.788C86.8886 401.427 93.2491 395.272 101.029 390.737C111.93 384.382 123.504 382.943 135.691 385.902C137.308 386.295 138.877 386.901 140.503 387.24C143.29 387.822 146.877 389.986 148.531 386.47C150.088 383.159 149.432 379.368 146.319 376.428C134.922 365.664 128.594 352.02 124.689 337.148C123.56 332.848 122.82 328.38 123.595 323.809C126.032 309.432 135.771 302.806 150.252 305.571C156.657 306.794 162.803 308.838 169.015 310.714C192.354 317.764 215.347 316.073 238.029 307.762C244.139 305.523 248.859 301.308 253.15 296.57C257.078 292.234 261.496 289.209 267.744 289.006C272.7 288.845 274.897 284.459 277.122 280.827C282.364 272.272 286.163 262.991 289.663 253.634C300.161 225.572 315.031 200.077 334.37 177.241C343.539 166.415 353.067 155.441 365.904 149.164C378.158 143.172 382.177 133.731 383.054 121.302C384.534 100.326 384.599 79.4156 382.128 58.501C381.354 51.9425 379.567 46.6862 373.538 42.6294C364.727 36.7004 362.52 24.4399 367.3 14.3255C371.971 4.44223 383.85 -1.69675 394.215 0.415538C413.666 4.37954 421.456 24.956 409.106 40.3121C405.422 44.8931 405.024 49.0471 406.065 54.9051C408.475 68.4564 410.621 82.1585 410.563 96.0198C410.525 105.36 411.132 114.664 411.6 123.981C411.75 126.962 412.588 128.022 415.86 127.544C426.391 126.008 436.944 124.243 447.547 123.691C456.475 123.226 465.444 124.629 474.335 126.038C500.242 130.143 524.885 137.914 547.517 151.356C553.079 154.659 558.112 158.854 563.382 162.646C571.447 168.45 572.381 168.251 578.303 160.103C589.505 144.691 596.732 127.333 602.919 109.509C606.52 99.1354 609.499 88.5475 612.953 78.1206C614.073 74.7408 613.5 72.1018 611.347 69.3546C603.534 59.3846 603.082 48.1996 609.912 38.4293C615.937 29.809 628.544 25.916 639.492 29.2952C650.377 32.6552 657.93 42.6146 657.817 54.0192C657.718 63.9891 652.801 71.185 643.777 75.1924C639.738 76.9864 637.482 79.5937 636.164 83.7101C632.807 94.1958 630.715 104.975 628.257 115.673C623.662 135.666 616.489 154.866 610.083 174.3C608.103 180.308 606.343 186.403 604.03 192.28C601.9 197.691 602.395 202.584 605.085 207.598C611.391 219.353 617.213 231.308 620.096 244.481C628.669 283.652 626.248 321.822 609.966 358.784C606.542 366.556 603.252 374.387 599.859 382.174C598.545 385.189 598.409 387.846 601.181 390.266C604.398 393.074 604.961 396.802 604.088 400.792C602.36 408.7 603.847 415.362 609.081 422.08C632.275 451.851 656.202 480.841 686.349 504.034C692.474 508.746 693.695 512.832 689.956 519.587C686.947 525.025 688.187 528.634 692.052 532.834C697.227 538.459 702.905 543.628 707.353 549.952C719.813 567.666 711.921 580.452 695.821 587.565C680.42 594.37 664.463 593.092 649.047 587.234C625.569 578.313 631.945 579.155 611.905 588.716C605.24 591.896 598.47 594.406 590.964 594.783C582.379 595.214 575.796 591.845 570.686 585.146C564.705 577.304 559.945 568.706 555.089 560.161C554 558.246 553.288 555.814 550.213 555.16C548.615 560.618 547.146 566.033 545.447 571.375C533.426 609.169 514.361 643.074 488.884 673.41C487.175 675.445 485.2 677.262 483.293 679.124C475.2 687.026 465.783 690.357 454.532 687.486C451.959 686.83 449.32 686.427 446.706 685.935C440.729 684.81 435.468 685.729 430.253 689.474C408.143 705.348 383.725 716.018 356.673 719.938C333.007 723.368 310.275 719.377 288.411 710.014C280.91 706.802 273.406 703.574 266.067 700.014C250.057 692.247 232.955 689.318 215.444 687.652C193.264 685.543 171.035 683.618 148.95 677.932ZM637.61 466.618C624.874 452.057 612.992 436.808 601.381 421.349C599.319 418.604 597.533 417.734 594.35 419.573C591.342 421.311 588.083 422.726 584.781 423.824C555.808 433.463 525.96 435.602 495.62 434.948C458.683 434.152 422.814 427.688 387.785 416.387C354.053 405.505 322.71 389.868 295.042 367.445C276.853 352.705 262.313 334.767 250.04 314.922C248.663 312.694 247.81 310.112 244.031 311.798C225.993 319.842 206.99 322.385 187.439 320.696C181.694 320.2 177.581 321.974 173.965 326.274C155.539 348.185 144.652 387.594 167.661 419.902C169.258 422.144 170.554 424.827 173.539 425.709C175.55 424.725 176.314 422.786 177.393 421.153C186.578 407.251 195.726 393.326 204.892 379.411C205.625 378.299 206.345 377.171 207.173 376.132C208.233 374.803 209.7 374.452 211.216 375.117C213.112 375.949 212.599 377.576 212.091 378.984C211.415 380.86 210.687 382.739 209.758 384.499C202.902 397.478 194.991 409.775 186.151 421.505C175.785 435.259 165.103 448.617 150.156 457.846C143.505 461.953 142.104 468.058 144.582 475.221C145.67 478.364 146.74 481.528 148.084 484.566C156.558 503.716 167.591 521.332 180.313 537.921C207.752 573.701 242.87 599.881 282.903 619.895C314.098 635.491 346.687 647.75 379.258 660.051C402.646 668.884 426.261 676.866 450.88 681.734C463.298 684.189 473.609 681.995 481.555 671.677C481.758 671.414 481.991 671.173 482.212 670.924C509.953 639.595 528.572 603.185 541.961 563.841C545.824 552.491 547.891 541.276 541.013 530.253C540.495 529.423 540.237 528.407 539.983 527.444C539.179 524.392 536.446 520.206 540.79 518.806C544.578 517.585 545.287 522.424 546.263 525.171C553.009 544.149 562.607 561.615 573.974 578.158C575.476 580.344 577.275 582.333 578.998 584.361C581.427 587.22 584.572 588.416 588.304 588.335C594.738 588.196 600.809 586.403 606.719 584.13C628.095 575.906 645.82 562.165 662.422 546.807C670.915 538.95 678.107 530 683.77 519.891C687.269 513.646 687.079 511.941 681.322 507.816C665.081 496.179 651.294 481.98 637.61 466.618ZM495.597 406.398C511.098 407.564 526.554 406.383 541.943 404.897C554.681 403.668 567.353 401.691 579.569 397.447C584.282 395.81 587.678 393.155 589.905 388.727C602.06 364.562 612.387 339.881 616.597 312.798C620.408 288.289 618.68 264.436 612.377 240.636C609.234 228.772 603.132 218.18 598.743 206.862C597.409 203.424 596.105 199.98 597.26 196.207C598.576 191.911 599.923 187.626 601.257 183.336C608.423 160.296 615.841 137.33 622.648 114.185C626.116 102.396 628.498 90.2875 631.344 78.317C632.188 74.7683 634.138 72.8198 637.853 71.694C646.615 69.0386 652.484 58.7626 650.854 49.9624C649.44 42.3225 642.917 35.8009 635.558 34.6691C625.953 33.1919 618.556 36.4697 614.24 44.1157C610.41 50.9004 611.45 59.7358 616.815 65.9424C619.018 68.4907 621.347 71.034 620.189 74.8072C613.699 95.9531 608.038 117.381 598.702 137.558C597.123 140.97 595.354 144.916 593.354 148.916L591.854 151.916C591.854 151.916 586.821 159.632 584.664 162.294C581.73 165.914 578.967 169.652 575.678 172.997C572.476 176.254 569.984 176.196 566.329 173.235C522.397 137.646 472.304 125.072 416.686 133.873C405.534 135.638 405.598 135.681 405.25 124.136C404.608 102.856 403.63 81.6015 400.46 60.4826C399.212 52.1616 396.939 43.6745 404.463 36.0832C411.546 28.9356 409.282 16.1999 401.013 10.0771C392.584 3.83599 381.034 6.05667 374.717 15.1329C368.713 23.7606 370.795 33.823 380.078 39.6841C383.569 41.8881 385.713 44.6773 386.573 48.6645C392.407 75.7183 391.607 102.89 388.282 130.145C387.042 140.31 382.331 147.282 373.097 152.454C353.692 163.32 339.04 179.433 326.749 197.807C315.203 215.066 307.057 234.054 298.745 252.929C296.266 258.558 291.212 269.578 291.212 269.578C291.212 269.578 286.568 279.675 283.124 283.292C274.281 292.581 273.314 297.903 280.624 308.278C298.363 333.455 321.509 352.478 348.349 367.043C393.941 391.786 442.981 404.051 495.597 406.398ZM401.854 698.416C405.95 695.956 420.538 687.494 424.844 683.901C424.844 683.901 409.851 678.54 406.344 677.401C406.344 677.401 390.888 670.632 382.843 667.836C354.836 658.101 327.006 647.879 299.948 635.682C271.603 622.906 244.495 608.042 219.936 588.794C192.906 567.609 172.211 541.022 154.53 511.928C147.355 500.121 140.427 488.092 137.586 474.293C135.826 465.748 137.253 458.648 145.53 453.653C153.257 448.989 159.713 442.623 165.832 435.98C168.178 433.433 168.732 430.985 166.204 428.084C159.785 420.717 155.084 412.335 151.833 403.11C150.383 398.996 147.674 395.749 143.471 394.359C130.209 389.973 117.22 389.123 104.496 396.69C92.488 403.832 84.7814 414.95 76.5459 425.589C68.6353 435.808 60.2792 445.473 48.7603 451.794C42.7751 455.078 36.6432 458.093 30.6317 461.331C20.091 467.007 13.4371 475.732 10.2382 487.256C3.53766 511.394 6.27521 534.909 15.6618 557.653C32.1713 597.656 61.1222 626.882 97.2013 649.633C137.32 674.931 226.082 682.461 228.468 682.438C230.854 682.416 238.354 684.416 238.354 684.416C238.354 684.416 262.854 691.916 264.854 692.916C266.854 693.916 283.969 701.916 288.411 703.916C292.854 705.916 304.27 709.627 307.5 710.5C322.441 714.539 327 715 327 715L338 715.916L349.854 714.916L366.354 711.416L385.854 705.916L401.854 698.416ZM700.692 551.554C696.491 546.827 691.996 542.322 688.181 537.302C685.153 533.317 683.084 533.736 680.087 537.173C672.105 546.328 664.241 555.603 654.928 563.507C650.627 567.158 640.664 573.829 644.844 577.901C647.992 580.968 663.344 584.401 663.344 584.401C663.344 584.401 665.969 584.952 667.166 584.967C674.804 585.064 682.382 585.502 689.958 583.339C706.437 578.633 711.091 566.051 700.692 551.554ZM131.844 318.901C131.036 320.225 130.591 325.989 130.591 325.989C131.25 341.083 135.492 354.792 147.754 367.014C151.302 348.309 159.337 333.078 169.767 318.368C164.794 316.759 161.18 315.591 157.567 314.42C156.142 313.958 140.371 311.332 139.344 312.401C133.344 313.401 131.844 318.901 131.844 318.901ZM358.683 398.468C364.87 401.386 371.376 403.419 377.866 405.522C381.026 406.546 383.034 405.815 384.086 402.639C384.661 400.902 385.311 399.189 385.821 397.434C386.854 393.882 385.968 391.414 382.16 390.046C376.216 387.911 370.392 385.443 364.511 383.132C358.87 380.915 357.957 381.338 355.221 387.354C352.31 393.755 352.78 395.596 358.683 398.468ZM389.564 405.928C389.066 408.934 390.43 410.542 393.278 411.419C400.281 413.573 407.359 415.344 414.558 416.742C419.016 417.607 420.326 415.072 420.872 411.703C421.455 408.105 424.418 403.61 418.317 401.759C412.591 400.023 406.789 398.543 401.037 396.892C392.539 394.452 392.202 394.619 389.908 403.14C389.736 403.777 389.712 404.454 389.564 405.928ZM321.222 364.903C323.156 362.088 322.82 359.731 320.031 357.598C314.739 353.551 309.497 349.437 304.322 345.243C302.159 343.49 300.457 343.789 298.778 345.798C297.498 347.329 296.149 348.801 294.882 350.342C292.356 353.413 292.249 356.264 295.586 358.921C299.49 362.031 303.196 365.401 307.196 368.378C315.397 374.482 315.57 374.381 321.222 364.903ZM472.644 427.432C477.733 428.451 482.891 427.975 488.02 428.18C491.497 428.318 493.604 427.056 493.275 423.415C492.95 419.828 495.248 414.869 489.269 413.737C482.1 412.381 474.829 411.849 467.531 411.722C465.527 411.687 464.075 412.381 463.057 414.21C458.662 422.105 460.933 426.536 469.771 427.172C470.433 427.22 471.094 427.269 472.644 427.432ZM425.686 417.745C425.792 420.498 428.017 420.681 429.908 421.056C436.069 422.28 442.248 423.413 448.427 424.539C453.358 425.438 454.735 424.338 455.928 418.682C457.312 412.115 456.526 410.072 451.854 408.964C448.158 408.087 444.412 407.387 440.657 406.802C428.649 404.931 428.644 404.966 425.686 417.745ZM529.164 413.58C520.827 413.207 512.555 414.524 504.245 414.547C500.728 414.556 499.328 415.792 499.681 419.219C499.782 420.207 499.809 421.232 499.672 422.212C499.046 426.678 500.66 428.542 505.417 428.274C511.723 427.919 518.066 428.24 524.392 428.178C527.293 428.149 530.675 428.955 532.036 425.142C533.513 421.001 533.474 417.052 529.164 413.58ZM345.638 390.95C348.898 389.203 349.407 385.701 350.811 382.784C352.785 378.684 351.408 375.837 347.451 373.895C344.026 372.214 340.693 370.346 337.286 368.627C327.902 363.889 327.987 363.951 323.098 373.237C321.487 376.297 321.604 378.257 324.761 380.188C331.281 384.174 337.782 388.152 345.638 390.95ZM570.396 414.846C570.79 419.54 573.163 420.632 577.465 419.074C581.668 417.553 586.049 416.529 590.28 415.075C594.982 413.46 600.505 401.814 598.897 397.096C598.419 395.695 597.762 394.293 595.297 394.088C593.282 398.914 589.16 401.696 583.997 403.13C580.964 403.972 577.995 405.068 574.933 405.777C570.24 406.863 568.528 409.463 570.396 414.846ZM290.889 331.344C288.284 328.785 285.711 326.194 283.065 323.68C281.151 321.861 279.337 321.832 277.645 324.119C270.059 334.38 269.81 331.76 277.165 340.88C279.243 343.457 281.595 345.82 283.899 348.205C284.794 349.13 285.966 350.446 287.309 349.431C290.907 346.713 294.402 343.584 295.967 339.363C297.321 335.712 293.045 334.314 290.889 331.344ZM254.203 304.755C253.068 307.089 254.379 309.03 255.452 310.82C257.674 314.527 259.994 318.201 262.599 321.643C263.944 323.421 264.954 326.492 268.311 325.131C271.222 323.952 276.437 316.479 275.448 314.511C272.336 308.32 269.069 302.184 264.37 296.789C263.195 297.466 262.271 297.859 261.514 298.461C259.174 300.32 256.898 302.259 254.203 304.755ZM564.144 420.302C564.19 419.143 564.327 417.979 564.269 416.825C563.929 410.098 562.7 409.172 555.889 410.247C552.777 410.738 549.628 411.55 546.525 411.433C538.933 411.148 538.267 411.86 538.367 421.268C538.402 424.579 539.902 426.12 543.231 426.101C548.249 426.072 553.136 425.136 557.997 424.07C560.183 423.59 562.749 423.649 564.144 420.302Z" fill="black"/>
<path d="M399.13 269.606C401.163 264.216 405.425 262.067 411.046 263.37C420.166 265.485 428.397 270.099 437.729 272.808C449.61 275.567 461.097 278.251 472.591 280.902C481.135 282.872 484.668 289.218 481.401 297.413C476.077 310.765 460.025 325.832 437.048 324.408C419.788 323.337 403.95 311.251 399.054 294.557C396.612 286.23 396.006 277.892 399.13 269.606Z" fill="white"/>
<path d="M414.117 299.197C419.924 296.59 425.756 294.393 432.106 297.585C434.348 298.711 436.96 298.732 439.284 298.171C446.21 296.497 451.463 299.913 456.397 303.979C462.126 308.7 461.434 312.864 454.362 315.753C445.691 319.294 436.772 319.373 427.829 316.679C421.365 314.383 416.257 311.448 412.475 306.465C410.136 303.384 410.504 300.819 414.117 299.197Z" fill="#D88056"/>
<path d="M437.729 272.809C449.611 275.568 461.097 278.251 472.592 280.902C481.136 282.872 484.668 289.219 481.401 297.414C476.078 310.765 460.025 325.833 437.048 324.408C419.788 323.338 403.95 311.252 399.054 294.557C396.612 286.231 396.006 277.893 399.13 269.606C401.163 264.216 405.425 262.067 411.046 263.371C420.167 265.485 428.397 270.099 437.729 272.809ZM428.999 316.226C437.579 318.722 446.136 318.648 454.455 315.367C461.239 312.691 461.903 308.832 456.407 304.458C451.673 300.69 446.633 297.525 439.989 299.075C437.759 299.596 435.253 299.576 433.103 298.532C427.01 295.574 421.414 297.611 415.844 300.026C412.378 301.53 412.024 303.906 414.268 306.761C417.898 311.378 422.798 314.098 428.999 316.226ZM449.73 290.563C453.23 289.419 457.325 289.447 460.39 284.556C448.643 283.755 438.634 278.955 427.435 276.408C427.982 280.509 430.171 282.864 432.726 284.997C437.42 288.914 443.129 289.911 449.73 290.563Z" fill="black"/>
<path d="M549.81 312.854C552.596 315.432 554.678 318.119 556.011 321.321C558.158 326.478 556.83 330.498 551.836 332.954C537.314 340.097 518.614 333.895 509.829 322.471C506.46 318.089 507.885 312.741 512.957 309.226C520.981 303.665 529.679 304.372 538.437 306.909C542.478 308.079 546.242 309.965 549.81 312.854Z" fill="#D88056"/>
<path d="M360.544 261.094C363.046 263.422 364.915 265.85 366.111 268.741C368.039 273.4 366.848 277.03 362.362 279.249C349.323 285.7 332.531 280.098 324.642 269.78C321.617 265.822 322.897 260.992 327.451 257.817C334.657 252.794 342.466 253.433 350.331 255.724C353.96 256.781 357.34 258.484 360.544 261.094Z" fill="#D88056"/>
<path d="M512.282 308.55C520.868 302.585 530.174 303.344 539.546 306.064C543.869 307.319 547.897 309.342 551.715 312.441C554.696 315.205 556.923 318.088 558.349 321.521C560.647 327.053 559.227 331.364 553.882 333.999C538.344 341.66 518.334 335.007 508.934 322.755C505.329 318.055 506.855 312.32 512.282 308.55ZM547.15 317.543C539.275 311.414 530.373 309.873 520.759 311.749C518.288 312.231 515.686 312.984 514.866 315.74C513.965 318.769 516.042 320.798 518.036 322.576C525.065 328.846 533.729 330.332 542.681 330.278C545.869 330.259 549.932 329.966 551.447 326.567C553.056 322.955 549.696 320.571 547.15 317.543Z" fill="black"/>
<path d="M360.468 282.908C349.664 284.426 339.871 282.502 330.733 277.347C328.862 276.292 327.021 275.064 325.458 273.603C321.217 269.642 319.603 264.721 321.31 259.097C322.926 253.773 327.714 252.219 332.327 251.917C343.854 251.161 354.544 254.128 363.356 261.859C371.903 269.356 370.605 278.828 360.468 282.908ZM355.725 264.722C349.127 260.54 341.98 258.108 334.112 258.328C331.308 258.406 328.072 258.666 327.015 261.832C326.046 264.732 328.261 266.837 330.246 268.619C336.215 273.978 343.684 275.668 351.299 276.637C354.809 277.084 359.362 277.932 360.963 273.717C362.383 269.979 359.007 267.422 355.725 264.722Z" fill="black"/>
</svg>
