<svg width="250" height="276" viewBox="0 0 250 276" fill="none" xmlns="http://www.w3.org/2000/svg">
<g clip-path="url(#clip0_652_1655)">
<path d="M41.2445 157.114C40.1822 153.263 39.8138 149.323 39.8738 145.344C39.9586 139.717 42.3222 135.435 47.4838 133.092C50.3983 131.768 53.5598 131.649 56.599 132.613C60.3505 133.804 64.1528 134.259 68.052 134.158C68.2408 134.153 68.4316 134.226 68.7972 134.297C68.6774 133.715 68.5762 133.254 68.4881 132.791C67.718 128.742 67.3886 124.67 67.9708 120.565C68.1186 119.523 68.2572 118.451 68.6211 117.477C69.0358 116.367 69.8792 116.197 71.0117 116.592C73.4901 117.458 75.9581 118.387 78.4929 119.043C80.1579 119.473 81.9278 119.545 83.6583 119.647C87.3343 119.866 91.0335 119.83 94.6872 120.233C96.7876 120.465 98.6307 119.811 100.592 119.493C103.033 119.097 105.455 118.744 107.741 117.715C110.607 116.425 113.202 114.878 114.575 111.798C116.219 108.11 118.032 104.498 119.626 100.789C121.652 96.0778 123.34 91.2094 125.528 86.581C127.704 81.9803 129.757 77.2576 132.989 73.2568C135.959 69.58 139.014 65.968 143.096 63.4591C144.613 62.5268 146.148 61.6239 147.835 60.6456C149.065 60.2117 150.134 59.8398 151.275 59.4434C151.252 60.9023 150.21 60.7416 149.511 61.1385C146.84 62.6567 144.24 64.3032 141.533 65.9286C140.166 67.26 138.807 68.5006 137.608 69.8838C135.797 71.9744 133.797 73.9848 132.415 76.3512C129.878 80.696 127.692 85.255 125.45 89.7703C124.809 91.0604 124.477 92.5075 123.931 93.937C123.588 94.8047 123.317 95.6178 123.022 96.4515C122.998 96.4721 123.019 96.5318 122.946 96.5895C122.714 96.9792 122.541 97.3053 122.398 97.644C121.238 100.384 120.182 103.175 118.9 105.855C117.669 108.426 116.271 110.924 114.808 113.369C114.262 114.28 113.421 115.1 112.539 115.696C110.796 116.874 108.93 117.868 107.022 118.937C104.786 119.614 102.644 120.292 100.432 120.967C100.335 121.002 100.307 121.038 100.172 121.079C98.9863 121.232 97.9076 121.382 96.7215 121.565C87.6485 121.086 78.4966 121.946 69.903 117.709C68.3923 123.33 68.9601 128.711 70.2343 134.074C73.2331 133.886 76.0676 133.77 78.8897 133.515C81.6636 133.265 84.443 132.98 87.187 132.513C89.905 132.049 92.5819 131.338 95.2768 130.736C95.3053 130.846 95.3339 130.956 95.3624 131.066C95.0141 131.251 94.679 131.469 94.3155 131.615C89.701 133.461 84.8857 134.389 79.9591 134.784C76.7161 135.044 73.4741 135.345 70.2257 135.5C66.384 135.682 62.5376 135.742 58.7534 134.797C56.9547 134.348 55.154 133.721 53.3285 133.61C50.3563 133.431 47.5058 134.119 45.2186 136.235C43.1301 138.167 41.63 140.496 41.5419 143.448C41.4562 146.319 41.5318 149.198 41.6201 152.071C41.6495 153.028 41.8413 154.007 42.1246 154.924C42.9681 157.653 43.8654 160.366 44.7946 163.067C45.9349 166.382 46.6554 169.843 48.4128 172.945C49.1841 174.306 49.6386 175.863 50.1514 177.361C51.0799 180.073 51.6688 182.88 53.0054 185.477C54.6147 188.605 55.8992 191.904 57.3107 195.135C59.6349 200.455 61.7783 205.858 65.2899 210.564C68.1765 214.432 71.1925 218.179 74.6469 221.536C76.7116 223.543 78.9096 225.409 81.0581 227.327C81.6951 227.896 82.3684 228.423 83.0233 228.971C84.5154 230.22 86.0328 231.441 87.4887 232.732C88.4732 233.605 89.2795 234.704 90.3243 235.483C93.1897 237.622 96.1454 239.636 99.0528 241.717C101.1 243.182 103.059 244.789 105.178 246.136C109.554 248.917 113.982 251.616 118.442 254.257C122.507 256.663 126.594 259.039 130.76 261.257C134.685 263.348 138.656 265.382 142.735 267.136C147.013 268.976 151.569 269.646 156.227 269.195C157.206 269.1 158.42 269.014 159.077 268.417C162.486 265.32 165.822 262.131 169.041 258.831C171.551 256.257 173.922 253.534 176.229 250.77C178.555 247.983 180.899 245.181 182.922 242.17C185.171 238.822 187.058 235.225 189.118 231.746C190.199 229.921 191.395 228.161 192.391 226.292C193.551 224.115 194.55 221.85 195.699 219.458C195.892 219.774 196.121 220.003 196.181 220.27C196.781 222.938 197.266 225.636 197.965 228.277C198.445 230.092 199.058 231.902 200.444 233.296C202.063 234.924 203.886 235.99 206.271 235.536C207.892 235.228 209.514 234.915 211.12 234.538C213.344 234.016 215.633 233.641 217.749 232.818C220.147 231.885 222.443 230.63 224.677 229.327C227.552 227.648 230.465 225.974 233.101 223.951C236.876 221.054 239.704 217.213 242.463 213.339C244.285 210.78 245.772 208.116 246.252 204.931C246.577 202.769 246.067 201.582 244.08 200.949C240.986 199.964 238.403 198.123 236.156 195.877C232.985 192.709 230.03 189.32 226.947 186.061C222.924 181.808 220.286 176.586 217.105 171.745C216.202 170.371 215.478 168.877 214.637 167.376C213.245 168.339 212.136 169.162 210.974 169.9C205.825 173.168 200.102 174.638 194.129 175.105C190.64 175.378 187.119 175.422 183.621 175.305C180.888 175.213 178.126 174.914 175.45 174.352C171.166 173.453 166.918 172.349 162.701 171.167C158.29 169.931 153.862 168.696 149.573 167.098C145.563 165.603 141.72 163.658 138.262 161.02C135.717 159.079 133.106 157.225 130.499 155.369C124.462 151.072 118.867 146.252 114.175 140.479C111.869 137.643 109.887 134.518 107.937 131.408C106.071 128.431 105.106 125.044 104.202 121.549C104.232 121.067 104.261 120.697 104.289 120.327C104.351 120.336 104.413 120.345 104.474 120.354C105.18 122.351 105.885 124.347 106.591 126.344C107.475 125.873 108.145 125.515 108.641 125.251C108.199 123.324 107.781 121.507 107.44 119.636C108.428 119.056 108.397 119.916 108.565 120.36C109.042 121.627 109.465 122.914 109.906 124.243C109.904 124.293 109.958 124.378 109.964 124.471C110.152 124.934 110.336 125.304 110.528 125.654C110.537 125.636 110.507 125.664 110.508 125.721C110.509 125.778 110.577 125.869 110.576 125.95C110.728 126.246 110.88 126.46 111.046 126.76C111.605 127.898 112.037 129.03 112.712 129.987C115.293 133.65 117.987 137.229 121.397 140.17C122.897 141.463 124.443 142.701 125.972 143.955C125.976 143.946 125.959 143.955 125.991 144.032C126.197 144.283 126.354 144.475 126.543 144.628C132.094 149.111 138.241 152.607 144.644 155.843C146.2 156.703 147.625 157.673 149.187 158.289C151.425 159.172 153.749 159.846 156.062 160.519C160.901 161.928 165.713 163.481 170.621 164.587C174.498 165.461 178.503 165.755 182.533 166.368C184.032 166.518 185.447 166.636 186.866 166.69C192.389 166.903 197.895 166.653 203.298 165.442C206.032 164.829 208.68 163.827 211.454 162.998C212.552 162.883 212.942 162.112 213.369 161.258C213.925 160.287 214.405 159.36 214.885 158.421C214.886 158.411 214.907 158.408 214.982 158.377C215.178 158.098 215.299 157.85 215.473 157.544C217.034 154.913 218.57 152.357 220.042 149.763C221.655 146.922 223.238 144.062 224.776 141.179C225.498 139.827 226.087 138.402 226.796 136.942C226.971 136.707 227.134 136.554 227.193 136.367C228.891 130.948 229.645 125.373 229.901 119.596C229.917 116.909 229.903 114.337 229.908 111.659C229.505 108.934 229.159 106.3 228.635 103.703C228.224 101.668 227.643 99.6633 227.047 97.673C226.196 94.8303 225.276 92.0083 224.358 89.1869C223.921 87.8443 222.96 86.4954 223.037 85.1987C223.215 82.2473 223.887 79.3264 224.426 76.3373C225.081 74.7323 225.67 73.1831 226.308 71.5652C228.534 67.1117 230.045 62.4774 231.435 57.7092C232.752 54.6314 234.017 51.6218 235.333 48.5397C236.007 46.665 236.572 44.8394 237.268 43.067C238.082 40.996 238.977 38.9553 239.903 36.9328C240.475 35.684 241.376 34.9182 242.776 34.4111C245.653 33.3688 247.755 31.2903 248.51 28.1986C249.301 24.9579 248.193 22.2983 245.568 20.3175C243.054 18.4203 240.259 18.2107 237.384 19.2403C234.513 20.2687 232.685 22.363 231.791 25.4173C231.853 27.0303 231.854 28.5648 232.092 30.0606C232.238 30.9796 232.748 31.8393 233.094 32.7256C230.548 30.7827 230.143 26.1267 231.589 23.1611C232.957 20.357 235.179 18.5783 238.031 17.8046C243.082 16.4348 248.889 19.3167 249.814 25.3207C250.414 29.2173 247.836 33.9788 243.879 35.2519C240.536 36.3272 240.045 39.063 239.033 41.584C237.709 44.8801 236.603 48.2649 235.368 51.5981C233.994 55.3084 232.59 59.0078 231.178 62.7041C230.043 65.6781 228.929 68.6619 227.714 71.6031C225.82 76.1916 224.257 80.7551 224.688 85.934C224.862 88.0107 225.922 89.4468 226.552 91.1682C228.542 96.5999 229.937 102.182 230.891 107.874C231.759 113.056 231.477 118.265 231.005 123.475C230.654 127.352 230.268 131.23 228.98 134.906C228.084 137.464 226.945 139.958 225.683 142.355C223.489 146.526 221.142 150.615 218.809 154.709C217.028 157.834 215.17 160.915 213.366 163.98C215.005 166.567 217.11 168.614 218.367 171.373C219.609 174.097 221.562 176.485 223.165 179.044C226.122 183.766 230.081 187.618 233.869 191.605C235.961 193.808 238.173 195.938 240.568 197.788C242.186 199.038 244.214 199.746 246.063 200.688C247.216 201.275 247.6 202.191 247.597 203.503C247.587 207.847 245.646 211.379 243.133 214.653C240.994 217.439 238.937 220.346 236.447 222.784C234.198 224.986 231.472 226.718 228.843 228.484C226.516 230.046 224.117 231.552 221.593 232.743C219.422 233.768 217.052 234.391 214.731 235.049C212.529 235.673 210.274 236.106 208.044 236.633C202.481 237.949 198.752 234.804 197.398 229.829C196.728 227.37 196.091 224.902 195.415 222.351C194.986 223.32 194.615 224.317 194.119 225.246C192.31 228.636 190.584 232.081 188.595 235.361C185.824 239.931 183.169 244.634 179.881 248.809C174.597 255.52 168.805 261.818 162.481 267.575C161.786 268.207 161.136 268.916 160.357 269.418C159.767 269.799 159.014 269.943 158.317 270.13C156.102 270.723 153.861 270.664 151.591 270.498C148.349 270.26 145.242 269.513 142.189 268.428C141.801 268.29 141.158 268.388 140.834 268.64C136.071 272.352 130.758 274.909 124.798 275.607C118.078 276.393 111.528 275.471 105.274 272.589C102.843 271.47 100.81 269.84 98.6167 268.397C96.1776 266.792 93.5366 265.5 90.9707 264.095C90.332 263.746 89.6681 263.397 88.9733 263.209C87.705 262.865 86.2005 262.089 85.1619 262.484C83.1666 263.243 81.4671 262.307 79.6418 262.268C77.3586 262.22 75.0677 262.231 72.7956 262.034C69.3286 261.734 65.8502 261.427 62.4215 260.85C57.7052 260.056 52.9662 259.251 48.3568 257.999C43.9656 256.806 39.7025 255.103 35.4304 253.496C31.2207 251.912 27.2274 249.827 23.5582 247.215C21.7846 245.952 20.2254 244.333 18.7397 242.715C16.7161 240.511 14.8735 238.138 12.9213 235.865C8.90224 231.187 5.57128 226.036 2.95688 220.451C0.88266 216.019 -0.206383 211.32 -0.0349519 206.341C0.0977063 202.488 -0.189564 198.615 0.0389951 194.771C0.359104 189.388 1.8825 184.361 4.94464 179.822C6.10951 178.095 7.57925 177.207 9.4318 176.573C12.4906 175.526 15.6232 174.584 18.5016 173.142C22.0839 171.347 25.1085 168.694 27.6156 165.489C29.4302 163.169 31.1765 160.771 33.7258 159.183C35.761 157.916 37.8241 156.71 40.3901 157.324C40.2366 157.587 40.0737 157.761 39.8963 157.778C35.9511 158.151 33.19 160.569 30.6857 163.34C28.4913 165.768 26.4242 168.314 24.3051 170.811C24.3093 170.814 24.3014 170.813 24.2285 170.843C19.7458 174.719 14.3832 176.502 8.9591 178.224C7.86243 178.573 6.75427 179.55 6.10233 180.541C4.16842 183.482 2.84356 186.728 2.02001 190.187C1.04225 194.293 1.45044 198.474 1.25364 202.62C1.19667 203.821 1.36878 205.034 1.46134 206.24C1.64836 208.675 1.6121 211.161 2.10511 213.533C2.89301 217.323 4.60979 220.815 6.55908 224.117C8.33874 227.131 10.4201 229.971 12.4724 232.81C13.5425 234.291 14.8366 235.606 16.034 237.005C16.0384 237.014 16.0377 237.035 16.0567 237.123C16.8971 238.164 17.7184 239.115 18.5691 240.125C18.6718 240.226 18.745 240.268 18.8432 240.389C21.4565 242.749 23.9991 245.087 26.6577 247.282C27.6026 248.062 28.8051 248.545 29.9322 249.071C32.561 250.298 35.2153 251.468 37.9185 252.728C38.2667 252.845 38.5557 252.895 38.9063 253.007C42.5636 254.29 46.1156 255.672 49.7679 256.682C52.9809 257.57 56.3019 258.065 59.5829 258.694C65.666 259.858 71.7837 260.68 77.9971 260.575C80.1911 260.538 82.3869 260.611 84.5904 260.632C84.5989 260.63 84.5967 260.612 84.6658 260.689C85.4332 260.777 86.1317 260.789 86.9138 260.815C87.283 260.985 87.5685 261.14 87.8568 261.385C91.9108 263.499 95.962 265.523 100.022 267.533C100.031 267.519 100.001 267.534 100.043 267.606C103.297 270.467 107.046 272.115 111.228 273.072C113.013 273.427 114.71 273.817 116.428 273.997C120.051 274.375 123.695 274.549 127.254 273.549C131.604 272.326 135.595 270.289 139.638 267.647C138.802 267.188 138.136 266.825 137.472 266.458C134.075 264.574 130.676 262.693 127.283 260.803C124.165 259.066 121.02 257.376 117.947 255.561C114.484 253.516 111.053 251.409 107.674 249.225C104.983 247.486 102.404 245.571 99.7506 243.772C97.8386 242.476 95.8852 241.242 93.9441 239.991C93.9378 240.002 93.9595 239.991 93.9233 239.915C89.5126 236.791 85.3636 233.476 81.6566 229.601C80.2204 228.1 78.5792 226.802 77.0641 225.376C74.7305 223.179 72.3686 221.008 70.1273 218.718C68.5969 217.153 67.2516 215.404 65.8169 213.747C65.8103 213.758 65.8327 213.748 65.8236 213.673C65.7259 213.479 65.6373 213.361 65.5355 213.191C65.4842 213.076 65.4285 213.037 65.3276 212.941C64.0651 211.146 62.8303 209.434 61.5774 207.652C61.5016 207.504 61.4439 207.427 61.3948 207.274C61.3375 207.071 61.2715 206.944 61.1968 206.726C60.7608 205.848 60.2848 205.082 59.915 204.268C58.6325 201.442 57.3937 198.597 56.1256 195.765C54.2742 191.63 52.3671 187.52 50.5787 183.358C49.9627 181.924 49.631 180.365 49.1515 178.822C49.1335 178.781 49.0475 178.757 49.0441 178.756C49.0407 178.755 49.0484 178.749 49.0315 178.678C48.9688 178.521 48.9229 178.435 48.8878 178.276C48.8412 178.074 48.7837 177.946 48.7219 177.829C48.7175 177.842 48.7435 177.839 48.7431 177.749C48.7055 177.484 48.6683 177.308 48.6417 177.042C48.2615 176.098 47.9069 175.225 47.4736 174.395C45.5847 170.775 44.5295 166.84 43.2301 162.997C42.5672 161.036 41.9063 159.075 41.2445 157.114ZM204.724 166.926C202.677 167.29 200.631 167.654 198.579 168.019C198.579 169.894 198.579 171.591 198.579 173.505C200.725 172.848 202.62 172.165 204.566 171.707C205.806 171.414 205.898 170.874 205.561 169.798C205.293 168.94 205.276 168.001 205.248 166.982C205.237 166.916 205.225 166.851 205.214 166.785C205.116 166.824 205.019 166.864 204.724 166.926ZM164.47 164.975C161.189 163.94 157.909 162.904 154.677 161.884C154.56 163.748 154.453 165.437 154.348 167.107C157.454 168.194 160.435 169.237 163.511 170.314C163.644 168.68 163.731 167.261 163.905 165.852C163.932 165.636 164.364 165.472 164.6 165.482C164.6 167.179 164.6 168.877 164.6 170.652C167.982 171.451 171.246 172.222 174.549 173.002C174.549 170.91 174.549 169.05 174.549 167.118C173.122 166.853 171.626 166.6 170.141 166.294C168.298 165.914 166.464 165.491 164.47 164.975ZM136.916 153.494C136.609 153.368 136.302 153.242 135.821 153.1C135.557 152.87 135.314 152.606 135.025 152.416C133.258 151.254 131.479 150.112 129.707 148.958C128.872 148.414 128.046 147.858 127.212 147.306C126.648 148.308 126.153 149.186 125.487 150.369C131.445 154.544 137.479 158.772 143.549 163.025C144.259 161.659 144.767 160.531 145.426 159.501C145.644 159.161 146.252 159.076 146.728 159.056C146.121 160.54 145.514 162.024 144.876 163.585C147.374 164.593 150.044 165.67 152.685 166.735C152.964 164.993 153.226 163.364 153.508 161.607C151.404 160.667 149.155 159.662 146.795 158.528C146.002 158.13 145.211 157.731 144.417 157.334C141.94 156.095 139.462 154.857 136.916 153.494ZM175.677 167.256C175.609 168.912 175.529 170.567 175.48 172.224C175.46 172.887 175.748 173.236 176.482 173.304C177.964 173.44 179.431 173.737 180.913 173.876C182.615 174.035 184.327 174.095 186.034 174.198C186.034 172.129 186.034 170.277 186.034 168.591C182.574 168.126 179.236 167.677 175.677 167.256ZM195.376 168.241C192.922 168.287 190.468 168.342 188.014 168.375C187.444 168.383 186.853 168.204 186.878 169.158C186.923 170.789 186.891 172.423 186.891 174.432C190.503 174.174 193.995 173.925 197.33 173.686C197.33 171.768 197.33 170.031 197.33 168.216C196.816 168.216 196.208 168.216 195.376 168.241ZM118.386 143.566C120.425 145.49 122.464 147.414 124.573 149.404C125.3 148.42 125.917 147.585 126.565 146.708C123.912 144.417 121.37 142.222 118.978 140.157C118.294 140.73 117.618 141.296 116.905 141.894C117.4 142.472 117.823 142.965 118.386 143.566ZM117.861 138.787C116.174 136.641 114.486 134.495 112.73 132.262C111.96 132.882 111.344 133.377 110.611 133.967C112.532 136.481 114.351 138.862 116.318 141.437C116.973 140.447 117.47 139.696 117.861 138.787ZM213.038 166.669C212.955 165.956 212.873 165.243 212.782 164.464C210.462 165.217 208.289 165.922 206.102 166.631C206.339 168.079 206.571 169.492 206.859 171.25C209.03 169.668 210.978 168.249 213.038 166.669ZM107.241 127.57C108.28 129.579 109.319 131.588 110.325 133.536C111.059 132.86 111.7 132.271 112.481 131.552C111.48 129.826 110.464 128.073 109.37 126.187C108.577 126.618 107.867 127.005 107.241 127.57ZM154.294 161.903L154.217 161.879C154.217 161.879 154.238 161.932 154.294 161.903Z" fill="#12110F"/>
<path d="M150.462 57.0633C152.003 54.4249 152.345 51.436 152.849 48.5066C153.299 45.895 153.66 43.2659 153.993 40.6358C154.238 38.6956 154.339 36.7368 154.57 34.7944C154.886 32.134 155.354 29.4892 155.591 26.8226C155.788 24.6044 155.747 22.3644 155.811 20.1339C155.814 20.0106 155.773 19.8744 155.811 19.7652C156.479 17.8549 155.616 16.6109 154.41 15.1196C149.654 9.24133 154.134 -0.0448428 161.139 -0.979867C165.169 -1.51776 169.452 0.679441 170.955 4.4933C172.167 7.56948 172.067 10.7037 170.435 13.673C170.265 13.9822 169.91 14.1815 169.681 14.4649C168.868 15.4727 168.071 16.4948 167.154 17.5788C166.735 17.6436 166.43 17.6413 166.121 17.6444C166.117 17.65 166.13 17.6475 166.111 17.55C166.248 17.0334 166.286 16.4707 166.582 16.2197C167.996 15.0197 169.135 13.6549 169.767 11.8682C170.659 9.34819 170.708 6.88242 169.455 4.38314C169.381 4.22194 169.323 4.13663 169.264 3.97115C169.116 3.76392 168.969 3.63685 168.816 3.51982C168.811 3.52986 168.834 3.53135 168.815 3.46418C168.72 3.35032 168.644 3.30363 168.565 3.27143C168.563 3.28592 168.592 3.2811 168.572 3.21448C168.476 3.10152 168.399 3.05519 168.321 3.02348C168.319 3.0381 168.348 3.03321 168.328 2.96659C168.231 2.85364 168.155 2.80731 168.077 2.77412C168.076 2.78725 168.101 2.77929 168.089 2.69364C167.608 2.16953 167.194 1.6429 166.662 1.30636C161.757 -1.80055 155.126 1.25584 153.772 7.27825C153.176 10.8474 153.79 13.9613 156.45 16.4908C156.869 16.8893 157.139 17.5944 157.207 18.1894C157.298 18.9857 157.051 19.8153 157.076 20.6266C157.214 25.1523 156.709 29.6122 155.946 34.0637C155.54 36.4371 155.376 38.8531 155.04 41.3246C154.751 43.0088 154.526 44.6186 154.298 46.2279C153.788 49.8175 153.224 53.4009 151.625 56.6954C151.14 57.695 150.415 58.5751 149.799 59.51C149.691 59.4367 149.582 59.3633 149.474 59.29C149.803 58.5478 150.132 57.8056 150.462 57.0633Z" fill="#181510"/>
<path d="M166.149 20.5312C165.769 23.0722 165.376 25.6111 165.016 28.1549C164.857 29.2852 164.727 30.4228 164.653 31.5617C164.537 33.3168 164.439 35.0751 164.408 36.8333C164.32 41.7668 164.681 46.6666 165.885 51.4589C166.176 52.6198 166.884 53.6753 167.417 54.7712C167.608 55.1643 167.847 55.5338 168.074 55.931C170.36 56.0448 172.709 56.1063 175.048 56.2909C178.744 56.5826 182.442 56.8722 185.98 58.1631C189.662 59.5063 193.389 60.7262 197.052 62.1177C198.441 62.6451 199.753 63.4262 201.021 64.2209C204.728 66.5444 208.406 68.9158 212.07 71.31C212.841 71.8139 213.499 72.4952 214.28 73.2334C214.494 73.5914 214.637 73.8108 214.747 73.9801C211.607 72.0121 208.534 70.006 205.38 68.1405C203.582 67.0772 201.652 66.2435 199.778 65.2884C199.775 65.2704 199.738 65.2837 199.738 65.2478C199.612 65.1379 199.487 65.0639 199.299 64.9322C196.366 63.5873 193.52 62.2361 190.613 61.0384C189.024 60.3835 187.33 59.9882 185.68 59.4866C185.676 59.4973 185.698 59.491 185.671 59.4035C185.287 59.1416 184.947 58.8801 184.571 58.8061C179.609 57.8293 174.613 57.1071 169.544 57.2785C167.656 57.3423 166.604 56.3037 165.911 54.8065C164.561 51.892 163.977 48.7324 163.689 45.5733C163.377 42.1612 163.362 38.7132 163.38 35.2816C163.391 33.1599 163.668 31.0359 163.89 28.9199C164.095 26.9777 164.386 25.045 164.661 23.0791C164.682 23.0502 164.668 22.9794 164.719 22.968C164.847 22.9482 164.899 22.9075 164.991 22.7603C165.152 22.2479 165.25 21.8095 165.403 21.3047C165.688 21.0026 165.919 20.7669 166.149 20.5312Z" fill="#181510"/>
<path d="M214.669 73.1854C215.576 71.326 216.483 69.4666 217.469 67.4677C218.124 65.8993 218.699 64.4703 219.275 63.0413C220.736 59.9792 222.223 56.9295 223.648 53.8506C224.591 51.8132 225.388 49.705 226.356 47.6803C227.742 44.7807 229.224 41.928 230.666 39.056C231.6 37.1974 232.537 35.3402 233.574 33.3802C233.908 33.1561 234.14 33.034 234.416 32.9255C234.46 32.9392 234.551 32.9439 234.551 32.9439C234.551 32.9439 234.638 32.9115 234.701 32.975C234.859 33.3567 234.955 33.6749 235.055 34.0021C235.059 34.0112 235.061 33.9916 234.996 33.9928C234.895 34.0174 234.858 34.0408 234.761 34.0653C234.619 34.1001 234.564 34.1583 234.457 34.2692C233.821 35.1936 233.177 36.0475 232.721 36.9945C231.626 39.27 230.652 41.6048 229.57 43.8865C228.403 46.3466 227.167 48.7735 225.903 51.2855C225.086 53.1551 224.358 54.9689 223.559 56.7495C222.341 59.4621 221.127 62.1791 219.812 64.8435C218.465 67.5696 217.011 70.2416 215.558 72.9118C215.451 73.1085 214.974 73.099 214.669 73.1854Z" fill="#15120E"/>
<path d="M214.611 73.1644C214.974 73.0991 215.451 73.1086 215.558 72.9119C217.011 70.2417 218.465 67.5697 219.812 64.8435C221.128 62.1792 222.341 59.4622 223.559 56.7496C224.359 54.9689 225.086 53.1551 225.921 51.3882C226.007 51.5584 226.017 51.6965 226.013 51.929C224.874 54.6063 223.745 57.1882 222.623 59.7727C221.38 62.6341 220.219 65.5353 218.877 68.348C217.934 70.324 216.774 72.1969 215.646 74.0763C215.439 74.4209 214.802 74.865 214.571 74.7661C213.709 74.3962 212.904 73.8607 212.133 73.3091C211.426 72.804 210.841 72.1157 210.112 71.6543C208.755 70.7954 207.334 70.0415 205.938 69.2463C204.78 68.5869 203.679 67.7614 202.445 67.3229C201.29 66.9126 200.647 66.0013 199.781 65.3063C201.652 66.2434 203.582 67.0771 205.38 68.1405C208.534 70.0059 211.607 72.0121 214.747 73.9801C214.637 73.8108 214.494 73.5914 214.338 73.2996C214.396 73.1852 214.472 73.1572 214.611 73.1644Z" fill="#FAD762"/>
<path d="M41.1848 157.17C41.9062 159.075 42.567 161.036 43.2299 162.997C44.5294 166.84 45.5845 170.775 47.4735 174.395C47.9068 175.225 48.2614 176.098 48.5896 177.096C48.5991 177.44 48.6712 177.64 48.7434 177.839C48.7434 177.839 48.7174 177.842 48.7107 177.903C48.7616 178.093 48.8192 178.221 48.8768 178.349C48.9227 178.435 48.9686 178.521 48.9327 178.7C48.6358 178.465 48.3672 178.16 48.2203 177.804C48.0684 177.436 48.0958 176.99 47.9392 176.625C46.8131 173.999 45.5396 171.43 44.5475 168.753C43.3989 165.654 42.4704 162.471 41.4903 159.31C41.2158 158.425 40.8709 158.091 39.8473 158.256C36.2351 158.84 33.5116 160.822 31.2866 163.603C30.6998 164.337 30.496 165.396 29.8799 166.091C28.6027 167.533 27.1946 168.86 25.7776 170.165C25.4028 170.51 24.7993 170.6 24.3008 170.808C26.4241 168.314 28.4911 165.768 30.6856 163.34C33.1899 160.569 35.951 158.151 39.8961 157.778C40.0735 157.761 40.2364 157.587 40.4567 157.396C40.7132 157.28 40.9192 157.253 41.1848 157.17Z" fill="#FAD762"/>
<path d="M151 58.5C150.752 59.2295 150.129 58.7678 149.8 59.51C149.691 59.4367 149.908 59.5834 149.8 59.51C150.415 58.5752 151.141 57.6951 151.626 56.6954C153.224 53.4009 153.789 49.8175 154.298 46.2279C154.527 44.6186 154.752 43.0089 155.036 41.4285C155.16 42.1043 155.225 42.751 155.288 43.4959C155.052 44.9603 154.795 46.323 154.59 47.6935C154.024 51.4686 153.221 55.1655 151.206 58.5705C152.082 59.0541 152.032 59.8074 151.654 60.56C151.475 60.9138 151.157 61.3837 150.836 61.4451C148.51 61.8896 146.581 63.1009 144.682 64.4354C143.732 65.1032 142.673 65.6131 141.65 66.1216C141.628 65.9999 141.621 65.9509 141.613 65.902C144.24 64.3034 146.84 62.6569 149.512 61.1387C150.21 60.7419 151.253 60.9026 151.275 59.4436C150.135 59.8401 149.065 60.2119 147.902 60.5906C148.124 59.0534 149.792 59.4665 151 58.5Z" fill="#FAD762"/>
<path d="M234.372 32.9119C234.14 33.034 233.908 33.1561 233.614 33.3004C233.404 33.1779 233.256 33.0333 233.102 32.8073C232.748 31.8394 232.239 30.9797 232.092 30.0607C231.854 28.5649 231.854 27.0304 231.862 25.4033C232.099 25.2331 232.228 25.1719 232.358 25.214C231.902 27.2594 232.013 29.1367 233.042 30.8856C233.451 31.5816 233.927 32.2377 234.372 32.9119Z" fill="#FAD762"/>
<path d="M166.137 20.5306C165.918 20.767 165.688 21.0026 165.395 21.2977C165.333 21.357 165.319 21.3429 165.327 21.2873C165.335 21.2317 165.327 21.1197 165.308 21.0398C165.449 19.8221 165.314 18.6081 166.126 17.6389C166.43 17.6413 166.735 17.6436 167.127 17.6654C167.015 18.3158 166.814 18.9468 166.458 19.5842C166.235 19.9072 166.169 20.2239 166.104 20.5406C166.104 20.5406 166.125 20.5299 166.137 20.5306Z" fill="#181510"/>
<path d="M166.19 20.4893C166.169 20.2237 166.235 19.907 166.385 19.6174C166.406 19.9091 166.342 20.1736 166.19 20.4893Z" fill="#181510"/>
<path d="M100.28 121.075C100.308 121.039 100.336 121.002 100.469 121.06C100.869 121.198 101.25 121.381 101.445 121.259C102.501 120.596 103.434 120.438 104.201 121.66C105.107 125.044 106.071 128.431 107.938 131.409C109.888 134.518 111.87 137.643 114.176 140.479C118.868 146.252 124.462 151.072 130.499 155.37C133.106 157.226 135.718 159.079 138.263 161.02C141.72 163.658 145.563 165.604 149.574 167.098C153.862 168.696 158.291 169.931 162.701 171.167C166.919 172.349 171.167 173.453 175.451 174.352C178.127 174.914 180.888 175.213 183.622 175.305C187.12 175.422 190.641 175.378 194.129 175.105C200.102 174.639 205.826 173.168 210.975 169.9C212.137 169.163 213.246 168.339 214.638 167.376C215.479 168.877 216.203 170.371 217.105 171.745C220.286 176.586 222.925 181.808 226.948 186.061C230.031 189.32 232.986 192.709 236.157 195.877C238.404 198.123 240.987 199.965 244.081 200.95C246.067 201.582 246.578 202.77 246.252 204.931C245.773 208.117 244.286 210.78 242.463 213.34C239.705 217.213 236.876 221.054 233.102 223.951C230.466 225.975 227.553 227.648 224.677 229.327C222.444 230.63 220.148 231.885 217.749 232.818C215.634 233.641 213.345 234.016 211.12 234.539C209.514 234.916 207.893 235.228 206.272 235.536C203.887 235.99 202.064 234.924 200.445 233.296C199.059 231.902 198.445 230.092 197.965 228.277C197.267 225.636 196.782 222.938 196.181 220.27C196.121 220.003 195.892 219.774 195.699 219.458C194.551 221.851 193.552 224.115 192.392 226.292C191.395 228.162 190.2 229.922 189.119 231.746C187.059 235.225 185.172 238.822 182.922 242.17C180.9 245.181 178.556 247.983 176.229 250.77C173.922 253.534 171.552 256.258 169.041 258.831C165.823 262.131 162.487 265.32 159.078 268.417C158.421 269.014 157.206 269.1 156.228 269.195C151.569 269.646 147.014 268.976 142.735 267.136C138.657 265.382 134.686 263.348 130.761 261.258C126.595 259.039 122.507 256.663 118.443 254.257C113.983 251.617 109.554 248.917 105.179 246.136C103.059 244.789 101.101 243.182 99.0534 241.717C96.146 239.636 93.1903 237.622 90.3249 235.484C89.2801 234.704 88.4738 233.605 87.4893 232.732C86.0334 231.441 84.516 230.221 83.0238 228.971C82.369 228.423 81.6957 227.896 81.0587 227.327C78.9102 225.41 76.7122 223.543 74.6475 221.536C71.193 218.18 68.1771 214.432 65.2905 210.564C61.7789 205.858 59.6355 200.456 57.3113 195.135C55.8998 191.904 54.6153 188.605 53.006 185.478C51.6694 182.88 51.0805 180.073 50.152 177.361C49.6392 175.863 49.1847 174.306 48.4134 172.945C46.656 169.843 45.9355 166.382 44.7952 163.067C43.866 160.366 42.9686 157.653 42.1252 154.924C41.8419 154.007 41.6501 153.028 41.6207 152.071C41.5324 149.198 41.4568 146.32 41.5425 143.448C41.6306 140.497 43.1307 138.167 45.2192 136.235C47.5064 134.119 50.3569 133.431 53.3291 133.611C55.1546 133.721 56.9553 134.348 58.754 134.797C62.5382 135.743 66.3846 135.682 70.2263 135.5C73.4747 135.346 76.7167 135.044 79.9597 134.784C84.8863 134.389 89.7016 133.461 94.3161 131.615C94.6796 131.47 95.0147 131.251 95.363 131.067C95.3344 130.956 95.3059 130.846 95.2774 130.736C92.5825 131.338 89.9056 132.05 87.1876 132.513C84.4436 132.981 81.6642 133.265 78.8903 133.515C76.0682 133.77 73.2337 133.886 70.2349 134.074C68.9607 128.711 68.3929 123.33 69.9036 117.709C78.4972 121.946 87.6491 121.087 96.7804 121.655C98.1373 121.929 99.3636 122.333 100.28 121.075ZM111.527 178.961C108.455 181.454 104.939 183.046 101.173 184.085C97.9521 184.975 94.7071 185.774 91.4737 186.617C90.6826 186.824 90.0228 187.128 90.0193 188.149C90.0035 192.765 89.9631 197.381 89.929 201.997C89.9215 203.019 90.3855 203.598 91.4038 203.78C92.7267 204.016 94.0389 204.314 95.3543 204.592C98.7613 205.313 98.761 205.314 99.4094 201.813C99.4244 201.731 99.4354 201.649 99.455 201.57C99.6294 200.858 99.3606 200.5 98.6395 200.372C97.5976 200.187 96.5446 200.001 95.5463 199.664C95.1763 199.539 94.7021 198.99 94.6944 198.626C94.6436 196.237 94.676 193.845 94.7696 191.457C94.7829 191.116 95.2167 190.701 95.5582 190.488C95.8826 190.286 96.3422 190.309 96.7406 190.225C101.655 189.183 106.548 188.046 110.871 185.303C112.71 184.135 114.427 182.77 116.176 181.512C115.25 180.509 114.471 179.778 113.828 178.94C113.09 177.977 112.422 178.026 111.527 178.961ZM135.555 207.303C134.935 207.507 134.324 207.743 133.694 207.906C132.907 208.11 132.755 208.531 133.039 209.275C133.362 210.119 133.547 211.018 133.881 211.857C134.229 212.73 134.103 213.266 133.215 213.741C131.307 214.76 129.437 215.857 127.6 217.001C126.825 217.484 126.398 217.293 125.867 216.649C124.876 215.448 123.804 214.315 122.76 213.159C118.962 208.954 114.527 205.698 109.205 203.718C108.132 203.319 107.741 203.525 107.608 204.655C107.514 205.465 107.235 206.258 106.998 207.046C106.789 207.742 107.021 208.12 107.685 208.365C111.947 209.938 115.467 212.619 118.593 215.887C120.661 218.048 122.746 220.194 124.827 222.342C125.465 223.001 126.115 223.422 127.081 222.847C130.977 220.528 134.895 218.245 138.814 215.965C139.602 215.506 139.892 214.942 139.58 214.024C138.944 212.154 138.309 210.278 137.791 208.373C137.464 207.169 136.93 206.677 135.555 207.303ZM125.109 172.604C125.731 171.644 126.414 171.649 127.344 172.267C128.806 173.24 130.363 174.068 131.873 174.968C133.646 176.024 133.656 176.033 132.978 178.007C131.173 183.262 129.798 188.596 130.165 194.228C130.277 195.937 130.544 197.636 130.764 199.551C132.201 199.135 133.394 198.755 134.605 198.454C135.283 198.286 135.418 197.943 135.298 197.292C134.477 192.809 135.044 188.418 136.217 184.076C137.033 181.052 137.849 178.028 138.708 175.016C138.961 174.129 138.8 173.502 137.995 173.03C134.045 170.715 130.1 168.391 126.158 166.061C125.407 165.617 124.781 165.715 124.203 166.373C122.74 168.037 121.25 169.677 119.806 171.358C119.61 171.586 119.436 172.166 119.55 172.282C120.521 173.266 121.561 174.18 122.58 175.115C123.242 174.473 123.906 173.833 124.566 173.188C124.712 173.045 124.846 172.888 125.109 172.604ZM111.667 173.661C113.263 175.354 114.826 177.08 116.462 178.732C119.502 181.8 123.114 183.977 127.105 185.526C128.794 186.182 128.796 186.158 129.191 184.313C129.312 183.751 129.424 183.176 129.641 182.65C130.033 181.694 129.682 181.25 128.785 180.91C125.111 179.519 121.928 177.326 119.155 174.544C116.757 172.138 114.415 169.673 112.1 167.185C111.196 166.212 110.341 166.022 109.226 166.787C108.32 167.408 107.342 167.923 106.393 168.48C103.58 170.133 100.766 171.782 97.9533 173.435C97.2828 173.83 96.7419 174.288 97.0479 175.209C97.7208 177.235 98.4225 179.253 99.0237 181.301C99.2938 182.221 99.757 182.515 100.627 182.248C101.444 181.997 102.258 181.737 103.078 181.496C103.75 181.298 104.005 180.942 103.722 180.218C103.395 179.379 103.169 178.5 102.865 177.651C102.542 176.751 102.668 176.139 103.606 175.636C105.437 174.655 107.205 173.554 108.983 172.476C109.678 172.056 110.258 172.014 110.789 172.726C111.008 173.02 111.293 173.263 111.667 173.661ZM113.789 214.395C112.967 215.25 112.066 216.044 111.35 216.982C110.84 217.652 110.455 217.77 109.75 217.338C107.802 216.145 105.802 215.037 103.876 213.809C103.562 213.609 103.298 212.914 103.391 212.546C103.75 211.114 104.254 209.719 104.72 208.315C106.609 202.635 107.131 196.846 106.155 190.92C106.014 190.064 105.671 189.89 104.916 190.141C103.99 190.449 103.058 190.752 102.108 190.969C101.426 191.126 101.302 191.418 101.427 192.101C102.16 196.091 101.814 200.054 100.861 203.954C100.013 207.425 99.0323 210.864 98.0362 214.296C97.76 215.247 97.9051 215.919 98.724 216.404C102.62 218.712 106.521 221.014 110.432 223.296C111.161 223.721 111.847 223.736 112.493 222.982C113.981 221.246 115.544 219.577 117.043 217.85C117.199 217.671 117.262 217.138 117.139 217.027C116.105 216.091 115.017 215.214 113.789 214.395ZM129.035 208.057C130.835 207.304 132.588 206.391 134.445 205.832C138.065 204.742 141.74 203.834 145.401 202.888C146.279 202.661 146.739 202.217 146.738 201.272C146.731 196.651 146.737 192.03 146.748 187.41C146.751 186.483 146.341 185.963 145.431 185.783C143.282 185.357 141.132 184.927 138.996 184.434C138.265 184.266 138.034 184.588 137.897 185.192C137.698 186.074 137.492 186.955 137.276 187.832C137.094 188.574 137.334 189.011 138.1 189.167C139.096 189.368 140.079 189.634 141.076 189.828C141.848 189.978 142.155 190.374 142.119 191.193C142.016 193.496 142.019 195.804 141.874 198.103C141.851 198.46 141.325 198.974 140.939 199.084C139.22 199.575 137.479 199.999 135.726 200.349C130.715 201.348 126.285 203.582 122.276 206.729C121.686 207.192 121.15 207.725 120.715 208.113C121.614 209.101 122.398 209.938 123.155 210.799C123.701 211.421 124.159 211.375 124.823 210.881C126.13 209.909 127.527 209.062 129.035 208.057Z" fill="#F6F6F7"/>
<path d="M166.122 17.6443C165.314 18.608 165.449 19.822 165.242 21.0504C165.093 21.2194 164.991 21.2977 164.826 21.4304C164.728 21.7031 164.695 21.9213 164.651 22.244C164.65 22.5588 164.659 22.7691 164.668 22.9793C164.668 22.9793 164.683 23.0501 164.568 23.1026C164.321 23.6867 164.18 24.2162 164.059 24.7503C163.103 28.9674 162.778 33.2569 162.696 37.5665C162.67 38.9571 162.904 40.3516 162.901 41.7441C162.891 46.2721 163.799 50.6172 165.347 54.8396C166.044 56.7422 167.557 57.665 169.535 57.7939C173.493 58.0519 177.446 58.4012 181.394 58.7802C182.838 58.9187 184.264 59.2484 185.698 59.4909C185.698 59.4909 185.677 59.4972 185.685 59.5776C187.251 60.2715 188.81 60.879 190.364 61.4998C193.346 62.6911 196.483 63.5304 199.156 65.5403C199.28 65.7098 199.395 65.788 199.509 65.8662C199.585 65.672 199.662 65.4778 199.738 65.2836C199.738 65.2836 199.775 65.2703 199.778 65.2883C200.647 66.0013 201.29 66.9126 202.445 67.3228C203.68 67.7614 204.78 68.5869 205.938 69.2463C207.334 70.0415 208.755 70.7954 210.112 71.6542C210.841 72.1157 211.426 72.804 212.133 73.309C212.905 73.8607 213.709 74.3961 214.572 74.7661C214.802 74.8649 215.439 74.4209 215.646 74.0762C216.774 72.1969 217.934 70.3239 218.877 68.3479C220.219 65.5353 221.38 62.6341 222.623 59.7726C223.745 57.1881 224.874 54.6063 226.089 51.886C226.803 50.4301 227.424 49.1101 228.053 47.7943C228.141 47.6115 228.285 47.4571 228.378 47.2764C230.016 44.0973 231.852 41.0136 233.025 37.6073C233.437 36.41 233.911 35.3248 235.198 35.3825C235.146 34.8541 235.103 34.4229 235.061 33.9916C235.061 33.9916 235.059 34.0112 235.142 34.0064C235.367 33.8313 235.508 33.6609 235.649 33.4904C235.312 33.2975 234.975 33.1045 234.638 32.9115L234.552 32.9439C234.552 32.9439 234.46 32.9392 234.416 32.9255C233.927 32.2376 233.451 31.5816 233.042 30.8855C232.013 29.1367 231.902 27.2593 232.399 25.1339C232.564 24.6915 232.699 24.4366 232.812 24.1722C233.871 21.7048 235.889 20.207 238.271 19.5054C240.98 18.7071 243.634 19.1635 245.836 21.262C247.363 22.7167 248.395 24.4437 248.242 26.5538C247.992 29.9984 246.093 32.4761 242.976 33.7237C241.071 34.4862 239.716 35.5737 239.007 37.4708C237.983 40.2148 237.003 42.9757 236.006 45.7302C235.687 46.6101 235.375 47.4924 234.996 48.4296C234.65 49.1572 234.368 49.8284 234.087 50.5003C233.042 53.0038 231.996 55.5075 230.91 58.0929C229.172 62.6473 227.475 67.1199 225.71 71.6559C225.275 72.6039 224.909 73.4886 224.474 74.3815C224.37 74.546 224.333 74.7023 224.284 74.9484C224.181 75.3901 224.091 75.742 223.914 76.1265C223.582 77.5049 223.281 78.8433 223.108 80.1986C222.943 81.4946 223.198 82.9237 222.742 84.0827C222.246 85.3459 222.615 86.2692 223.005 87.3297C224.156 90.4553 225.324 93.5757 226.406 96.7257C226.816 97.918 227.064 99.1758 227.296 100.421C228.042 104.431 228.747 108.449 229.46 112.584C229.441 115.11 229.431 117.516 229.357 120.002C229.103 121.977 228.927 123.874 228.719 125.767C228.545 127.344 228.432 128.937 228.116 130.486C227.67 132.68 227.063 134.84 226.52 137.014C226.516 137.013 226.514 137.021 226.465 137.044C226.354 137.111 226.318 137.171 226.267 137.325C224.008 141.787 221.156 145.807 219.147 150.324C218.025 152.847 216.426 155.152 214.971 157.618C214.904 157.924 214.905 158.166 214.907 158.408C214.907 158.408 214.886 158.411 214.795 158.387C214.413 158.705 214.103 159.03 213.835 159.389C213.174 160.275 212.534 161.175 211.85 162.116C211.763 162.222 211.702 162.268 211.569 162.31C211.462 162.388 211.417 162.455 211.369 162.526C211.366 162.531 211.359 162.539 211.266 162.541C209.009 163.246 206.876 164.075 204.673 164.61C203.137 164.983 201.502 164.922 199.918 165.111C197.68 165.377 195.454 165.863 193.211 165.953C189.638 166.097 186.056 165.993 182.407 165.923C181.376 165.734 180.411 165.649 179.457 165.491C175.556 164.841 171.639 164.26 167.765 163.471C165.512 163.011 163.322 162.225 161.115 161.55C157.613 160.477 154.079 159.488 150.638 158.24C148.615 157.507 146.745 156.343 144.731 155.327C144.393 155.173 144.116 155.092 143.871 154.953C140.708 153.156 137.519 151.403 134.401 149.528C132.679 148.492 131.093 147.227 129.418 146.107C128.29 145.352 127.114 144.67 125.959 143.955C125.959 143.955 125.977 143.946 125.97 143.867C125.767 143.538 125.603 143.251 125.37 143.041C124.339 142.115 123.249 141.254 122.256 140.29C120.659 138.74 118.991 137.237 117.592 135.516C115.726 133.22 114.082 130.739 112.357 128.328C111.9 127.688 111.495 127.011 111.062 126.271C111.047 126.086 111.037 125.98 110.987 125.807C110.801 125.715 110.654 125.69 110.507 125.664C110.507 125.664 110.538 125.636 110.547 125.555C110.55 125.274 110.544 125.074 110.522 124.819C110.465 124.699 110.41 124.65 110.333 124.561C110.327 124.503 110.31 124.388 110.312 124.324C110.31 124.218 110.306 124.176 110.304 124.041C109.829 122.52 109.372 121.085 108.867 119.668C108.6 118.919 108.75 118.54 109.504 118.137C111.028 117.321 112.688 116.551 113.861 115.336C115.223 113.926 116.307 112.151 117.183 110.369C119.109 106.448 120.845 102.43 122.616 98.4328C122.872 97.8544 122.891 97.1682 123.02 96.5319C123.02 96.5319 122.999 96.4721 123.109 96.4292C123.489 95.7301 123.759 95.0739 124.097 94.363C124.36 93.7737 124.521 93.2232 124.755 92.707C125.921 90.143 127.035 87.5518 128.302 85.0393C129.841 81.9861 131.258 78.8202 133.197 76.0372C135.278 73.0483 137.9 70.4447 140.293 67.6789C140.734 67.1696 141.206 66.6884 141.664 66.1943C142.674 65.613 143.732 65.1031 144.682 64.4352C146.581 63.1007 148.511 61.8894 150.836 61.4449C151.157 61.3835 151.476 60.9137 151.654 60.5599C152.033 59.8073 152.082 59.054 151.206 58.5704C153.221 55.1653 154.024 51.4684 154.59 47.6934C154.795 46.3229 155.052 44.9602 155.299 43.3889C155.399 42.4535 155.475 41.7218 155.572 40.9931C156.108 36.9876 156.712 32.9901 157.163 28.9749C157.422 26.6753 157.45 24.3482 157.551 22.032C157.6 20.8951 157.623 19.7526 157.568 18.6171C157.536 17.9703 157.472 17.2421 157.158 16.7107C156.581 15.735 155.703 14.94 155.142 13.9576C154.096 12.1277 153.989 10.0775 154.17 7.94794C154.777 5.36405 155.706 3.14321 158.408 2.26251C158.535 2.22109 158.61 2.03557 158.727 1.93721C159.098 1.62228 159.431 1.17404 159.861 1.03109C162.455 0.168732 164.843 0.602673 167.005 2.32632C167.303 2.56398 167.733 2.63241 168.102 2.77918C168.102 2.77918 168.077 2.78714 168.098 2.84066C168.196 2.94048 168.272 2.98679 168.348 3.0331C168.348 3.0331 168.319 3.03799 168.342 3.09001C168.44 3.18834 168.516 3.23466 168.592 3.28098C168.592 3.28098 168.564 3.28582 168.586 3.3378C168.683 3.43694 168.759 3.48409 168.834 3.53124C168.834 3.53124 168.811 3.52975 168.807 3.59344C168.804 3.70668 168.806 3.75624 168.808 3.88588C168.893 4.1607 168.978 4.35543 169.058 4.64535C169.217 5.19245 169.501 5.639 169.521 6.09723C169.59 7.7023 169.891 9.40088 169.489 10.8936C169.091 12.3656 168.89 14.4652 166.509 14.4485C166.474 14.7984 166.515 15.177 166.385 15.4801C166.228 15.8451 165.928 16.1478 165.686 16.4741C165.214 17.1077 165.285 17.5275 166.131 17.6474C166.131 17.6474 166.117 17.6499 166.122 17.6443ZM159.242 94.174C159.242 94.174 159.245 94.1637 159.384 94.0216C159.714 92.5841 159.424 91.2452 158.757 89.7673C158.665 86.7947 154.845 84.5634 152.335 84.2913C149.091 83.9398 146.337 84.819 144.017 87.3308C141.258 90.3176 140.515 93.7325 141.527 97.5203C141.967 99.17 142.981 100.663 143.645 102.041C144.135 102.096 144.541 102.015 144.74 102.184C146.169 103.401 147.914 103.678 149.642 103.681C150.631 103.682 151.62 103.097 152.615 102.809C152.615 102.809 152.583 102.803 152.705 102.784C152.764 102.728 152.823 102.671 153.03 102.566C153.288 102.412 153.546 102.259 153.994 102.1C154.947 101.395 156.003 100.795 156.827 99.9602C158.046 98.7241 158.715 97.1359 159.13 95.2781C159.165 94.9128 159.2 94.5476 159.242 94.174ZM174.35 121.404C175.087 121.082 175.902 120.874 176.547 120.418C178.985 118.696 181.084 116.714 181.018 113.349C180.986 111.722 179.979 110.654 178.201 110.39C177.153 110.107 176.112 109.791 175.056 109.548C172.241 108.901 169.475 108.051 167.104 106.373C165.725 105.398 164.248 105.042 162.696 104.899C162.046 104.84 161.135 105.097 160.724 105.559C160.069 106.295 159.538 107.272 159.296 108.235C158.546 111.213 159.102 114.092 160.351 116.841C160.477 117.119 160.909 117.254 161.231 117.619C162.935 120.039 165.265 121.379 168.153 121.817C170.196 122.127 172.227 122.518 174.35 121.404ZM192.096 103.531C189.26 104.966 187.688 107.462 186.696 110.357C185.886 112.719 186.06 115.145 186.905 117.468C188.026 120.547 190.36 122.754 194.025 122.858C197.334 122.952 200.06 121.588 202.051 118.814C203.361 116.988 204.493 115.088 204.482 112.76C204.471 110.549 204.512 108.453 203.256 106.3C201.201 102.779 195.473 101.408 192.096 103.531ZM203.028 130.495C202.805 128.87 201.754 127.71 200.45 127.109C196.875 125.459 193.172 124.052 189.125 124.679C188.045 124.847 186.97 125.379 186.018 125.954C185.156 126.475 185.058 127.805 185.477 128.721C186.018 129.902 186.962 130.639 188.024 131.232C191.578 133.219 195.423 133.796 199.424 133.53C201.277 133.406 202.847 132.156 203.028 130.495ZM134.794 107.36C134.984 107.802 135.1 108.302 135.378 108.678C137.457 111.485 140.927 111.706 143.722 113.188C144.068 113.371 144.662 113.044 145.146 113.001C146.194 112.908 147.256 112.92 148.291 112.751C149.39 112.572 150.816 111.275 150.586 110.42C150.275 109.259 149.721 107.725 148.813 107.251C145.962 105.764 143.024 104.33 139.7 104.124C137.515 103.989 134.74 104.511 134.794 107.36Z" fill="#FAD762"/>
<path d="M24.3053 170.811C24.7996 170.6 25.4031 170.51 25.7779 170.165C27.1949 168.861 28.603 167.533 29.8802 166.092C30.4963 165.396 30.7001 164.337 31.2869 163.603C33.5119 160.822 36.2354 158.84 39.8476 158.256C40.8712 158.091 41.2161 158.425 41.4906 159.31C42.4707 162.471 43.3992 165.655 44.5478 168.753C45.5399 171.43 46.8134 173.999 47.9395 176.625C48.0961 176.99 48.0687 177.436 48.2206 177.804C48.3675 178.16 48.6361 178.465 48.9499 178.771C49.0486 178.749 49.0409 178.755 49.0065 178.838C48.9636 178.981 48.9551 179.04 48.9425 179.203C49.002 179.707 48.9925 180.139 49.1407 180.505C50.2697 183.294 51.4136 186.077 52.5837 188.848C54.1239 192.496 55.6262 196.162 57.2716 199.762C58.3736 202.172 59.6958 204.48 60.9282 206.911C61.0868 207.109 61.2366 207.23 61.3863 207.35C61.4441 207.427 61.5018 207.504 61.4915 207.694C61.4152 208.092 61.2882 208.461 61.4176 208.647C62.3206 209.944 63.2477 211.227 64.2365 212.458C64.4761 212.756 64.9755 212.841 65.3554 213.024C65.4287 213.037 65.4844 213.076 65.4839 213.242C65.5744 213.479 65.7036 213.614 65.8328 213.749C65.8328 213.749 65.8104 213.758 65.8081 213.841C65.9813 214.331 66.0681 214.818 66.3462 215.132C68.8896 218.001 71.3833 220.923 74.0642 223.656C75.6834 225.306 77.6713 226.579 79.3795 228.149C81.3937 230.001 83.2826 231.991 85.2303 233.917C85.8522 234.532 86.4382 235.2 87.1283 235.725C88.5081 236.776 89.9194 237.791 91.3752 238.73C92.1764 239.246 93.0944 239.577 93.9597 239.992C93.9597 239.992 93.938 240.002 93.9458 240.08C94.1669 240.388 94.3495 240.661 94.5987 240.84C96.4301 242.152 98.2703 243.452 100.116 244.744C102.908 246.696 105.71 248.633 108.498 250.589C109.052 250.978 109.525 251.494 110.103 251.834C111.38 252.585 112.72 253.226 113.994 253.98C114.928 254.534 115.754 255.284 116.708 255.793C118.229 256.603 119.859 257.205 121.365 258.039C124.291 259.66 127.15 261.403 130.059 263.055C132.096 264.212 134.169 265.302 136.224 266.426C136.904 266.798 137.577 267.182 138.518 267.71C137.476 268.353 136.761 268.87 135.984 269.259C134.569 269.966 133.068 270.508 131.689 271.276C128.367 273.126 124.767 273.622 120.964 273.711C120.455 273.707 120.047 273.715 119.537 273.715C119.164 273.713 118.892 273.718 118.518 273.712C118.009 273.701 117.601 273.701 117.136 273.637C116.862 273.539 116.644 273.504 116.349 273.461C116.168 273.456 116.064 273.461 115.868 273.421C114.529 273.23 113.281 273.085 111.974 272.873C110.887 272.454 109.829 272.175 108.841 271.735C106.387 270.645 103.962 269.487 101.531 268.344C101.01 268.099 100.511 267.805 100.002 267.534C100.002 267.534 100.031 267.519 100.027 267.443C99.8888 267.175 99.7977 266.905 99.6147 266.802C97.6524 265.701 95.7213 264.526 93.6896 263.573C91.8024 262.687 89.8037 262.044 87.8541 261.295C87.5687 261.14 87.2832 260.985 86.8988 260.732C86.0655 260.626 85.3312 260.619 84.5969 260.613C84.5969 260.613 84.5991 260.63 84.6005 260.547C84.4488 260.342 84.2957 260.22 84.0292 260.088C80.2455 260.075 76.5751 260.072 72.8303 260C69.489 259.567 66.2086 259.297 62.9595 258.811C59.8049 258.34 56.6733 257.693 53.5485 257.041C50.1883 256.339 46.8513 255.566 43.6873 254.124C42.344 253.512 40.8317 253.28 39.3498 252.82C39.1666 252.729 39.0299 252.694 38.8334 252.652C38.7736 252.645 38.6533 252.637 38.5992 252.569C36.1566 251.41 33.7597 250.337 31.386 249.214C30.8642 248.967 30.471 248.386 29.9397 248.224C26.5553 247.196 24.1224 244.817 21.5651 242.535C20.6424 241.712 20.3283 240.19 18.841 240.009C18.8384 240.007 18.8327 240.002 18.8087 239.951C18.7395 239.835 18.681 239.789 18.5957 239.674C17.7341 238.737 16.886 237.886 16.0378 237.035C16.0378 237.035 16.0386 237.014 16.0668 236.908C14.8293 234.936 13.6046 233.042 12.2862 231.216C10.9731 229.398 9.37708 227.763 8.24478 225.843C6.58603 223.03 5.11216 220.088 3.77712 217.101C2.38113 213.978 2.02482 210.589 1.96368 207.184C1.92434 204.994 1.95263 202.801 1.9514 200.61C1.95034 198.712 1.8875 196.811 1.96263 194.916C2.1356 190.553 3.44406 186.501 5.39346 182.638C6.43133 180.581 7.85792 178.965 10.1539 178.366C11.1228 178.113 12.1683 178.092 13.0877 177.729C14.8713 177.024 16.6155 176.203 18.3294 175.336C20.3453 174.316 22.2964 173.168 23.9442 171.579C24.1325 171.397 24.1857 171.072 24.3016 170.813C24.3016 170.813 24.3095 170.814 24.3053 170.811Z" fill="#FAD762"/>
<path d="M146.683 158.874C146.253 159.076 145.645 159.161 145.427 159.501C144.767 160.531 144.26 161.659 143.549 163.025C137.479 158.772 131.445 154.544 125.487 150.369C126.154 149.186 126.648 148.308 127.213 147.306C128.046 147.858 128.873 148.414 129.708 148.958C131.479 150.112 133.258 151.254 135.025 152.416C135.315 152.606 135.557 152.87 135.921 153.198C135.636 154.167 135.251 155.037 134.867 155.907C134.974 156.01 135.08 156.113 135.187 156.217C135.529 155.915 135.951 155.668 136.192 155.299C136.528 154.787 136.728 154.184 136.985 153.619C139.463 154.857 141.941 156.095 144.418 157.334C145.211 157.731 146.003 158.13 146.795 158.647C146.758 158.803 146.72 158.839 146.683 158.874Z" fill="#F1F1F0"/>
<path d="M175.789 167.242C179.237 167.677 182.574 168.126 186.034 168.591C186.034 170.277 186.034 172.129 186.034 174.198C184.327 174.095 182.616 174.036 180.914 173.876C179.432 173.738 177.964 173.44 176.482 173.304C175.748 173.236 175.461 172.887 175.48 172.224C175.529 170.567 175.61 168.912 175.789 167.242Z" fill="#F1F1F0"/>
<path d="M195.488 168.228C196.208 168.216 196.816 168.216 197.33 168.216C197.33 170.031 197.33 171.768 197.33 173.687C193.995 173.925 190.503 174.174 186.891 174.432C186.891 172.423 186.923 170.79 186.879 169.158C186.853 168.204 187.444 168.383 188.014 168.375C190.468 168.342 192.922 168.288 195.488 168.228Z" fill="#F1F1F0"/>
<path d="M164.627 165.087C166.465 165.491 168.299 165.914 170.142 166.294C171.627 166.6 173.122 166.853 174.55 167.118C174.55 169.05 174.55 170.91 174.55 173.002C171.246 172.222 167.983 171.451 164.601 170.652C164.601 168.877 164.601 167.179 164.611 165.334C164.621 165.185 164.627 165.087 164.627 165.087Z" fill="#F1F1F0"/>
<path d="M164.549 165.031C164.627 165.087 164.621 165.186 164.615 165.235C164.364 165.472 163.933 165.637 163.906 165.852C163.732 167.261 163.645 168.68 163.512 170.314C160.436 169.238 157.454 168.194 154.349 167.108C154.454 165.437 154.56 163.748 154.678 161.884C157.909 162.904 161.19 163.94 164.549 165.031Z" fill="#F0F0EF"/>
<path d="M112.034 272.939C113.281 273.084 114.529 273.23 115.904 273.469C116.163 273.531 116.295 273.501 116.427 273.47C116.644 273.504 116.862 273.539 117.194 273.701C117.746 273.794 118.183 273.758 118.62 273.722C118.892 273.718 119.164 273.713 119.599 273.774C120.197 273.801 120.631 273.762 121.065 273.723C124.767 273.621 128.367 273.126 131.689 271.275C133.069 270.507 134.569 269.965 135.984 269.259C136.762 268.87 137.476 268.353 138.518 267.71C137.577 267.182 136.904 266.798 136.224 266.426C134.17 265.302 132.096 264.212 130.059 263.055C127.151 261.402 124.291 259.66 121.365 258.039C119.859 257.205 118.229 256.603 116.708 255.793C115.754 255.284 114.928 254.534 113.994 253.98C112.72 253.225 111.38 252.585 110.103 251.834C109.525 251.494 109.052 250.978 108.498 250.589C105.71 248.632 102.908 246.696 100.117 244.744C98.2705 243.452 96.4302 242.152 94.5988 240.84C94.3496 240.661 94.1671 240.387 93.9521 240.069C95.8855 241.242 97.8389 242.476 99.7509 243.772C102.404 245.571 104.983 247.486 107.674 249.225C111.053 251.409 114.484 253.516 117.948 255.561C121.021 257.376 124.165 259.066 127.283 260.803C130.677 262.693 134.075 264.574 137.473 266.458C138.136 266.825 138.802 267.188 139.639 267.647C135.595 270.289 131.605 272.326 127.254 273.549C123.695 274.549 120.051 274.375 116.428 273.997C114.71 273.817 113.013 273.427 111.338 273.053C111.591 272.962 111.812 272.95 112.034 272.939Z" fill="#FAD762"/>
<path d="M24.2284 170.844C24.1854 171.072 24.1322 171.397 23.9439 171.579C22.2961 173.168 20.345 174.316 18.3291 175.336C16.6152 176.203 14.871 177.024 13.0873 177.729C12.168 178.092 11.1225 178.113 10.1536 178.366C7.85762 178.965 6.43102 180.581 5.39316 182.638C3.44375 186.501 2.13529 190.553 1.96232 194.916C1.8872 196.811 1.95003 198.712 1.95109 200.61C1.95232 202.802 1.92403 204.994 1.96337 207.184C2.02451 210.589 2.38082 213.978 3.77682 217.101C5.11185 220.088 6.58573 223.03 8.24447 225.843C9.37678 227.763 10.9728 229.398 12.2859 231.216C13.6043 233.042 14.829 234.937 16.0621 236.898C14.8364 235.606 13.5424 234.291 12.4722 232.81C10.42 229.971 8.3386 227.132 6.55894 224.117C4.60965 220.815 2.89286 217.323 2.10497 213.533C1.61195 211.161 1.64822 208.676 1.4612 206.24C1.36864 205.035 1.19653 203.821 1.2535 202.621C1.45029 198.474 1.04211 194.294 2.01987 190.187C2.84342 186.728 4.16828 183.482 6.10218 180.542C6.75413 179.55 7.86229 178.573 8.95896 178.225C14.383 176.502 19.7456 174.719 24.2284 170.844Z" fill="#FAD762"/>
<path d="M146.851 158.712C149.155 159.662 151.405 160.667 153.508 161.607C153.226 163.365 152.965 164.993 152.685 166.735C150.044 165.67 147.374 164.593 144.876 163.585C145.515 162.024 146.121 160.54 146.706 158.965C146.72 158.839 146.758 158.803 146.851 158.712Z" fill="#F1F1F0"/>
<path d="M205.148 167.098C205.277 168.001 205.294 168.94 205.562 169.798C205.898 170.874 205.806 171.414 204.567 171.707C202.62 172.165 200.725 172.848 198.579 173.505C198.579 171.591 198.579 169.894 198.579 168.019C200.631 167.654 202.678 167.29 204.878 166.965C205.071 167.035 205.11 167.067 205.148 167.098Z" fill="#F0F0EF"/>
<path d="M118.316 143.512C117.823 142.965 117.401 142.472 116.905 141.894C117.619 141.296 118.294 140.731 118.979 140.157C121.37 142.222 123.912 144.417 126.565 146.708C125.917 147.585 125.3 148.42 124.573 149.404C122.465 147.414 120.426 145.49 118.316 143.512Z" fill="#F0F0EF"/>
<path d="M235.06 48.3738C235.375 47.4926 235.687 46.6102 236.005 45.7304C237.002 42.9759 237.983 40.2149 239.007 37.471C239.716 35.5738 241.071 34.4864 242.976 33.7238C246.093 32.4763 247.992 29.9986 248.242 26.5539C248.395 24.4438 247.363 22.7169 245.836 21.2621C243.634 19.1637 240.98 18.7073 238.271 19.5056C235.889 20.2071 233.871 21.705 232.812 24.1723C232.699 24.4368 232.563 24.6916 232.397 25.0309C232.228 25.172 232.099 25.2332 231.9 25.3086C232.686 22.3632 234.513 20.269 237.385 19.2405C240.26 18.2109 243.054 18.4205 245.569 20.3177C248.194 22.2985 249.301 24.9581 248.51 28.1988C247.756 31.2906 245.653 33.3691 242.776 34.4114C241.377 34.9185 240.476 35.6842 239.904 36.933C238.978 38.9555 238.083 40.9963 237.269 43.0673C236.572 44.8397 236.008 46.6653 235.286 48.511C235.131 48.5049 235.088 48.4446 235.06 48.3738Z" fill="#FAD762"/>
<path d="M117.914 138.866C117.47 139.696 116.973 140.447 116.318 141.437C114.351 138.862 112.532 136.481 110.611 133.967C111.344 133.378 111.96 132.882 112.73 132.262C114.486 134.495 116.174 136.641 117.914 138.866Z" fill="#F0F0EF"/>
<path d="M212.983 166.75C210.979 168.249 209.03 169.669 206.859 171.25C206.571 169.492 206.34 168.08 206.103 166.631C208.29 165.922 210.463 165.217 212.783 164.465C212.873 165.243 212.956 165.956 212.983 166.75Z" fill="#F0F0EF"/>
<path d="M144.805 155.373C146.744 156.343 148.615 157.507 150.637 158.24C154.079 159.488 157.612 160.477 161.114 161.55C163.321 162.226 165.511 163.012 167.764 163.471C171.639 164.26 175.555 164.841 179.457 165.491C180.41 165.649 181.375 165.734 182.402 166.002C182.463 166.203 182.457 166.255 182.451 166.307C178.503 165.755 174.498 165.461 170.621 164.587C165.713 163.481 160.902 161.928 156.062 160.519C153.749 159.846 151.426 159.172 149.187 158.289C147.626 157.674 146.201 156.703 144.67 155.788C144.685 155.581 144.745 155.477 144.805 155.373Z" fill="#FAD762"/>
<path d="M39.3961 252.876C40.8316 253.28 42.344 253.512 43.6872 254.124C46.8513 255.566 50.1882 256.339 53.5484 257.041C56.6732 257.693 59.8048 258.34 62.9594 258.811C66.2085 259.297 69.489 259.567 72.9011 260.073C76.6425 260.238 80.2386 260.262 83.8346 260.275C83.9371 260.275 84.0399 260.159 84.1426 260.098C84.2957 260.22 84.4488 260.342 84.5919 260.549C82.387 260.611 80.1912 260.539 77.9972 260.575C71.7838 260.68 65.6661 259.858 59.583 258.694C56.3021 258.066 52.981 257.57 49.768 256.682C46.1157 255.672 42.5637 254.29 38.9237 252.988C38.8793 252.906 38.9145 252.867 38.9946 252.873C39.1818 252.878 39.289 252.877 39.3961 252.876Z" fill="#FAD762"/>
<path d="M93.9232 239.915C93.0941 239.577 92.1761 239.246 91.375 238.73C89.9192 237.791 88.5078 236.776 87.1281 235.725C86.4379 235.2 85.852 234.532 85.2301 233.917C83.2824 231.991 81.3935 230 79.3792 228.149C77.6711 226.579 75.6831 225.306 74.0639 223.655C71.383 220.923 68.8894 218.001 66.346 215.132C66.0679 214.818 65.981 214.331 65.8145 213.831C67.2515 215.404 68.5968 217.153 70.1272 218.718C72.3685 221.008 74.7304 223.179 77.0641 225.376C78.5791 226.802 80.2203 228.1 81.6565 229.601C85.3635 233.476 89.5125 236.791 93.9232 239.915Z" fill="#FAD762"/>
<path d="M229.468 112.464C228.747 108.449 228.042 104.431 227.296 100.421C227.064 99.1758 226.816 97.918 226.406 96.7256C225.324 93.5756 224.156 90.4553 223.005 87.3297C222.615 86.2692 222.246 85.3458 222.742 84.0827C223.198 82.9237 222.943 81.4946 223.108 80.1985C223.281 78.8433 223.582 77.5049 223.963 76.1887C224.186 76.2766 224.273 76.3349 224.359 76.3932C223.888 79.3265 223.215 82.2474 223.038 85.1988C222.96 86.4955 223.921 87.8444 224.358 89.1869C225.277 92.0083 226.196 94.8304 227.047 97.6731C227.643 99.6634 228.225 101.668 228.635 103.703C229.16 106.3 229.506 108.934 229.857 111.708C229.68 112.064 229.574 112.264 229.468 112.464Z" fill="#FAD762"/>
<path d="M104.202 121.549C103.434 120.438 102.502 120.596 101.445 121.259C101.251 121.381 100.87 121.198 100.538 121.063C102.644 120.292 104.787 119.614 107.035 119.018C107.215 119.297 107.29 119.494 107.365 119.691C107.782 121.507 108.199 123.324 108.642 125.251C108.146 125.516 107.476 125.873 106.592 126.344C105.886 124.347 105.181 122.351 104.475 120.354C104.414 120.345 104.352 120.336 104.29 120.327C104.261 120.697 104.233 121.068 104.202 121.549Z" fill="#EBEAE8"/>
<path d="M182.533 166.368C182.457 166.255 182.464 166.203 182.474 166.072C186.056 165.993 189.638 166.097 193.211 165.953C195.454 165.863 197.68 165.377 199.918 165.111C201.502 164.922 203.137 164.983 204.673 164.61C206.876 164.075 209.009 163.246 211.27 162.618C211.367 162.795 211.367 162.898 211.367 163.001C208.681 163.827 206.032 164.829 203.299 165.442C197.895 166.653 192.39 166.903 186.866 166.69C185.448 166.636 184.032 166.518 182.533 166.368Z" fill="#FAD762"/>
<path d="M107.44 119.636C107.289 119.494 107.214 119.297 107.127 119.019C108.93 117.868 110.796 116.875 112.539 115.696C113.421 115.1 114.262 114.28 114.808 113.369C116.271 110.924 117.669 108.426 118.9 105.855C120.182 103.175 121.238 100.384 122.398 97.6441C122.541 97.3054 122.714 96.9792 122.946 96.5896C122.89 97.1682 122.872 97.8544 122.615 98.4328C120.845 102.43 119.109 106.448 117.182 110.369C116.306 112.151 115.222 113.926 113.86 115.336C112.687 116.551 111.027 117.321 109.503 118.137C108.749 118.54 108.599 118.919 108.866 119.668C109.371 121.085 109.828 122.52 110.205 124.054C110.039 124.171 109.974 124.182 109.909 124.193C109.465 122.914 109.042 121.627 108.565 120.36C108.397 119.916 108.428 119.056 107.44 119.636Z" fill="#FAD762"/>
<path d="M107.199 127.481C107.867 127.005 108.577 126.618 109.37 126.187C110.464 128.074 111.48 129.826 112.481 131.553C111.7 132.271 111.059 132.861 110.325 133.536C109.319 131.589 108.28 129.579 107.199 127.481Z" fill="#F0F0EF"/>
<path d="M141.65 66.1215C141.206 66.6884 140.734 67.1696 140.293 67.6789C137.9 70.4447 135.278 73.0483 133.197 76.0372C131.258 78.8202 129.841 81.9861 128.302 85.0393C127.036 87.5518 125.921 90.143 124.756 92.707C124.521 93.2231 124.36 93.7736 124.093 94.2739C124.015 94.1205 124.01 94.0016 124.004 93.8826C124.478 92.5075 124.81 91.0604 125.45 89.7703C127.693 85.2551 129.878 80.6961 132.416 76.3513C133.798 73.9849 135.798 71.9745 137.609 69.8839C138.808 68.5007 140.167 67.2601 141.534 65.9287C141.621 65.9508 141.628 65.9997 141.65 66.1215Z" fill="#FAD762"/>
<path d="M60.92 206.833C59.6963 204.48 58.3741 202.172 57.2721 199.762C55.6267 196.162 54.1244 192.496 52.5842 188.848C51.4141 186.077 50.2702 183.294 49.1412 180.505C48.993 180.139 49.0025 179.707 48.9912 179.176C49.1027 178.997 49.1449 178.936 49.1701 178.863C49.6317 180.365 49.9633 181.924 50.5794 183.358C52.3678 187.52 54.2748 191.63 56.1262 195.765C57.3944 198.597 58.6332 201.442 59.9157 204.268C60.2855 205.082 60.7614 205.848 61.126 206.731C61.0155 206.828 60.9677 206.831 60.92 206.833Z" fill="#FAD762"/>
<path d="M18.8434 240.012C20.3282 240.19 20.6422 241.711 21.5649 242.535C24.1222 244.817 26.5551 247.196 29.9395 248.224C30.4708 248.386 30.864 248.967 31.3858 249.214C33.7595 250.337 36.1564 251.41 38.4998 252.569C38.2562 252.646 38.0577 252.654 37.8592 252.661C35.2153 251.468 32.5609 250.298 29.9322 249.071C28.805 248.545 27.6026 248.062 26.6576 247.282C23.9991 245.087 21.4564 242.749 18.8512 240.314C18.8373 240.112 18.8404 240.062 18.8434 240.012Z" fill="#FAD762"/>
<path d="M215.041 157.555C216.425 155.152 218.025 152.847 219.147 150.324C221.156 145.807 224.008 141.787 226.311 137.299C226.451 137.147 226.49 137.089 226.514 137.021C226.514 137.021 226.516 137.013 226.573 137.012C226.63 137.011 226.736 137.01 226.736 137.01C226.087 138.402 225.499 139.827 224.777 141.179C223.238 144.062 221.656 146.922 220.043 149.763C218.571 152.357 217.035 154.913 215.379 157.532C215.167 157.571 215.104 157.563 215.041 157.555Z" fill="#FAD762"/>
<path d="M144.731 155.327C144.746 155.477 144.686 155.581 144.6 155.74C138.241 152.607 132.094 149.111 126.544 144.628C126.355 144.476 126.197 144.283 125.992 144.032C127.114 144.67 128.29 145.353 129.418 146.107C131.093 147.227 132.679 148.492 134.401 149.528C137.519 151.403 140.708 153.156 143.871 154.953C144.116 155.092 144.393 155.173 144.731 155.327Z" fill="#FAD762"/>
<path d="M111.066 126.351C111.495 127.011 111.9 127.688 112.357 128.328C114.082 130.739 115.726 133.22 117.592 135.516C118.991 137.237 120.659 138.74 122.256 140.29C123.249 141.254 124.339 142.115 125.37 143.041C125.603 143.251 125.767 143.538 125.966 143.876C124.444 142.701 122.898 141.463 121.398 140.17C117.988 137.23 115.294 133.65 112.713 129.987C112.038 129.03 111.606 127.898 111.057 126.68C111.056 126.459 111.061 126.405 111.066 126.351Z" fill="#FAD762"/>
<path d="M226.796 136.942C226.736 137.009 226.629 137.011 226.576 137.013C227.062 134.84 227.669 132.68 228.115 130.486C228.431 128.937 228.545 127.344 228.718 125.767C228.926 123.874 229.103 121.977 229.417 119.987C229.652 119.831 229.761 119.771 229.871 119.711C229.645 125.373 228.891 130.948 227.193 136.367C227.134 136.554 226.971 136.707 226.796 136.942Z" fill="#FAD762"/>
<path d="M225.777 71.5925C227.475 67.1199 229.172 62.6473 230.966 58.0687C231.169 57.901 231.276 57.8393 231.382 57.7776C230.046 62.4775 228.534 67.1117 226.228 71.5639C225.991 71.6183 225.884 71.6054 225.777 71.5925Z" fill="#FAD762"/>
<path d="M87.8574 261.385C89.8042 262.044 91.8029 262.687 93.6901 263.573C95.7217 264.526 97.6529 265.701 99.6152 266.802C99.7981 266.905 99.8893 267.175 100.018 267.457C95.9626 265.523 91.9114 263.499 87.8574 261.385Z" fill="#FAD762"/>
<path d="M111.974 272.873C111.813 272.95 111.591 272.962 111.26 272.992C107.046 272.115 103.297 270.467 100.043 267.606C100.511 267.805 101.01 268.099 101.531 268.344C103.962 269.487 106.387 270.645 108.841 271.735C109.83 272.174 110.887 272.454 111.974 272.873Z" fill="#FAD762"/>
<path d="M231.435 57.7094C231.275 57.8394 231.168 57.9011 231.006 57.987C231.996 55.5076 233.041 53.0039 234.087 50.5004C234.368 49.8285 234.65 49.1572 234.995 48.4297C235.088 48.4445 235.13 48.5048 235.235 48.5835C234.017 51.622 232.753 54.6315 231.435 57.7094Z" fill="#FAD762"/>
<path d="M229.902 119.596C229.762 119.771 229.652 119.831 229.481 119.907C229.431 117.516 229.441 115.11 229.46 112.584C229.574 112.264 229.68 112.064 229.838 111.815C229.903 114.337 229.918 116.909 229.902 119.596Z" fill="#FAD762"/>
<path d="M65.3285 212.941C64.9762 212.841 64.4769 212.756 64.2372 212.458C63.2484 211.227 62.3213 209.944 61.4183 208.647C61.2889 208.461 61.4159 208.092 61.5103 207.765C62.8312 209.434 64.066 211.147 65.3285 212.941Z" fill="#FAD762"/>
<path d="M136.951 153.557C136.728 154.184 136.528 154.787 136.192 155.3C135.951 155.668 135.529 155.915 135.187 156.217C135.08 156.113 134.974 156.01 134.867 155.907C135.251 155.037 135.636 154.167 136.008 153.206C136.302 153.242 136.609 153.368 136.951 153.557Z" fill="#181510"/>
<path d="M225.71 71.6559C225.884 71.6055 225.991 71.6184 226.178 71.6327C225.67 73.1832 225.082 74.7324 224.427 76.3374C224.273 76.335 224.186 76.2767 224.05 76.1562C224.091 75.742 224.181 75.3902 224.344 74.9085C224.458 74.6436 224.5 74.5085 224.542 74.3733C224.909 73.4886 225.275 72.6039 225.71 71.6559Z" fill="#FAD762"/>
<path d="M211.885 162.07C212.534 161.175 213.174 160.275 213.835 159.389C214.102 159.03 214.413 158.705 214.795 158.398C214.406 159.36 213.926 160.287 213.324 161.215C212.763 161.5 212.324 161.785 211.885 162.07Z" fill="#FAD762"/>
<path d="M16.0566 237.124C16.8857 237.886 17.7339 238.737 18.5923 239.733C18.6027 239.878 18.608 239.997 18.5909 240.014C18.5738 240.032 18.5395 240.067 18.5395 240.067C17.7183 239.115 16.897 238.164 16.0566 237.124Z" fill="#FAD762"/>
<path d="M100.172 121.079C99.3635 122.333 98.1372 121.929 96.8877 121.623C97.908 121.383 98.9867 121.233 100.172 121.079Z" fill="#EBEAE8"/>
<path d="M211.849 162.116C212.323 161.785 212.762 161.5 213.248 161.258C212.942 162.113 212.553 162.883 211.455 162.998C211.367 162.898 211.367 162.795 211.362 162.616C211.358 162.539 211.365 162.531 211.425 162.509C211.559 162.446 211.608 162.384 211.63 162.301C211.702 162.268 211.763 162.222 211.849 162.116Z" fill="#EBEAE8"/>
<path d="M123.931 93.9373C124.009 94.0017 124.015 94.1207 124.025 94.3287C123.759 95.074 123.488 95.7303 123.132 96.4089C123.317 95.618 123.588 94.8049 123.931 93.9373Z" fill="#FAD762"/>
<path d="M84.666 260.689C85.3313 260.619 86.0656 260.626 86.8151 260.717C86.1319 260.789 85.4335 260.777 84.666 260.689Z" fill="#FAD762"/>
<path d="M110.537 124.874C110.543 125.074 110.549 125.275 110.537 125.574C110.336 125.304 110.153 124.934 110.052 124.474C110.193 124.385 110.251 124.386 110.309 124.388C110.309 124.388 110.327 124.503 110.35 124.615C110.411 124.795 110.466 124.843 110.537 124.874Z" fill="#FAD762"/>
<path d="M214.971 157.618C215.104 157.563 215.167 157.571 215.325 157.59C215.299 157.85 215.178 158.098 214.982 158.377C214.905 158.166 214.903 157.924 214.971 157.618Z" fill="#FAD762"/>
<path d="M111.062 126.272C111.061 126.405 111.056 126.459 111.042 126.594C110.881 126.461 110.729 126.246 110.652 125.95C110.827 125.871 110.927 125.872 111.027 125.874C111.037 125.98 111.047 126.086 111.062 126.272Z" fill="#FAD762"/>
<path d="M37.9189 252.728C38.0582 252.654 38.2567 252.646 38.5544 252.638C38.6536 252.637 38.7739 252.645 38.8376 252.704C38.9014 252.763 38.9149 252.867 38.9149 252.867C38.9149 252.867 38.8797 252.905 38.8624 252.925C38.5561 252.895 38.2671 252.845 37.9189 252.728Z" fill="#FAD762"/>
<path d="M60.9287 206.911C60.9677 206.831 61.0154 206.828 61.1347 206.821C61.2722 206.944 61.3381 207.071 61.3954 207.274C61.237 207.23 61.0872 207.109 60.9287 206.911Z" fill="#FAD762"/>
<path d="M48.7432 177.749C48.6714 177.64 48.5993 177.44 48.5791 177.187C48.6683 177.308 48.7056 177.484 48.7432 177.749Z" fill="#FAD762"/>
<path d="M65.8238 213.673C65.7037 213.613 65.5745 213.478 65.4971 213.293C65.6375 213.361 65.7261 213.479 65.8238 213.673Z" fill="#FAD762"/>
<path d="M48.8885 178.276C48.82 178.221 48.7624 178.093 48.7158 177.891C48.7843 177.946 48.8418 178.074 48.8885 178.276Z" fill="#FAD762"/>
<path d="M110.987 125.807C110.926 125.872 110.827 125.871 110.652 125.869C110.577 125.869 110.509 125.778 110.508 125.721C110.654 125.69 110.8 125.715 110.987 125.807Z" fill="#FAD762"/>
<path d="M18.8409 240.009C18.8404 240.062 18.8374 240.112 18.8264 240.237C18.7451 240.269 18.6718 240.226 18.5691 240.125C18.5397 240.067 18.5739 240.032 18.6471 240.018C18.7202 240.004 18.8326 240.002 18.8326 240.002C18.8326 240.002 18.8383 240.007 18.8409 240.009Z" fill="#FAD762"/>
<path d="M204.977 166.954C205.019 166.864 205.117 166.825 205.215 166.785C205.226 166.851 205.237 166.917 205.198 167.041C205.11 167.067 205.071 167.036 204.977 166.954Z" fill="#F0F0EF"/>
<path d="M49.1519 178.822C49.1447 178.936 49.1024 178.997 48.995 179.073C48.9553 179.04 48.9639 178.981 49.0101 178.839C49.0479 178.757 49.1339 178.781 49.1519 178.822Z" fill="#FAD762"/>
<path d="M154.267 161.918C154.238 161.933 154.217 161.879 154.217 161.879C154.217 161.879 154.295 161.904 154.267 161.918Z" fill="#F0F0EF"/>
<path d="M110.313 124.324C110.252 124.386 110.193 124.384 110.047 124.38C109.959 124.378 109.905 124.294 109.907 124.243C109.975 124.182 110.04 124.171 110.203 124.147C110.306 124.176 110.31 124.218 110.313 124.324Z" fill="#FAD762"/>
<path d="M154.102 8.01214C153.989 10.0774 154.096 12.1277 155.142 13.9576C155.703 14.9399 156.581 15.735 157.158 16.7106C157.472 17.2421 157.536 17.9703 157.568 18.617C157.623 19.7525 157.6 20.895 157.55 22.032C157.45 24.3481 157.421 26.6753 157.163 28.9749C156.712 32.99 156.108 36.9875 155.572 40.9931C155.475 41.7218 155.399 42.4535 155.302 43.2906C155.225 42.7508 155.16 42.1041 155.099 41.3536C155.376 38.8529 155.54 36.4369 155.947 34.0635C156.709 29.612 157.215 25.1521 157.076 20.6265C157.051 19.8151 157.298 18.9856 157.207 18.1892C157.14 17.5942 156.869 16.8891 156.45 16.4906C153.79 13.9611 153.176 10.8472 153.782 7.36816C153.935 7.58879 154.018 7.80047 154.102 8.01214Z" fill="#FAD762"/>
<path d="M154.169 7.94786C154.018 7.80042 153.934 7.58875 153.841 7.28701C155.126 1.25564 161.757 -1.80075 166.662 1.30616C167.194 1.6427 167.608 2.16933 168.089 2.69344C167.732 2.63232 167.303 2.56389 167.005 2.32623C164.843 0.602583 162.455 0.168643 159.86 1.031C159.43 1.17395 159.097 1.62219 158.726 1.93712C158.61 2.03548 158.535 2.221 158.407 2.26242C155.705 3.14312 154.776 5.36396 154.169 7.94786Z" fill="#FAD762"/>
<path d="M166.111 17.55C165.284 17.5275 165.214 17.1078 165.685 16.4742C165.928 16.1479 166.228 15.8452 166.385 15.4802C166.515 15.1771 166.474 14.7985 166.509 14.4486C168.889 14.4653 169.091 12.3656 169.488 10.8937C169.891 9.40095 169.59 7.70236 169.521 6.09729C169.501 5.63907 169.216 5.19251 169.161 4.62659C169.336 4.49471 169.404 4.47685 169.472 4.45898C170.708 6.88237 170.659 9.34815 169.767 11.8681C169.135 13.6548 167.996 15.0196 166.582 16.2197C166.286 16.4707 166.248 17.0334 166.111 17.55Z" fill="#FAD762"/>
<path d="M169.455 4.38304C169.404 4.47679 169.336 4.49466 169.165 4.53135C168.977 4.35544 168.893 4.16071 168.866 3.91309C169.038 3.92387 169.152 3.98754 169.265 4.05122C169.323 4.13653 169.381 4.22184 169.455 4.38304Z" fill="#FAD762"/>
<path d="M169.264 3.97113C169.152 3.98762 169.038 3.92395 168.866 3.83307C168.806 3.75632 168.804 3.70677 168.812 3.5835C168.969 3.63683 169.116 3.76389 169.264 3.97113Z" fill="#FAD762"/>
<path d="M168.573 3.21475C168.517 3.23509 168.44 3.18866 168.344 3.07545C168.4 3.0551 168.476 3.10154 168.573 3.21475Z" fill="#FAD762"/>
<path d="M168.328 2.96692C168.272 2.98728 168.195 2.94087 168.099 2.82766C168.155 2.80729 168.231 2.85372 168.328 2.96692Z" fill="#FAD762"/>
<path d="M168.816 3.46435C168.759 3.48441 168.683 3.43716 168.588 3.32327C168.644 3.30344 168.721 3.35023 168.816 3.46435Z" fill="#FAD762"/>
<path d="M185.671 59.4034C184.264 59.2484 182.838 58.9188 181.394 58.7802C177.446 58.4012 173.493 58.0519 169.535 57.7939C167.557 57.665 166.044 56.7422 165.347 54.8396C163.799 50.6172 162.891 46.2721 162.901 41.7441C162.904 40.3517 162.67 38.9571 162.696 37.5665C162.778 33.2569 163.103 28.9674 164.059 24.7503C164.18 24.2162 164.321 23.6868 164.546 23.1316C164.387 25.0449 164.095 26.9777 163.89 28.9198C163.668 31.0358 163.391 33.1598 163.38 35.2815C163.363 38.7131 163.377 42.1612 163.689 45.5732C163.977 48.7324 164.561 51.8919 165.911 54.8064C166.604 56.3036 167.656 57.3422 169.545 57.2784C174.614 57.107 179.609 57.8292 184.571 58.806C184.947 58.88 185.287 59.1415 185.671 59.4034Z" fill="#FAD762"/>
<path d="M199.146 65.4491C196.483 63.5305 193.346 62.6912 190.364 61.4999C188.81 60.8791 187.251 60.2716 185.688 59.5669C187.33 59.9881 189.023 60.3835 190.613 61.0383C193.52 62.2361 196.365 63.5872 199.293 64.9995C199.282 65.2328 199.214 65.341 199.146 65.4491Z" fill="#FAD762"/>
<path d="M164.66 22.1396C164.694 21.9213 164.728 21.703 164.897 21.4323C165.128 21.3674 165.223 21.3551 165.319 21.3428C165.319 21.3428 165.333 21.3569 165.34 21.3639C165.249 21.8094 165.151 22.2478 164.976 22.6634C164.82 22.4737 164.74 22.3066 164.66 22.1396Z" fill="#FAD762"/>
<path d="M199.155 65.5402C199.214 65.3408 199.282 65.2327 199.355 65.0571C199.486 65.0637 199.612 65.1377 199.737 65.2476C199.661 65.4777 199.585 65.6719 199.508 65.8661C199.394 65.7879 199.279 65.7097 199.155 65.5402Z" fill="#FAD762"/>
<path d="M164.651 22.2441C164.741 22.3067 164.821 22.4738 164.914 22.7376C164.899 22.9075 164.847 22.9482 164.719 22.968C164.659 22.7691 164.651 22.5589 164.651 22.2441Z" fill="#FAD762"/>
<path d="M234.996 33.9929C235.103 34.423 235.145 34.8542 235.197 35.3826C233.91 35.3249 233.436 36.4102 233.024 37.6074C231.851 41.0137 230.016 44.0974 228.377 47.2765C228.284 47.4572 228.14 47.6116 228.052 47.7944C227.423 49.1102 226.802 50.4302 226.103 51.7917C226.017 51.6965 226.006 51.5584 225.979 51.3176C227.167 48.7736 228.402 46.3467 229.569 43.8866C230.652 41.6049 231.626 39.2701 232.721 36.9946C233.176 36.0476 233.821 35.1937 234.514 34.2575C234.725 34.1875 234.782 34.1364 234.821 34.0643C234.858 34.0409 234.894 34.0175 234.996 33.9929Z" fill="#FAD762"/>
<path d="M234.7 32.9751C234.974 33.1046 235.311 33.2975 235.648 33.4905C235.507 33.6609 235.366 33.8314 235.138 33.9974C234.955 33.6749 234.859 33.3568 234.7 32.9751Z" fill="#FAD762"/>
<path d="M234.761 34.0654C234.783 34.1365 234.725 34.1878 234.592 34.2298C234.564 34.1586 234.619 34.1003 234.761 34.0654Z" fill="#FAD762"/>
<path d="M165.327 21.2872C165.223 21.3551 165.128 21.3675 164.961 21.3779C164.991 21.2977 165.092 21.2194 165.26 21.1304C165.327 21.1196 165.334 21.2316 165.327 21.2872Z" fill="#FAD762"/>
<path d="M111.598 178.908C112.422 178.025 113.089 177.977 113.828 178.94C114.471 179.778 115.25 180.509 116.176 181.512C114.427 182.77 112.71 184.135 110.87 185.303C106.548 188.046 101.655 189.183 96.7404 190.224C96.342 190.309 95.8824 190.286 95.558 190.488C95.2165 190.701 94.7827 191.115 94.7694 191.457C94.6758 193.845 94.6434 196.237 94.6942 198.626C94.7019 198.99 95.1761 199.538 95.5461 199.663C96.5444 200.001 97.5974 200.187 98.6393 200.372C99.3604 200.5 99.6292 200.858 99.4548 201.569C99.4352 201.649 99.4242 201.731 99.4092 201.812C98.7608 205.314 98.7611 205.312 95.3541 204.592C94.0387 204.314 92.7265 204.016 91.4036 203.78C90.3853 203.598 89.9213 203.019 89.9288 201.997C89.9629 197.381 90.0033 192.765 90.0191 188.148C90.0226 187.127 90.6824 186.823 91.4735 186.617C94.7069 185.774 97.9519 184.975 101.173 184.085C104.939 183.045 108.454 181.453 111.598 178.908Z" fill="#086FE6"/>
<path d="M135.646 207.276C136.93 206.677 137.464 207.169 137.791 208.372C138.309 210.278 138.944 212.153 139.58 214.024C139.892 214.942 139.602 215.506 138.814 215.964C134.895 218.245 130.977 220.528 127.081 222.847C126.115 223.422 125.465 223.001 124.827 222.342C122.746 220.194 120.661 218.048 118.593 215.886C115.467 212.618 111.947 209.938 107.685 208.365C107.021 208.12 106.789 207.742 106.998 207.046C107.235 206.258 107.514 205.465 107.608 204.655C107.741 203.524 108.132 203.318 109.204 203.718C114.527 205.698 118.962 208.954 122.76 213.159C123.804 214.315 124.876 215.448 125.866 216.649C126.398 217.293 126.824 217.484 127.6 217.001C129.437 215.857 131.307 214.76 133.215 213.741C134.103 213.266 134.229 212.73 133.881 211.857C133.547 211.018 133.362 210.119 133.039 209.275C132.755 208.531 132.907 208.11 133.693 207.906C134.323 207.743 134.935 207.507 135.646 207.276Z" fill="#086FE6"/>
<path d="M125.047 172.671C124.845 172.888 124.712 173.045 124.566 173.188C123.906 173.833 123.242 174.473 122.579 175.115C121.56 174.18 120.521 173.266 119.55 172.282C119.436 172.166 119.61 171.586 119.806 171.358C121.25 169.677 122.74 168.037 124.202 166.373C124.781 165.714 125.407 165.617 126.158 166.061C130.1 168.39 134.045 170.715 137.995 173.03C138.8 173.502 138.961 174.128 138.708 175.016C137.849 178.028 137.033 181.052 136.216 184.076C135.044 188.418 134.477 192.809 135.298 197.292C135.418 197.943 135.283 198.286 134.605 198.454C133.394 198.755 132.201 199.135 130.764 199.551C130.544 197.636 130.277 195.937 130.165 194.228C129.798 188.596 131.173 183.261 132.978 178.007C133.656 176.033 133.646 176.024 131.873 174.968C130.362 174.068 128.806 173.24 127.344 172.267C126.414 171.648 125.731 171.644 125.047 172.671Z" fill="#086FE6"/>
<path d="M111.608 173.595C111.293 173.263 111.008 173.02 110.789 172.726C110.258 172.014 109.678 172.055 108.983 172.476C107.205 173.554 105.437 174.655 103.606 175.636C102.668 176.138 102.542 176.75 102.865 177.651C103.169 178.5 103.395 179.379 103.722 180.218C104.004 180.942 103.75 181.298 103.078 181.495C102.258 181.737 101.444 181.997 100.627 182.248C99.7568 182.515 99.2936 182.221 99.0235 181.301C98.4223 179.253 97.7206 177.235 97.0477 175.209C96.7417 174.288 97.2826 173.829 97.9532 173.435C100.765 171.782 103.58 170.133 106.393 168.48C107.342 167.923 108.32 167.408 109.226 166.787C110.341 166.022 111.195 166.212 112.1 167.184C114.414 169.673 116.757 172.138 119.155 174.544C121.928 177.326 125.11 179.519 128.785 180.91C129.682 181.25 130.033 181.694 129.64 182.649C129.424 183.176 129.312 183.751 129.191 184.313C128.796 186.157 128.794 186.182 127.105 185.526C123.114 183.977 119.501 181.8 116.462 178.732C114.825 177.08 113.263 175.354 111.608 173.595Z" fill="#7AC4F8"/>
<path d="M113.867 214.357C115.017 215.214 116.105 216.091 117.139 217.027C117.262 217.138 117.199 217.671 117.043 217.85C115.544 219.577 113.981 221.246 112.493 222.982C111.847 223.736 111.161 223.721 110.432 223.296C106.521 221.014 102.62 218.712 98.724 216.404C97.9051 215.919 97.76 215.247 98.0362 214.296C99.0324 210.864 100.013 207.425 100.861 203.953C101.814 200.054 102.16 196.091 101.427 192.101C101.302 191.418 101.426 191.126 102.108 190.969C103.058 190.751 103.99 190.449 104.916 190.141C105.671 189.89 106.014 190.064 106.155 190.92C107.131 196.846 106.609 202.635 104.72 208.315C104.254 209.719 103.75 211.114 103.391 212.546C103.298 212.914 103.562 213.609 103.876 213.809C105.802 215.037 107.802 216.145 109.75 217.338C110.455 217.77 110.84 217.652 111.35 216.982C112.066 216.044 112.967 215.25 113.867 214.357Z" fill="#7AC4F8"/>
<path d="M128.961 208.109C127.527 209.061 126.13 209.909 124.823 210.881C124.159 211.375 123.701 211.421 123.155 210.799C122.398 209.938 121.614 209.1 120.715 208.113C121.15 207.725 121.686 207.192 122.276 206.729C126.285 203.582 130.715 201.348 135.726 200.349C137.479 199.999 139.22 199.575 140.939 199.084C141.325 198.974 141.851 198.46 141.874 198.103C142.019 195.804 142.016 193.495 142.119 191.193C142.155 190.374 141.848 189.978 141.076 189.828C140.079 189.633 139.096 189.368 138.1 189.166C137.334 189.011 137.094 188.574 137.276 187.832C137.492 186.954 137.697 186.074 137.897 185.192C138.034 184.587 138.265 184.266 138.996 184.434C141.132 184.927 143.282 185.357 145.431 185.783C146.341 185.963 146.751 186.483 146.748 187.409C146.737 192.03 146.731 196.651 146.738 201.272C146.739 202.217 146.279 202.66 145.401 202.887C141.74 203.834 138.065 204.742 134.444 205.832C132.588 206.391 130.835 207.304 128.961 208.109Z" fill="#7AC4F8"/>
<path d="M153.804 102.106C153.546 102.259 153.288 102.413 152.888 102.583C152.692 102.668 152.637 102.736 152.583 102.803C152.583 102.803 152.615 102.809 152.503 102.806C152.071 102.845 151.748 102.87 151.432 102.929C147.732 103.624 144.584 102.402 142.876 99.5225C139.389 93.6424 143.523 85.3295 149.761 84.9298C152.313 84.7663 154.624 85.0084 156.462 86.8698C157.321 87.7397 157.869 88.9247 158.536 90.0659C158.689 91.3398 158.864 92.5145 159.003 93.7792C158.497 95.8225 158.088 97.8158 156.655 99.3379C155.748 100.302 154.757 101.186 153.804 102.106Z" fill="#030302"/>
<path d="M192.177 103.488C195.472 101.409 201.201 102.779 203.255 106.3C204.511 108.453 204.47 110.55 204.481 112.76C204.492 115.088 203.36 116.988 202.05 118.814C200.059 121.588 197.334 122.952 194.024 122.858C190.36 122.754 188.025 120.547 186.905 117.469C186.059 115.145 185.886 112.719 186.695 110.357C187.687 107.462 189.259 104.966 192.177 103.488ZM192.115 122.008C192.706 122.133 193.298 122.367 193.888 122.364C196.916 122.348 199.409 121.284 201.373 118.798C204.268 115.134 204.887 111.305 202.913 107.019C201.071 103.023 196.385 102.299 192.994 103.636C189.194 105.134 186.038 110.745 186.849 115.024C187.46 118.251 188.755 120.746 192.115 122.008Z" fill="#FAD762"/>
<path d="M158.557 89.9668C157.869 88.9246 157.321 87.7396 156.462 86.8698C154.624 85.0084 152.312 84.7663 149.76 84.9298C143.523 85.3295 139.388 93.6423 142.876 99.5224C144.584 102.402 147.731 103.624 151.431 102.929C151.748 102.87 152.071 102.845 152.5 102.79C151.62 103.097 150.63 103.682 149.641 103.681C147.914 103.678 146.168 103.401 144.739 102.184C144.541 102.015 144.135 102.096 143.644 102.041C142.98 100.663 141.967 99.1701 141.526 97.5205C140.514 93.7327 141.258 90.3177 144.017 87.3309C146.337 84.8191 149.09 83.9399 152.334 84.2915C154.845 84.5635 158.664 86.7948 158.706 89.8672C158.655 89.9669 158.557 89.9668 158.557 89.9668Z" fill="#FAD762"/>
<path d="M203.028 130.596C202.846 132.156 201.277 133.407 199.424 133.53C195.423 133.796 191.577 133.219 188.023 131.232C186.962 130.639 186.017 129.902 185.477 128.721C185.057 127.805 185.156 126.475 186.017 125.954C186.97 125.379 188.044 124.847 189.124 124.679C193.171 124.052 196.874 125.459 200.449 127.109C201.753 127.71 202.805 128.87 203.028 130.596ZM200.462 127.825C198.442 127.016 196.477 125.972 194.386 125.47C192.608 125.043 190.679 125.134 188.825 125.21C188.027 125.243 187.165 125.693 186.487 126.176C185.725 126.717 185.379 127.622 185.978 128.503C186.444 129.187 187.01 129.871 187.682 130.329C191.083 132.644 194.921 133.236 198.925 133.037C200.349 132.966 201.871 132.665 202.41 131.224C202.985 129.686 201.628 128.803 200.462 127.825Z" fill="#FAD762"/>
<path d="M134.793 107.26C134.74 104.511 137.515 103.989 139.7 104.124C143.024 104.33 145.961 105.764 148.812 107.251C149.72 107.725 150.274 109.259 150.586 110.42C150.815 111.275 149.39 112.572 148.29 112.751C147.256 112.92 146.193 112.908 145.145 113.001C144.662 113.044 144.068 113.371 143.721 113.188C140.927 111.706 137.456 111.485 135.378 108.678C135.099 108.302 134.984 107.802 134.793 107.26ZM138.92 110.666C141.919 112.14 145.027 112.978 148.372 112.183C149.986 111.799 150.543 110.203 149.432 109.024C148.705 108.252 147.821 107.603 146.924 107.032C144.147 105.266 141.089 104.582 137.822 104.763C136.627 104.83 135.923 105.394 135.446 106.517C134.994 107.584 135.606 108.229 136.187 108.774C136.945 109.485 137.892 109.988 138.92 110.666Z" fill="#FAD762"/>
<path d="M161.198 117.455C160.908 117.254 160.477 117.119 160.351 116.841C159.101 114.092 158.545 111.213 159.295 108.235C159.538 107.272 160.068 106.295 160.724 105.559C161.135 105.097 162.045 104.84 162.695 104.899C164.248 105.042 165.725 105.398 167.103 106.373C169.474 108.051 172.24 108.901 175.055 109.548C176.112 109.791 177.152 110.107 178.256 110.538C178.306 110.741 178.3 110.796 178.197 110.823C176.722 110.487 175.326 110.248 173.972 109.858C171.235 109.069 168.604 108.044 166.203 106.424C164.872 105.526 163.246 105.081 161.696 105.636C161.067 105.861 160.594 106.818 160.258 107.54C158.649 111 159.65 114.203 161.297 117.349C161.264 117.384 161.198 117.455 161.198 117.455Z" fill="#FAD762"/>
<path d="M178.294 110.851C178.3 110.796 178.306 110.741 178.319 110.605C179.978 110.655 180.986 111.722 181.018 113.349C181.083 116.714 178.985 118.696 176.547 120.418C175.902 120.874 175.087 121.082 174.257 121.338C174.162 121.229 174.161 121.185 174.213 121.077C176.374 120.131 178.072 118.743 179.475 116.918C181.276 114.578 180.775 111.822 178.294 110.851Z" fill="#FAD762"/>
<path d="M174.16 121.142C174.161 121.185 174.162 121.229 174.164 121.337C172.226 122.518 170.195 122.127 168.153 121.817C165.265 121.379 162.934 120.039 161.214 117.537C161.198 117.455 161.264 117.384 161.373 117.384C161.746 117.634 161.986 117.92 162.28 118.128C163.493 118.984 164.622 120.086 165.968 120.602C168.595 121.61 171.365 121.977 174.16 121.142Z" fill="#FAD762"/>
<path d="M153.899 102.103C154.757 101.186 155.748 100.302 156.655 99.3379C158.088 97.8158 158.497 95.8225 159.055 93.8228C159.176 93.9057 159.21 94.0347 159.245 94.1638C159.245 94.1638 159.242 94.1742 159.174 94.241C159.07 94.6721 159.034 95.0363 158.998 95.4006C158.715 97.1361 158.046 98.7242 156.827 99.9604C156.003 100.795 154.947 101.395 153.899 102.103Z" fill="#FAD762"/>
<path d="M159.314 94.0928C159.21 94.0347 159.176 93.9056 159.09 93.7329C158.863 92.5145 158.689 91.3397 158.536 90.0659C158.558 89.9668 158.656 89.9669 158.705 89.967C159.424 91.2454 159.713 92.5842 159.314 94.0928Z" fill="#FAD762"/>
<path d="M159.064 95.3394C159.034 95.0363 159.07 94.6721 159.17 94.2451C159.2 94.5477 159.165 94.913 159.064 95.3394Z" fill="#FAD762"/>
<path d="M224.474 74.3816C224.5 74.5085 224.458 74.6437 224.356 74.8188C224.333 74.7024 224.37 74.5461 224.474 74.3816Z" fill="#FAD762"/>
<path d="M152.644 102.794C152.637 102.736 152.692 102.668 152.814 102.607C152.823 102.672 152.764 102.728 152.644 102.794Z" fill="#FAD762"/>
<path d="M226.466 137.044C226.491 137.09 226.452 137.148 226.352 137.221C226.318 137.171 226.354 137.111 226.466 137.044Z" fill="#FAD762"/>
<path d="M110.521 124.82C110.466 124.844 110.411 124.795 110.355 124.673C110.409 124.65 110.465 124.699 110.521 124.82Z" fill="#FAD762"/>
<path d="M211.569 162.311C211.609 162.384 211.56 162.446 211.429 162.505C211.417 162.455 211.462 162.388 211.569 162.311Z" fill="#FAD762"/>
<path d="M84.0291 260.088C84.0399 260.159 83.9371 260.275 83.8346 260.275C80.2386 260.262 76.6425 260.238 72.9756 260.142C76.5751 260.072 80.2454 260.075 84.0291 260.088Z" fill="#FAD762"/>
<path d="M118.519 273.712C118.183 273.758 117.746 273.794 117.251 273.765C117.601 273.701 118.009 273.701 118.519 273.712Z" fill="#FAD762"/>
<path d="M120.965 273.711C120.631 273.762 120.197 273.801 119.701 273.781C120.048 273.715 120.456 273.707 120.965 273.711Z" fill="#FAD762"/>
<path d="M38.9949 252.873C38.9149 252.867 38.9014 252.763 38.8975 252.712C39.0302 252.694 39.1669 252.729 39.35 252.82C39.2893 252.877 39.1821 252.878 38.9949 252.873Z" fill="#FAD762"/>
<path d="M116.349 273.461C116.295 273.501 116.163 273.531 115.996 273.514C116.065 273.461 116.168 273.456 116.349 273.461Z" fill="#FAD762"/>
<path d="M18.8094 239.951C18.8334 240.003 18.7207 240.004 18.6646 240.001C18.6084 239.997 18.6031 239.878 18.6061 239.819C18.6813 239.789 18.74 239.835 18.8094 239.951Z" fill="#FAD762"/>
<path d="M192.028 121.965C188.755 120.746 187.46 118.251 186.849 115.024C186.038 110.745 189.194 105.134 192.994 103.636C196.385 102.299 201.071 103.023 202.913 107.019C204.887 111.305 204.268 115.134 201.373 118.798C199.409 121.284 196.916 122.348 193.888 122.364C193.298 122.367 192.706 122.133 192.028 121.965Z" fill="#030302"/>
<path d="M200.539 127.872C201.628 128.803 202.985 129.686 202.41 131.224C201.871 132.665 200.349 132.966 198.925 133.037C194.922 133.236 191.083 132.644 187.682 130.329C187.01 129.872 186.444 129.187 185.978 128.503C185.379 127.622 185.725 126.717 186.487 126.176C187.165 125.693 188.027 125.243 188.825 125.21C190.679 125.134 192.608 125.043 194.386 125.47C196.477 125.972 198.442 127.016 200.539 127.872ZM199.593 128.701C195.739 126.263 189.25 125.628 187.007 127.619C187.463 128.075 187.847 128.619 188.364 128.95C191.67 131.067 195.32 131.81 199.179 131.486C199.813 131.432 200.41 130.941 201.023 130.652C200.676 130.131 200.331 129.608 199.977 129.091C199.909 128.991 199.806 128.916 199.593 128.701Z" fill="#120C0B"/>
<path d="M138.838 110.623C137.891 109.988 136.944 109.485 136.187 108.774C135.606 108.229 134.994 107.584 135.446 106.517C135.923 105.394 136.626 104.83 137.821 104.763C141.089 104.582 144.146 105.266 146.923 107.032C147.82 107.603 148.705 108.252 149.432 109.024C150.543 110.203 149.986 111.799 148.372 112.183C145.026 112.978 141.919 112.14 138.838 110.623ZM145.251 107.183C144.67 107.011 144.062 106.898 143.512 106.655C141.678 105.843 139.802 105.944 137.914 106.33C137.514 106.412 137.148 106.663 136.54 106.938C137.176 107.531 137.573 108.105 138.118 108.372C139.739 109.17 141.385 109.945 143.087 110.537C144.253 110.943 145.529 111.198 146.755 111.191C147.409 111.187 148.293 110.634 148.65 110.059C149.089 109.354 148.268 108.976 147.69 108.648C146.921 108.21 146.178 107.726 145.251 107.183Z" fill="#130F0D"/>
<path d="M174.214 121.077C171.365 121.977 168.595 121.61 165.968 120.602C164.622 120.086 163.494 118.984 162.281 118.127C161.986 117.92 161.746 117.634 161.406 117.348C159.65 114.203 158.649 111 160.258 107.54C160.594 106.818 161.068 105.861 161.696 105.636C163.247 105.081 164.872 105.526 166.203 106.424C168.605 108.044 171.235 109.069 173.972 109.857C175.326 110.248 176.723 110.487 178.197 110.823C180.775 111.822 181.276 114.578 179.476 116.918C178.072 118.743 176.374 120.131 174.214 121.077ZM162.533 116.19C165.803 120.375 171 121.415 175.464 118.779C173.602 115.817 171.189 113.809 169.026 113.435C168.55 114.112 168.746 115.367 167.151 115.461C167.439 114.488 167.68 113.673 167.928 112.834C165.725 112.206 163.483 111.845 161.171 112.785C161.641 113.998 162.036 115.016 162.533 116.19ZM178.792 112.64C178.504 112.513 178.227 112.338 177.926 112.268C173.538 111.254 169.175 110.179 165.415 107.478C165.088 107.244 164.696 107.089 164.317 106.946C162.624 106.305 161.869 106.448 161.394 107.761C160.945 109 160.681 110.334 161.261 111.728C164.288 110.474 167.182 111.112 170.027 112.136C172.925 113.179 175.167 115.092 176.971 117.875C177.627 116.959 178.355 116.129 178.861 115.177C179.24 114.463 179.699 113.599 178.792 112.64Z" fill="#130F0D"/>
<path d="M199.656 128.765C199.806 128.915 199.909 128.991 199.977 129.091C200.331 129.608 200.675 130.131 201.023 130.651C200.409 130.941 199.812 131.432 199.179 131.486C195.32 131.81 191.67 131.066 188.364 128.95C187.847 128.619 187.462 128.075 187.007 127.619C189.25 125.627 195.739 126.263 199.656 128.765Z" fill="#D88FB2"/>
<path d="M145.338 107.223C146.179 107.726 146.922 108.21 147.691 108.647C148.269 108.976 149.09 109.354 148.651 110.059C148.294 110.634 147.41 111.187 146.756 111.191C145.53 111.198 144.254 110.943 143.087 110.537C141.386 109.945 139.74 109.17 138.118 108.372C137.574 108.105 137.177 107.531 136.541 106.938C137.149 106.663 137.515 106.412 137.914 106.33C139.803 105.944 141.679 105.843 143.513 106.655C144.063 106.898 144.671 107.01 145.338 107.223Z" fill="#D88FB2"/>
<path d="M162.482 116.112C162.036 115.016 161.641 113.998 161.171 112.785C163.483 111.845 165.724 112.206 167.928 112.834C167.679 113.674 167.439 114.488 167.151 115.461C168.746 115.367 168.549 114.113 169.026 113.435C171.189 113.809 173.601 115.817 175.463 118.779C171 121.415 165.803 120.375 162.482 116.112Z" fill="#DA8FB3"/>
<path d="M178.858 112.713C179.699 113.599 179.24 114.463 178.861 115.177C178.355 116.129 177.627 116.959 176.97 117.875C175.167 115.092 172.925 113.179 170.027 112.136C167.182 111.112 164.288 110.474 161.261 111.728C160.681 110.334 160.945 109 161.394 107.761C161.869 106.448 162.623 106.305 164.317 106.946C164.696 107.089 165.088 107.244 165.415 107.478C169.175 110.179 173.538 111.254 177.926 112.268C178.227 112.338 178.504 112.514 178.858 112.713Z" fill="#F0F0EF"/>
</g>
<defs>
<clipPath id="clip0_652_1655">
<rect width="250" height="276" fill="white"/>
</clipPath>
</defs>
</svg>
