<svg width="310" height="310" viewBox="0 0 310 310" fill="none" xmlns="http://www.w3.org/2000/svg">
<path d="M82.2083 169.597L150.909 239.017C151.803 239.919 153.017 240.429 154.288 240.436C154.297 240.436 154.304 240.436 154.312 240.436C155.572 240.436 156.782 239.939 157.681 239.052L227.491 169.954C246.651 150.995 246.81 119.984 227.849 100.826C208.89 81.6685 177.878 81.5094 158.721 100.471L154.993 104.157L151.698 100.826C132.739 81.6685 101.728 81.5072 82.568 100.469C63.4105 119.428 63.2492 150.439 82.2083 169.597Z" fill="#0A7CE8"/>
<g clip-path="url(#clip0_675_2666)">
<path d="M136.254 154.531C136.254 153.818 136.254 153.106 136.254 152.356C137.586 152.013 138.926 151.658 140.271 151.324C141.29 151.071 141.361 151.074 141.519 152.151C141.749 153.714 141.871 155.293 142 156.96C141.946 158.127 141.922 159.198 141.921 160.27C141.921 160.605 141.986 160.941 142.021 161.277C141.906 162.435 141.84 163.6 141.663 164.748C141.421 166.323 141.206 167.915 140.779 169.445C140.184 171.579 139.416 173.665 138.693 175.761C138.581 176.086 138.564 176.23 138.905 176.419C140.584 177.351 142.241 178.322 143.909 179.273C144.65 179.696 145.392 180.121 146.153 180.506C146.308 180.584 146.638 180.571 146.74 180.462C147.378 179.787 147.976 179.074 148.585 178.372C149.007 177.884 149.407 177.375 149.859 176.916C149.973 176.801 150.32 176.744 150.438 176.829C151.233 177.402 152.024 177.989 152.757 178.637C153.173 179.004 153.503 179.478 153.814 179.941C153.899 180.067 153.845 180.379 153.74 180.522C152.952 181.583 152.144 182.631 151.324 183.668C150.438 184.789 149.531 185.893 148.673 187.035C148.379 187.066 148.046 187.066 147.656 187.066C147.411 186.896 147.246 186.681 147.027 186.564C145.284 185.633 143.527 184.727 141.782 183.801C140.228 182.977 138.688 182.125 137.132 181.306C135.529 180.464 133.912 179.647 132.23 178.782C132.373 178.301 132.515 177.832 132.652 177.362C133.472 174.546 134.368 171.748 135.082 168.906C135.494 167.265 135.659 165.557 135.849 163.869C136.035 162.226 136.111 160.571 136.274 158.824C136.329 158.096 136.366 157.465 136.355 156.834C136.343 156.066 136.29 155.299 136.254 154.531Z" fill="white"/>
<path d="M172.663 155.873C172.832 157.044 173.004 158.215 173.167 159.387C173.218 159.756 173.17 160.052 172.713 160.176C171.439 160.523 170.174 160.904 168.906 161.276C168.343 161.442 168.168 161.283 168.102 160.718C167.941 159.344 167.731 157.975 167.542 156.605C167.52 156.445 167.488 156.283 167.491 156.123C167.528 154.31 167.474 152.488 167.638 150.687C167.81 148.8 168.08 146.914 168.647 145.086C169.472 142.425 170.205 139.732 171.125 137.104C171.362 136.427 171.101 136.278 170.713 136.053C169.018 135.074 167.306 134.123 165.61 133.144C164.779 132.665 163.97 132.147 163.12 131.627C162.116 132.76 161.143 133.861 160.166 134.958C160.016 135.127 159.876 135.339 159.684 135.424C159.517 135.498 159.206 135.505 159.089 135.399C157.969 134.382 156.878 133.334 155.715 132.236C156.545 131.341 157.357 130.488 158.143 129.612C158.983 128.674 159.769 127.686 160.638 126.775C161.068 126.323 161.629 125.994 162.094 125.571C162.189 125.532 162.321 125.532 162.502 125.532C162.669 125.629 162.774 125.746 162.904 125.819C164.49 126.711 166.094 127.572 167.665 128.49C170.569 130.186 173.457 131.909 176.345 133.633C176.961 134.001 177.063 134.39 176.885 135.02C176.501 136.377 176.152 137.743 175.778 139.102C175.478 140.19 175.16 141.273 174.854 142.359C174.58 143.333 174.299 144.305 174.044 145.284C173.769 146.343 173.477 147.4 173.273 148.473C173.067 149.554 172.961 150.653 172.81 151.744C172.772 152.02 172.728 152.297 172.646 152.666C172.625 153.797 172.644 154.835 172.663 155.873Z" fill="white"/>
<path d="M129.202 161.513C130.181 161.718 131.16 161.922 132.139 162.126C132.729 162.248 133.315 162.396 133.91 162.485C134.394 162.558 134.448 162.866 134.368 163.226C134.096 164.451 133.788 165.668 133.516 166.893C133.404 167.396 133.077 167.489 132.651 167.402C130.684 167.001 128.702 166.655 126.76 166.154C125.892 165.93 124.894 165.965 124.157 165.287C124.123 165.235 124.123 165.143 124.159 164.967C124.209 162.654 124.223 160.424 124.241 158.138C124.248 157.288 124.263 156.495 124.247 155.702C124.239 155.348 124.166 154.995 124.123 154.641C124.123 152.632 124.123 150.624 124.123 148.558C125.508 147.616 127.13 147.445 128.667 147.028C131.105 146.366 133.545 145.703 136.002 145.113C137.997 144.634 139.921 143.965 141.758 143.082C143.121 142.427 144.441 141.67 145.723 140.868C146.616 140.31 147.426 139.616 148.243 138.946C148.602 138.651 148.871 138.64 149.196 138.959C150.188 139.934 151.197 140.894 152.174 141.884C152.244 141.955 152.167 142.298 152.054 142.396C151.416 142.952 150.773 143.51 150.081 143.997C148.834 144.876 147.611 145.816 146.27 146.53C144.512 147.467 142.697 148.346 140.819 149.004C138.48 149.824 136.063 150.433 133.659 151.056C132.225 151.427 130.754 151.651 129.213 151.944C129.101 152.163 129.057 152.379 129.053 152.596C129.029 153.982 129.013 155.368 128.986 156.809C129.005 158.377 129.033 159.889 129.077 161.427C129.13 161.474 129.166 161.494 129.202 161.513Z" fill="white"/>
<path d="M124.238 158.195C124.223 160.424 124.208 162.654 124.158 164.921C124.123 162.745 124.123 160.531 124.152 158.258C124.18 158.199 124.238 158.195 124.238 158.195Z" fill="white"/>
<path d="M124.241 158.138C124.238 158.195 124.18 158.199 124.152 158.201C124.123 157.054 124.123 155.905 124.123 154.699C124.166 154.995 124.239 155.348 124.247 155.702C124.263 156.495 124.248 157.288 124.241 158.138Z" fill="white"/>
<path d="M138.077 130.81C139.099 130.215 140.065 129.608 141.052 129.038C142.763 128.049 144.493 127.092 146.202 126.1C146.605 125.866 146.77 125.926 147.11 126.29C149.262 128.59 151.408 130.903 153.69 133.073C155.104 134.418 156.732 135.547 158.306 136.717C159.646 137.714 161.011 138.688 162.429 139.57C163.768 140.402 165.18 141.119 166.579 141.853C167.307 142.234 167.433 142.375 167.242 143.126C166.93 144.357 166.585 145.58 166.267 146.809C166.162 147.214 166.045 147.345 165.558 147.176C162.793 146.219 160.209 144.893 157.725 143.38C154.534 141.436 151.627 139.121 149.084 136.384C148.038 135.258 147.097 134.037 146.107 132.861C145.989 132.721 145.859 132.59 145.713 132.431C144.622 133.053 143.535 133.664 142.456 134.289C141.043 135.107 139.642 135.946 138.224 136.755C137.916 136.931 137.797 137.045 137.943 137.444C138.504 138.977 139.001 140.532 139.538 142.125C138.091 142.917 136.608 143.59 134.912 143.57C134.7 143.568 134.376 143.351 134.298 143.157C133.265 140.583 132.268 137.994 131.257 135.411C131.2 135.265 131.111 135.131 130.992 134.908C133.345 133.54 135.688 132.177 138.077 130.81Z" fill="white"/>
<path d="M180.365 155.379C180.365 155.379 180.345 155.326 180.344 155.26C180.341 155.168 180.34 155.143 180.339 155.117C180.339 155.117 180.345 155.061 180.381 154.991C180.4 153.886 180.382 152.851 180.364 151.816C180.364 151.816 180.345 151.767 180.326 151.711C180.272 151.629 180.236 151.603 180.201 151.576C179.235 151.4 178.27 151.225 177.305 151.048C176.694 150.936 176.085 150.815 175.473 150.713C175.133 150.657 175.02 150.492 175.023 150.142C175.034 148.492 175.407 146.936 176.207 145.418C179.229 145.935 182.286 146.458 185.411 146.992C185.411 147.152 185.411 147.372 185.411 147.592C185.411 153.098 185.396 158.605 185.43 164.111C185.434 164.763 185.191 164.959 184.624 165.088C181.979 165.689 179.324 166.257 176.705 166.96C172.824 168.002 169.185 169.663 165.651 171.543C164.28 172.272 162.968 173.112 161.641 173.921C161.024 174.297 160.761 174.294 160.264 173.801C159.346 172.889 158.441 171.965 157.505 171.073C157.16 170.744 157.173 170.518 157.546 170.251C158.882 169.296 160.175 168.278 161.554 167.39C162.827 166.569 164.177 165.86 165.516 165.145C168.465 163.573 171.602 162.472 174.843 161.689C176.321 161.331 177.845 161.16 179.349 160.904C179.565 160.867 179.78 160.824 180.064 160.804C180.174 160.827 180.202 160.808 180.217 160.765C180.257 160.71 180.298 160.655 180.378 160.525C180.434 159.015 180.457 157.581 180.463 156.147C180.464 155.891 180.399 155.635 180.365 155.379Z" fill="white"/>
<path d="M153.385 170.52C154.069 171.036 154.764 171.475 155.365 172.016C156.518 173.056 157.661 174.114 158.73 175.237C160.31 176.896 161.824 178.617 163.363 180.314C163.606 180.582 163.803 180.606 164.148 180.403C165.913 179.363 167.707 178.373 169.485 177.355C170.3 176.888 171.1 176.398 172.003 175.86C171.824 175.303 171.638 174.701 171.436 174.105C171.118 173.168 170.767 172.243 170.477 171.298C170.37 170.953 170.461 170.667 170.931 170.542C172.189 170.208 173.428 169.803 174.677 169.435C174.846 169.385 175.031 169.387 175.277 169.357C176.073 171.854 176.821 174.334 177.661 176.783C178.061 177.948 177.929 178.235 176.842 178.85C175.316 179.713 173.783 180.562 172.266 181.441C170.22 182.626 168.189 183.839 166.146 185.029C165.418 185.453 164.68 185.863 163.931 186.251C163.204 186.628 162.748 186.502 162.188 185.923C161.623 185.339 161.001 184.811 160.425 184.237C159.737 183.551 159.077 182.837 158.396 182.144C157.737 181.474 157.058 180.822 156.402 180.15C155.564 179.292 154.791 178.364 153.895 177.572C152.69 176.504 151.393 175.537 150.137 174.525C148.691 173.359 147.08 172.461 145.403 171.677C144.592 171.298 143.775 170.914 142.926 170.638C142.406 170.469 142.332 170.146 142.425 169.759C142.751 168.386 143.121 167.023 143.506 165.538C144.476 165.883 145.421 166.18 146.335 166.553C148.649 167.495 150.792 168.758 152.883 170.109C153.051 170.218 153.197 170.361 153.385 170.52Z" fill="white"/>
<path d="M129.061 161.401C129.034 159.889 129.006 158.376 129.016 156.804C129.092 156.735 129.131 156.729 129.171 156.726C129.176 158.242 129.182 159.759 129.151 161.333C129.114 161.392 129.061 161.401 129.061 161.401Z" fill="white"/>
<path d="M129.181 156.669C129.132 156.729 129.092 156.735 129.025 156.748C129.014 155.368 129.03 153.982 129.055 152.596C129.058 152.379 129.102 152.162 129.164 151.948C129.197 153.504 129.193 155.059 129.181 156.669Z" fill="white"/>
<path d="M180.356 155.436C180.4 155.635 180.465 155.891 180.463 156.147C180.457 157.581 180.435 159.015 180.391 160.492C180.359 158.854 180.353 157.174 180.356 155.436Z" fill="white"/>
<path d="M136.245 154.587C136.289 155.299 136.342 156.066 136.355 156.834C136.365 157.465 136.328 158.096 136.283 158.767C136.247 157.419 136.242 156.031 136.245 154.587Z" fill="white"/>
<path d="M142.032 161.22C141.987 160.941 141.922 160.605 141.922 160.269C141.922 159.198 141.947 158.127 141.992 157.014C142.028 158.369 142.035 159.766 142.032 161.22Z" fill="white"/>
<path d="M180.356 151.874C180.383 152.851 180.4 153.886 180.392 154.964C180.359 153.982 180.353 152.956 180.356 151.874Z" fill="white"/>
<path d="M172.671 155.815C172.644 154.835 172.625 153.797 172.636 152.719C172.671 153.705 172.675 154.731 172.671 155.815Z" fill="white"/>
<path d="M180.211 151.61C180.236 151.602 180.272 151.629 180.323 151.685C180.299 151.691 180.261 151.667 180.211 151.61Z" fill="white"/>
<path d="M180.307 155.129C180.34 155.143 180.341 155.168 180.341 155.232C180.318 155.227 180.297 155.184 180.307 155.129Z" fill="white"/>
<path d="M180.188 160.774C180.203 160.808 180.174 160.828 180.116 160.813C180.1 160.803 180.158 160.783 180.188 160.774Z" fill="white"/>
<path d="M129.077 161.428C129.061 161.401 129.114 161.392 129.141 161.39C129.174 161.408 129.181 161.429 129.195 161.482C129.167 161.494 129.131 161.474 129.077 161.428Z" fill="white"/>
</g>
<path d="M82.1556 169.514L150.856 238.934C151.75 239.837 152.965 240.347 154.236 240.353C154.244 240.353 154.251 240.353 154.26 240.353C155.52 240.353 156.73 239.856 157.628 238.969L227.438 169.871C246.598 150.912 246.757 119.901 227.796 100.743C208.837 81.5858 177.825 81.4266 158.668 100.388L154.94 104.075L151.645 100.743C132.686 81.5858 101.675 81.4244 82.5153 100.386C63.3578 119.345 63.1964 150.356 82.1556 169.514ZM116.899 95.8378C127.033 95.8378 137.165 99.723 144.839 107.478L151.502 114.21C152.395 115.113 153.61 115.623 154.881 115.632C156.141 115.608 157.369 115.139 158.271 114.248L165.4 107.19C180.808 91.944 205.745 92.0726 220.991 107.478C236.24 122.883 236.109 147.821 220.704 163.067L154.294 228.796L88.9622 162.779C73.7138 147.374 73.8446 122.436 89.25 107.19C96.9025 99.6161 106.901 95.8378 116.899 95.8378Z" fill="white"/>
<mask id="mask0_675_2666" style="mask-type:luminance" maskUnits="userSpaceOnUse" x="125" y="0" width="61" height="72">
<path d="M125.299 0H185.019V71.8402H125.299V0Z" fill="white"/>
</mask>
<g mask="url(#mask0_675_2666)">
<path d="M130.098 71.6381C132.743 71.6381 134.886 69.4949 134.886 66.8503V51.1157C134.886 44.9348 137.657 39.1834 142.493 35.3332L144.815 33.4844C147.813 35.6014 151.467 36.8506 155.408 36.8506C159.147 36.8506 162.629 35.7278 165.538 33.8027L167.456 35.3332C172.29 39.1834 175.063 44.9348 175.063 51.1136V66.8503C175.063 69.4949 177.206 71.6381 179.851 71.6381C182.495 71.6381 184.636 69.4949 184.636 66.8503V51.1157C184.636 42.0025 180.551 33.5214 173.421 27.8442L171.893 26.6276C173.125 24.1574 173.822 21.3776 173.822 18.4365C173.822 8.28329 165.562 0.0224609 155.408 0.0224609C145.255 0.0224609 136.994 8.28329 136.994 18.4365C136.994 21.1814 137.603 23.7846 138.684 26.1261L136.528 27.8442C129.398 33.5214 125.311 42.0025 125.311 51.1136V66.8503C125.313 69.4949 127.456 71.6381 130.098 71.6381ZM155.408 9.59796C160.283 9.59796 164.249 13.5638 164.249 18.4365C164.249 23.3115 160.283 27.2773 155.408 27.2773C150.533 27.2773 146.57 23.3115 146.57 18.4365C146.57 13.5638 150.533 9.59796 155.408 9.59796Z" fill="white"/>
</g>
<path d="M179.851 238.386C177.206 238.386 175.063 240.53 175.063 243.172V258.909C175.063 265.088 172.292 270.841 167.458 274.689L165.136 276.54C162.136 274.421 158.484 273.174 154.54 273.174C150.801 273.174 147.32 274.297 144.411 276.22L142.493 274.691C137.659 270.841 134.886 265.09 134.886 258.909V243.172C134.886 240.53 132.743 238.386 130.098 238.386C127.456 238.386 125.312 240.53 125.312 243.172V258.909C125.312 268.022 129.4 276.503 136.528 282.18L138.056 283.397C136.824 285.865 136.126 288.645 136.126 291.586C136.126 301.739 144.387 310 154.54 310C164.694 310 172.955 301.739 172.955 291.586C172.955 288.843 172.346 286.238 171.265 283.896L173.421 282.18C180.55 276.503 184.636 268.02 184.636 258.909V243.172C184.638 240.53 182.495 238.386 179.851 238.386ZM154.54 300.427C149.665 300.427 145.702 296.461 145.702 291.586C145.702 286.713 149.665 282.747 154.54 282.747C159.415 282.747 163.381 286.713 163.381 291.586C163.381 296.461 159.415 300.427 154.54 300.427Z" fill="white"/>
<path d="M52.3207 75.4074L52.0112 78.1348C50.9843 87.1871 54.0911 96.0758 60.5358 102.521C61.4689 103.454 62.6942 103.922 63.9195 103.922C65.1448 103.922 66.37 103.454 67.3053 102.521C69.1738 100.65 69.1738 97.6194 67.3053 95.7509C62.934 91.3796 60.8279 85.3535 61.5234 79.2119L61.857 76.2729C65.5764 75.6363 69.0059 73.8769 71.7312 71.1516C74.3191 68.5637 76.0393 65.3413 76.7522 61.8334L79.1766 61.5587C85.3183 60.8632 91.3465 62.9693 95.7157 67.3406L106.843 78.4684C107.777 79.4037 109.002 79.8703 110.227 79.8703C111.452 79.8703 112.678 79.4037 113.611 78.4684C115.481 76.5978 115.481 73.5673 113.611 71.6988L102.485 60.571C96.0405 54.1285 87.154 51.0195 78.0996 52.0464L76.1679 52.2666C75.2762 49.6024 73.7762 47.1584 71.7312 45.1133C68.2537 41.6337 63.6295 39.7195 58.7109 39.7195C53.7924 39.7195 49.1682 41.6337 45.6907 45.1133C42.2111 48.5908 40.2969 53.215 40.2969 58.1336C40.2969 63.0521 42.2111 67.6763 45.6907 71.1538C47.6006 73.0637 49.8593 74.4982 52.3207 75.4074ZM52.4603 51.8807C54.1281 50.2107 56.3498 49.2928 58.7088 49.2928C61.0721 49.2928 63.2916 50.2107 64.9594 51.8807C66.6295 53.5508 67.5495 55.7702 67.5495 58.1314C67.5495 60.4925 66.6295 62.712 64.9594 64.382C63.2894 66.0521 61.0699 66.9721 58.7088 66.9721C56.3498 66.9721 54.1281 66.0521 52.4603 64.382C50.7902 62.712 49.8702 60.4925 49.8702 58.1314C49.8702 55.7724 50.7902 53.5508 52.4603 51.8807Z" fill="white"/>
<path d="M257.631 234.615L257.939 231.888C258.965 222.833 255.859 213.947 249.416 207.504L238.288 196.376C236.418 194.508 233.387 194.506 231.519 196.376C229.648 198.247 229.648 201.277 231.519 203.146L242.647 214.274C247.016 218.643 249.122 224.671 248.426 230.811L248.095 233.749C244.373 234.388 240.944 236.148 238.221 238.871C235.633 241.459 233.91 244.683 233.2 248.189L230.773 248.464C224.636 249.157 218.608 247.053 214.236 242.684L203.108 231.556C201.24 229.686 198.209 229.686 196.339 231.556C194.47 233.425 194.47 236.457 196.339 238.326L207.467 249.454C213.1 255.087 220.605 258.17 228.453 258.17C229.581 258.17 230.714 258.105 231.852 257.976L233.784 257.758C234.676 260.422 236.176 262.866 238.221 264.911C241.698 268.389 246.322 270.305 251.241 270.305C256.16 270.305 260.784 268.389 264.261 264.911C267.739 261.434 269.653 256.81 269.653 251.891C269.653 246.972 267.739 242.348 264.261 238.871C262.349 236.961 260.093 235.524 257.631 234.615ZM257.489 258.142C255.822 259.812 253.602 260.732 251.241 260.732C248.88 260.732 246.658 259.812 244.99 258.142H244.988C243.32 256.472 242.4 254.252 242.4 251.891C242.4 249.532 243.32 247.31 244.99 245.643C246.658 243.972 248.88 243.052 251.241 243.052C253.602 243.052 255.822 243.97 257.489 245.643C259.159 247.31 260.08 249.532 260.08 251.891C260.08 254.252 259.159 256.472 257.489 258.142Z" fill="white"/>
<path d="M106.841 231.556L95.7136 242.684C91.3445 247.053 85.314 249.159 79.1767 248.466L76.2378 248.132C75.6011 244.411 73.8417 240.981 71.1164 238.258C68.4718 235.613 65.2168 233.948 61.8004 233.25L61.5235 230.81C60.828 224.671 62.9341 218.645 67.3054 214.274L78.4311 203.146C80.3017 201.277 80.3017 198.247 78.4311 196.376C76.5626 194.508 73.5321 194.508 71.6615 196.376L60.5359 207.504C54.0912 213.949 50.9844 222.835 52.0112 231.89L52.2314 233.83C49.6152 234.707 47.1559 236.178 45.076 238.258C37.8965 245.438 37.8965 257.119 45.076 264.299C48.5534 267.776 53.1777 269.692 58.0962 269.692C63.0148 269.692 67.639 267.776 71.1164 264.299C73.0285 262.389 74.4631 260.13 75.3722 257.669L78.0997 257.978C79.2377 258.107 80.3714 258.17 81.5008 258.17C89.3474 258.17 96.8517 255.087 102.485 249.453L113.613 238.326C115.482 236.457 115.482 233.427 113.613 231.556C111.743 229.685 108.712 229.685 106.841 231.556ZM64.3469 257.529C62.6768 259.199 60.4574 260.117 58.0962 260.117C55.735 260.117 53.5156 259.199 51.8455 257.529C48.3986 254.082 48.3986 248.472 51.8455 245.028C55.2925 241.579 60.9 241.581 64.3469 245.028C66.0169 246.695 66.937 248.917 66.937 251.278C66.937 253.639 66.0169 255.859 64.3469 257.529Z" fill="white"/>
<path d="M199.724 79.8699C200.949 79.8699 202.175 79.4012 203.11 78.4659L214.238 67.3402C218.607 62.9689 224.637 60.8628 230.775 61.5583L233.714 61.8919C234.352 65.6113 236.112 69.0408 238.835 71.7661C241.423 74.354 244.645 76.0742 248.153 76.7871L248.428 79.2115C249.123 85.3532 247.017 91.3793 242.646 95.7484C240.778 97.619 240.778 100.65 242.648 102.518C243.581 103.453 244.807 103.92 246.032 103.92C247.257 103.92 248.482 103.453 249.418 102.518C255.86 96.0754 258.967 87.1867 257.94 78.1345L257.722 76.2028C260.386 75.3089 262.83 73.8089 264.875 71.7639C268.353 68.2865 270.269 63.6622 270.269 58.7437C270.269 53.8251 268.353 49.2009 264.875 45.7234C261.398 42.246 256.774 40.3296 251.855 40.3296C246.937 40.3296 242.312 42.246 238.835 45.7234C236.925 47.6355 235.491 49.892 234.579 52.3535L231.852 52.0439C222.8 51.0192 213.911 54.126 207.466 60.5685L196.34 71.6963C194.47 73.5648 194.47 76.5974 196.34 78.4659C197.274 79.4012 198.501 79.8699 199.724 79.8699ZM245.605 52.4952C247.275 50.8251 249.494 49.9051 251.855 49.9051C254.216 49.9051 256.438 50.8251 258.106 52.4952C259.776 54.1652 260.696 56.3847 260.696 58.7458C260.696 61.107 259.776 63.3265 258.106 64.9965C256.438 66.6644 254.216 67.5844 251.855 67.5844C249.494 67.5844 247.275 66.6666 245.605 64.9965C243.935 63.3265 243.017 61.107 243.017 58.7458C243.017 56.3847 243.935 54.1652 245.605 52.4952Z" fill="white"/>
<mask id="mask1_675_2666" style="mask-type:luminance" maskUnits="userSpaceOnUse" x="0" y="124" width="72" height="62">
<path d="M0 124.863H71.7203V185.142H0V124.863Z" fill="white"/>
</mask>
<g mask="url(#mask1_675_2666)">
<path d="M66.8142 184.675C69.4588 184.675 71.602 182.532 71.602 179.887C71.602 177.243 69.4588 175.099 66.8142 175.099H51.0774C44.8987 175.099 39.1473 172.328 35.2971 167.495L33.4461 165.173C35.5652 162.173 36.8145 158.519 36.8145 154.577C36.8145 150.838 35.6895 147.356 33.7665 144.45L35.2971 142.529C39.1451 137.696 44.8987 134.922 51.0774 134.922C53.722 134.922 55.8652 132.779 55.8652 130.137C55.8652 127.492 53.722 125.349 51.0774 125.349C41.9663 125.349 33.4831 129.437 27.808 136.564L26.5893 138.092C24.1213 136.861 21.3415 136.165 18.4004 136.165C8.24715 136.165 -0.0136719 144.424 -0.0136719 154.577C-0.0136719 164.73 8.24715 172.991 18.4004 172.991C21.1453 172.991 23.7485 172.383 26.09 171.304L27.808 173.46C33.4831 180.587 41.9663 184.675 51.0774 184.675H66.8142ZM9.56182 154.577C9.56182 149.704 13.5254 145.738 18.4004 145.738C23.2754 145.738 27.2412 149.704 27.2412 154.577C27.2412 159.452 23.2754 163.418 18.4004 163.418C13.5254 163.418 9.56182 159.452 9.56182 154.577Z" fill="white"/>
</g>
<path d="M291.551 137.031C288.806 137.031 286.203 137.639 283.861 138.72L282.143 136.564C276.466 129.437 267.985 125.349 258.874 125.349C256.229 125.349 254.086 127.492 254.086 130.135C254.086 132.779 256.229 134.922 258.874 134.922C265.053 134.922 270.804 137.696 274.654 142.529L276.505 144.851C274.386 147.849 273.137 151.503 273.137 155.445C273.137 159.184 274.262 162.666 276.185 165.574L274.654 167.495C270.806 172.328 265.053 175.099 258.874 175.099H243.137C240.493 175.099 238.352 177.243 238.352 179.887C238.352 182.532 240.493 184.675 243.137 184.675H258.874C267.985 184.675 276.466 180.587 282.143 173.458L283.36 171.932C285.83 173.163 288.61 173.859 291.551 173.859C301.704 173.859 309.965 165.6 309.965 155.445C309.965 145.292 301.704 137.031 291.551 137.031ZM291.551 164.286C286.676 164.286 282.71 160.32 282.71 155.445C282.71 150.572 286.676 146.606 291.551 146.606C296.426 146.606 300.392 150.572 300.392 155.445C300.392 160.32 296.426 164.286 291.551 164.286Z" fill="white"/>
<defs>
<clipPath id="clip0_675_2666">
<rect width="61.5343" height="61.5343" fill="white" transform="translate(124 125.409)"/>
</clipPath>
</defs>
</svg>
